solid CATIA STL
  facet normal  -0.000000e+000 -8.994209e-017 -1.000000e+000
    outer loop
      vertex  2.924496e+000  5.353254e+000 -4.814830e-016
      vertex  4.000000e+000  4.000000e+000 -3.597685e-016
      vertex -4.000000e+000  4.000000e+000 -3.597685e-016
    endloop
  endfacet
  facet normal  4.052821e-023 -8.994206e-017 -9.999999e-001
    outer loop
      vertex  2.924496e+000  5.353254e+000 -4.814830e-016
      vertex  4.957569e+000  3.554224e+000 -3.196744e-016
      vertex  4.000000e+000  4.000000e+000 -3.597685e-016
    endloop
  endfacet
  facet normal  3.242257e-023 -8.994207e-017 -9.999999e-001
    outer loop
      vertex -4.000000e+000 -4.000000e+000  3.597685e-016
      vertex -2.924496e+000 -5.353254e+000  4.814830e-016
      vertex -4.957569e+000 -3.554224e+000  3.196744e-016
    endloop
  endfacet
  facet normal  6.910671e-024 -8.994213e-017 -1.000000e+000
    outer loop
      vertex -4.000000e+000  4.000000e+000 -3.597685e-016
      vertex -4.000000e+000 -4.000000e+000  3.597685e-016
      vertex -4.957569e+000 -3.554224e+000  3.196744e-016
    endloop
  endfacet
  facet normal -2.048441e-023 -8.994211e-017 -1.000000e+000
    outer loop
      vertex -4.000000e+000  4.000000e+000 -3.597685e-016
      vertex -4.957569e+000 -3.554224e+000  3.196744e-016
      vertex -6.008736e+000 -1.051236e+000  9.455041e-017
    endloop
  endfacet
  facet normal  2.231726e-023 -8.994212e-017 -1.000000e+000
    outer loop
      vertex -4.000000e+000  4.000000e+000 -3.597685e-016
      vertex -6.008736e+000 -1.051236e+000  9.455041e-017
      vertex -5.869798e+000  1.659962e+000 -1.493005e-016
    endloop
  endfacet
  facet normal -3.757153e-023 -8.994212e-017 -1.000000e+000
    outer loop
      vertex -4.000000e+000  4.000000e+000 -3.597685e-016
      vertex -5.869798e+000  1.659962e+000 -1.493005e-016
      vertex -4.568275e+000  4.042384e+000 -3.635806e-016
    endloop
  endfacet
  facet normal -8.751937e-024 -8.994211e-017 -1.000000e+000
    outer loop
      vertex -4.000000e+000  4.000000e+000 -3.597685e-016
      vertex -4.568275e+000  4.042384e+000 -3.635806e-016
      vertex -2.361949e+000  5.624162e+000 -5.058490e-016
    endloop
  endfacet
  facet normal  9.250301e-024 -8.994213e-017 -9.999999e-001
    outer loop
      vertex -4.000000e+000  4.000000e+000 -3.597685e-016
      vertex -2.361949e+000  5.624162e+000 -5.058490e-016
      vertex  3.121900e-001  6.092006e+000 -5.479279e-016
    endloop
  endfacet
  facet normal  6.119755e-024 -8.994211e-017 -1.000000e+000
    outer loop
      vertex -4.000000e+000  4.000000e+000 -3.597685e-016
      vertex  3.121900e-001  6.092006e+000 -5.479279e-016
      vertex  2.924496e+000  5.353254e+000 -4.814830e-016
    endloop
  endfacet
  facet normal  2.745545e-023 -8.994207e-017 -9.999999e-001
    outer loop
      vertex  4.957569e+000  3.554224e+000 -3.196744e-016
      vertex  6.008736e+000  1.051236e+000 -9.455041e-017
      vertex  4.000000e+000  4.000000e+000 -3.597685e-016
    endloop
  endfacet
  facet normal  1.808115e-023 -8.994210e-017 -1.000000e+000
    outer loop
      vertex  4.000000e+000  4.000000e+000 -3.597685e-016
      vertex  6.008736e+000  1.051236e+000 -9.455041e-017
      vertex  5.869798e+000 -1.659962e+000  1.493005e-016
    endloop
  endfacet
  facet normal -1.415649e-023 -8.994212e-017 -1.000000e+000
    outer loop
      vertex  4.000000e+000  4.000000e+000 -3.597685e-016
      vertex  5.869798e+000 -1.659962e+000  1.493005e-016
      vertex  4.000000e+000 -4.000000e+000  3.597685e-016
    endloop
  endfacet
  facet normal -9.392881e-024 -8.994212e-017 -1.000000e+000
    outer loop
      vertex  4.000000e+000 -4.000000e+000  3.597685e-016
      vertex  5.869798e+000 -1.659962e+000  1.493005e-016
      vertex  4.568275e+000 -4.042384e+000  3.635806e-016
    endloop
  endfacet
  facet normal  0.000000e+000 -8.994198e-017 -1.000000e+000
    outer loop
      vertex  4.000000e+000 -4.000000e+000  3.597685e-016
      vertex  4.568275e+000 -4.042384e+000  3.635806e-016
      vertex -4.000000e+000 -4.000000e+000  3.597685e-016
    endloop
  endfacet
  facet normal -6.364503e-025 -8.994213e-017 -1.000000e+000
    outer loop
      vertex -4.000000e+000 -4.000000e+000  3.597685e-016
      vertex  4.568275e+000 -4.042384e+000  3.635806e-016
      vertex  2.361949e+000 -5.624162e+000  5.058490e-016
    endloop
  endfacet
  facet normal  9.160709e-024 -8.994207e-017 -9.999999e-001
    outer loop
      vertex -4.000000e+000 -4.000000e+000  3.597685e-016
      vertex  2.361949e+000 -5.624162e+000  5.058490e-016
      vertex -2.924496e+000 -5.353254e+000  4.814830e-016
    endloop
  endfacet
  facet normal  7.760445e-024 -8.994211e-017 -1.000000e+000
    outer loop
      vertex -2.924496e+000 -5.353254e+000  4.814830e-016
      vertex  2.361949e+000 -5.624162e+000  5.058490e-016
      vertex -3.121900e-001 -6.092006e+000  5.479279e-016
    endloop
  endfacet
  facet normal  0.000000e+000 -1.000000e+000  0.000000e+000
    outer loop
      vertex -4.000000e+000 -4.000000e+000  3.597685e-016
      vertex -4.000000e+000 -4.000000e+000 -1.000000e+001
      vertex  4.000000e+000 -4.000000e+000  3.597685e-016
    endloop
  endfacet
  facet normal  0.000000e+000 -1.000000e+000  -0.000000e+000
    outer loop
      vertex  4.000000e+000 -4.000000e+000  3.597685e-016
      vertex -4.000000e+000 -4.000000e+000 -1.000000e+001
      vertex  4.000000e+000 -4.000000e+000 -1.000000e+001
    endloop
  endfacet
  facet normal  1.000000e+000  0.000000e+000  0.000000e+000
    outer loop
      vertex  4.000000e+000  4.000000e+000 -3.597685e-016
      vertex  4.000000e+000 -4.000000e+000  3.597685e-016
      vertex  4.000000e+000  4.000000e+000 -1.000000e+001
    endloop
  endfacet
  facet normal  1.000000e+000  0.000000e+000  0.000000e+000
    outer loop
      vertex  4.000000e+000  4.000000e+000 -1.000000e+001
      vertex  4.000000e+000 -4.000000e+000  3.597685e-016
      vertex  4.000000e+000 -4.000000e+000 -1.000000e+001
    endloop
  endfacet
  facet normal  0.000000e+000  1.000000e+000  -0.000000e+000
    outer loop
      vertex  4.000000e+000  4.000000e+000 -3.597685e-016
      vertex  4.000000e+000  4.000000e+000 -1.000000e+001
      vertex -4.000000e+000  4.000000e+000 -3.597685e-016
    endloop
  endfacet
  facet normal  0.000000e+000  1.000000e+000  0.000000e+000
    outer loop
      vertex -4.000000e+000  4.000000e+000 -3.597685e-016
      vertex  4.000000e+000  4.000000e+000 -1.000000e+001
      vertex -4.000000e+000  4.000000e+000 -1.000000e+001
    endloop
  endfacet
  facet normal -1.000000e+000  -0.000000e+000  0.000000e+000
    outer loop
      vertex -4.000000e+000 -4.000000e+000  3.597685e-016
      vertex -4.000000e+000  4.000000e+000 -3.597685e-016
      vertex -4.000000e+000 -4.000000e+000 -1.000000e+001
    endloop
  endfacet
  facet normal -1.000000e+000  0.000000e+000  0.000000e+000
    outer loop
      vertex -4.000000e+000 -4.000000e+000 -1.000000e+001
      vertex -4.000000e+000  4.000000e+000 -3.597685e-016
      vertex -4.000000e+000  4.000000e+000 -1.000000e+001
    endloop
  endfacet
  facet normal  -0.000000e+000  0.000000e+000 -1.000000e+000
    outer loop
      vertex -4.000000e+000  4.000000e+000 -1.000000e+001
      vertex  4.000000e+000  4.000000e+000 -1.000000e+001
      vertex -4.000000e+000 -4.000000e+000 -1.000000e+001
    endloop
  endfacet
  facet normal  0.000000e+000  0.000000e+000 -1.000000e+000
    outer loop
      vertex -4.000000e+000 -4.000000e+000 -1.000000e+001
      vertex  4.000000e+000  4.000000e+000 -1.000000e+001
      vertex  4.000000e+000 -4.000000e+000 -1.000000e+001
    endloop
  endfacet
  facet normal  0.000000e+000  0.000000e+000  1.000000e+000
    outer loop
      vertex -4.568275e+000  4.042384e+000  7.900000e+001
      vertex -7.038488e-001  2.398874e+000  7.900000e+001
      vertex -2.361949e+000  5.624162e+000  7.900000e+001
    endloop
  endfacet
  facet normal  0.000000e+000  0.000000e+000  1.000000e+000
    outer loop
      vertex -2.361949e+000  5.624162e+000  7.900000e+001
      vertex -7.038488e-001  2.398874e+000  7.900000e+001
      vertex  1.198564e+000  2.193956e+000  7.900000e+001
    endloop
  endfacet
  facet normal  0.000000e+000  0.000000e+000  1.000000e+000
    outer loop
      vertex -2.361949e+000  5.624162e+000  7.900000e+001
      vertex  1.198564e+000  2.193956e+000  7.900000e+001
      vertex  3.121900e-001  6.092006e+000  7.900000e+001
    endloop
  endfacet
  facet normal  0.000000e+000  0.000000e+000  1.000000e+000
    outer loop
      vertex  3.121900e-001  6.092006e+000  7.900000e+001
      vertex  1.198564e+000  2.193956e+000  7.900000e+001
      vertex  4.957569e+000  3.554224e+000  7.900000e+001
    endloop
  endfacet
  facet normal  0.000000e+000  0.000000e+000  9.999999e-001
    outer loop
      vertex  3.121900e-001  6.092006e+000  7.900000e+001
      vertex  4.957569e+000  3.554224e+000  7.900000e+001
      vertex  2.924496e+000  5.353254e+000  7.900000e+001
    endloop
  endfacet
  facet normal  0.000000e+000  -0.000000e+000  1.000000e+000
    outer loop
      vertex -4.957569e+000 -3.554224e+000  7.900000e+001
      vertex -2.924496e+000 -5.353254e+000  7.900000e+001
      vertex -1.198564e+000 -2.193956e+000  7.900000e+001
    endloop
  endfacet
  facet normal  0.000000e+000  0.000000e+000  1.000000e+000
    outer loop
      vertex -1.198564e+000 -2.193956e+000  7.900000e+001
      vertex -2.924496e+000 -5.353254e+000  7.900000e+001
      vertex -3.121900e-001 -6.092006e+000  7.900000e+001
    endloop
  endfacet
  facet normal  0.000000e+000  -0.000000e+000  9.999999e-001
    outer loop
      vertex -1.198564e+000 -2.193956e+000  7.900000e+001
      vertex -3.121900e-001 -6.092006e+000  7.900000e+001
      vertex  7.038488e-001 -2.398874e+000  7.900000e+001
    endloop
  endfacet
  facet normal  0.000000e+000  0.000000e+000  1.000000e+000
    outer loop
      vertex  7.038488e-001 -2.398874e+000  7.900000e+001
      vertex -3.121900e-001 -6.092006e+000  7.900000e+001
      vertex  2.361949e+000 -5.624162e+000  7.900000e+001
    endloop
  endfacet
  facet normal  0.000000e+000  -0.000000e+000  1.000000e+000
    outer loop
      vertex  7.038488e-001 -2.398874e+000  7.900000e+001
      vertex  2.361949e+000 -5.624162e+000  7.900000e+001
      vertex  4.568275e+000 -4.042384e+000  7.900000e+001
    endloop
  endfacet
  facet normal  0.000000e+000  0.000000e+000  1.000000e+000
    outer loop
      vertex -5.869798e+000  1.659962e+000  7.900000e+001
      vertex -7.038488e-001  2.398874e+000  7.900000e+001
      vertex -4.568275e+000  4.042384e+000  7.900000e+001
    endloop
  endfacet
  facet normal  -0.000000e+000  0.000000e+000  9.999999e-001
    outer loop
      vertex -7.038488e-001  2.398874e+000  7.900000e+001
      vertex -5.869798e+000  1.659962e+000  7.900000e+001
      vertex -2.193956e+000  1.198564e+000  7.900000e+001
    endloop
  endfacet
  facet normal  0.000000e+000  0.000000e+000  1.000000e+000
    outer loop
      vertex -2.193956e+000  1.198564e+000  7.900000e+001
      vertex -5.869798e+000  1.659962e+000  7.900000e+001
      vertex -6.008736e+000 -1.051236e+000  7.900000e+001
    endloop
  endfacet
  facet normal  0.000000e+000  0.000000e+000  1.000000e+000
    outer loop
      vertex -2.193956e+000  1.198564e+000  7.900000e+001
      vertex -6.008736e+000 -1.051236e+000  7.900000e+001
      vertex -2.398874e+000 -7.038488e-001  7.900000e+001
    endloop
  endfacet
  facet normal  0.000000e+000  0.000000e+000  1.000000e+000
    outer loop
      vertex -2.398874e+000 -7.038488e-001  7.900000e+001
      vertex -6.008736e+000 -1.051236e+000  7.900000e+001
      vertex -4.957569e+000 -3.554224e+000  7.900000e+001
    endloop
  endfacet
  facet normal  0.000000e+000  0.000000e+000  1.000000e+000
    outer loop
      vertex -2.398874e+000 -7.038488e-001  7.900000e+001
      vertex -4.957569e+000 -3.554224e+000  7.900000e+001
      vertex -1.198564e+000 -2.193956e+000  7.900000e+001
    endloop
  endfacet
  facet normal  -0.000000e+000  0.000000e+000  1.000000e+000
    outer loop
      vertex  5.869798e+000 -1.659962e+000  7.900000e+001
      vertex  7.038488e-001 -2.398874e+000  7.900000e+001
      vertex  4.568275e+000 -4.042384e+000  7.900000e+001
    endloop
  endfacet
  facet normal  0.000000e+000  0.000000e+000  9.999999e-001
    outer loop
      vertex  7.038488e-001 -2.398874e+000  7.900000e+001
      vertex  5.869798e+000 -1.659962e+000  7.900000e+001
      vertex  2.193956e+000 -1.198564e+000  7.900000e+001
    endloop
  endfacet
  facet normal  -0.000000e+000  0.000000e+000  1.000000e+000
    outer loop
      vertex  2.193956e+000 -1.198564e+000  7.900000e+001
      vertex  5.869798e+000 -1.659962e+000  7.900000e+001
      vertex  6.008736e+000  1.051236e+000  7.900000e+001
    endloop
  endfacet
  facet normal  0.000000e+000  0.000000e+000  1.000000e+000
    outer loop
      vertex  2.193956e+000 -1.198564e+000  7.900000e+001
      vertex  6.008736e+000  1.051236e+000  7.900000e+001
      vertex  2.398874e+000  7.038488e-001  7.900000e+001
    endloop
  endfacet
  facet normal  0.000000e+000  0.000000e+000  1.000000e+000
    outer loop
      vertex  2.398874e+000  7.038488e-001  7.900000e+001
      vertex  6.008736e+000  1.051236e+000  7.900000e+001
      vertex  4.957569e+000  3.554224e+000  7.900000e+001
    endloop
  endfacet
  facet normal  0.000000e+000  0.000000e+000  1.000000e+000
    outer loop
      vertex  2.398874e+000  7.038488e-001  7.900000e+001
      vertex  4.957569e+000  3.554224e+000  7.900000e+001
      vertex  1.198564e+000  2.193956e+000  7.900000e+001
    endloop
  endfacet
  facet normal  7.787678e-001  6.273124e-001  -0.000000e+000
    outer loop
      vertex -1.198564e+000 -2.193956e+000  7.900000e+001
      vertex -2.398874e+000 -7.038488e-001  6.900000e+001
      vertex -2.398874e+000 -7.038488e-001  7.900000e+001
    endloop
  endfacet
  facet normal  9.942488e-001 -1.070951e-001  0.000000e+000
    outer loop
      vertex -2.398874e+000 -7.038488e-001  7.900000e+001
      vertex -2.398874e+000 -7.038488e-001  6.900000e+001
      vertex -2.193956e+000  1.198564e+000  6.900000e+001
    endloop
  endfacet
  facet normal  9.942488e-001 -1.070951e-001  0.000000e+000
    outer loop
      vertex -2.398874e+000 -7.038488e-001  7.900000e+001
      vertex -2.193956e+000  1.198564e+000  6.900000e+001
      vertex -2.193956e+000  1.198564e+000  7.900000e+001
    endloop
  endfacet
  facet normal  7.787678e-001  6.273124e-001  0.000000e+000
    outer loop
      vertex -2.398874e+000 -7.038488e-001  6.900000e+001
      vertex -1.198564e+000 -2.193956e+000  7.900000e+001
      vertex -1.198564e+000 -2.193956e+000  6.900000e+001
    endloop
  endfacet
  facet normal  1.070951e-001  9.942488e-001  -0.000000e+000
    outer loop
      vertex -1.198564e+000 -2.193956e+000  6.900000e+001
      vertex -1.198564e+000 -2.193956e+000  7.900000e+001
      vertex  7.038488e-001 -2.398874e+000  7.900000e+001
    endloop
  endfacet
  facet normal  1.070951e-001  9.942488e-001  0.000000e+000
    outer loop
      vertex -1.198564e+000 -2.193956e+000  6.900000e+001
      vertex  7.038488e-001 -2.398874e+000  7.900000e+001
      vertex  7.038488e-001 -2.398874e+000  6.900000e+001
    endloop
  endfacet
  facet normal -6.273124e-001  7.787678e-001  0.000000e+000
    outer loop
      vertex  7.038488e-001 -2.398874e+000  6.900000e+001
      vertex  7.038488e-001 -2.398874e+000  7.900000e+001
      vertex  2.193956e+000 -1.198564e+000  7.900000e+001
    endloop
  endfacet
  facet normal -6.273124e-001  7.787678e-001  0.000000e+000
    outer loop
      vertex  7.038488e-001 -2.398874e+000  6.900000e+001
      vertex  2.193956e+000 -1.198564e+000  7.900000e+001
      vertex  2.193956e+000 -1.198564e+000  6.900000e+001
    endloop
  endfacet
  facet normal -7.787678e-001 -6.273124e-001  0.000000e+000
    outer loop
      vertex  1.198564e+000  2.193956e+000  7.900000e+001
      vertex  2.398874e+000  7.038488e-001  6.900000e+001
      vertex  2.398874e+000  7.038488e-001  7.900000e+001
    endloop
  endfacet
  facet normal -9.942488e-001  1.070951e-001  0.000000e+000
    outer loop
      vertex  2.398874e+000  7.038488e-001  7.900000e+001
      vertex  2.398874e+000  7.038488e-001  6.900000e+001
      vertex  2.193956e+000 -1.198564e+000  6.900000e+001
    endloop
  endfacet
  facet normal -9.942488e-001  1.070951e-001  0.000000e+000
    outer loop
      vertex  2.398874e+000  7.038488e-001  7.900000e+001
      vertex  2.193956e+000 -1.198564e+000  6.900000e+001
      vertex  2.193956e+000 -1.198564e+000  7.900000e+001
    endloop
  endfacet
  facet normal -7.787678e-001 -6.273124e-001  -0.000000e+000
    outer loop
      vertex  2.398874e+000  7.038488e-001  6.900000e+001
      vertex  1.198564e+000  2.193956e+000  7.900000e+001
      vertex  1.198564e+000  2.193956e+000  6.900000e+001
    endloop
  endfacet
  facet normal -1.070951e-001 -9.942488e-001  0.000000e+000
    outer loop
      vertex  1.198564e+000  2.193956e+000  6.900000e+001
      vertex  1.198564e+000  2.193956e+000  7.900000e+001
      vertex -7.038488e-001  2.398874e+000  7.900000e+001
    endloop
  endfacet
  facet normal -1.070951e-001 -9.942488e-001  -0.000000e+000
    outer loop
      vertex  1.198564e+000  2.193956e+000  6.900000e+001
      vertex -7.038488e-001  2.398874e+000  7.900000e+001
      vertex -7.038488e-001  2.398874e+000  6.900000e+001
    endloop
  endfacet
  facet normal  6.273124e-001 -7.787678e-001  0.000000e+000
    outer loop
      vertex -7.038488e-001  2.398874e+000  6.900000e+001
      vertex -7.038488e-001  2.398874e+000  7.900000e+001
      vertex -2.193956e+000  1.198564e+000  7.900000e+001
    endloop
  endfacet
  facet normal  6.273124e-001 -7.787678e-001  0.000000e+000
    outer loop
      vertex -7.038488e-001  2.398874e+000  6.900000e+001
      vertex -2.193956e+000  1.198564e+000  7.900000e+001
      vertex -2.193956e+000  1.198564e+000  6.900000e+001
    endloop
  endfacet
  facet normal  -0.000000e+000  0.000000e+000  1.000000e+000
    outer loop
      vertex  2.193956e+000 -1.198564e+000  6.900000e+001
      vertex -1.198564e+000 -2.193956e+000  6.900000e+001
      vertex  7.038488e-001 -2.398874e+000  6.900000e+001
    endloop
  endfacet
  facet normal  0.000000e+000  0.000000e+000  1.000000e+000
    outer loop
      vertex -1.198564e+000 -2.193956e+000  6.900000e+001
      vertex  2.193956e+000 -1.198564e+000  6.900000e+001
      vertex -2.398874e+000 -7.038488e-001  6.900000e+001
    endloop
  endfacet
  facet normal  -0.000000e+000  0.000000e+000  1.000000e+000
    outer loop
      vertex -2.398874e+000 -7.038488e-001  6.900000e+001
      vertex  2.193956e+000 -1.198564e+000  6.900000e+001
      vertex  2.398874e+000  7.038488e-001  6.900000e+001
    endloop
  endfacet
  facet normal  0.000000e+000  0.000000e+000  1.000000e+000
    outer loop
      vertex -2.398874e+000 -7.038488e-001  6.900000e+001
      vertex  2.398874e+000  7.038488e-001  6.900000e+001
      vertex -2.193956e+000  1.198564e+000  6.900000e+001
    endloop
  endfacet
  facet normal  -0.000000e+000  0.000000e+000  1.000000e+000
    outer loop
      vertex -2.193956e+000  1.198564e+000  6.900000e+001
      vertex  2.398874e+000  7.038488e-001  6.900000e+001
      vertex  1.198564e+000  2.193956e+000  6.900000e+001
    endloop
  endfacet
  facet normal  0.000000e+000  0.000000e+000  1.000000e+000
    outer loop
      vertex -2.193956e+000  1.198564e+000  6.900000e+001
      vertex  1.198564e+000  2.193956e+000  6.900000e+001
      vertex -7.038488e-001  2.398874e+000  6.900000e+001
    endloop
  endfacet
  facet normal  0.000000e+000  0.000000e+000  9.999999e-001
    outer loop
      vertex -6.008736e+000 -1.051236e+000  3.900000e+001
      vertex -5.869798e+000  1.659962e+000  3.900000e+001
      vertex -8.451115e+000  9.103087e-001  3.900000e+001
    endloop
  endfacet
  facet normal  0.000000e+000  0.000000e+000  9.999999e-001
    outer loop
      vertex -8.451115e+000  9.103087e-001  3.900000e+001
      vertex -5.869798e+000  1.659962e+000  3.900000e+001
      vertex -4.568275e+000  4.042384e+000  3.900000e+001
    endloop
  endfacet
  facet normal  0.000000e+000  0.000000e+000  1.000000e+000
    outer loop
      vertex -8.451115e+000  9.103087e-001  3.900000e+001
      vertex -4.568275e+000  4.042384e+000  3.900000e+001
      vertex -7.459452e+000  4.075117e+000  3.900000e+001
    endloop
  endfacet
  facet normal  -0.000000e+000  0.000000e+000  1.000000e+000
    outer loop
      vertex -7.459452e+000  4.075117e+000  3.900000e+001
      vertex -4.568275e+000  4.042384e+000  3.900000e+001
      vertex -2.361949e+000  5.624162e+000  3.900000e+001
    endloop
  endfacet
  facet normal  0.000000e+000  0.000000e+000  1.000000e+000
    outer loop
      vertex -7.459452e+000  4.075117e+000  3.900000e+001
      vertex -2.361949e+000  5.624162e+000  3.900000e+001
      vertex -5.332155e+000  6.619526e+000  3.900000e+001
    endloop
  endfacet
  facet normal  0.000000e+000  0.000000e+000  1.000000e+000
    outer loop
      vertex -5.332155e+000  6.619526e+000  3.900000e+001
      vertex -2.361949e+000  5.624162e+000  3.900000e+001
      vertex  3.121900e-001  6.092006e+000  3.900000e+001
    endloop
  endfacet
  facet normal  0.000000e+000  0.000000e+000  9.999999e-001
    outer loop
      vertex -5.332155e+000  6.619526e+000  3.900000e+001
      vertex  3.121900e-001  6.092006e+000  3.900000e+001
      vertex -2.393086e+000  8.156172e+000  3.900000e+001
    endloop
  endfacet
  facet normal  0.000000e+000  0.000000e+000  1.000000e+000
    outer loop
      vertex -2.393086e+000  8.156172e+000  3.900000e+001
      vertex  3.121900e-001  6.092006e+000  3.900000e+001
      vertex  4.075117e+000  7.459452e+000  3.900000e+001
    endloop
  endfacet
  facet normal  0.000000e+000  0.000000e+000  1.000000e+000
    outer loop
      vertex -2.393086e+000  8.156172e+000  3.900000e+001
      vertex  4.075117e+000  7.459452e+000  3.900000e+001
      vertex  9.103087e-001  8.451115e+000  3.900000e+001
    endloop
  endfacet
  facet normal  0.000000e+000  -0.000000e+000  9.999999e-001
    outer loop
      vertex  4.957569e+000  3.554224e+000  3.900000e+001
      vertex  6.008736e+000  1.051236e+000  3.900000e+001
      vertex  8.156172e+000  2.393086e+000  3.900000e+001
    endloop
  endfacet
  facet normal  0.000000e+000  0.000000e+000  1.000000e+000
    outer loop
      vertex  8.156172e+000  2.393086e+000  3.900000e+001
      vertex  6.008736e+000  1.051236e+000  3.900000e+001
      vertex  5.869798e+000 -1.659962e+000  3.900000e+001
    endloop
  endfacet
  facet normal  0.000000e+000  0.000000e+000  1.000000e+000
    outer loop
      vertex  8.156172e+000  2.393086e+000  3.900000e+001
      vertex  5.869798e+000 -1.659962e+000  3.900000e+001
      vertex  8.451115e+000 -9.103087e-001  3.900000e+001
    endloop
  endfacet
  facet normal  0.000000e+000  0.000000e+000  9.999999e-001
    outer loop
      vertex  8.451115e+000 -9.103087e-001  3.900000e+001
      vertex  5.869798e+000 -1.659962e+000  3.900000e+001
      vertex  4.568275e+000 -4.042384e+000  3.900000e+001
    endloop
  endfacet
  facet normal  -0.000000e+000  0.000000e+000  1.000000e+000
    outer loop
      vertex  8.451115e+000 -9.103087e-001  3.900000e+001
      vertex  4.568275e+000 -4.042384e+000  3.900000e+001
      vertex  7.459452e+000 -4.075117e+000  3.900000e+001
    endloop
  endfacet
  facet normal  0.000000e+000  0.000000e+000  1.000000e+000
    outer loop
      vertex  7.459452e+000 -4.075117e+000  3.900000e+001
      vertex  4.568275e+000 -4.042384e+000  3.900000e+001
      vertex  2.361949e+000 -5.624162e+000  3.900000e+001
    endloop
  endfacet
  facet normal  -0.000000e+000  0.000000e+000  1.000000e+000
    outer loop
      vertex  7.459452e+000 -4.075117e+000  3.900000e+001
      vertex  2.361949e+000 -5.624162e+000  3.900000e+001
      vertex  5.332155e+000 -6.619526e+000  3.900000e+001
    endloop
  endfacet
  facet normal  0.000000e+000  0.000000e+000  1.000000e+000
    outer loop
      vertex  5.332155e+000 -6.619526e+000  3.900000e+001
      vertex  2.361949e+000 -5.624162e+000  3.900000e+001
      vertex -9.103087e-001 -8.451115e+000  3.900000e+001
    endloop
  endfacet
  facet normal  0.000000e+000  0.000000e+000  1.000000e+000
    outer loop
      vertex  5.332155e+000 -6.619526e+000  3.900000e+001
      vertex -9.103087e-001 -8.451115e+000  3.900000e+001
      vertex  2.393086e+000 -8.156172e+000  3.900000e+001
    endloop
  endfacet
  facet normal  0.000000e+000  0.000000e+000  1.000000e+000
    outer loop
      vertex -6.619526e+000 -5.332155e+000  3.900000e+001
      vertex -4.957569e+000 -3.554224e+000  3.900000e+001
      vertex -8.156172e+000 -2.393086e+000  3.900000e+001
    endloop
  endfacet
  facet normal  -0.000000e+000  0.000000e+000  1.000000e+000
    outer loop
      vertex -8.156172e+000 -2.393086e+000  3.900000e+001
      vertex -4.957569e+000 -3.554224e+000  3.900000e+001
      vertex -6.008736e+000 -1.051236e+000  3.900000e+001
    endloop
  endfacet
  facet normal  0.000000e+000  0.000000e+000  1.000000e+000
    outer loop
      vertex -8.156172e+000 -2.393086e+000  3.900000e+001
      vertex -6.008736e+000 -1.051236e+000  3.900000e+001
      vertex -8.451115e+000  9.103087e-001  3.900000e+001
    endloop
  endfacet
  facet normal  -0.000000e+000  0.000000e+000  9.999999e-001
    outer loop
      vertex -4.957569e+000 -3.554224e+000  3.900000e+001
      vertex -6.619526e+000 -5.332155e+000  3.900000e+001
      vertex -2.924496e+000 -5.353254e+000  3.900000e+001
    endloop
  endfacet
  facet normal  0.000000e+000  0.000000e+000  1.000000e+000
    outer loop
      vertex -2.924496e+000 -5.353254e+000  3.900000e+001
      vertex -6.619526e+000 -5.332155e+000  3.900000e+001
      vertex -4.075117e+000 -7.459452e+000  3.900000e+001
    endloop
  endfacet
  facet normal  0.000000e+000  0.000000e+000  1.000000e+000
    outer loop
      vertex -2.924496e+000 -5.353254e+000  3.900000e+001
      vertex -4.075117e+000 -7.459452e+000  3.900000e+001
      vertex -3.121900e-001 -6.092006e+000  3.900000e+001
    endloop
  endfacet
  facet normal  0.000000e+000  0.000000e+000  1.000000e+000
    outer loop
      vertex -3.121900e-001 -6.092006e+000  3.900000e+001
      vertex -4.075117e+000 -7.459452e+000  3.900000e+001
      vertex -9.103087e-001 -8.451115e+000  3.900000e+001
    endloop
  endfacet
  facet normal  0.000000e+000  0.000000e+000  1.000000e+000
    outer loop
      vertex -3.121900e-001 -6.092006e+000  3.900000e+001
      vertex -9.103087e-001 -8.451115e+000  3.900000e+001
      vertex  2.361949e+000 -5.624162e+000  3.900000e+001
    endloop
  endfacet
  facet normal  0.000000e+000  0.000000e+000  1.000000e+000
    outer loop
      vertex  8.156172e+000  2.393086e+000  3.900000e+001
      vertex  6.619526e+000  5.332155e+000  3.900000e+001
      vertex  4.957569e+000  3.554224e+000  3.900000e+001
    endloop
  endfacet
  facet normal  0.000000e+000  -0.000000e+000  1.000000e+000
    outer loop
      vertex  4.957569e+000  3.554224e+000  3.900000e+001
      vertex  6.619526e+000  5.332155e+000  3.900000e+001
      vertex  2.924496e+000  5.353254e+000  3.900000e+001
    endloop
  endfacet
  facet normal  0.000000e+000  0.000000e+000  1.000000e+000
    outer loop
      vertex  6.619526e+000  5.332155e+000  3.900000e+001
      vertex  4.075117e+000  7.459452e+000  3.900000e+001
      vertex  2.924496e+000  5.353254e+000  3.900000e+001
    endloop
  endfacet
  facet normal  0.000000e+000  -0.000000e+000  1.000000e+000
    outer loop
      vertex  2.924496e+000  5.353254e+000  3.900000e+001
      vertex  4.075117e+000  7.459452e+000  3.900000e+001
      vertex  3.121900e-001  6.092006e+000  3.900000e+001
    endloop
  endfacet
  facet normal  0.000000e+000  0.000000e+000 -1.000000e+000
    outer loop
      vertex  9.103087e-001  8.451115e+000  1.500000e+001
      vertex  4.075117e+000  7.459452e+000  1.500000e+001
      vertex -2.393086e+000  8.156172e+000  1.500000e+001
    endloop
  endfacet
  facet normal  0.000000e+000  0.000000e+000 -1.000000e+000
    outer loop
      vertex -2.393086e+000  8.156172e+000  1.500000e+001
      vertex  4.075117e+000  7.459452e+000  1.500000e+001
      vertex  3.121900e-001  6.092006e+000  1.500000e+001
    endloop
  endfacet
  facet normal  0.000000e+000  0.000000e+000 -9.999999e-001
    outer loop
      vertex -2.393086e+000  8.156172e+000  1.500000e+001
      vertex  3.121900e-001  6.092006e+000  1.500000e+001
      vertex -5.332155e+000  6.619526e+000  1.500000e+001
    endloop
  endfacet
  facet normal  0.000000e+000  0.000000e+000 -1.000000e+000
    outer loop
      vertex -5.332155e+000  6.619526e+000  1.500000e+001
      vertex  3.121900e-001  6.092006e+000  1.500000e+001
      vertex -2.361949e+000  5.624162e+000  1.500000e+001
    endloop
  endfacet
  facet normal  -0.000000e+000  0.000000e+000 -1.000000e+000
    outer loop
      vertex -5.332155e+000  6.619526e+000  1.500000e+001
      vertex -2.361949e+000  5.624162e+000  1.500000e+001
      vertex -7.459452e+000  4.075117e+000  1.500000e+001
    endloop
  endfacet
  facet normal  0.000000e+000  0.000000e+000 -1.000000e+000
    outer loop
      vertex -7.459452e+000  4.075117e+000  1.500000e+001
      vertex -2.361949e+000  5.624162e+000  1.500000e+001
      vertex -4.568275e+000  4.042384e+000  1.500000e+001
    endloop
  endfacet
  facet normal  -0.000000e+000  0.000000e+000 -1.000000e+000
    outer loop
      vertex -7.459452e+000  4.075117e+000  1.500000e+001
      vertex -4.568275e+000  4.042384e+000  1.500000e+001
      vertex -8.451115e+000  9.103087e-001  1.500000e+001
    endloop
  endfacet
  facet normal  0.000000e+000  0.000000e+000 -9.999999e-001
    outer loop
      vertex -8.451115e+000  9.103087e-001  1.500000e+001
      vertex -4.568275e+000  4.042384e+000  1.500000e+001
      vertex -5.869798e+000  1.659962e+000  1.500000e+001
    endloop
  endfacet
  facet normal  0.000000e+000  0.000000e+000 -9.999999e-001
    outer loop
      vertex -8.451115e+000  9.103087e-001  1.500000e+001
      vertex -5.869798e+000  1.659962e+000  1.500000e+001
      vertex -6.008736e+000 -1.051236e+000  1.500000e+001
    endloop
  endfacet
  facet normal  0.000000e+000  0.000000e+000 -1.000000e+000
    outer loop
      vertex  2.393086e+000 -8.156172e+000  1.500000e+001
      vertex -9.103087e-001 -8.451115e+000  1.500000e+001
      vertex  5.332155e+000 -6.619526e+000  1.500000e+001
    endloop
  endfacet
  facet normal  -0.000000e+000  0.000000e+000 -1.000000e+000
    outer loop
      vertex  5.332155e+000 -6.619526e+000  1.500000e+001
      vertex -9.103087e-001 -8.451115e+000  1.500000e+001
      vertex  2.361949e+000 -5.624162e+000  1.500000e+001
    endloop
  endfacet
  facet normal  0.000000e+000  0.000000e+000 -1.000000e+000
    outer loop
      vertex  5.332155e+000 -6.619526e+000  1.500000e+001
      vertex  2.361949e+000 -5.624162e+000  1.500000e+001
      vertex  7.459452e+000 -4.075117e+000  1.500000e+001
    endloop
  endfacet
  facet normal  -0.000000e+000  0.000000e+000 -1.000000e+000
    outer loop
      vertex  7.459452e+000 -4.075117e+000  1.500000e+001
      vertex  2.361949e+000 -5.624162e+000  1.500000e+001
      vertex  4.568275e+000 -4.042384e+000  1.500000e+001
    endloop
  endfacet
  facet normal  0.000000e+000  0.000000e+000 -1.000000e+000
    outer loop
      vertex  7.459452e+000 -4.075117e+000  1.500000e+001
      vertex  4.568275e+000 -4.042384e+000  1.500000e+001
      vertex  8.451115e+000 -9.103087e-001  1.500000e+001
    endloop
  endfacet
  facet normal  0.000000e+000  0.000000e+000 -9.999999e-001
    outer loop
      vertex  8.451115e+000 -9.103087e-001  1.500000e+001
      vertex  4.568275e+000 -4.042384e+000  1.500000e+001
      vertex  5.869798e+000 -1.659962e+000  1.500000e+001
    endloop
  endfacet
  facet normal  0.000000e+000  0.000000e+000 -1.000000e+000
    outer loop
      vertex  8.451115e+000 -9.103087e-001  1.500000e+001
      vertex  5.869798e+000 -1.659962e+000  1.500000e+001
      vertex  8.156172e+000  2.393086e+000  1.500000e+001
    endloop
  endfacet
  facet normal  0.000000e+000  0.000000e+000 -1.000000e+000
    outer loop
      vertex  8.156172e+000  2.393086e+000  1.500000e+001
      vertex  5.869798e+000 -1.659962e+000  1.500000e+001
      vertex  6.008736e+000  1.051236e+000  1.500000e+001
    endloop
  endfacet
  facet normal  0.000000e+000  0.000000e+000 -9.999999e-001
    outer loop
      vertex  8.156172e+000  2.393086e+000  1.500000e+001
      vertex  6.008736e+000  1.051236e+000  1.500000e+001
      vertex  4.957569e+000  3.554224e+000  1.500000e+001
    endloop
  endfacet
  facet normal  -0.000000e+000  0.000000e+000 -1.000000e+000
    outer loop
      vertex -8.451115e+000  9.103087e-001  1.500000e+001
      vertex -6.008736e+000 -1.051236e+000  1.500000e+001
      vertex -8.156172e+000 -2.393086e+000  1.500000e+001
    endloop
  endfacet
  facet normal  0.000000e+000  0.000000e+000 -1.000000e+000
    outer loop
      vertex -8.156172e+000 -2.393086e+000  1.500000e+001
      vertex -6.008736e+000 -1.051236e+000  1.500000e+001
      vertex -4.957569e+000 -3.554224e+000  1.500000e+001
    endloop
  endfacet
  facet normal  -0.000000e+000  0.000000e+000 -1.000000e+000
    outer loop
      vertex -8.156172e+000 -2.393086e+000  1.500000e+001
      vertex -4.957569e+000 -3.554224e+000  1.500000e+001
      vertex -6.619526e+000 -5.332155e+000  1.500000e+001
    endloop
  endfacet
  facet normal  0.000000e+000  0.000000e+000 -9.999999e-001
    outer loop
      vertex -6.619526e+000 -5.332155e+000  1.500000e+001
      vertex -4.957569e+000 -3.554224e+000  1.500000e+001
      vertex -2.924496e+000 -5.353254e+000  1.500000e+001
    endloop
  endfacet
  facet normal  -0.000000e+000  0.000000e+000 -1.000000e+000
    outer loop
      vertex -6.619526e+000 -5.332155e+000  1.500000e+001
      vertex -2.924496e+000 -5.353254e+000  1.500000e+001
      vertex -4.075117e+000 -7.459452e+000  1.500000e+001
    endloop
  endfacet
  facet normal  0.000000e+000  0.000000e+000 -1.000000e+000
    outer loop
      vertex -4.075117e+000 -7.459452e+000  1.500000e+001
      vertex -2.924496e+000 -5.353254e+000  1.500000e+001
      vertex -3.121900e-001 -6.092006e+000  1.500000e+001
    endloop
  endfacet
  facet normal  0.000000e+000  0.000000e+000 -1.000000e+000
    outer loop
      vertex -4.075117e+000 -7.459452e+000  1.500000e+001
      vertex -3.121900e-001 -6.092006e+000  1.500000e+001
      vertex -9.103087e-001 -8.451115e+000  1.500000e+001
    endloop
  endfacet
  facet normal  0.000000e+000  0.000000e+000 -1.000000e+000
    outer loop
      vertex -9.103087e-001 -8.451115e+000  1.500000e+001
      vertex -3.121900e-001 -6.092006e+000  1.500000e+001
      vertex  2.361949e+000 -5.624162e+000  1.500000e+001
    endloop
  endfacet
  facet normal  0.000000e+000  0.000000e+000 -1.000000e+000
    outer loop
      vertex  8.156172e+000  2.393086e+000  1.500000e+001
      vertex  4.957569e+000  3.554224e+000  1.500000e+001
      vertex  6.619526e+000  5.332155e+000  1.500000e+001
    endloop
  endfacet
  facet normal  -0.000000e+000  0.000000e+000 -9.999999e-001
    outer loop
      vertex  6.619526e+000  5.332155e+000  1.500000e+001
      vertex  4.957569e+000  3.554224e+000  1.500000e+001
      vertex  2.924496e+000  5.353254e+000  1.500000e+001
    endloop
  endfacet
  facet normal  0.000000e+000  0.000000e+000 -1.000000e+000
    outer loop
      vertex  6.619526e+000  5.332155e+000  1.500000e+001
      vertex  2.924496e+000  5.353254e+000  1.500000e+001
      vertex  4.075117e+000  7.459452e+000  1.500000e+001
    endloop
  endfacet
  facet normal  0.000000e+000  0.000000e+000 -1.000000e+000
    outer loop
      vertex  4.075117e+000  7.459452e+000  1.500000e+001
      vertex  2.924496e+000  5.353254e+000  1.500000e+001
      vertex  3.121900e-001  6.092006e+000  1.500000e+001
    endloop
  endfacet
  facet normal  2.721249e-001  9.622620e-001  -0.000000e+000
    outer loop
      vertex  2.924496e+000  5.353254e+000  7.900000e+001
      vertex  2.924496e+000  5.353254e+000  3.900000e+001
      vertex  3.121900e-001  6.092006e+000  7.900000e+001
    endloop
  endfacet
  facet normal  2.721249e-001  9.622620e-001  0.000000e+000
    outer loop
      vertex  3.121900e-001  6.092006e+000  7.900000e+001
      vertex  2.924496e+000  5.353254e+000  3.900000e+001
      vertex  3.121900e-001  6.092006e+000  3.900000e+001
    endloop
  endfacet
  facet normal -1.723339e-001  9.850386e-001  0.000000e+000
    outer loop
      vertex  3.121900e-001  6.092006e+000  7.900000e+001
      vertex  3.121900e-001  6.092006e+000  3.900000e+001
      vertex -2.361949e+000  5.624162e+000  7.900000e+001
    endloop
  endfacet
  facet normal -1.723339e-001  9.850386e-001  0.000000e+000
    outer loop
      vertex -2.361949e+000  5.624162e+000  7.900000e+001
      vertex  3.121900e-001  6.092006e+000  3.900000e+001
      vertex -2.361949e+000  5.624162e+000  3.900000e+001
    endloop
  endfacet
  facet normal -5.826595e-001  8.127164e-001  0.000000e+000
    outer loop
      vertex -2.361949e+000  5.624162e+000  7.900000e+001
      vertex -2.361949e+000  5.624162e+000  3.900000e+001
      vertex -4.568275e+000  4.042384e+000  7.900000e+001
    endloop
  endfacet
  facet normal -5.826595e-001  8.127164e-001  0.000000e+000
    outer loop
      vertex -4.568275e+000  4.042384e+000  7.900000e+001
      vertex -2.361949e+000  5.624162e+000  3.900000e+001
      vertex -4.568275e+000  4.042384e+000  3.900000e+001
    endloop
  endfacet
  facet normal -8.775827e-001  4.794255e-001  0.000000e+000
    outer loop
      vertex -4.568275e+000  4.042384e+000  7.900000e+001
      vertex -4.568275e+000  4.042384e+000  3.900000e+001
      vertex -5.869798e+000  1.659962e+000  7.900000e+001
    endloop
  endfacet
  facet normal -8.775827e-001  4.794255e-001  0.000000e+000
    outer loop
      vertex -5.869798e+000  1.659962e+000  7.900000e+001
      vertex -4.568275e+000  4.042384e+000  3.900000e+001
      vertex -5.869798e+000  1.659962e+000  3.900000e+001
    endloop
  endfacet
  facet normal -9.986895e-001  5.117881e-002  0.000000e+000
    outer loop
      vertex -5.869798e+000  1.659962e+000  7.900000e+001
      vertex -5.869798e+000  1.659962e+000  3.900000e+001
      vertex -6.008736e+000 -1.051236e+000  7.900000e+001
    endloop
  endfacet
  facet normal -9.986895e-001  5.117881e-002  0.000000e+000
    outer loop
      vertex -6.008736e+000 -1.051236e+000  7.900000e+001
      vertex -5.869798e+000  1.659962e+000  3.900000e+001
      vertex -6.008736e+000 -1.051236e+000  3.900000e+001
    endloop
  endfacet
  facet normal -9.219937e-001 -3.872048e-001  0.000000e+000
    outer loop
      vertex -6.008736e+000 -1.051236e+000  7.900000e+001
      vertex -6.008736e+000 -1.051236e+000  3.900000e+001
      vertex -4.957569e+000 -3.554224e+000  7.900000e+001
    endloop
  endfacet
  facet normal -9.219937e-001 -3.872048e-001  -0.000000e+000
    outer loop
      vertex -4.957569e+000 -3.554224e+000  7.900000e+001
      vertex -6.008736e+000 -1.051236e+000  3.900000e+001
      vertex -4.957569e+000 -3.554224e+000  3.900000e+001
    endloop
  endfacet
  facet normal -6.626859e-001 -7.488974e-001  0.000000e+000
    outer loop
      vertex -4.957569e+000 -3.554224e+000  7.900000e+001
      vertex -4.957569e+000 -3.554224e+000  3.900000e+001
      vertex -2.924496e+000 -5.353254e+000  7.900000e+001
    endloop
  endfacet
  facet normal -6.626859e-001 -7.488974e-001  -0.000000e+000
    outer loop
      vertex -2.924496e+000 -5.353254e+000  7.900000e+001
      vertex -4.957569e+000 -3.554224e+000  3.900000e+001
      vertex -2.924496e+000 -5.353254e+000  3.900000e+001
    endloop
  endfacet
  facet normal  2.990057e-001  9.542513e-001  -0.000000e+000
    outer loop
      vertex  4.075117e+000  7.459452e+000  3.900000e+001
      vertex  4.075117e+000  7.459452e+000  1.500000e+001
      vertex  9.103087e-001  8.451115e+000  3.900000e+001
    endloop
  endfacet
  facet normal  2.990057e-001  9.542513e-001  0.000000e+000
    outer loop
      vertex  9.103087e-001  8.451115e+000  3.900000e+001
      vertex  4.075117e+000  7.459452e+000  1.500000e+001
      vertex  9.103087e-001  8.451115e+000  1.500000e+001
    endloop
  endfacet
  facet normal -8.893102e-002  9.960378e-001  0.000000e+000
    outer loop
      vertex  9.103087e-001  8.451115e+000  3.900000e+001
      vertex  9.103087e-001  8.451115e+000  1.500000e+001
      vertex -2.393086e+000  8.156172e+000  3.900000e+001
    endloop
  endfacet
  facet normal -8.893102e-002  9.960378e-001  0.000000e+000
    outer loop
      vertex -2.393086e+000  8.156172e+000  3.900000e+001
      vertex  9.103087e-001  8.451115e+000  1.500000e+001
      vertex -2.393086e+000  8.156172e+000  1.500000e+001
    endloop
  endfacet
  facet normal -4.633286e-001  8.861865e-001  0.000000e+000
    outer loop
      vertex -2.393086e+000  8.156172e+000  3.900000e+001
      vertex -2.393086e+000  8.156172e+000  1.500000e+001
      vertex -5.332155e+000  6.619526e+000  3.900000e+001
    endloop
  endfacet
  facet normal -4.633286e-001  8.861865e-001  0.000000e+000
    outer loop
      vertex -5.332155e+000  6.619526e+000  3.900000e+001
      vertex -2.393086e+000  8.156172e+000  1.500000e+001
      vertex -5.332155e+000  6.619526e+000  1.500000e+001
    endloop
  endfacet
  facet normal -7.671888e-001  6.414213e-001  0.000000e+000
    outer loop
      vertex -5.332155e+000  6.619526e+000  3.900000e+001
      vertex -5.332155e+000  6.619526e+000  1.500000e+001
      vertex -7.459452e+000  4.075117e+000  3.900000e+001
    endloop
  endfacet
  facet normal -7.671888e-001  6.414213e-001  0.000000e+000
    outer loop
      vertex -7.459452e+000  4.075117e+000  3.900000e+001
      vertex -5.332155e+000  6.619526e+000  1.500000e+001
      vertex -7.459452e+000  4.075117e+000  1.500000e+001
    endloop
  endfacet
  facet normal -9.542513e-001  2.990057e-001  0.000000e+000
    outer loop
      vertex -7.459452e+000  4.075117e+000  3.900000e+001
      vertex -7.459452e+000  4.075117e+000  1.500000e+001
      vertex -8.451115e+000  9.103087e-001  3.900000e+001
    endloop
  endfacet
  facet normal -9.542513e-001  2.990057e-001  0.000000e+000
    outer loop
      vertex -8.451115e+000  9.103087e-001  3.900000e+001
      vertex -7.459452e+000  4.075117e+000  1.500000e+001
      vertex -8.451115e+000  9.103087e-001  1.500000e+001
    endloop
  endfacet
  facet normal -9.960378e-001 -8.893102e-002  0.000000e+000
    outer loop
      vertex -8.451115e+000  9.103087e-001  3.900000e+001
      vertex -8.451115e+000  9.103087e-001  1.500000e+001
      vertex -8.156172e+000 -2.393086e+000  3.900000e+001
    endloop
  endfacet
  facet normal -9.960378e-001 -8.893102e-002  -0.000000e+000
    outer loop
      vertex -8.156172e+000 -2.393086e+000  3.900000e+001
      vertex -8.451115e+000  9.103087e-001  1.500000e+001
      vertex -8.156172e+000 -2.393086e+000  1.500000e+001
    endloop
  endfacet
  facet normal -8.861865e-001 -4.633286e-001  0.000000e+000
    outer loop
      vertex -8.156172e+000 -2.393086e+000  3.900000e+001
      vertex -8.156172e+000 -2.393086e+000  1.500000e+001
      vertex -6.619526e+000 -5.332155e+000  3.900000e+001
    endloop
  endfacet
  facet normal -8.861865e-001 -4.633286e-001  -0.000000e+000
    outer loop
      vertex -6.619526e+000 -5.332155e+000  3.900000e+001
      vertex -8.156172e+000 -2.393086e+000  1.500000e+001
      vertex -6.619526e+000 -5.332155e+000  1.500000e+001
    endloop
  endfacet
  facet normal -6.414213e-001 -7.671888e-001  0.000000e+000
    outer loop
      vertex -6.619526e+000 -5.332155e+000  3.900000e+001
      vertex -6.619526e+000 -5.332155e+000  1.500000e+001
      vertex -4.075117e+000 -7.459452e+000  3.900000e+001
    endloop
  endfacet
  facet normal -6.414213e-001 -7.671888e-001  -0.000000e+000
    outer loop
      vertex -4.075117e+000 -7.459452e+000  3.900000e+001
      vertex -6.619526e+000 -5.332155e+000  1.500000e+001
      vertex -4.075117e+000 -7.459452e+000  1.500000e+001
    endloop
  endfacet
  facet normal  2.721248e-001  9.622619e-001  -0.000000e+000
    outer loop
      vertex  2.924496e+000  5.353254e+000  1.500000e+001
      vertex  2.924496e+000  5.353254e+000 -4.814830e-016
      vertex  3.121900e-001  6.092006e+000  1.500000e+001
    endloop
  endfacet
  facet normal  2.721248e-001  9.622619e-001  0.000000e+000
    outer loop
      vertex  3.121900e-001  6.092006e+000  1.500000e+001
      vertex  2.924496e+000  5.353254e+000 -4.814830e-016
      vertex  3.121900e-001  6.092006e+000 -5.479279e-016
    endloop
  endfacet
  facet normal -1.723339e-001  9.850386e-001  0.000000e+000
    outer loop
      vertex  3.121900e-001  6.092006e+000  1.500000e+001
      vertex  3.121900e-001  6.092006e+000 -5.479279e-016
      vertex -2.361949e+000  5.624162e+000  1.500000e+001
    endloop
  endfacet
  facet normal -1.723339e-001  9.850386e-001  0.000000e+000
    outer loop
      vertex -2.361949e+000  5.624162e+000  1.500000e+001
      vertex  3.121900e-001  6.092006e+000 -5.479279e-016
      vertex -2.361949e+000  5.624162e+000 -5.058490e-016
    endloop
  endfacet
  facet normal -5.826595e-001  8.127164e-001  0.000000e+000
    outer loop
      vertex -2.361949e+000  5.624162e+000  1.500000e+001
      vertex -2.361949e+000  5.624162e+000 -5.058490e-016
      vertex -4.568275e+000  4.042384e+000  1.500000e+001
    endloop
  endfacet
  facet normal -5.826595e-001  8.127164e-001  0.000000e+000
    outer loop
      vertex -4.568275e+000  4.042384e+000  1.500000e+001
      vertex -2.361949e+000  5.624162e+000 -5.058490e-016
      vertex -4.568275e+000  4.042384e+000 -3.635806e-016
    endloop
  endfacet
  facet normal -8.775826e-001  4.794254e-001  0.000000e+000
    outer loop
      vertex -4.568275e+000  4.042384e+000  1.500000e+001
      vertex -4.568275e+000  4.042384e+000 -3.635806e-016
      vertex -5.869798e+000  1.659962e+000  1.500000e+001
    endloop
  endfacet
  facet normal -8.775826e-001  4.794254e-001  0.000000e+000
    outer loop
      vertex -5.869798e+000  1.659962e+000  1.500000e+001
      vertex -4.568275e+000  4.042384e+000 -3.635806e-016
      vertex -5.869798e+000  1.659962e+000 -1.493005e-016
    endloop
  endfacet
  facet normal -9.986895e-001  5.117881e-002  0.000000e+000
    outer loop
      vertex -5.869798e+000  1.659962e+000  1.500000e+001
      vertex -5.869798e+000  1.659962e+000 -1.493005e-016
      vertex -6.008736e+000 -1.051236e+000  1.500000e+001
    endloop
  endfacet
  facet normal -9.986895e-001  5.117881e-002  0.000000e+000
    outer loop
      vertex -6.008736e+000 -1.051236e+000  1.500000e+001
      vertex -5.869798e+000  1.659962e+000 -1.493005e-016
      vertex -6.008736e+000 -1.051236e+000  9.455041e-017
    endloop
  endfacet
  facet normal -9.219937e-001 -3.872048e-001  0.000000e+000
    outer loop
      vertex -6.008736e+000 -1.051236e+000  1.500000e+001
      vertex -6.008736e+000 -1.051236e+000  9.455041e-017
      vertex -4.957569e+000 -3.554224e+000  1.500000e+001
    endloop
  endfacet
  facet normal -9.219937e-001 -3.872048e-001  -0.000000e+000
    outer loop
      vertex -4.957569e+000 -3.554224e+000  1.500000e+001
      vertex -6.008736e+000 -1.051236e+000  9.455041e-017
      vertex -4.957569e+000 -3.554224e+000  3.196744e-016
    endloop
  endfacet
  facet normal -6.626858e-001 -7.488974e-001  0.000000e+000
    outer loop
      vertex -4.957569e+000 -3.554224e+000  1.500000e+001
      vertex -4.957569e+000 -3.554224e+000  3.196744e-016
      vertex -2.924496e+000 -5.353254e+000  1.500000e+001
    endloop
  endfacet
  facet normal -6.626858e-001 -7.488974e-001  -0.000000e+000
    outer loop
      vertex -2.924496e+000 -5.353254e+000  1.500000e+001
      vertex -4.957569e+000 -3.554224e+000  3.196744e-016
      vertex -2.924496e+000 -5.353254e+000  4.814830e-016
    endloop
  endfacet
  facet normal -2.721249e-001 -9.622620e-001  0.000000e+000
    outer loop
      vertex -2.924496e+000 -5.353254e+000  7.900000e+001
      vertex -2.924496e+000 -5.353254e+000  3.900000e+001
      vertex -3.121900e-001 -6.092006e+000  7.900000e+001
    endloop
  endfacet
  facet normal -2.721249e-001 -9.622620e-001  -0.000000e+000
    outer loop
      vertex -3.121900e-001 -6.092006e+000  7.900000e+001
      vertex -2.924496e+000 -5.353254e+000  3.900000e+001
      vertex -3.121900e-001 -6.092006e+000  3.900000e+001
    endloop
  endfacet
  facet normal  1.723339e-001 -9.850386e-001  0.000000e+000
    outer loop
      vertex -3.121900e-001 -6.092006e+000  7.900000e+001
      vertex -3.121900e-001 -6.092006e+000  3.900000e+001
      vertex  2.361949e+000 -5.624162e+000  7.900000e+001
    endloop
  endfacet
  facet normal  1.723339e-001 -9.850386e-001  0.000000e+000
    outer loop
      vertex  2.361949e+000 -5.624162e+000  7.900000e+001
      vertex -3.121900e-001 -6.092006e+000  3.900000e+001
      vertex  2.361949e+000 -5.624162e+000  3.900000e+001
    endloop
  endfacet
  facet normal  5.826595e-001 -8.127164e-001  0.000000e+000
    outer loop
      vertex  2.361949e+000 -5.624162e+000  7.900000e+001
      vertex  2.361949e+000 -5.624162e+000  3.900000e+001
      vertex  4.568275e+000 -4.042384e+000  7.900000e+001
    endloop
  endfacet
  facet normal  5.826595e-001 -8.127164e-001  0.000000e+000
    outer loop
      vertex  4.568275e+000 -4.042384e+000  7.900000e+001
      vertex  2.361949e+000 -5.624162e+000  3.900000e+001
      vertex  4.568275e+000 -4.042384e+000  3.900000e+001
    endloop
  endfacet
  facet normal  8.775827e-001 -4.794255e-001  0.000000e+000
    outer loop
      vertex  4.568275e+000 -4.042384e+000  7.900000e+001
      vertex  4.568275e+000 -4.042384e+000  3.900000e+001
      vertex  5.869798e+000 -1.659962e+000  7.900000e+001
    endloop
  endfacet
  facet normal  8.775827e-001 -4.794255e-001  0.000000e+000
    outer loop
      vertex  5.869798e+000 -1.659962e+000  7.900000e+001
      vertex  4.568275e+000 -4.042384e+000  3.900000e+001
      vertex  5.869798e+000 -1.659962e+000  3.900000e+001
    endloop
  endfacet
  facet normal  9.986895e-001 -5.117881e-002  0.000000e+000
    outer loop
      vertex  5.869798e+000 -1.659962e+000  7.900000e+001
      vertex  5.869798e+000 -1.659962e+000  3.900000e+001
      vertex  6.008736e+000  1.051236e+000  7.900000e+001
    endloop
  endfacet
  facet normal  9.986895e-001 -5.117881e-002  0.000000e+000
    outer loop
      vertex  6.008736e+000  1.051236e+000  7.900000e+001
      vertex  5.869798e+000 -1.659962e+000  3.900000e+001
      vertex  6.008736e+000  1.051236e+000  3.900000e+001
    endloop
  endfacet
  facet normal  9.219937e-001  3.872048e-001  -0.000000e+000
    outer loop
      vertex  6.008736e+000  1.051236e+000  7.900000e+001
      vertex  6.008736e+000  1.051236e+000  3.900000e+001
      vertex  4.957569e+000  3.554224e+000  7.900000e+001
    endloop
  endfacet
  facet normal  9.219937e-001  3.872048e-001  0.000000e+000
    outer loop
      vertex  4.957569e+000  3.554224e+000  7.900000e+001
      vertex  6.008736e+000  1.051236e+000  3.900000e+001
      vertex  4.957569e+000  3.554224e+000  3.900000e+001
    endloop
  endfacet
  facet normal  6.626859e-001  7.488974e-001  -0.000000e+000
    outer loop
      vertex  4.957569e+000  3.554224e+000  7.900000e+001
      vertex  4.957569e+000  3.554224e+000  3.900000e+001
      vertex  2.924496e+000  5.353254e+000  7.900000e+001
    endloop
  endfacet
  facet normal  6.626859e-001  7.488974e-001  0.000000e+000
    outer loop
      vertex  2.924496e+000  5.353254e+000  7.900000e+001
      vertex  4.957569e+000  3.554224e+000  3.900000e+001
      vertex  2.924496e+000  5.353254e+000  3.900000e+001
    endloop
  endfacet
  facet normal -2.990057e-001 -9.542513e-001  0.000000e+000
    outer loop
      vertex -4.075117e+000 -7.459452e+000  3.900000e+001
      vertex -4.075117e+000 -7.459452e+000  1.500000e+001
      vertex -9.103087e-001 -8.451115e+000  3.900000e+001
    endloop
  endfacet
  facet normal -2.990057e-001 -9.542513e-001  -0.000000e+000
    outer loop
      vertex -9.103087e-001 -8.451115e+000  3.900000e+001
      vertex -4.075117e+000 -7.459452e+000  1.500000e+001
      vertex -9.103087e-001 -8.451115e+000  1.500000e+001
    endloop
  endfacet
  facet normal  8.893102e-002 -9.960378e-001  0.000000e+000
    outer loop
      vertex -9.103087e-001 -8.451115e+000  3.900000e+001
      vertex -9.103087e-001 -8.451115e+000  1.500000e+001
      vertex  2.393086e+000 -8.156172e+000  3.900000e+001
    endloop
  endfacet
  facet normal  8.893102e-002 -9.960378e-001  0.000000e+000
    outer loop
      vertex  2.393086e+000 -8.156172e+000  3.900000e+001
      vertex -9.103087e-001 -8.451115e+000  1.500000e+001
      vertex  2.393086e+000 -8.156172e+000  1.500000e+001
    endloop
  endfacet
  facet normal  4.633286e-001 -8.861865e-001  0.000000e+000
    outer loop
      vertex  2.393086e+000 -8.156172e+000  3.900000e+001
      vertex  2.393086e+000 -8.156172e+000  1.500000e+001
      vertex  5.332155e+000 -6.619526e+000  3.900000e+001
    endloop
  endfacet
  facet normal  4.633286e-001 -8.861865e-001  0.000000e+000
    outer loop
      vertex  5.332155e+000 -6.619526e+000  3.900000e+001
      vertex  2.393086e+000 -8.156172e+000  1.500000e+001
      vertex  5.332155e+000 -6.619526e+000  1.500000e+001
    endloop
  endfacet
  facet normal  7.671888e-001 -6.414213e-001  0.000000e+000
    outer loop
      vertex  5.332155e+000 -6.619526e+000  3.900000e+001
      vertex  5.332155e+000 -6.619526e+000  1.500000e+001
      vertex  7.459452e+000 -4.075117e+000  3.900000e+001
    endloop
  endfacet
  facet normal  7.671888e-001 -6.414213e-001  0.000000e+000
    outer loop
      vertex  7.459452e+000 -4.075117e+000  3.900000e+001
      vertex  5.332155e+000 -6.619526e+000  1.500000e+001
      vertex  7.459452e+000 -4.075117e+000  1.500000e+001
    endloop
  endfacet
  facet normal  9.542513e-001 -2.990057e-001  0.000000e+000
    outer loop
      vertex  7.459452e+000 -4.075117e+000  3.900000e+001
      vertex  7.459452e+000 -4.075117e+000  1.500000e+001
      vertex  8.451115e+000 -9.103087e-001  3.900000e+001
    endloop
  endfacet
  facet normal  9.542513e-001 -2.990057e-001  0.000000e+000
    outer loop
      vertex  8.451115e+000 -9.103087e-001  3.900000e+001
      vertex  7.459452e+000 -4.075117e+000  1.500000e+001
      vertex  8.451115e+000 -9.103087e-001  1.500000e+001
    endloop
  endfacet
  facet normal  9.960378e-001  8.893102e-002  -0.000000e+000
    outer loop
      vertex  8.451115e+000 -9.103087e-001  3.900000e+001
      vertex  8.451115e+000 -9.103087e-001  1.500000e+001
      vertex  8.156172e+000  2.393086e+000  3.900000e+001
    endloop
  endfacet
  facet normal  9.960378e-001  8.893102e-002  0.000000e+000
    outer loop
      vertex  8.156172e+000  2.393086e+000  3.900000e+001
      vertex  8.451115e+000 -9.103087e-001  1.500000e+001
      vertex  8.156172e+000  2.393086e+000  1.500000e+001
    endloop
  endfacet
  facet normal  8.861865e-001  4.633286e-001  -0.000000e+000
    outer loop
      vertex  8.156172e+000  2.393086e+000  3.900000e+001
      vertex  8.156172e+000  2.393086e+000  1.500000e+001
      vertex  6.619526e+000  5.332155e+000  3.900000e+001
    endloop
  endfacet
  facet normal  8.861865e-001  4.633286e-001  0.000000e+000
    outer loop
      vertex  6.619526e+000  5.332155e+000  3.900000e+001
      vertex  8.156172e+000  2.393086e+000  1.500000e+001
      vertex  6.619526e+000  5.332155e+000  1.500000e+001
    endloop
  endfacet
  facet normal  6.414213e-001  7.671888e-001  -0.000000e+000
    outer loop
      vertex  6.619526e+000  5.332155e+000  3.900000e+001
      vertex  6.619526e+000  5.332155e+000  1.500000e+001
      vertex  4.075117e+000  7.459452e+000  3.900000e+001
    endloop
  endfacet
  facet normal  6.414213e-001  7.671888e-001  0.000000e+000
    outer loop
      vertex  4.075117e+000  7.459452e+000  3.900000e+001
      vertex  6.619526e+000  5.332155e+000  1.500000e+001
      vertex  4.075117e+000  7.459452e+000  1.500000e+001
    endloop
  endfacet
  facet normal -2.721248e-001 -9.622619e-001  0.000000e+000
    outer loop
      vertex -2.924496e+000 -5.353254e+000  1.500000e+001
      vertex -2.924496e+000 -5.353254e+000  4.814830e-016
      vertex -3.121900e-001 -6.092006e+000  1.500000e+001
    endloop
  endfacet
  facet normal -2.721248e-001 -9.622619e-001  -0.000000e+000
    outer loop
      vertex -3.121900e-001 -6.092006e+000  1.500000e+001
      vertex -2.924496e+000 -5.353254e+000  4.814830e-016
      vertex -3.121900e-001 -6.092006e+000  5.479279e-016
    endloop
  endfacet
  facet normal  1.723339e-001 -9.850386e-001  0.000000e+000
    outer loop
      vertex -3.121900e-001 -6.092006e+000  1.500000e+001
      vertex -3.121900e-001 -6.092006e+000  5.479279e-016
      vertex  2.361949e+000 -5.624162e+000  1.500000e+001
    endloop
  endfacet
  facet normal  1.723339e-001 -9.850386e-001  0.000000e+000
    outer loop
      vertex  2.361949e+000 -5.624162e+000  1.500000e+001
      vertex -3.121900e-001 -6.092006e+000  5.479279e-016
      vertex  2.361949e+000 -5.624162e+000  5.058490e-016
    endloop
  endfacet
  facet normal  5.826595e-001 -8.127164e-001  0.000000e+000
    outer loop
      vertex  2.361949e+000 -5.624162e+000  1.500000e+001
      vertex  2.361949e+000 -5.624162e+000  5.058490e-016
      vertex  4.568275e+000 -4.042384e+000  1.500000e+001
    endloop
  endfacet
  facet normal  5.826595e-001 -8.127164e-001  0.000000e+000
    outer loop
      vertex  4.568275e+000 -4.042384e+000  1.500000e+001
      vertex  2.361949e+000 -5.624162e+000  5.058490e-016
      vertex  4.568275e+000 -4.042384e+000  3.635806e-016
    endloop
  endfacet
  facet normal  8.775826e-001 -4.794254e-001  0.000000e+000
    outer loop
      vertex  4.568275e+000 -4.042384e+000  1.500000e+001
      vertex  4.568275e+000 -4.042384e+000  3.635806e-016
      vertex  5.869798e+000 -1.659962e+000  1.500000e+001
    endloop
  endfacet
  facet normal  8.775826e-001 -4.794254e-001  0.000000e+000
    outer loop
      vertex  5.869798e+000 -1.659962e+000  1.500000e+001
      vertex  4.568275e+000 -4.042384e+000  3.635806e-016
      vertex  5.869798e+000 -1.659962e+000  1.493005e-016
    endloop
  endfacet
  facet normal  9.986895e-001 -5.117881e-002  0.000000e+000
    outer loop
      vertex  5.869798e+000 -1.659962e+000  1.500000e+001
      vertex  5.869798e+000 -1.659962e+000  1.493005e-016
      vertex  6.008736e+000  1.051236e+000  1.500000e+001
    endloop
  endfacet
  facet normal  9.986895e-001 -5.117881e-002  0.000000e+000
    outer loop
      vertex  6.008736e+000  1.051236e+000  1.500000e+001
      vertex  5.869798e+000 -1.659962e+000  1.493005e-016
      vertex  6.008736e+000  1.051236e+000 -9.455041e-017
    endloop
  endfacet
  facet normal  9.219937e-001  3.872048e-001  -0.000000e+000
    outer loop
      vertex  6.008736e+000  1.051236e+000  1.500000e+001
      vertex  6.008736e+000  1.051236e+000 -9.455041e-017
      vertex  4.957569e+000  3.554224e+000  1.500000e+001
    endloop
  endfacet
  facet normal  9.219937e-001  3.872048e-001  0.000000e+000
    outer loop
      vertex  4.957569e+000  3.554224e+000  1.500000e+001
      vertex  6.008736e+000  1.051236e+000 -9.455041e-017
      vertex  4.957569e+000  3.554224e+000 -3.196744e-016
    endloop
  endfacet
  facet normal  6.626858e-001  7.488974e-001  -0.000000e+000
    outer loop
      vertex  4.957569e+000  3.554224e+000  1.500000e+001
      vertex  4.957569e+000  3.554224e+000 -3.196744e-016
      vertex  2.924496e+000  5.353254e+000  1.500000e+001
    endloop
  endfacet
  facet normal  6.626858e-001  7.488974e-001  0.000000e+000
    outer loop
      vertex  2.924496e+000  5.353254e+000  1.500000e+001
      vertex  4.957569e+000  3.554224e+000 -3.196744e-016
      vertex  2.924496e+000  5.353254e+000 -4.814830e-016
    endloop
  endfacet
endsolid CATIA STL
