solid CATIA STL
  facet normal  0.000000e+000  -0.000000e+000  1.000000e+000
    outer loop
      vertex  0.000000e+000 -6.627802e-007  5.000000e+001
      vertex  2.000000e+000 -6.627802e-007  5.000000e+001
      vertex  2.000000e+000  1.000000e+001  5.000000e+001
    endloop
  endfacet
  facet normal  0.000000e+000  -0.000000e+000  1.000000e+000
    outer loop
      vertex  0.000000e+000 -6.627802e-007  5.000000e+001
      vertex  2.000000e+000  1.000000e+001  5.000000e+001
      vertex  2.000000e+000  1.950000e+001  5.000000e+001
    endloop
  endfacet
  facet normal  0.000000e+000  -0.000000e+000  1.000000e+000
    outer loop
      vertex  0.000000e+000 -6.627802e-007  5.000000e+001
      vertex  2.000000e+000  1.950000e+001  5.000000e+001
      vertex  2.000000e+000  3.000000e+001  5.000000e+001
    endloop
  endfacet
  facet normal  0.000000e+000  0.000000e+000  1.000000e+000
    outer loop
      vertex  0.000000e+000 -6.627802e-007  5.000000e+001
      vertex  2.000000e+000  3.000000e+001  5.000000e+001
      vertex  0.000000e+000  3.000000e+001  5.000000e+001
    endloop
  endfacet
  facet normal  0.000000e+000  0.000000e+000  1.000000e+000
    outer loop
      vertex  7.000000e+000  1.000000e+001  5.000000e+001
      vertex  7.000000e+000  1.950000e+001  5.000000e+001
      vertex  2.000000e+000  1.000000e+001  5.000000e+001
    endloop
  endfacet
  facet normal  0.000000e+000  0.000000e+000  1.000000e+000
    outer loop
      vertex  2.000000e+000  1.000000e+001  5.000000e+001
      vertex  7.000000e+000  1.950000e+001  5.000000e+001
      vertex  2.000000e+000  1.950000e+001  5.000000e+001
    endloop
  endfacet
  facet normal  1.000000e+000  0.000000e+000  0.000000e+000
    outer loop
      vertex  7.000000e+000  2.100000e+001  4.900000e+001
      vertex  7.000000e+000  8.500000e+000  4.800000e+001
      vertex  7.000000e+000  1.000000e+001  4.800000e+001
    endloop
  endfacet
  facet normal  1.000000e+000  0.000000e+000  0.000000e+000
    outer loop
      vertex  7.000000e+000  2.100000e+001  4.900000e+001
      vertex  7.000000e+000  1.000000e+001  4.800000e+001
      vertex  7.000000e+000  1.950000e+001  4.800000e+001
    endloop
  endfacet
  facet normal  1.000000e+000  0.000000e+000  0.000000e+000
    outer loop
      vertex  7.000000e+000  2.100000e+001  4.900000e+001
      vertex  7.000000e+000  1.950000e+001  4.800000e+001
      vertex  7.000000e+000  2.100000e+001  4.800000e+001
    endloop
  endfacet
  facet normal  1.000000e+000  0.000000e+000  0.000000e+000
    outer loop
      vertex  7.000000e+000  8.500000e+000  4.800000e+001
      vertex  7.000000e+000  2.100000e+001  4.900000e+001
      vertex  7.000000e+000  1.950000e+001  4.900000e+001
    endloop
  endfacet
  facet normal  1.000000e+000  0.000000e+000  0.000000e+000
    outer loop
      vertex  7.000000e+000  8.500000e+000  4.800000e+001
      vertex  7.000000e+000  1.950000e+001  4.900000e+001
      vertex  7.000000e+000  1.000000e+001  4.900000e+001
    endloop
  endfacet
  facet normal  1.000000e+000  0.000000e+000  0.000000e+000
    outer loop
      vertex  7.000000e+000  8.500000e+000  4.800000e+001
      vertex  7.000000e+000  1.000000e+001  4.900000e+001
      vertex  7.000000e+000  8.500000e+000  4.900000e+001
    endloop
  endfacet
  facet normal  9.999999e-001  0.000000e+000  -0.000000e+000
    outer loop
      vertex  7.000000e+000  8.500000e+000  9.000000e+000
      vertex  7.000000e+000  2.100000e+001  9.000000e+000
      vertex  7.000000e+000  2.100000e+001  4.700000e+001
    endloop
  endfacet
  facet normal  1.000000e+000  0.000000e+000  0.000000e+000
    outer loop
      vertex  7.000000e+000  8.500000e+000  9.000000e+000
      vertex  7.000000e+000  2.100000e+001  4.700000e+001
      vertex  7.000000e+000  1.950000e+001  4.700000e+001
    endloop
  endfacet
  facet normal  1.000000e+000  0.000000e+000  0.000000e+000
    outer loop
      vertex  7.000000e+000  8.500000e+000  9.000000e+000
      vertex  7.000000e+000  1.950000e+001  4.700000e+001
      vertex  7.000000e+000  1.000000e+001  4.700000e+001
    endloop
  endfacet
  facet normal  1.000000e+000  0.000000e+000  0.000000e+000
    outer loop
      vertex  7.000000e+000  8.500000e+000  9.000000e+000
      vertex  7.000000e+000  1.000000e+001  4.700000e+001
      vertex  7.000000e+000  8.500000e+000  4.700000e+001
    endloop
  endfacet
  facet normal  1.000000e+000  0.000000e+000  0.000000e+000
    outer loop
      vertex  7.000000e+000  1.000000e+001  4.900000e+001
      vertex  7.000000e+000  1.950000e+001  4.900000e+001
      vertex  7.000000e+000  1.000000e+001  5.000000e+001
    endloop
  endfacet
  facet normal  1.000000e+000  -0.000000e+000  0.000000e+000
    outer loop
      vertex  7.000000e+000  1.000000e+001  5.000000e+001
      vertex  7.000000e+000  1.950000e+001  4.900000e+001
      vertex  7.000000e+000  1.950000e+001  5.000000e+001
    endloop
  endfacet
  facet normal  1.000000e+000  0.000000e+000  0.000000e+000
    outer loop
      vertex  7.000000e+000  1.000000e+001  4.700000e+001
      vertex  7.000000e+000  1.950000e+001  4.700000e+001
      vertex  7.000000e+000  1.000000e+001  4.800000e+001
    endloop
  endfacet
  facet normal  1.000000e+000  -0.000000e+000  0.000000e+000
    outer loop
      vertex  7.000000e+000  1.000000e+001  4.800000e+001
      vertex  7.000000e+000  1.950000e+001  4.700000e+001
      vertex  7.000000e+000  1.950000e+001  4.800000e+001
    endloop
  endfacet
  facet normal  0.000000e+000  1.000000e+000  0.000000e+000
    outer loop
      vertex  7.000000e+000  1.950000e+001  4.700000e+001
      vertex  2.000000e+000  1.950000e+001  4.700000e+001
      vertex  7.000000e+000  1.950000e+001  4.800000e+001
    endloop
  endfacet
  facet normal  0.000000e+000  1.000000e+000  0.000000e+000
    outer loop
      vertex  7.000000e+000  1.950000e+001  4.800000e+001
      vertex  2.000000e+000  1.950000e+001  4.700000e+001
      vertex  2.000000e+000  1.950000e+001  4.800000e+001
    endloop
  endfacet
  facet normal  0.000000e+000 -1.000000e+000  -0.000000e+000
    outer loop
      vertex  7.000000e+000  1.000000e+001  4.700000e+001
      vertex  7.000000e+000  1.000000e+001  4.800000e+001
      vertex  2.000000e+000  1.000000e+001  4.700000e+001
    endloop
  endfacet
  facet normal  0.000000e+000 -1.000000e+000  0.000000e+000
    outer loop
      vertex  2.000000e+000  1.000000e+001  4.700000e+001
      vertex  7.000000e+000  1.000000e+001  4.800000e+001
      vertex  2.000000e+000  1.000000e+001  4.800000e+001
    endloop
  endfacet
  facet normal  0.000000e+000  0.000000e+000  1.000000e+000
    outer loop
      vertex  7.000000e+000  1.950000e+001  4.700000e+001
      vertex  7.000000e+000  2.100000e+001  4.700000e+001
      vertex  2.000000e+000  1.950000e+001  4.700000e+001
    endloop
  endfacet
  facet normal  0.000000e+000  0.000000e+000  1.000000e+000
    outer loop
      vertex  2.000000e+000  1.950000e+001  4.700000e+001
      vertex  7.000000e+000  2.100000e+001  4.700000e+001
      vertex  2.000000e+000  2.100000e+001  4.700000e+001
    endloop
  endfacet
  facet normal  0.000000e+000  0.000000e+000  1.000000e+000
    outer loop
      vertex  7.000000e+000  8.500000e+000  4.700000e+001
      vertex  7.000000e+000  1.000000e+001  4.700000e+001
      vertex  2.000000e+000  8.500000e+000  4.700000e+001
    endloop
  endfacet
  facet normal  0.000000e+000  0.000000e+000  1.000000e+000
    outer loop
      vertex  2.000000e+000  8.500000e+000  4.700000e+001
      vertex  7.000000e+000  1.000000e+001  4.700000e+001
      vertex  2.000000e+000  1.000000e+001  4.700000e+001
    endloop
  endfacet
  facet normal  1.000000e+000  0.000000e+000  0.000000e+000
    outer loop
      vertex  2.000000e+000  1.000000e+001  5.000000e+001
      vertex  2.000000e+000  8.500000e+000  4.900000e+001
      vertex  2.000000e+000  1.000000e+001  4.900000e+001
    endloop
  endfacet
  facet normal  1.000000e+000  -0.000000e+000  0.000000e+000
    outer loop
      vertex  2.000000e+000  3.000000e+001  5.000000e+001
      vertex  2.000000e+000  1.950000e+001  5.000000e+001
      vertex  2.000000e+000  1.950000e+001  4.900000e+001
    endloop
  endfacet
  facet normal  1.000000e+000  0.000000e+000  0.000000e+000
    outer loop
      vertex  2.000000e+000  3.000000e+001  5.000000e+001
      vertex  2.000000e+000  1.950000e+001  4.900000e+001
      vertex  2.000000e+000  2.100000e+001  4.900000e+001
    endloop
  endfacet
  facet normal  1.000000e+000  -0.000000e+000  0.000000e+000
    outer loop
      vertex  2.000000e+000  3.000000e+001  5.000000e+001
      vertex  2.000000e+000  2.100000e+001  4.900000e+001
      vertex  2.000000e+000  2.100000e+001  4.800000e+001
    endloop
  endfacet
  facet normal  1.000000e+000  -0.000000e+000  0.000000e+000
    outer loop
      vertex  2.000000e+000  3.000000e+001  5.000000e+001
      vertex  2.000000e+000  2.100000e+001  4.800000e+001
      vertex  2.000000e+000  2.100000e+001  4.700000e+001
    endloop
  endfacet
  facet normal  1.000000e+000  -0.000000e+000  0.000000e+000
    outer loop
      vertex  2.000000e+000  3.000000e+001  5.000000e+001
      vertex  2.000000e+000  2.100000e+001  4.700000e+001
      vertex  2.000000e+000  2.100000e+001  9.000001e+000
    endloop
  endfacet
  facet normal  1.000000e+000  -0.000000e+000  0.000000e+000
    outer loop
      vertex  2.000000e+000  3.000000e+001  5.000000e+001
      vertex  2.000000e+000  2.100000e+001  9.000001e+000
      vertex  2.000000e+000  3.000000e+001  0.000000e+000
    endloop
  endfacet
  facet normal  9.999999e-001  0.000000e+000  -0.000000e+000
    outer loop
      vertex  2.000000e+000 -6.627802e-007  5.000000e+001
      vertex  2.000000e+000  0.000000e+000  0.000000e+000
      vertex  2.000000e+000  8.500000e+000  9.000000e+000
    endloop
  endfacet
  facet normal  1.000000e+000  0.000000e+000  -0.000000e+000
    outer loop
      vertex  2.000000e+000 -6.627802e-007  5.000000e+001
      vertex  2.000000e+000  8.500000e+000  9.000000e+000
      vertex  2.000000e+000  8.500000e+000  4.700000e+001
    endloop
  endfacet
  facet normal  1.000000e+000  0.000000e+000  -0.000000e+000
    outer loop
      vertex  2.000000e+000 -6.627802e-007  5.000000e+001
      vertex  2.000000e+000  8.500000e+000  4.700000e+001
      vertex  2.000000e+000  8.500000e+000  4.800000e+001
    endloop
  endfacet
  facet normal  1.000000e+000  0.000000e+000  -0.000000e+000
    outer loop
      vertex  2.000000e+000 -6.627802e-007  5.000000e+001
      vertex  2.000000e+000  8.500000e+000  4.800000e+001
      vertex  2.000000e+000  8.500000e+000  4.900000e+001
    endloop
  endfacet
  facet normal  1.000000e+000  0.000000e+000  -0.000000e+000
    outer loop
      vertex  2.000000e+000 -6.627802e-007  5.000000e+001
      vertex  2.000000e+000  8.500000e+000  4.900000e+001
      vertex  2.000000e+000  1.000000e+001  5.000000e+001
    endloop
  endfacet
  facet normal  1.000000e+000  0.000000e+000  0.000000e+000
    outer loop
      vertex  2.000000e+000  1.950000e+001  4.800000e+001
      vertex  2.000000e+000  1.950000e+001  4.700000e+001
      vertex  2.000000e+000  2.100000e+001  4.800000e+001
    endloop
  endfacet
  facet normal  1.000000e+000  0.000000e+000  0.000000e+000
    outer loop
      vertex  2.000000e+000  2.100000e+001  4.800000e+001
      vertex  2.000000e+000  1.950000e+001  4.700000e+001
      vertex  2.000000e+000  2.100000e+001  4.700000e+001
    endloop
  endfacet
  facet normal  1.000000e+000  0.000000e+000  0.000000e+000
    outer loop
      vertex  2.000000e+000  0.000000e+000  0.000000e+000
      vertex  2.000000e+000  3.000000e+001  0.000000e+000
      vertex  2.000000e+000  8.500000e+000  9.000000e+000
    endloop
  endfacet
  facet normal  1.000000e+000  -0.000000e+000  0.000000e+000
    outer loop
      vertex  2.000000e+000  8.500000e+000  9.000000e+000
      vertex  2.000000e+000  3.000000e+001  0.000000e+000
      vertex  2.000000e+000  2.100000e+001  9.000001e+000
    endloop
  endfacet
  facet normal  1.000000e+000  0.000000e+000  0.000000e+000
    outer loop
      vertex  2.000000e+000  8.500000e+000  4.700000e+001
      vertex  2.000000e+000  1.000000e+001  4.700000e+001
      vertex  2.000000e+000  8.500000e+000  4.800000e+001
    endloop
  endfacet
  facet normal  1.000000e+000  -0.000000e+000  0.000000e+000
    outer loop
      vertex  2.000000e+000  8.500000e+000  4.800000e+001
      vertex  2.000000e+000  1.000000e+001  4.700000e+001
      vertex  2.000000e+000  1.000000e+001  4.800000e+001
    endloop
  endfacet
  facet normal  0.000000e+000 -1.000000e+000  0.000000e+000
    outer loop
      vertex  7.000000e+000  8.500000e+000  4.900000e+001
      vertex  2.000000e+000  8.500000e+000  4.900000e+001
      vertex  7.000000e+000  8.500000e+000  4.800000e+001
    endloop
  endfacet
  facet normal  0.000000e+000 -1.000000e+000  0.000000e+000
    outer loop
      vertex  7.000000e+000  8.500000e+000  4.800000e+001
      vertex  2.000000e+000  8.500000e+000  4.900000e+001
      vertex  2.000000e+000  8.500000e+000  4.800000e+001
    endloop
  endfacet
  facet normal  0.000000e+000  0.000000e+000 -1.000000e+000
    outer loop
      vertex  7.000000e+000  1.000000e+001  4.800000e+001
      vertex  7.000000e+000  8.500000e+000  4.800000e+001
      vertex  2.000000e+000  1.000000e+001  4.800000e+001
    endloop
  endfacet
  facet normal  0.000000e+000  0.000000e+000 -1.000000e+000
    outer loop
      vertex  2.000000e+000  1.000000e+001  4.800000e+001
      vertex  7.000000e+000  8.500000e+000  4.800000e+001
      vertex  2.000000e+000  8.500000e+000  4.800000e+001
    endloop
  endfacet
  facet normal  0.000000e+000  0.000000e+000 -1.000000e+000
    outer loop
      vertex  7.000000e+000  2.100000e+001  4.800000e+001
      vertex  7.000000e+000  1.950000e+001  4.800000e+001
      vertex  2.000000e+000  2.100000e+001  4.800000e+001
    endloop
  endfacet
  facet normal  0.000000e+000  0.000000e+000 -1.000000e+000
    outer loop
      vertex  2.000000e+000  2.100000e+001  4.800000e+001
      vertex  7.000000e+000  1.950000e+001  4.800000e+001
      vertex  2.000000e+000  1.950000e+001  4.800000e+001
    endloop
  endfacet
  facet normal  0.000000e+000  1.000000e+000  0.000000e+000
    outer loop
      vertex  7.000000e+000  2.100000e+001  4.800000e+001
      vertex  2.000000e+000  2.100000e+001  4.800000e+001
      vertex  7.000000e+000  2.100000e+001  4.900000e+001
    endloop
  endfacet
  facet normal  0.000000e+000  1.000000e+000  0.000000e+000
    outer loop
      vertex  7.000000e+000  2.100000e+001  4.900000e+001
      vertex  2.000000e+000  2.100000e+001  4.800000e+001
      vertex  2.000000e+000  2.100000e+001  4.900000e+001
    endloop
  endfacet
  facet normal  0.000000e+000  0.000000e+000  1.000000e+000
    outer loop
      vertex  7.000000e+000  1.950000e+001  4.900000e+001
      vertex  7.000000e+000  2.100000e+001  4.900000e+001
      vertex  2.000000e+000  1.950000e+001  4.900000e+001
    endloop
  endfacet
  facet normal  0.000000e+000  0.000000e+000  1.000000e+000
    outer loop
      vertex  2.000000e+000  1.950000e+001  4.900000e+001
      vertex  7.000000e+000  2.100000e+001  4.900000e+001
      vertex  2.000000e+000  2.100000e+001  4.900000e+001
    endloop
  endfacet
  facet normal  0.000000e+000  1.000000e+000  0.000000e+000
    outer loop
      vertex  7.000000e+000  1.950000e+001  4.900000e+001
      vertex  2.000000e+000  1.950000e+001  4.900000e+001
      vertex  7.000000e+000  1.950000e+001  5.000000e+001
    endloop
  endfacet
  facet normal  0.000000e+000  1.000000e+000  0.000000e+000
    outer loop
      vertex  7.000000e+000  1.950000e+001  5.000000e+001
      vertex  2.000000e+000  1.950000e+001  4.900000e+001
      vertex  2.000000e+000  1.950000e+001  5.000000e+001
    endloop
  endfacet
  facet normal  0.000000e+000 -1.000000e+000  -0.000000e+000
    outer loop
      vertex  7.000000e+000  1.000000e+001  4.900000e+001
      vertex  7.000000e+000  1.000000e+001  5.000000e+001
      vertex  2.000000e+000  1.000000e+001  4.900000e+001
    endloop
  endfacet
  facet normal  0.000000e+000 -1.000000e+000  0.000000e+000
    outer loop
      vertex  2.000000e+000  1.000000e+001  4.900000e+001
      vertex  7.000000e+000  1.000000e+001  5.000000e+001
      vertex  2.000000e+000  1.000000e+001  5.000000e+001
    endloop
  endfacet
  facet normal  0.000000e+000  0.000000e+000  1.000000e+000
    outer loop
      vertex  7.000000e+000  8.500000e+000  4.900000e+001
      vertex  7.000000e+000  1.000000e+001  4.900000e+001
      vertex  2.000000e+000  8.500000e+000  4.900000e+001
    endloop
  endfacet
  facet normal  0.000000e+000  0.000000e+000  1.000000e+000
    outer loop
      vertex  2.000000e+000  8.500000e+000  4.900000e+001
      vertex  7.000000e+000  1.000000e+001  4.900000e+001
      vertex  2.000000e+000  1.000000e+001  4.900000e+001
    endloop
  endfacet
  facet normal  -0.000000e+000  1.000000e+000  0.000000e+000
    outer loop
      vertex  7.000000e+000  2.100000e+001  9.000000e+000
      vertex  2.000000e+000  2.100000e+001  9.000001e+000
      vertex  7.000000e+000  2.100000e+001  4.700000e+001
    endloop
  endfacet
  facet normal  0.000000e+000  1.000000e+000  0.000000e+000
    outer loop
      vertex  7.000000e+000  2.100000e+001  4.700000e+001
      vertex  2.000000e+000  2.100000e+001  9.000001e+000
      vertex  2.000000e+000  2.100000e+001  4.700000e+001
    endloop
  endfacet
  facet normal -1.907349e-007  0.000000e+000 -1.000000e+000
    outer loop
      vertex  7.000000e+000  2.100000e+001  9.000000e+000
      vertex  7.000000e+000  8.500000e+000  9.000000e+000
      vertex  2.000000e+000  2.100000e+001  9.000001e+000
    endloop
  endfacet
  facet normal  0.000000e+000  7.629395e-008 -1.000000e+000
    outer loop
      vertex  2.000000e+000  2.100000e+001  9.000001e+000
      vertex  7.000000e+000  8.500000e+000  9.000000e+000
      vertex  2.000000e+000  8.500000e+000  9.000000e+000
    endloop
  endfacet
  facet normal  0.000000e+000 -1.000000e+000  0.000000e+000
    outer loop
      vertex  7.000000e+000  8.500000e+000  4.700000e+001
      vertex  2.000000e+000  8.500000e+000  4.700000e+001
      vertex  7.000000e+000  8.500000e+000  9.000000e+000
    endloop
  endfacet
  facet normal  0.000000e+000 -1.000000e+000  0.000000e+000
    outer loop
      vertex  7.000000e+000  8.500000e+000  9.000000e+000
      vertex  2.000000e+000  8.500000e+000  4.700000e+001
      vertex  2.000000e+000  8.500000e+000  9.000000e+000
    endloop
  endfacet
  facet normal -1.000000e+000  0.000000e+000  0.000000e+000
    outer loop
      vertex  0.000000e+000  0.000000e+000  0.000000e+000
      vertex  0.000000e+000 -6.627802e-007  5.000000e+001
      vertex  0.000000e+000  3.000000e+001  0.000000e+000
    endloop
  endfacet
  facet normal -1.000000e+000  0.000000e+000  0.000000e+000
    outer loop
      vertex  0.000000e+000  3.000000e+001  0.000000e+000
      vertex  0.000000e+000 -6.627802e-007  5.000000e+001
      vertex  0.000000e+000  3.000000e+001  5.000000e+001
    endloop
  endfacet
  facet normal  0.000000e+000 -1.000000e+000 -1.325560e-008
    outer loop
      vertex  2.000000e+000 -6.627802e-007  5.000000e+001
      vertex  0.000000e+000 -6.627802e-007  5.000000e+001
      vertex  2.000000e+000  0.000000e+000  0.000000e+000
    endloop
  endfacet
  facet normal  -0.000000e+000 -1.000000e+000 -1.325560e-008
    outer loop
      vertex  2.000000e+000  0.000000e+000  0.000000e+000
      vertex  0.000000e+000 -6.627802e-007  5.000000e+001
      vertex  0.000000e+000  0.000000e+000  0.000000e+000
    endloop
  endfacet
  facet normal  0.000000e+000  1.000000e+000  0.000000e+000
    outer loop
      vertex  2.000000e+000  3.000000e+001  0.000000e+000
      vertex  0.000000e+000  3.000000e+001  0.000000e+000
      vertex  2.000000e+000  3.000000e+001  5.000000e+001
    endloop
  endfacet
  facet normal  0.000000e+000  1.000000e+000  0.000000e+000
    outer loop
      vertex  2.000000e+000  3.000000e+001  5.000000e+001
      vertex  0.000000e+000  3.000000e+001  0.000000e+000
      vertex  0.000000e+000  3.000000e+001  5.000000e+001
    endloop
  endfacet
  facet normal  0.000000e+000  0.000000e+000 -1.000000e+000
    outer loop
      vertex  2.000000e+000  0.000000e+000  0.000000e+000
      vertex  0.000000e+000  0.000000e+000  0.000000e+000
      vertex  2.000000e+000  3.000000e+001  0.000000e+000
    endloop
  endfacet
  facet normal  -0.000000e+000  0.000000e+000 -1.000000e+000
    outer loop
      vertex  2.000000e+000  3.000000e+001  0.000000e+000
      vertex  0.000000e+000  0.000000e+000  0.000000e+000
      vertex  0.000000e+000  3.000000e+001  0.000000e+000
    endloop
  endfacet
endsolid CATIA STL
