solid CATIA STL
  facet normal  1.000000e+000  0.000000e+000  0.000000e+000
    outer loop
      vertex  5.000000e+000  1.009220e+001 -5.513394e+000
      vertex  5.000000e+000  7.597874e+000 -8.632631e+000
      vertex  5.000000e+000  1.792129e+001 -1.974561e+000
    endloop
  endfacet
  facet normal  9.999999e-001  0.000000e+000  -0.000000e+000
    outer loop
      vertex  5.000000e+000 -9.820839e+000 -5.983404e+000
      vertex  5.000000e+000 -8.969103e+000 -1.426801e+001
      vertex  5.000000e+000 -7.182125e+000 -8.981485e+000
    endloop
  endfacet
  facet normal  1.000000e+000  0.000000e+000  0.000000e+000
    outer loop
      vertex  5.000000e+000 -2.213640e+001 -1.161808e+001
      vertex  5.000000e+000 -1.938202e+001 -4.998608e+000
      vertex  5.000000e+000 -2.189713e+001 -4.387913e+000
    endloop
  endfacet
  facet normal  9.999999e-001  -0.000000e+000  0.000000e+000
    outer loop
      vertex  5.000000e+000 -2.388791e+001  2.397128e+000
      vertex  5.000000e+000 -2.500000e+001  3.061617e-015
      vertex  5.000000e+000 -2.449861e+001 -1.179829e-001
    endloop
  endfacet
  facet normal  1.000000e+000  0.000000e+000  0.000000e+000
    outer loop
      vertex  5.000000e+000  1.420162e+001 -2.057460e+001
      vertex  5.000000e+000 -7.313531e+000 -1.698538e+001
      vertex  5.000000e+000 -8.329334e+000 -1.837595e+001
    endloop
  endfacet
  facet normal  1.000000e+000  0.000000e+000  -0.000000e+000
    outer loop
      vertex  5.000000e+000 -9.446908e+000  1.420511e+001
      vertex  5.000000e+000 -7.597874e+000  8.632631e+000
      vertex  5.000000e+000 -4.187132e+000  1.071065e+001
    endloop
  endfacet
  facet normal  9.999999e-001  0.000000e+000  0.000000e+000
    outer loop
      vertex  5.000000e+000  1.836654e+001  2.158987e+000
      vertex  5.000000e+000  9.820839e+000  5.983404e+000
      vertex  5.000000e+000  1.127501e+001  2.263636e+000
    endloop
  endfacet
  facet normal  1.000000e+000  0.000000e+000  -0.000000e+000
    outer loop
      vertex  5.000000e+000  1.871277e+001 -1.657807e+001
      vertex  5.000000e+000  2.213640e+001 -1.161808e+001
      vertex  5.000000e+000  2.427355e+001 -5.982892e+000
    endloop
  endfacet
  facet normal  1.000000e+000  0.000000e+000  0.000000e+000
    outer loop
      vertex  5.000000e+000  1.871277e+001 -1.657807e+001
      vertex  5.000000e+000  2.427355e+001 -5.982892e+000
      vertex  5.000000e+000  1.963346e+001 -2.158987e+000
    endloop
  endfacet
  facet normal  1.000000e+000  0.000000e+000  0.000000e+000
    outer loop
      vertex  5.000000e+000  1.871277e+001 -1.657807e+001
      vertex  5.000000e+000  1.963346e+001 -2.158987e+000
      vertex  5.000000e+000  1.792129e+001 -1.974561e+000
    endloop
  endfacet
  facet normal  1.000000e+000  0.000000e+000  0.000000e+000
    outer loop
      vertex  5.000000e+000  1.871277e+001 -1.657807e+001
      vertex  5.000000e+000  1.792129e+001 -1.974561e+000
      vertex  5.000000e+000  7.597874e+000 -8.632631e+000
    endloop
  endfacet
  facet normal  1.000000e+000  0.000000e+000  0.000000e+000
    outer loop
      vertex  5.000000e+000  1.871277e+001 -1.657807e+001
      vertex  5.000000e+000  7.597874e+000 -8.632631e+000
      vertex  5.000000e+000  4.187132e+000 -1.071065e+001
    endloop
  endfacet
  facet normal  1.000000e+000  0.000000e+000  0.000000e+000
    outer loop
      vertex  5.000000e+000  1.871277e+001 -1.657807e+001
      vertex  5.000000e+000  4.187132e+000 -1.071065e+001
      vertex  5.000000e+000 -7.313531e+000 -1.698538e+001
    endloop
  endfacet
  facet normal  9.999999e-001  -0.000000e+000  0.000000e+000
    outer loop
      vertex  5.000000e+000  1.871277e+001 -1.657807e+001
      vertex  5.000000e+000 -7.313531e+000 -1.698538e+001
      vertex  5.000000e+000  1.420162e+001 -2.057460e+001
    endloop
  endfacet
  facet normal  1.000000e+000  -0.000000e+000  -0.000000e+000
    outer loop
      vertex  5.000000e+000 -7.946995e+000  1.808257e+001
      vertex  5.000000e+000 -7.250627e+000  1.650757e+001
      vertex  5.000000e+000 -2.713607e-001  1.149680e+001
    endloop
  endfacet
  facet normal  1.000000e+000  -0.000000e+000  -0.000000e+000
    outer loop
      vertex  5.000000e+000 -7.946995e+000  1.808257e+001
      vertex  5.000000e+000 -2.713607e-001  1.149680e+001
      vertex  5.000000e+000  3.677141e+000  1.089627e+001
    endloop
  endfacet
  facet normal  1.000000e+000  -0.000000e+000  -0.000000e+000
    outer loop
      vertex  5.000000e+000 -7.946995e+000  1.808257e+001
      vertex  5.000000e+000  3.677141e+000  1.089627e+001
      vertex  5.000000e+000  7.182125e+000  8.981485e+000
    endloop
  endfacet
  facet normal  1.000000e+000  0.000000e+000  -0.000000e+000
    outer loop
      vertex  5.000000e+000 -7.946995e+000  1.808257e+001
      vertex  5.000000e+000  7.182125e+000  8.981485e+000
      vertex  5.000000e+000  1.871277e+001  1.657807e+001
    endloop
  endfacet
  facet normal  1.000000e+000  0.000000e+000  0.000000e+000
    outer loop
      vertex  5.000000e+000 -2.427355e+001  5.982892e+000
      vertex  5.000000e+000 -2.500000e+001  3.061617e-015
      vertex  5.000000e+000 -2.388791e+001  2.397128e+000
    endloop
  endfacet
  facet normal  9.999999e-001  0.000000e+000  -0.000000e+000
    outer loop
      vertex  5.000000e+000 -2.427355e+001  5.982892e+000
      vertex  5.000000e+000 -2.388791e+001  2.397128e+000
      vertex  5.000000e+000 -2.210148e+001  4.269930e+000
    endloop
  endfacet
  facet normal  1.000000e+000  0.000000e+000  -0.000000e+000
    outer loop
      vertex  5.000000e+000 -2.427355e+001  5.982892e+000
      vertex  5.000000e+000 -2.210148e+001  4.269930e+000
      vertex  5.000000e+000 -1.961798e+001  4.998608e+000
    endloop
  endfacet
  facet normal  1.000000e+000  0.000000e+000  0.000000e+000
    outer loop
      vertex  5.000000e+000 -2.427355e+001  5.982892e+000
      vertex  5.000000e+000 -1.961798e+001  4.998608e+000
      vertex  5.000000e+000 -2.213640e+001  1.161808e+001
    endloop
  endfacet
  facet normal  1.000000e+000  0.000000e+000  -0.000000e+000
    outer loop
      vertex  5.000000e+000 -2.427355e+001 -5.982892e+000
      vertex  5.000000e+000 -2.213640e+001 -1.161808e+001
      vertex  5.000000e+000 -2.189713e+001 -4.387913e+000
    endloop
  endfacet
  facet normal  1.000000e+000  0.000000e+000  0.000000e+000
    outer loop
      vertex  5.000000e+000 -2.427355e+001 -5.982892e+000
      vertex  5.000000e+000 -2.189713e+001 -4.387913e+000
      vertex  5.000000e+000 -2.376993e+001 -2.601480e+000
    endloop
  endfacet
  facet normal  1.000000e+000  0.000000e+000  0.000000e+000
    outer loop
      vertex  5.000000e+000 -2.427355e+001 -5.982892e+000
      vertex  5.000000e+000 -2.376993e+001 -2.601480e+000
      vertex  5.000000e+000 -2.449861e+001 -1.179829e-001
    endloop
  endfacet
  facet normal  1.000000e+000  0.000000e+000  0.000000e+000
    outer loop
      vertex  5.000000e+000 -2.427355e+001 -5.982892e+000
      vertex  5.000000e+000 -2.449861e+001 -1.179829e-001
      vertex  5.000000e+000 -2.500000e+001  3.061617e-015
    endloop
  endfacet
  facet normal  9.999999e-001  0.000000e+000  0.000000e+000
    outer loop
      vertex  5.000000e+000  1.136926e+001 -1.729160e+000
      vertex  5.000000e+000  1.009220e+001 -5.513394e+000
      vertex  5.000000e+000  1.792129e+001 -1.974561e+000
    endloop
  endfacet
  facet normal  9.999999e-001  0.000000e+000  0.000000e+000
    outer loop
      vertex  5.000000e+000  1.136926e+001 -1.729160e+000
      vertex  5.000000e+000  1.792129e+001 -1.974561e+000
      vertex  5.000000e+000  1.684101e+001 -6.334639e-001
    endloop
  endfacet
  facet normal  1.000000e+000  0.000000e+000  -0.000000e+000
    outer loop
      vertex  5.000000e+000  1.136926e+001 -1.729160e+000
      vertex  5.000000e+000  1.684101e+001 -6.334639e-001
      vertex  5.000000e+000  1.702544e+001  1.078707e+000
    endloop
  endfacet
  facet normal  1.000000e+000  0.000000e+000  -0.000000e+000
    outer loop
      vertex  5.000000e+000  1.136926e+001 -1.729160e+000
      vertex  5.000000e+000  1.702544e+001  1.078707e+000
      vertex  5.000000e+000  1.836654e+001  2.158987e+000
    endloop
  endfacet
  facet normal  1.000000e+000  0.000000e+000  0.000000e+000
    outer loop
      vertex  5.000000e+000  1.136926e+001 -1.729160e+000
      vertex  5.000000e+000  1.836654e+001  2.158987e+000
      vertex  5.000000e+000  1.127501e+001  2.263636e+000
    endloop
  endfacet
  facet normal  1.000000e+000  0.000000e+000  0.000000e+000
    outer loop
      vertex  5.000000e+000  8.865122e+000 -2.337541e+001
      vertex  5.000000e+000  1.420162e+001 -2.057460e+001
      vertex  5.000000e+000 -8.865122e+000 -2.337541e+001
    endloop
  endfacet
  facet normal  1.000000e+000  0.000000e+000  0.000000e+000
    outer loop
      vertex  5.000000e+000 -8.865122e+000 -2.337541e+001
      vertex  5.000000e+000  1.420162e+001 -2.057460e+001
      vertex  5.000000e+000 -8.329334e+000 -1.837595e+001
    endloop
  endfacet
  facet normal  1.000000e+000  0.000000e+000  0.000000e+000
    outer loop
      vertex  5.000000e+000 -8.865122e+000 -2.337541e+001
      vertex  5.000000e+000 -8.329334e+000 -1.837595e+001
      vertex  5.000000e+000 -1.420162e+001 -2.057460e+001
    endloop
  endfacet
  facet normal  1.000000e+000  0.000000e+000  0.000000e+000
    outer loop
      vertex  5.000000e+000 -1.420162e+001 -2.057460e+001
      vertex  5.000000e+000 -8.329334e+000 -1.837595e+001
      vertex  5.000000e+000 -1.003090e+001 -1.864095e+001
    endloop
  endfacet
  facet normal  1.000000e+000  0.000000e+000  0.000000e+000
    outer loop
      vertex  5.000000e+000 -1.420162e+001 -2.057460e+001
      vertex  5.000000e+000 -1.003090e+001 -1.864095e+001
      vertex  5.000000e+000 -1.142147e+001 -1.762515e+001
    endloop
  endfacet
  facet normal  1.000000e+000  0.000000e+000  0.000000e+000
    outer loop
      vertex  5.000000e+000 -7.597874e+000  8.632631e+000
      vertex  5.000000e+000 -9.446908e+000  1.420511e+001
      vertex  5.000000e+000 -1.009220e+001  5.513394e+000
    endloop
  endfacet
  facet normal  1.000000e+000  0.000000e+000  -0.000000e+000
    outer loop
      vertex  5.000000e+000 -1.009220e+001  5.513394e+000
      vertex  5.000000e+000 -9.446908e+000  1.420511e+001
      vertex  5.000000e+000 -1.105301e+001  1.482639e+001
    endloop
  endfacet
  facet normal  1.000000e+000  0.000000e+000  0.000000e+000
    outer loop
      vertex  5.000000e+000 -1.009220e+001  5.513394e+000
      vertex  5.000000e+000 -1.105301e+001  1.482639e+001
      vertex  5.000000e+000 -1.710287e+001  4.387913e+000
    endloop
  endfacet
  facet normal  1.000000e+000  0.000000e+000  0.000000e+000
    outer loop
      vertex  5.000000e+000 -1.710287e+001  4.387913e+000
      vertex  5.000000e+000 -1.105301e+001  1.482639e+001
      vertex  5.000000e+000 -1.174937e+001  1.640139e+001
    endloop
  endfacet
  facet normal  1.000000e+000  0.000000e+000  0.000000e+000
    outer loop
      vertex  5.000000e+000 -1.710287e+001  4.387913e+000
      vertex  5.000000e+000 -1.174937e+001  1.640139e+001
      vertex  5.000000e+000 -1.961798e+001  4.998608e+000
    endloop
  endfacet
  facet normal  1.000000e+000  0.000000e+000  0.000000e+000
    outer loop
      vertex  5.000000e+000 -1.961798e+001  4.998608e+000
      vertex  5.000000e+000 -1.174937e+001  1.640139e+001
      vertex  5.000000e+000 -1.871277e+001  1.657807e+001
    endloop
  endfacet
  facet normal  1.000000e+000  0.000000e+000  0.000000e+000
    outer loop
      vertex  5.000000e+000 -1.961798e+001  4.998608e+000
      vertex  5.000000e+000 -1.871277e+001  1.657807e+001
      vertex  5.000000e+000 -2.213640e+001  1.161808e+001
    endloop
  endfacet
  facet normal  1.000000e+000  0.000000e+000  0.000000e+000
    outer loop
      vertex  5.000000e+000  1.871277e+001  1.657807e+001
      vertex  5.000000e+000  1.420162e+001  2.057460e+001
      vertex  5.000000e+000 -7.946995e+000  1.808257e+001
    endloop
  endfacet
  facet normal  1.000000e+000  0.000000e+000  0.000000e+000
    outer loop
      vertex  5.000000e+000 -7.946995e+000  1.808257e+001
      vertex  5.000000e+000  1.420162e+001  2.057460e+001
      vertex  5.000000e+000  8.865122e+000  2.337541e+001
    endloop
  endfacet
  facet normal  1.000000e+000  0.000000e+000  0.000000e+000
    outer loop
      vertex  5.000000e+000 -7.946995e+000  1.808257e+001
      vertex  5.000000e+000  8.865122e+000  2.337541e+001
      vertex  5.000000e+000 -9.553092e+000  1.870386e+001
    endloop
  endfacet
  facet normal  1.000000e+000  0.000000e+000  0.000000e+000
    outer loop
      vertex  5.000000e+000 -9.553092e+000  1.870386e+001
      vertex  5.000000e+000  8.865122e+000  2.337541e+001
      vertex  5.000000e+000 -8.865122e+000  2.337541e+001
    endloop
  endfacet
  facet normal  1.000000e+000  0.000000e+000  0.000000e+000
    outer loop
      vertex  5.000000e+000 -9.553092e+000  1.870386e+001
      vertex  5.000000e+000 -8.865122e+000  2.337541e+001
      vertex  5.000000e+000 -1.420162e+001  2.057460e+001
    endloop
  endfacet
  facet normal  1.000000e+000  0.000000e+000  0.000000e+000
    outer loop
      vertex  5.000000e+000 -7.313531e+000 -1.698538e+001
      vertex  5.000000e+000  4.187132e+000 -1.071065e+001
      vertex  5.000000e+000 -7.578532e+000 -1.528382e+001
    endloop
  endfacet
  facet normal  9.999999e-001  0.000000e+000  0.000000e+000
    outer loop
      vertex  5.000000e+000 -7.578532e+000 -1.528382e+001
      vertex  5.000000e+000  4.187132e+000 -1.071065e+001
      vertex  5.000000e+000  2.713607e-001 -1.149680e+001
    endloop
  endfacet
  facet normal  1.000000e+000  0.000000e+000  0.000000e+000
    outer loop
      vertex  5.000000e+000 -7.578532e+000 -1.528382e+001
      vertex  5.000000e+000  2.713607e-001 -1.149680e+001
      vertex  5.000000e+000 -8.969103e+000 -1.426801e+001
    endloop
  endfacet
  facet normal  1.000000e+000  0.000000e+000  0.000000e+000
    outer loop
      vertex  5.000000e+000 -8.969103e+000 -1.426801e+001
      vertex  5.000000e+000  2.713607e-001 -1.149680e+001
      vertex  5.000000e+000 -3.677141e+000 -1.089627e+001
    endloop
  endfacet
  facet normal  1.000000e+000  0.000000e+000  0.000000e+000
    outer loop
      vertex  5.000000e+000 -8.969103e+000 -1.426801e+001
      vertex  5.000000e+000 -3.677141e+000 -1.089627e+001
      vertex  5.000000e+000 -7.182125e+000 -8.981485e+000
    endloop
  endfacet
  facet normal  1.000000e+000  0.000000e+000  -0.000000e+000
    outer loop
      vertex  5.000000e+000  7.182125e+000  8.981485e+000
      vertex  5.000000e+000  9.820839e+000  5.983404e+000
      vertex  5.000000e+000  1.871277e+001  1.657807e+001
    endloop
  endfacet
  facet normal  1.000000e+000  0.000000e+000  0.000000e+000
    outer loop
      vertex  5.000000e+000  1.871277e+001  1.657807e+001
      vertex  5.000000e+000  9.820839e+000  5.983404e+000
      vertex  5.000000e+000  1.836654e+001  2.158987e+000
    endloop
  endfacet
  facet normal  1.000000e+000  -0.000000e+000  0.000000e+000
    outer loop
      vertex  5.000000e+000  1.871277e+001  1.657807e+001
      vertex  5.000000e+000  1.836654e+001  2.158987e+000
      vertex  5.000000e+000  2.007871e+001  1.974561e+000
    endloop
  endfacet
  facet normal  1.000000e+000  0.000000e+000  0.000000e+000
    outer loop
      vertex  5.000000e+000  2.213640e+001  1.161808e+001
      vertex  5.000000e+000  1.871277e+001  1.657807e+001
      vertex  5.000000e+000  2.427355e+001  5.982892e+000
    endloop
  endfacet
  facet normal  1.000000e+000  0.000000e+000  0.000000e+000
    outer loop
      vertex  5.000000e+000  2.427355e+001  5.982892e+000
      vertex  5.000000e+000  1.871277e+001  1.657807e+001
      vertex  5.000000e+000  2.007871e+001  1.974561e+000
    endloop
  endfacet
  facet normal  9.999999e-001  -0.000000e+000  0.000000e+000
    outer loop
      vertex  5.000000e+000  2.427355e+001  5.982892e+000
      vertex  5.000000e+000  2.007871e+001  1.974561e+000
      vertex  5.000000e+000  2.500000e+001  0.000000e+000
    endloop
  endfacet
  facet normal  1.000000e+000  0.000000e+000  0.000000e+000
    outer loop
      vertex  5.000000e+000  2.500000e+001  0.000000e+000
      vertex  5.000000e+000  2.007871e+001  1.974561e+000
      vertex  5.000000e+000  2.115899e+001  6.334639e-001
    endloop
  endfacet
  facet normal  1.000000e+000  0.000000e+000  0.000000e+000
    outer loop
      vertex  5.000000e+000  2.500000e+001  0.000000e+000
      vertex  5.000000e+000  2.115899e+001  6.334639e-001
      vertex  5.000000e+000  2.427355e+001 -5.982892e+000
    endloop
  endfacet
  facet normal  1.000000e+000  0.000000e+000  0.000000e+000
    outer loop
      vertex  5.000000e+000  2.427355e+001 -5.982892e+000
      vertex  5.000000e+000  2.115899e+001  6.334639e-001
      vertex  5.000000e+000  2.097456e+001 -1.078707e+000
    endloop
  endfacet
  facet normal  1.000000e+000  0.000000e+000  0.000000e+000
    outer loop
      vertex  5.000000e+000  2.427355e+001 -5.982892e+000
      vertex  5.000000e+000  2.097456e+001 -1.078707e+000
      vertex  5.000000e+000  1.963346e+001 -2.158987e+000
    endloop
  endfacet
  facet normal  1.000000e+000  0.000000e+000  0.000000e+000
    outer loop
      vertex  5.000000e+000 -2.213640e+001 -1.161808e+001
      vertex  5.000000e+000 -1.871277e+001 -1.657807e+001
      vertex  5.000000e+000 -1.938202e+001 -4.998608e+000
    endloop
  endfacet
  facet normal  9.999999e-001  0.000000e+000  0.000000e+000
    outer loop
      vertex  5.000000e+000 -1.938202e+001 -4.998608e+000
      vertex  5.000000e+000 -1.871277e+001 -1.657807e+001
      vertex  5.000000e+000 -1.168647e+001 -1.592358e+001
    endloop
  endfacet
  facet normal  1.000000e+000  0.000000e+000  -0.000000e+000
    outer loop
      vertex  5.000000e+000 -1.938202e+001 -4.998608e+000
      vertex  5.000000e+000 -1.168647e+001 -1.592358e+001
      vertex  5.000000e+000 -9.820839e+000 -5.983404e+000
    endloop
  endfacet
  facet normal  1.000000e+000  0.000000e+000  0.000000e+000
    outer loop
      vertex  5.000000e+000 -9.820839e+000 -5.983404e+000
      vertex  5.000000e+000 -1.168647e+001 -1.592358e+001
      vertex  5.000000e+000 -1.067067e+001 -1.453301e+001
    endloop
  endfacet
  facet normal  1.000000e+000  0.000000e+000  0.000000e+000
    outer loop
      vertex  5.000000e+000 -9.820839e+000 -5.983404e+000
      vertex  5.000000e+000 -1.067067e+001 -1.453301e+001
      vertex  5.000000e+000 -8.969103e+000 -1.426801e+001
    endloop
  endfacet
  facet normal  1.000000e+000  0.000000e+000  0.000000e+000
    outer loop
      vertex  5.000000e+000 -9.553092e+000  1.870386e+001
      vertex  5.000000e+000 -1.420162e+001  2.057460e+001
      vertex  5.000000e+000 -1.112809e+001  1.800749e+001
    endloop
  endfacet
  facet normal  1.000000e+000  0.000000e+000  0.000000e+000
    outer loop
      vertex  5.000000e+000 -1.112809e+001  1.800749e+001
      vertex  5.000000e+000 -1.420162e+001  2.057460e+001
      vertex  5.000000e+000 -1.871277e+001  1.657807e+001
    endloop
  endfacet
  facet normal  1.000000e+000  -0.000000e+000  0.000000e+000
    outer loop
      vertex  5.000000e+000 -1.112809e+001  1.800749e+001
      vertex  5.000000e+000 -1.871277e+001  1.657807e+001
      vertex  5.000000e+000 -1.174937e+001  1.640139e+001
    endloop
  endfacet
  facet normal  1.000000e+000  -0.000000e+000  0.000000e+000
    outer loop
      vertex  5.000000e+000 -1.009220e+001  5.513394e+000
      vertex  5.000000e+000 -1.710287e+001  4.387913e+000
      vertex  5.000000e+000 -1.136926e+001  1.729160e+000
    endloop
  endfacet
  facet normal  1.000000e+000  0.000000e+000  0.000000e+000
    outer loop
      vertex  5.000000e+000 -1.136926e+001  1.729160e+000
      vertex  5.000000e+000 -1.710287e+001  4.387913e+000
      vertex  5.000000e+000 -1.523007e+001  2.601480e+000
    endloop
  endfacet
  facet normal  1.000000e+000  0.000000e+000  0.000000e+000
    outer loop
      vertex  5.000000e+000 -1.136926e+001  1.729160e+000
      vertex  5.000000e+000 -1.523007e+001  2.601480e+000
      vertex  5.000000e+000 -1.127501e+001 -2.263636e+000
    endloop
  endfacet
  facet normal  1.000000e+000  0.000000e+000  0.000000e+000
    outer loop
      vertex  5.000000e+000 -1.127501e+001 -2.263636e+000
      vertex  5.000000e+000 -1.523007e+001  2.601480e+000
      vertex  5.000000e+000 -1.450139e+001  1.179829e-001
    endloop
  endfacet
  facet normal  1.000000e+000  0.000000e+000  0.000000e+000
    outer loop
      vertex  5.000000e+000 -1.127501e+001 -2.263636e+000
      vertex  5.000000e+000 -1.450139e+001  1.179829e-001
      vertex  5.000000e+000 -1.511209e+001 -2.397128e+000
    endloop
  endfacet
  facet normal  1.000000e+000  -0.000000e+000  0.000000e+000
    outer loop
      vertex  5.000000e+000 -1.127501e+001 -2.263636e+000
      vertex  5.000000e+000 -1.511209e+001 -2.397128e+000
      vertex  5.000000e+000 -9.820839e+000 -5.983404e+000
    endloop
  endfacet
  facet normal  1.000000e+000  0.000000e+000  0.000000e+000
    outer loop
      vertex  5.000000e+000 -9.820839e+000 -5.983404e+000
      vertex  5.000000e+000 -1.511209e+001 -2.397128e+000
      vertex  5.000000e+000 -1.689852e+001 -4.269930e+000
    endloop
  endfacet
  facet normal  1.000000e+000  0.000000e+000  0.000000e+000
    outer loop
      vertex  5.000000e+000 -9.820839e+000 -5.983404e+000
      vertex  5.000000e+000 -1.689852e+001 -4.269930e+000
      vertex  5.000000e+000 -1.938202e+001 -4.998608e+000
    endloop
  endfacet
  facet normal  1.000000e+000  0.000000e+000  0.000000e+000
    outer loop
      vertex  5.000000e+000 -1.420162e+001 -2.057460e+001
      vertex  5.000000e+000 -1.142147e+001 -1.762515e+001
      vertex  5.000000e+000 -1.871277e+001 -1.657807e+001
    endloop
  endfacet
  facet normal  9.999999e-001  -0.000000e+000  0.000000e+000
    outer loop
      vertex  5.000000e+000 -1.871277e+001 -1.657807e+001
      vertex  5.000000e+000 -1.142147e+001 -1.762515e+001
      vertex  5.000000e+000 -1.168647e+001 -1.592358e+001
    endloop
  endfacet
  facet normal  1.000000e+000  0.000000e+000  0.000000e+000
    outer loop
      vertex  5.000000e+000 -3.013417e+000 -2.481772e+001
      vertex  5.000000e+000  3.013417e+000 -2.481772e+001
      vertex  5.000000e+000 -8.865122e+000 -2.337541e+001
    endloop
  endfacet
  facet normal  1.000000e+000  -0.000000e+000  0.000000e+000
    outer loop
      vertex  5.000000e+000 -8.865122e+000 -2.337541e+001
      vertex  5.000000e+000  3.013417e+000 -2.481772e+001
      vertex  5.000000e+000  8.865122e+000 -2.337541e+001
    endloop
  endfacet
  facet normal  1.000000e+000  0.000000e+000  0.000000e+000
    outer loop
      vertex  5.000000e+000 -8.865122e+000  2.337541e+001
      vertex  5.000000e+000  8.865122e+000  2.337541e+001
      vertex  5.000000e+000 -3.013417e+000  2.481772e+001
    endloop
  endfacet
  facet normal  1.000000e+000  -0.000000e+000  0.000000e+000
    outer loop
      vertex  5.000000e+000 -3.013417e+000  2.481772e+001
      vertex  5.000000e+000  8.865122e+000  2.337541e+001
      vertex  5.000000e+000  3.013417e+000  2.481772e+001
    endloop
  endfacet
  facet normal  1.000000e+000  0.000000e+000  0.000000e+000
    outer loop
      vertex  5.000000e+000 -9.446908e+000  1.420511e+001
      vertex  5.000000e+000 -4.187132e+000  1.071065e+001
      vertex  5.000000e+000 -7.871911e+000  1.490148e+001
    endloop
  endfacet
  facet normal  1.000000e+000  0.000000e+000  0.000000e+000
    outer loop
      vertex  5.000000e+000 -7.871911e+000  1.490148e+001
      vertex  5.000000e+000 -4.187132e+000  1.071065e+001
      vertex  5.000000e+000 -2.713607e-001  1.149680e+001
    endloop
  endfacet
  facet normal  1.000000e+000  0.000000e+000  0.000000e+000
    outer loop
      vertex  5.000000e+000 -7.871911e+000  1.490148e+001
      vertex  5.000000e+000 -2.713607e-001  1.149680e+001
      vertex  5.000000e+000 -7.250627e+000  1.650757e+001
    endloop
  endfacet
  facet normal -1.000000e+000  0.000000e+000  0.000000e+000
    outer loop
      vertex  0.000000e+000  1.792129e+001 -1.974561e+000
      vertex  0.000000e+000  7.597874e+000 -8.632631e+000
      vertex  0.000000e+000  1.009220e+001 -5.513394e+000
    endloop
  endfacet
  facet normal -9.999999e-001  0.000000e+000  0.000000e+000
    outer loop
      vertex  0.000000e+000 -7.182125e+000 -8.981485e+000
      vertex  0.000000e+000 -8.969103e+000 -1.426801e+001
      vertex  0.000000e+000 -9.820839e+000 -5.983404e+000
    endloop
  endfacet
  facet normal -1.000000e+000  -0.000000e+000  0.000000e+000
    outer loop
      vertex  0.000000e+000 -2.189713e+001 -4.387913e+000
      vertex  0.000000e+000 -1.938202e+001 -4.998608e+000
      vertex  0.000000e+000 -2.213640e+001 -1.161808e+001
    endloop
  endfacet
  facet normal -9.999999e-001  0.000000e+000  0.000000e+000
    outer loop
      vertex  0.000000e+000 -2.449861e+001 -1.179829e-001
      vertex  0.000000e+000 -2.500000e+001  3.061617e-015
      vertex  0.000000e+000 -2.388791e+001  2.397128e+000
    endloop
  endfacet
  facet normal -1.000000e+000  0.000000e+000  -0.000000e+000
    outer loop
      vertex  0.000000e+000 -8.329334e+000 -1.837595e+001
      vertex  0.000000e+000 -7.313531e+000 -1.698538e+001
      vertex  0.000000e+000  1.420162e+001 -2.057460e+001
    endloop
  endfacet
  facet normal -1.000000e+000  0.000000e+000  0.000000e+000
    outer loop
      vertex  0.000000e+000 -4.187132e+000  1.071065e+001
      vertex  0.000000e+000 -7.597874e+000  8.632631e+000
      vertex  0.000000e+000 -9.446908e+000  1.420511e+001
    endloop
  endfacet
  facet normal -9.999999e-001  0.000000e+000  0.000000e+000
    outer loop
      vertex  0.000000e+000  1.127501e+001  2.263636e+000
      vertex  0.000000e+000  9.820839e+000  5.983404e+000
      vertex  0.000000e+000  1.836654e+001  2.158987e+000
    endloop
  endfacet
  facet normal -9.999999e-001  0.000000e+000  0.000000e+000
    outer loop
      vertex  0.000000e+000  1.871277e+001 -1.657807e+001
      vertex  0.000000e+000  1.420162e+001 -2.057460e+001
      vertex  0.000000e+000 -7.313531e+000 -1.698538e+001
    endloop
  endfacet
  facet normal -1.000000e+000  0.000000e+000  0.000000e+000
    outer loop
      vertex  0.000000e+000  1.871277e+001 -1.657807e+001
      vertex  0.000000e+000 -7.313531e+000 -1.698538e+001
      vertex  0.000000e+000  4.187132e+000 -1.071065e+001
    endloop
  endfacet
  facet normal -1.000000e+000  0.000000e+000  0.000000e+000
    outer loop
      vertex  0.000000e+000  1.871277e+001 -1.657807e+001
      vertex  0.000000e+000  4.187132e+000 -1.071065e+001
      vertex  0.000000e+000  7.597874e+000 -8.632631e+000
    endloop
  endfacet
  facet normal -1.000000e+000  0.000000e+000  0.000000e+000
    outer loop
      vertex  0.000000e+000  1.871277e+001 -1.657807e+001
      vertex  0.000000e+000  7.597874e+000 -8.632631e+000
      vertex  0.000000e+000  1.792129e+001 -1.974561e+000
    endloop
  endfacet
  facet normal -1.000000e+000  0.000000e+000  0.000000e+000
    outer loop
      vertex  0.000000e+000  1.871277e+001 -1.657807e+001
      vertex  0.000000e+000  1.792129e+001 -1.974561e+000
      vertex  0.000000e+000  1.963346e+001 -2.158987e+000
    endloop
  endfacet
  facet normal -1.000000e+000  0.000000e+000  -0.000000e+000
    outer loop
      vertex  0.000000e+000  1.871277e+001 -1.657807e+001
      vertex  0.000000e+000  1.963346e+001 -2.158987e+000
      vertex  0.000000e+000  2.427355e+001 -5.982892e+000
    endloop
  endfacet
  facet normal -1.000000e+000  0.000000e+000  0.000000e+000
    outer loop
      vertex  0.000000e+000  1.871277e+001 -1.657807e+001
      vertex  0.000000e+000  2.427355e+001 -5.982892e+000
      vertex  0.000000e+000  2.213640e+001 -1.161808e+001
    endloop
  endfacet
  facet normal -1.000000e+000  -0.000000e+000  0.000000e+000
    outer loop
      vertex  0.000000e+000 -7.946995e+000  1.808257e+001
      vertex  0.000000e+000  1.871277e+001  1.657807e+001
      vertex  0.000000e+000  7.182125e+000  8.981485e+000
    endloop
  endfacet
  facet normal -1.000000e+000  0.000000e+000  0.000000e+000
    outer loop
      vertex  0.000000e+000 -7.946995e+000  1.808257e+001
      vertex  0.000000e+000  7.182125e+000  8.981485e+000
      vertex  0.000000e+000  3.677141e+000  1.089627e+001
    endloop
  endfacet
  facet normal -1.000000e+000  0.000000e+000  0.000000e+000
    outer loop
      vertex  0.000000e+000 -7.946995e+000  1.808257e+001
      vertex  0.000000e+000  3.677141e+000  1.089627e+001
      vertex  0.000000e+000 -2.713607e-001  1.149680e+001
    endloop
  endfacet
  facet normal -1.000000e+000  0.000000e+000  0.000000e+000
    outer loop
      vertex  0.000000e+000 -7.946995e+000  1.808257e+001
      vertex  0.000000e+000 -2.713607e-001  1.149680e+001
      vertex  0.000000e+000 -7.250627e+000  1.650757e+001
    endloop
  endfacet
  facet normal -1.000000e+000  0.000000e+000  -0.000000e+000
    outer loop
      vertex  0.000000e+000 -2.427355e+001  5.982892e+000
      vertex  0.000000e+000 -2.213640e+001  1.161808e+001
      vertex  0.000000e+000 -1.961798e+001  4.998608e+000
    endloop
  endfacet
  facet normal -1.000000e+000  -0.000000e+000  0.000000e+000
    outer loop
      vertex  0.000000e+000 -2.427355e+001  5.982892e+000
      vertex  0.000000e+000 -1.961798e+001  4.998608e+000
      vertex  0.000000e+000 -2.210148e+001  4.269930e+000
    endloop
  endfacet
  facet normal -9.999999e-001  -0.000000e+000  0.000000e+000
    outer loop
      vertex  0.000000e+000 -2.427355e+001  5.982892e+000
      vertex  0.000000e+000 -2.210148e+001  4.269930e+000
      vertex  0.000000e+000 -2.388791e+001  2.397128e+000
    endloop
  endfacet
  facet normal -1.000000e+000  -0.000000e+000  0.000000e+000
    outer loop
      vertex  0.000000e+000 -2.427355e+001  5.982892e+000
      vertex  0.000000e+000 -2.388791e+001  2.397128e+000
      vertex  0.000000e+000 -2.500000e+001  3.061617e-015
    endloop
  endfacet
  facet normal -1.000000e+000  0.000000e+000  0.000000e+000
    outer loop
      vertex  0.000000e+000 -2.427355e+001 -5.982892e+000
      vertex  0.000000e+000 -2.500000e+001  3.061617e-015
      vertex  0.000000e+000 -2.449861e+001 -1.179829e-001
    endloop
  endfacet
  facet normal -9.999999e-001  0.000000e+000  0.000000e+000
    outer loop
      vertex  0.000000e+000 -2.427355e+001 -5.982892e+000
      vertex  0.000000e+000 -2.449861e+001 -1.179829e-001
      vertex  0.000000e+000 -2.376993e+001 -2.601480e+000
    endloop
  endfacet
  facet normal -9.999999e-001  0.000000e+000  -0.000000e+000
    outer loop
      vertex  0.000000e+000 -2.427355e+001 -5.982892e+000
      vertex  0.000000e+000 -2.376993e+001 -2.601480e+000
      vertex  0.000000e+000 -2.189713e+001 -4.387913e+000
    endloop
  endfacet
  facet normal -1.000000e+000  0.000000e+000  0.000000e+000
    outer loop
      vertex  0.000000e+000 -2.427355e+001 -5.982892e+000
      vertex  0.000000e+000 -2.189713e+001 -4.387913e+000
      vertex  0.000000e+000 -2.213640e+001 -1.161808e+001
    endloop
  endfacet
  facet normal -1.000000e+000  0.000000e+000  0.000000e+000
    outer loop
      vertex  0.000000e+000  1.136926e+001 -1.729160e+000
      vertex  0.000000e+000  1.127501e+001  2.263636e+000
      vertex  0.000000e+000  1.836654e+001  2.158987e+000
    endloop
  endfacet
  facet normal -1.000000e+000  0.000000e+000  0.000000e+000
    outer loop
      vertex  0.000000e+000  1.136926e+001 -1.729160e+000
      vertex  0.000000e+000  1.836654e+001  2.158987e+000
      vertex  0.000000e+000  1.702544e+001  1.078707e+000
    endloop
  endfacet
  facet normal -1.000000e+000  0.000000e+000  0.000000e+000
    outer loop
      vertex  0.000000e+000  1.136926e+001 -1.729160e+000
      vertex  0.000000e+000  1.702544e+001  1.078707e+000
      vertex  0.000000e+000  1.684101e+001 -6.334639e-001
    endloop
  endfacet
  facet normal -1.000000e+000  0.000000e+000  -0.000000e+000
    outer loop
      vertex  0.000000e+000  1.136926e+001 -1.729160e+000
      vertex  0.000000e+000  1.684101e+001 -6.334639e-001
      vertex  0.000000e+000  1.792129e+001 -1.974561e+000
    endloop
  endfacet
  facet normal -9.999999e-001  -0.000000e+000  0.000000e+000
    outer loop
      vertex  0.000000e+000  1.136926e+001 -1.729160e+000
      vertex  0.000000e+000  1.792129e+001 -1.974561e+000
      vertex  0.000000e+000  1.009220e+001 -5.513394e+000
    endloop
  endfacet
  facet normal -1.000000e+000  -0.000000e+000  0.000000e+000
    outer loop
      vertex  0.000000e+000 -1.142147e+001 -1.762515e+001
      vertex  0.000000e+000 -1.003090e+001 -1.864095e+001
      vertex  0.000000e+000 -1.420162e+001 -2.057460e+001
    endloop
  endfacet
  facet normal -1.000000e+000  0.000000e+000  0.000000e+000
    outer loop
      vertex  0.000000e+000 -1.420162e+001 -2.057460e+001
      vertex  0.000000e+000 -1.003090e+001 -1.864095e+001
      vertex  0.000000e+000 -8.329334e+000 -1.837595e+001
    endloop
  endfacet
  facet normal -1.000000e+000  0.000000e+000  0.000000e+000
    outer loop
      vertex  0.000000e+000 -1.420162e+001 -2.057460e+001
      vertex  0.000000e+000 -8.329334e+000 -1.837595e+001
      vertex  0.000000e+000 -8.865122e+000 -2.337541e+001
    endloop
  endfacet
  facet normal -1.000000e+000  0.000000e+000  0.000000e+000
    outer loop
      vertex  0.000000e+000 -8.865122e+000 -2.337541e+001
      vertex  0.000000e+000 -8.329334e+000 -1.837595e+001
      vertex  0.000000e+000  1.420162e+001 -2.057460e+001
    endloop
  endfacet
  facet normal -1.000000e+000  0.000000e+000  0.000000e+000
    outer loop
      vertex  0.000000e+000 -8.865122e+000 -2.337541e+001
      vertex  0.000000e+000  1.420162e+001 -2.057460e+001
      vertex  0.000000e+000  8.865122e+000 -2.337541e+001
    endloop
  endfacet
  facet normal -1.000000e+000  0.000000e+000  0.000000e+000
    outer loop
      vertex  0.000000e+000 -2.213640e+001  1.161808e+001
      vertex  0.000000e+000 -1.871277e+001  1.657807e+001
      vertex  0.000000e+000 -1.961798e+001  4.998608e+000
    endloop
  endfacet
  facet normal -1.000000e+000  0.000000e+000  0.000000e+000
    outer loop
      vertex  0.000000e+000 -1.961798e+001  4.998608e+000
      vertex  0.000000e+000 -1.871277e+001  1.657807e+001
      vertex  0.000000e+000 -1.174937e+001  1.640139e+001
    endloop
  endfacet
  facet normal -1.000000e+000  0.000000e+000  0.000000e+000
    outer loop
      vertex  0.000000e+000 -1.961798e+001  4.998608e+000
      vertex  0.000000e+000 -1.174937e+001  1.640139e+001
      vertex  0.000000e+000 -1.710287e+001  4.387913e+000
    endloop
  endfacet
  facet normal -1.000000e+000  0.000000e+000  0.000000e+000
    outer loop
      vertex  0.000000e+000 -1.710287e+001  4.387913e+000
      vertex  0.000000e+000 -1.174937e+001  1.640139e+001
      vertex  0.000000e+000 -1.105301e+001  1.482639e+001
    endloop
  endfacet
  facet normal -1.000000e+000  0.000000e+000  -0.000000e+000
    outer loop
      vertex  0.000000e+000 -1.710287e+001  4.387913e+000
      vertex  0.000000e+000 -1.105301e+001  1.482639e+001
      vertex  0.000000e+000 -1.009220e+001  5.513394e+000
    endloop
  endfacet
  facet normal -1.000000e+000  0.000000e+000  0.000000e+000
    outer loop
      vertex  0.000000e+000 -1.009220e+001  5.513394e+000
      vertex  0.000000e+000 -1.105301e+001  1.482639e+001
      vertex  0.000000e+000 -9.446908e+000  1.420511e+001
    endloop
  endfacet
  facet normal -1.000000e+000  0.000000e+000  -0.000000e+000
    outer loop
      vertex  0.000000e+000 -1.009220e+001  5.513394e+000
      vertex  0.000000e+000 -9.446908e+000  1.420511e+001
      vertex  0.000000e+000 -7.597874e+000  8.632631e+000
    endloop
  endfacet
  facet normal -1.000000e+000  0.000000e+000  0.000000e+000
    outer loop
      vertex  0.000000e+000 -1.420162e+001  2.057460e+001
      vertex  0.000000e+000 -8.865122e+000  2.337541e+001
      vertex  0.000000e+000 -9.553092e+000  1.870386e+001
    endloop
  endfacet
  facet normal -1.000000e+000  0.000000e+000  0.000000e+000
    outer loop
      vertex  0.000000e+000 -9.553092e+000  1.870386e+001
      vertex  0.000000e+000 -8.865122e+000  2.337541e+001
      vertex  0.000000e+000  8.865122e+000  2.337541e+001
    endloop
  endfacet
  facet normal -1.000000e+000  0.000000e+000  0.000000e+000
    outer loop
      vertex  0.000000e+000 -9.553092e+000  1.870386e+001
      vertex  0.000000e+000  8.865122e+000  2.337541e+001
      vertex  0.000000e+000 -7.946995e+000  1.808257e+001
    endloop
  endfacet
  facet normal -1.000000e+000  0.000000e+000  0.000000e+000
    outer loop
      vertex  0.000000e+000 -7.946995e+000  1.808257e+001
      vertex  0.000000e+000  8.865122e+000  2.337541e+001
      vertex  0.000000e+000  1.420162e+001  2.057460e+001
    endloop
  endfacet
  facet normal -1.000000e+000  0.000000e+000  -0.000000e+000
    outer loop
      vertex  0.000000e+000 -7.946995e+000  1.808257e+001
      vertex  0.000000e+000  1.420162e+001  2.057460e+001
      vertex  0.000000e+000  1.871277e+001  1.657807e+001
    endloop
  endfacet
  facet normal -1.000000e+000  -0.000000e+000  0.000000e+000
    outer loop
      vertex  0.000000e+000 -7.182125e+000 -8.981485e+000
      vertex  0.000000e+000 -3.677141e+000 -1.089627e+001
      vertex  0.000000e+000 -8.969103e+000 -1.426801e+001
    endloop
  endfacet
  facet normal -1.000000e+000  0.000000e+000  0.000000e+000
    outer loop
      vertex  0.000000e+000 -8.969103e+000 -1.426801e+001
      vertex  0.000000e+000 -3.677141e+000 -1.089627e+001
      vertex  0.000000e+000  2.713607e-001 -1.149680e+001
    endloop
  endfacet
  facet normal -1.000000e+000  0.000000e+000  0.000000e+000
    outer loop
      vertex  0.000000e+000 -8.969103e+000 -1.426801e+001
      vertex  0.000000e+000  2.713607e-001 -1.149680e+001
      vertex  0.000000e+000 -7.578532e+000 -1.528382e+001
    endloop
  endfacet
  facet normal -9.999999e-001  0.000000e+000  0.000000e+000
    outer loop
      vertex  0.000000e+000 -7.578532e+000 -1.528382e+001
      vertex  0.000000e+000  2.713607e-001 -1.149680e+001
      vertex  0.000000e+000  4.187132e+000 -1.071065e+001
    endloop
  endfacet
  facet normal -1.000000e+000  0.000000e+000  0.000000e+000
    outer loop
      vertex  0.000000e+000 -7.578532e+000 -1.528382e+001
      vertex  0.000000e+000  4.187132e+000 -1.071065e+001
      vertex  0.000000e+000 -7.313531e+000 -1.698538e+001
    endloop
  endfacet
  facet normal -1.000000e+000  0.000000e+000  0.000000e+000
    outer loop
      vertex  0.000000e+000  2.007871e+001  1.974561e+000
      vertex  0.000000e+000  1.836654e+001  2.158987e+000
      vertex  0.000000e+000  1.871277e+001  1.657807e+001
    endloop
  endfacet
  facet normal -1.000000e+000  0.000000e+000  0.000000e+000
    outer loop
      vertex  0.000000e+000  1.871277e+001  1.657807e+001
      vertex  0.000000e+000  1.836654e+001  2.158987e+000
      vertex  0.000000e+000  9.820839e+000  5.983404e+000
    endloop
  endfacet
  facet normal -1.000000e+000  0.000000e+000  0.000000e+000
    outer loop
      vertex  0.000000e+000  1.871277e+001  1.657807e+001
      vertex  0.000000e+000  9.820839e+000  5.983404e+000
      vertex  0.000000e+000  7.182125e+000  8.981485e+000
    endloop
  endfacet
  facet normal -1.000000e+000  0.000000e+000  -0.000000e+000
    outer loop
      vertex  0.000000e+000  1.963346e+001 -2.158987e+000
      vertex  0.000000e+000  2.097456e+001 -1.078707e+000
      vertex  0.000000e+000  2.427355e+001 -5.982892e+000
    endloop
  endfacet
  facet normal -1.000000e+000  0.000000e+000  0.000000e+000
    outer loop
      vertex  0.000000e+000  2.427355e+001 -5.982892e+000
      vertex  0.000000e+000  2.097456e+001 -1.078707e+000
      vertex  0.000000e+000  2.115899e+001  6.334639e-001
    endloop
  endfacet
  facet normal -1.000000e+000  0.000000e+000  0.000000e+000
    outer loop
      vertex  0.000000e+000  2.427355e+001 -5.982892e+000
      vertex  0.000000e+000  2.115899e+001  6.334639e-001
      vertex  0.000000e+000  2.500000e+001  0.000000e+000
    endloop
  endfacet
  facet normal -1.000000e+000  0.000000e+000  0.000000e+000
    outer loop
      vertex  0.000000e+000  2.500000e+001  0.000000e+000
      vertex  0.000000e+000  2.115899e+001  6.334639e-001
      vertex  0.000000e+000  2.007871e+001  1.974561e+000
    endloop
  endfacet
  facet normal -9.999999e-001  0.000000e+000  0.000000e+000
    outer loop
      vertex  0.000000e+000  2.500000e+001  0.000000e+000
      vertex  0.000000e+000  2.007871e+001  1.974561e+000
      vertex  0.000000e+000  2.427355e+001  5.982892e+000
    endloop
  endfacet
  facet normal -1.000000e+000  -0.000000e+000  0.000000e+000
    outer loop
      vertex  0.000000e+000  2.427355e+001  5.982892e+000
      vertex  0.000000e+000  2.007871e+001  1.974561e+000
      vertex  0.000000e+000  1.871277e+001  1.657807e+001
    endloop
  endfacet
  facet normal -1.000000e+000  0.000000e+000  0.000000e+000
    outer loop
      vertex  0.000000e+000  2.427355e+001  5.982892e+000
      vertex  0.000000e+000  1.871277e+001  1.657807e+001
      vertex  0.000000e+000  2.213640e+001  1.161808e+001
    endloop
  endfacet
  facet normal -1.000000e+000  0.000000e+000  0.000000e+000
    outer loop
      vertex  0.000000e+000 -8.969103e+000 -1.426801e+001
      vertex  0.000000e+000 -1.067067e+001 -1.453301e+001
      vertex  0.000000e+000 -9.820839e+000 -5.983404e+000
    endloop
  endfacet
  facet normal -1.000000e+000  0.000000e+000  0.000000e+000
    outer loop
      vertex  0.000000e+000 -9.820839e+000 -5.983404e+000
      vertex  0.000000e+000 -1.067067e+001 -1.453301e+001
      vertex  0.000000e+000 -1.168647e+001 -1.592358e+001
    endloop
  endfacet
  facet normal -1.000000e+000  0.000000e+000  0.000000e+000
    outer loop
      vertex  0.000000e+000 -9.820839e+000 -5.983404e+000
      vertex  0.000000e+000 -1.168647e+001 -1.592358e+001
      vertex  0.000000e+000 -1.938202e+001 -4.998608e+000
    endloop
  endfacet
  facet normal -9.999999e-001  0.000000e+000  0.000000e+000
    outer loop
      vertex  0.000000e+000 -1.938202e+001 -4.998608e+000
      vertex  0.000000e+000 -1.168647e+001 -1.592358e+001
      vertex  0.000000e+000 -1.871277e+001 -1.657807e+001
    endloop
  endfacet
  facet normal -1.000000e+000  0.000000e+000  0.000000e+000
    outer loop
      vertex  0.000000e+000 -1.938202e+001 -4.998608e+000
      vertex  0.000000e+000 -1.871277e+001 -1.657807e+001
      vertex  0.000000e+000 -2.213640e+001 -1.161808e+001
    endloop
  endfacet
  facet normal -1.000000e+000  0.000000e+000  0.000000e+000
    outer loop
      vertex  0.000000e+000 -1.174937e+001  1.640139e+001
      vertex  0.000000e+000 -1.871277e+001  1.657807e+001
      vertex  0.000000e+000 -1.112809e+001  1.800749e+001
    endloop
  endfacet
  facet normal -1.000000e+000  -0.000000e+000  0.000000e+000
    outer loop
      vertex  0.000000e+000 -1.112809e+001  1.800749e+001
      vertex  0.000000e+000 -1.871277e+001  1.657807e+001
      vertex  0.000000e+000 -1.420162e+001  2.057460e+001
    endloop
  endfacet
  facet normal -1.000000e+000  0.000000e+000  0.000000e+000
    outer loop
      vertex  0.000000e+000 -1.112809e+001  1.800749e+001
      vertex  0.000000e+000 -1.420162e+001  2.057460e+001
      vertex  0.000000e+000 -9.553092e+000  1.870386e+001
    endloop
  endfacet
  facet normal -1.000000e+000  0.000000e+000  -0.000000e+000
    outer loop
      vertex  0.000000e+000 -1.511209e+001 -2.397128e+000
      vertex  0.000000e+000 -1.450139e+001  1.179829e-001
      vertex  0.000000e+000 -1.127501e+001 -2.263636e+000
    endloop
  endfacet
  facet normal -1.000000e+000  0.000000e+000  0.000000e+000
    outer loop
      vertex  0.000000e+000 -1.127501e+001 -2.263636e+000
      vertex  0.000000e+000 -1.450139e+001  1.179829e-001
      vertex  0.000000e+000 -1.523007e+001  2.601480e+000
    endloop
  endfacet
  facet normal -1.000000e+000  0.000000e+000  0.000000e+000
    outer loop
      vertex  0.000000e+000 -1.127501e+001 -2.263636e+000
      vertex  0.000000e+000 -1.523007e+001  2.601480e+000
      vertex  0.000000e+000 -1.136926e+001  1.729160e+000
    endloop
  endfacet
  facet normal -1.000000e+000  0.000000e+000  0.000000e+000
    outer loop
      vertex  0.000000e+000 -1.136926e+001  1.729160e+000
      vertex  0.000000e+000 -1.523007e+001  2.601480e+000
      vertex  0.000000e+000 -1.710287e+001  4.387913e+000
    endloop
  endfacet
  facet normal -1.000000e+000  0.000000e+000  0.000000e+000
    outer loop
      vertex  0.000000e+000 -1.136926e+001  1.729160e+000
      vertex  0.000000e+000 -1.710287e+001  4.387913e+000
      vertex  0.000000e+000 -1.009220e+001  5.513394e+000
    endloop
  endfacet
  facet normal -1.000000e+000  0.000000e+000  -0.000000e+000
    outer loop
      vertex  0.000000e+000 -1.938202e+001 -4.998608e+000
      vertex  0.000000e+000 -1.689852e+001 -4.269930e+000
      vertex  0.000000e+000 -9.820839e+000 -5.983404e+000
    endloop
  endfacet
  facet normal -1.000000e+000  0.000000e+000  0.000000e+000
    outer loop
      vertex  0.000000e+000 -9.820839e+000 -5.983404e+000
      vertex  0.000000e+000 -1.689852e+001 -4.269930e+000
      vertex  0.000000e+000 -1.511209e+001 -2.397128e+000
    endloop
  endfacet
  facet normal -1.000000e+000  0.000000e+000  0.000000e+000
    outer loop
      vertex  0.000000e+000 -9.820839e+000 -5.983404e+000
      vertex  0.000000e+000 -1.511209e+001 -2.397128e+000
      vertex  0.000000e+000 -1.127501e+001 -2.263636e+000
    endloop
  endfacet
  facet normal -1.000000e+000  0.000000e+000  0.000000e+000
    outer loop
      vertex  0.000000e+000 -1.420162e+001 -2.057460e+001
      vertex  0.000000e+000 -1.871277e+001 -1.657807e+001
      vertex  0.000000e+000 -1.142147e+001 -1.762515e+001
    endloop
  endfacet
  facet normal -9.999999e-001  0.000000e+000  0.000000e+000
    outer loop
      vertex  0.000000e+000 -1.142147e+001 -1.762515e+001
      vertex  0.000000e+000 -1.871277e+001 -1.657807e+001
      vertex  0.000000e+000 -1.168647e+001 -1.592358e+001
    endloop
  endfacet
  facet normal -1.000000e+000  0.000000e+000  0.000000e+000
    outer loop
      vertex  0.000000e+000 -3.013417e+000 -2.481772e+001
      vertex  0.000000e+000 -8.865122e+000 -2.337541e+001
      vertex  0.000000e+000  3.013417e+000 -2.481772e+001
    endloop
  endfacet
  facet normal -1.000000e+000  0.000000e+000  0.000000e+000
    outer loop
      vertex  0.000000e+000  3.013417e+000 -2.481772e+001
      vertex  0.000000e+000 -8.865122e+000 -2.337541e+001
      vertex  0.000000e+000  8.865122e+000 -2.337541e+001
    endloop
  endfacet
  facet normal -1.000000e+000  0.000000e+000  -0.000000e+000
    outer loop
      vertex  0.000000e+000 -8.865122e+000  2.337541e+001
      vertex  0.000000e+000 -3.013417e+000  2.481772e+001
      vertex  0.000000e+000  8.865122e+000  2.337541e+001
    endloop
  endfacet
  facet normal -1.000000e+000  0.000000e+000  0.000000e+000
    outer loop
      vertex  0.000000e+000  8.865122e+000  2.337541e+001
      vertex  0.000000e+000 -3.013417e+000  2.481772e+001
      vertex  0.000000e+000  3.013417e+000  2.481772e+001
    endloop
  endfacet
  facet normal -1.000000e+000  0.000000e+000  0.000000e+000
    outer loop
      vertex  0.000000e+000 -7.250627e+000  1.650757e+001
      vertex  0.000000e+000 -2.713607e-001  1.149680e+001
      vertex  0.000000e+000 -7.871911e+000  1.490148e+001
    endloop
  endfacet
  facet normal -1.000000e+000  0.000000e+000  0.000000e+000
    outer loop
      vertex  0.000000e+000 -7.871911e+000  1.490148e+001
      vertex  0.000000e+000 -2.713607e-001  1.149680e+001
      vertex  0.000000e+000 -4.187132e+000  1.071065e+001
    endloop
  endfacet
  facet normal -1.000000e+000  0.000000e+000  0.000000e+000
    outer loop
      vertex  0.000000e+000 -7.871911e+000  1.490148e+001
      vertex  0.000000e+000 -4.187132e+000  1.071065e+001
      vertex  0.000000e+000 -9.446908e+000  1.420511e+001
    endloop
  endfacet
  facet normal  -0.000000e+000  6.902245e-001  7.235953e-001
    outer loop
      vertex  5.000000e+000 -2.189713e+001 -4.387913e+000
      vertex  0.000000e+000 -2.376993e+001 -2.601480e+000
      vertex  5.000000e+000 -2.376993e+001 -2.601480e+000
    endloop
  endfacet
  facet normal  0.000000e+000  9.595497e-001  2.815395e-001
    outer loop
      vertex  5.000000e+000 -2.376993e+001 -2.601480e+000
      vertex  0.000000e+000 -2.376993e+001 -2.601480e+000
      vertex  0.000000e+000 -2.449861e+001 -1.179829e-001
    endloop
  endfacet
  facet normal  -0.000000e+000  9.595497e-001  2.815395e-001
    outer loop
      vertex  5.000000e+000 -2.376993e+001 -2.601480e+000
      vertex  0.000000e+000 -2.449861e+001 -1.179829e-001
      vertex  5.000000e+000 -2.449861e+001 -1.179829e-001
    endloop
  endfacet
  facet normal  0.000000e+000  9.717641e-001 -2.359544e-001
    outer loop
      vertex  5.000000e+000 -2.449861e+001 -1.179829e-001
      vertex  0.000000e+000 -2.449861e+001 -1.179829e-001
      vertex  0.000000e+000 -2.388791e+001  2.397128e+000
    endloop
  endfacet
  facet normal  0.000000e+000  9.717641e-001 -2.359544e-001
    outer loop
      vertex  5.000000e+000 -2.449861e+001 -1.179829e-001
      vertex  0.000000e+000 -2.388791e+001  2.397128e+000
      vertex  5.000000e+000 -2.388791e+001  2.397128e+000
    endloop
  endfacet
  facet normal  0.000000e+000  6.902245e-001  7.235953e-001
    outer loop
      vertex  0.000000e+000 -2.376993e+001 -2.601480e+000
      vertex  5.000000e+000 -2.189713e+001 -4.387913e+000
      vertex  0.000000e+000 -2.189713e+001 -4.387913e+000
    endloop
  endfacet
  facet normal  -0.000000e+000  2.359545e-001  9.717642e-001
    outer loop
      vertex  0.000000e+000 -2.189713e+001 -4.387913e+000
      vertex  5.000000e+000 -2.189713e+001 -4.387913e+000
      vertex  5.000000e+000 -1.938202e+001 -4.998608e+000
    endloop
  endfacet
  facet normal  0.000000e+000  2.359545e-001  9.717642e-001
    outer loop
      vertex  0.000000e+000 -2.189713e+001 -4.387913e+000
      vertex  5.000000e+000 -1.938202e+001 -4.998608e+000
      vertex  0.000000e+000 -1.938202e+001 -4.998608e+000
    endloop
  endfacet
  facet normal  0.000000e+000 -2.815394e-001  9.595497e-001
    outer loop
      vertex  0.000000e+000 -1.938202e+001 -4.998608e+000
      vertex  5.000000e+000 -1.938202e+001 -4.998608e+000
      vertex  5.000000e+000 -1.689852e+001 -4.269930e+000
    endloop
  endfacet
  facet normal  0.000000e+000 -2.815394e-001  9.595497e-001
    outer loop
      vertex  0.000000e+000 -1.938202e+001 -4.998608e+000
      vertex  5.000000e+000 -1.689852e+001 -4.269930e+000
      vertex  0.000000e+000 -1.689852e+001 -4.269930e+000
    endloop
  endfacet
  facet normal  0.000000e+000 -7.235953e-001  6.902245e-001
    outer loop
      vertex  0.000000e+000 -1.689852e+001 -4.269930e+000
      vertex  5.000000e+000 -1.689852e+001 -4.269930e+000
      vertex  5.000000e+000 -1.511209e+001 -2.397128e+000
    endloop
  endfacet
  facet normal  0.000000e+000 -7.235953e-001  6.902245e-001
    outer loop
      vertex  0.000000e+000 -1.689852e+001 -4.269930e+000
      vertex  5.000000e+000 -1.511209e+001 -2.397128e+000
      vertex  0.000000e+000 -1.511209e+001 -2.397128e+000
    endloop
  endfacet
  facet normal  0.000000e+000 -6.902245e-001 -7.235953e-001
    outer loop
      vertex  5.000000e+000 -1.710287e+001  4.387913e+000
      vertex  0.000000e+000 -1.523007e+001  2.601480e+000
      vertex  5.000000e+000 -1.523007e+001  2.601480e+000
    endloop
  endfacet
  facet normal  -0.000000e+000 -9.595497e-001 -2.815395e-001
    outer loop
      vertex  5.000000e+000 -1.523007e+001  2.601480e+000
      vertex  0.000000e+000 -1.523007e+001  2.601480e+000
      vertex  0.000000e+000 -1.450139e+001  1.179829e-001
    endloop
  endfacet
  facet normal  0.000000e+000 -9.595497e-001 -2.815395e-001
    outer loop
      vertex  5.000000e+000 -1.523007e+001  2.601480e+000
      vertex  0.000000e+000 -1.450139e+001  1.179829e-001
      vertex  5.000000e+000 -1.450139e+001  1.179829e-001
    endloop
  endfacet
  facet normal  0.000000e+000 -9.717641e-001  2.359544e-001
    outer loop
      vertex  5.000000e+000 -1.450139e+001  1.179829e-001
      vertex  0.000000e+000 -1.450139e+001  1.179829e-001
      vertex  0.000000e+000 -1.511209e+001 -2.397128e+000
    endloop
  endfacet
  facet normal  0.000000e+000 -9.717641e-001  2.359544e-001
    outer loop
      vertex  5.000000e+000 -1.450139e+001  1.179829e-001
      vertex  0.000000e+000 -1.511209e+001 -2.397128e+000
      vertex  5.000000e+000 -1.511209e+001 -2.397128e+000
    endloop
  endfacet
  facet normal  -0.000000e+000 -6.902245e-001 -7.235953e-001
    outer loop
      vertex  0.000000e+000 -1.523007e+001  2.601480e+000
      vertex  5.000000e+000 -1.710287e+001  4.387913e+000
      vertex  0.000000e+000 -1.710287e+001  4.387913e+000
    endloop
  endfacet
  facet normal  0.000000e+000 -2.359545e-001 -9.717642e-001
    outer loop
      vertex  0.000000e+000 -1.710287e+001  4.387913e+000
      vertex  5.000000e+000 -1.710287e+001  4.387913e+000
      vertex  5.000000e+000 -1.961798e+001  4.998608e+000
    endloop
  endfacet
  facet normal  -0.000000e+000 -2.359545e-001 -9.717642e-001
    outer loop
      vertex  0.000000e+000 -1.710287e+001  4.387913e+000
      vertex  5.000000e+000 -1.961798e+001  4.998608e+000
      vertex  0.000000e+000 -1.961798e+001  4.998608e+000
    endloop
  endfacet
  facet normal  0.000000e+000  2.815394e-001 -9.595497e-001
    outer loop
      vertex  0.000000e+000 -1.961798e+001  4.998608e+000
      vertex  5.000000e+000 -1.961798e+001  4.998608e+000
      vertex  5.000000e+000 -2.210148e+001  4.269930e+000
    endloop
  endfacet
  facet normal  0.000000e+000  2.815394e-001 -9.595497e-001
    outer loop
      vertex  0.000000e+000 -1.961798e+001  4.998608e+000
      vertex  5.000000e+000 -2.210148e+001  4.269930e+000
      vertex  0.000000e+000 -2.210148e+001  4.269930e+000
    endloop
  endfacet
  facet normal  0.000000e+000  7.235953e-001 -6.902245e-001
    outer loop
      vertex  0.000000e+000 -2.210148e+001  4.269930e+000
      vertex  5.000000e+000 -2.210148e+001  4.269930e+000
      vertex  5.000000e+000 -2.388791e+001  2.397128e+000
    endloop
  endfacet
  facet normal  0.000000e+000  7.235953e-001 -6.902245e-001
    outer loop
      vertex  0.000000e+000 -2.210148e+001  4.269930e+000
      vertex  5.000000e+000 -2.388791e+001  2.397128e+000
      vertex  0.000000e+000 -2.388791e+001  2.397128e+000
    endloop
  endfacet
  facet normal  0.000000e+000  1.538849e-001 -9.880888e-001
    outer loop
      vertex  5.000000e+000 -1.067067e+001 -1.453301e+001
      vertex  0.000000e+000 -8.969103e+000 -1.426801e+001
      vertex  5.000000e+000 -8.969103e+000 -1.426801e+001
    endloop
  endfacet
  facet normal  -0.000000e+000 -5.898715e-001 -8.074971e-001
    outer loop
      vertex  5.000000e+000 -8.969103e+000 -1.426801e+001
      vertex  0.000000e+000 -8.969103e+000 -1.426801e+001
      vertex  0.000000e+000 -7.578532e+000 -1.528382e+001
    endloop
  endfacet
  facet normal  0.000000e+000 -5.898715e-001 -8.074971e-001
    outer loop
      vertex  5.000000e+000 -8.969103e+000 -1.426801e+001
      vertex  0.000000e+000 -7.578532e+000 -1.528382e+001
      vertex  5.000000e+000 -7.578532e+000 -1.528382e+001
    endloop
  endfacet
  facet normal  0.000000e+000  1.538849e-001 -9.880888e-001
    outer loop
      vertex  0.000000e+000 -8.969103e+000 -1.426801e+001
      vertex  5.000000e+000 -1.067067e+001 -1.453301e+001
      vertex  0.000000e+000 -1.067067e+001 -1.453301e+001
    endloop
  endfacet
  facet normal  0.000000e+000  8.074970e-001 -5.898716e-001
    outer loop
      vertex  0.000000e+000 -1.067067e+001 -1.453301e+001
      vertex  5.000000e+000 -1.067067e+001 -1.453301e+001
      vertex  5.000000e+000 -1.168647e+001 -1.592358e+001
    endloop
  endfacet
  facet normal  0.000000e+000  8.074970e-001 -5.898716e-001
    outer loop
      vertex  0.000000e+000 -1.067067e+001 -1.453301e+001
      vertex  5.000000e+000 -1.168647e+001 -1.592358e+001
      vertex  0.000000e+000 -1.168647e+001 -1.592358e+001
    endloop
  endfacet
  facet normal  -0.000000e+000  9.880888e-001  1.538843e-001
    outer loop
      vertex  0.000000e+000 -1.168647e+001 -1.592358e+001
      vertex  5.000000e+000 -1.168647e+001 -1.592358e+001
      vertex  5.000000e+000 -1.142147e+001 -1.762515e+001
    endloop
  endfacet
  facet normal  0.000000e+000  9.880888e-001  1.538843e-001
    outer loop
      vertex  0.000000e+000 -1.168647e+001 -1.592358e+001
      vertex  5.000000e+000 -1.142147e+001 -1.762515e+001
      vertex  0.000000e+000 -1.142147e+001 -1.762515e+001
    endloop
  endfacet
  facet normal  0.000000e+000 -1.538838e-001  9.880890e-001
    outer loop
      vertex  5.000000e+000 -8.329334e+000 -1.837595e+001
      vertex  0.000000e+000 -1.003090e+001 -1.864095e+001
      vertex  5.000000e+000 -1.003090e+001 -1.864095e+001
    endloop
  endfacet
  facet normal  0.000000e+000  5.898710e-001  8.074974e-001
    outer loop
      vertex  5.000000e+000 -1.003090e+001 -1.864095e+001
      vertex  0.000000e+000 -1.003090e+001 -1.864095e+001
      vertex  0.000000e+000 -1.142147e+001 -1.762515e+001
    endloop
  endfacet
  facet normal  -0.000000e+000  5.898710e-001  8.074974e-001
    outer loop
      vertex  5.000000e+000 -1.003090e+001 -1.864095e+001
      vertex  0.000000e+000 -1.142147e+001 -1.762515e+001
      vertex  5.000000e+000 -1.142147e+001 -1.762515e+001
    endloop
  endfacet
  facet normal  0.000000e+000 -1.538838e-001  9.880890e-001
    outer loop
      vertex  0.000000e+000 -1.003090e+001 -1.864095e+001
      vertex  5.000000e+000 -8.329334e+000 -1.837595e+001
      vertex  0.000000e+000 -8.329334e+000 -1.837595e+001
    endloop
  endfacet
  facet normal  0.000000e+000 -8.074972e-001  5.898713e-001
    outer loop
      vertex  0.000000e+000 -8.329334e+000 -1.837595e+001
      vertex  5.000000e+000 -8.329334e+000 -1.837595e+001
      vertex  5.000000e+000 -7.313531e+000 -1.698538e+001
    endloop
  endfacet
  facet normal  0.000000e+000 -8.074972e-001  5.898713e-001
    outer loop
      vertex  0.000000e+000 -8.329334e+000 -1.837595e+001
      vertex  5.000000e+000 -7.313531e+000 -1.698538e+001
      vertex  0.000000e+000 -7.313531e+000 -1.698538e+001
    endloop
  endfacet
  facet normal  0.000000e+000 -9.880888e-001 -1.538845e-001
    outer loop
      vertex  0.000000e+000 -7.313531e+000 -1.698538e+001
      vertex  5.000000e+000 -7.313531e+000 -1.698538e+001
      vertex  5.000000e+000 -7.578532e+000 -1.528382e+001
    endloop
  endfacet
  facet normal  -0.000000e+000 -9.880888e-001 -1.538845e-001
    outer loop
      vertex  0.000000e+000 -7.313531e+000 -1.698538e+001
      vertex  5.000000e+000 -7.578532e+000 -1.528382e+001
      vertex  0.000000e+000 -7.578532e+000 -1.528382e+001
    endloop
  endfacet
  facet normal  0.000000e+000 -9.326524e-001  3.607766e-001
    outer loop
      vertex  5.000000e+000 -7.250627e+000  1.650757e+001
      vertex  0.000000e+000 -7.871911e+000  1.490148e+001
      vertex  5.000000e+000 -7.871911e+000  1.490148e+001
    endloop
  endfacet
  facet normal  0.000000e+000 -4.043772e-001  9.145923e-001
    outer loop
      vertex  5.000000e+000 -7.871911e+000  1.490148e+001
      vertex  0.000000e+000 -7.871911e+000  1.490148e+001
      vertex  0.000000e+000 -9.446908e+000  1.420511e+001
    endloop
  endfacet
  facet normal  0.000000e+000 -4.043772e-001  9.145923e-001
    outer loop
      vertex  5.000000e+000 -7.871911e+000  1.490148e+001
      vertex  0.000000e+000 -9.446908e+000  1.420511e+001
      vertex  5.000000e+000 -9.446908e+000  1.420511e+001
    endloop
  endfacet
  facet normal  0.000000e+000 -9.326524e-001  3.607766e-001
    outer loop
      vertex  0.000000e+000 -7.871911e+000  1.490148e+001
      vertex  5.000000e+000 -7.250627e+000  1.650757e+001
      vertex  0.000000e+000 -7.250627e+000  1.650757e+001
    endloop
  endfacet
  facet normal  0.000000e+000 -9.145923e-001 -4.043773e-001
    outer loop
      vertex  0.000000e+000 -7.250627e+000  1.650757e+001
      vertex  5.000000e+000 -7.250627e+000  1.650757e+001
      vertex  5.000000e+000 -7.946995e+000  1.808257e+001
    endloop
  endfacet
  facet normal  -0.000000e+000 -9.145923e-001 -4.043773e-001
    outer loop
      vertex  0.000000e+000 -7.250627e+000  1.650757e+001
      vertex  5.000000e+000 -7.946995e+000  1.808257e+001
      vertex  0.000000e+000 -7.946995e+000  1.808257e+001
    endloop
  endfacet
  facet normal  0.000000e+000 -3.607767e-001 -9.326523e-001
    outer loop
      vertex  0.000000e+000 -7.946995e+000  1.808257e+001
      vertex  5.000000e+000 -7.946995e+000  1.808257e+001
      vertex  5.000000e+000 -9.553092e+000  1.870386e+001
    endloop
  endfacet
  facet normal  -0.000000e+000 -3.607767e-001 -9.326523e-001
    outer loop
      vertex  0.000000e+000 -7.946995e+000  1.808257e+001
      vertex  5.000000e+000 -9.553092e+000  1.870386e+001
      vertex  0.000000e+000 -9.553092e+000  1.870386e+001
    endloop
  endfacet
  facet normal  0.000000e+000  9.326523e-001 -3.607765e-001
    outer loop
      vertex  5.000000e+000 -1.174937e+001  1.640139e+001
      vertex  0.000000e+000 -1.112809e+001  1.800749e+001
      vertex  5.000000e+000 -1.112809e+001  1.800749e+001
    endloop
  endfacet
  facet normal  0.000000e+000  4.043768e-001 -9.145925e-001
    outer loop
      vertex  5.000000e+000 -1.112809e+001  1.800749e+001
      vertex  0.000000e+000 -1.112809e+001  1.800749e+001
      vertex  0.000000e+000 -9.553092e+000  1.870386e+001
    endloop
  endfacet
  facet normal  0.000000e+000  4.043768e-001 -9.145925e-001
    outer loop
      vertex  5.000000e+000 -1.112809e+001  1.800749e+001
      vertex  0.000000e+000 -9.553092e+000  1.870386e+001
      vertex  5.000000e+000 -9.553092e+000  1.870386e+001
    endloop
  endfacet
  facet normal  0.000000e+000  9.326523e-001 -3.607765e-001
    outer loop
      vertex  0.000000e+000 -1.112809e+001  1.800749e+001
      vertex  5.000000e+000 -1.174937e+001  1.640139e+001
      vertex  0.000000e+000 -1.174937e+001  1.640139e+001
    endloop
  endfacet
  facet normal  -0.000000e+000  9.145923e-001  4.043773e-001
    outer loop
      vertex  0.000000e+000 -1.174937e+001  1.640139e+001
      vertex  5.000000e+000 -1.174937e+001  1.640139e+001
      vertex  5.000000e+000 -1.105301e+001  1.482639e+001
    endloop
  endfacet
  facet normal  0.000000e+000  9.145923e-001  4.043773e-001
    outer loop
      vertex  0.000000e+000 -1.174937e+001  1.640139e+001
      vertex  5.000000e+000 -1.105301e+001  1.482639e+001
      vertex  0.000000e+000 -1.105301e+001  1.482639e+001
    endloop
  endfacet
  facet normal  -0.000000e+000  3.607761e-001  9.326524e-001
    outer loop
      vertex  0.000000e+000 -1.105301e+001  1.482639e+001
      vertex  5.000000e+000 -1.105301e+001  1.482639e+001
      vertex  5.000000e+000 -9.446908e+000  1.420511e+001
    endloop
  endfacet
  facet normal  0.000000e+000  3.607761e-001  9.326524e-001
    outer loop
      vertex  0.000000e+000 -1.105301e+001  1.482639e+001
      vertex  5.000000e+000 -9.446908e+000  1.420511e+001
      vertex  0.000000e+000 -9.446908e+000  1.420511e+001
    endloop
  endfacet
  facet normal  -0.000000e+000  7.787674e-001  6.273127e-001
    outer loop
      vertex  5.000000e+000  1.792129e+001 -1.974561e+000
      vertex  0.000000e+000  1.684101e+001 -6.334639e-001
      vertex  5.000000e+000  1.684101e+001 -6.334639e-001
    endloop
  endfacet
  facet normal  0.000000e+000  9.942489e-001 -1.070948e-001
    outer loop
      vertex  5.000000e+000  1.684101e+001 -6.334639e-001
      vertex  0.000000e+000  1.684101e+001 -6.334639e-001
      vertex  0.000000e+000  1.702544e+001  1.078707e+000
    endloop
  endfacet
  facet normal  0.000000e+000  9.942489e-001 -1.070948e-001
    outer loop
      vertex  5.000000e+000  1.684101e+001 -6.334639e-001
      vertex  0.000000e+000  1.702544e+001  1.078707e+000
      vertex  5.000000e+000  1.702544e+001  1.078707e+000
    endloop
  endfacet
  facet normal  0.000000e+000  7.787674e-001  6.273127e-001
    outer loop
      vertex  0.000000e+000  1.684101e+001 -6.334639e-001
      vertex  5.000000e+000  1.792129e+001 -1.974561e+000
      vertex  0.000000e+000  1.792129e+001 -1.974561e+000
    endloop
  endfacet
  facet normal  -0.000000e+000  1.070951e-001  9.942489e-001
    outer loop
      vertex  0.000000e+000  1.792129e+001 -1.974561e+000
      vertex  5.000000e+000  1.792129e+001 -1.974561e+000
      vertex  5.000000e+000  1.963346e+001 -2.158987e+000
    endloop
  endfacet
  facet normal  0.000000e+000  1.070951e-001  9.942489e-001
    outer loop
      vertex  0.000000e+000  1.792129e+001 -1.974561e+000
      vertex  5.000000e+000  1.963346e+001 -2.158987e+000
      vertex  0.000000e+000  1.963346e+001 -2.158987e+000
    endloop
  endfacet
  facet normal  0.000000e+000 -6.273123e-001  7.787678e-001
    outer loop
      vertex  0.000000e+000  1.963346e+001 -2.158987e+000
      vertex  5.000000e+000  1.963346e+001 -2.158987e+000
      vertex  5.000000e+000  2.097456e+001 -1.078707e+000
    endloop
  endfacet
  facet normal  0.000000e+000 -6.273123e-001  7.787678e-001
    outer loop
      vertex  0.000000e+000  1.963346e+001 -2.158987e+000
      vertex  5.000000e+000  2.097456e+001 -1.078707e+000
      vertex  0.000000e+000  2.097456e+001 -1.078707e+000
    endloop
  endfacet
  facet normal  0.000000e+000 -7.787674e-001 -6.273127e-001
    outer loop
      vertex  5.000000e+000  2.007871e+001  1.974561e+000
      vertex  0.000000e+000  2.115899e+001  6.334639e-001
      vertex  5.000000e+000  2.115899e+001  6.334639e-001
    endloop
  endfacet
  facet normal  0.000000e+000 -9.942489e-001  1.070948e-001
    outer loop
      vertex  5.000000e+000  2.115899e+001  6.334639e-001
      vertex  0.000000e+000  2.115899e+001  6.334639e-001
      vertex  0.000000e+000  2.097456e+001 -1.078707e+000
    endloop
  endfacet
  facet normal  0.000000e+000 -9.942489e-001  1.070948e-001
    outer loop
      vertex  5.000000e+000  2.115899e+001  6.334639e-001
      vertex  0.000000e+000  2.097456e+001 -1.078707e+000
      vertex  5.000000e+000  2.097456e+001 -1.078707e+000
    endloop
  endfacet
  facet normal  -0.000000e+000 -7.787674e-001 -6.273127e-001
    outer loop
      vertex  0.000000e+000  2.115899e+001  6.334639e-001
      vertex  5.000000e+000  2.007871e+001  1.974561e+000
      vertex  0.000000e+000  2.007871e+001  1.974561e+000
    endloop
  endfacet
  facet normal  0.000000e+000 -1.070951e-001 -9.942489e-001
    outer loop
      vertex  0.000000e+000  2.007871e+001  1.974561e+000
      vertex  5.000000e+000  2.007871e+001  1.974561e+000
      vertex  5.000000e+000  1.836654e+001  2.158987e+000
    endloop
  endfacet
  facet normal  -0.000000e+000 -1.070951e-001 -9.942489e-001
    outer loop
      vertex  0.000000e+000  2.007871e+001  1.974561e+000
      vertex  5.000000e+000  1.836654e+001  2.158987e+000
      vertex  0.000000e+000  1.836654e+001  2.158987e+000
    endloop
  endfacet
  facet normal  0.000000e+000  6.273123e-001 -7.787678e-001
    outer loop
      vertex  0.000000e+000  1.836654e+001  2.158987e+000
      vertex  5.000000e+000  1.836654e+001  2.158987e+000
      vertex  5.000000e+000  1.702544e+001  1.078707e+000
    endloop
  endfacet
  facet normal  0.000000e+000  6.273123e-001 -7.787678e-001
    outer loop
      vertex  0.000000e+000  1.836654e+001  2.158987e+000
      vertex  5.000000e+000  1.702544e+001  1.078707e+000
      vertex  0.000000e+000  1.702544e+001  1.078707e+000
    endloop
  endfacet
  facet normal  -0.000000e+000  7.506636e-001  6.606847e-001
    outer loop
      vertex  5.000000e+000 -7.182125e+000 -8.981485e+000
      vertex  0.000000e+000 -9.820839e+000 -5.983404e+000
      vertex  5.000000e+000 -9.820839e+000 -5.983404e+000
    endloop
  endfacet
  facet normal  0.000000e+000  9.313604e-001  3.640985e-001
    outer loop
      vertex  5.000000e+000 -9.820839e+000 -5.983404e+000
      vertex  0.000000e+000 -9.820839e+000 -5.983404e+000
      vertex  0.000000e+000 -1.127501e+001 -2.263636e+000
    endloop
  endfacet
  facet normal  -0.000000e+000  9.313604e-001  3.640985e-001
    outer loop
      vertex  5.000000e+000 -9.820839e+000 -5.983404e+000
      vertex  0.000000e+000 -1.127501e+001 -2.263636e+000
      vertex  5.000000e+000 -1.127501e+001 -2.263636e+000
    endloop
  endfacet
  facet normal  0.000000e+000  9.997216e-001  2.359646e-002
    outer loop
      vertex  5.000000e+000 -1.127501e+001 -2.263636e+000
      vertex  0.000000e+000 -1.127501e+001 -2.263636e+000
      vertex  0.000000e+000 -1.136926e+001  1.729160e+000
    endloop
  endfacet
  facet normal  -0.000000e+000  9.997216e-001  2.359646e-002
    outer loop
      vertex  5.000000e+000 -1.127501e+001 -2.263636e+000
      vertex  0.000000e+000 -1.136926e+001  1.729160e+000
      vertex  5.000000e+000 -1.136926e+001  1.729160e+000
    endloop
  endfacet
  facet normal  0.000000e+000  9.475014e-001 -3.197514e-001
    outer loop
      vertex  5.000000e+000 -1.136926e+001  1.729160e+000
      vertex  0.000000e+000 -1.136926e+001  1.729160e+000
      vertex  0.000000e+000 -1.009220e+001  5.513394e+000
    endloop
  endfacet
  facet normal  0.000000e+000  9.475014e-001 -3.197514e-001
    outer loop
      vertex  5.000000e+000 -1.136926e+001  1.729160e+000
      vertex  0.000000e+000 -1.009220e+001  5.513394e+000
      vertex  5.000000e+000 -1.009220e+001  5.513394e+000
    endloop
  endfacet
  facet normal  0.000000e+000  7.506636e-001  6.606847e-001
    outer loop
      vertex  0.000000e+000 -9.820839e+000 -5.983404e+000
      vertex  5.000000e+000 -7.182125e+000 -8.981485e+000
      vertex  0.000000e+000 -7.182125e+000 -8.981485e+000
    endloop
  endfacet
  facet normal  -0.000000e+000  4.794255e-001  8.775826e-001
    outer loop
      vertex  0.000000e+000 -7.182125e+000 -8.981485e+000
      vertex  5.000000e+000 -7.182125e+000 -8.981485e+000
      vertex  5.000000e+000 -3.677141e+000 -1.089627e+001
    endloop
  endfacet
  facet normal  0.000000e+000  4.794255e-001  8.775826e-001
    outer loop
      vertex  0.000000e+000 -7.182125e+000 -8.981485e+000
      vertex  5.000000e+000 -3.677141e+000 -1.089627e+001
      vertex  0.000000e+000 -3.677141e+000 -1.089627e+001
    endloop
  endfacet
  facet normal  -0.000000e+000  1.503617e-001  9.886311e-001
    outer loop
      vertex  0.000000e+000 -3.677141e+000 -1.089627e+001
      vertex  5.000000e+000 -3.677141e+000 -1.089627e+001
      vertex  5.000000e+000  2.713607e-001 -1.149680e+001
    endloop
  endfacet
  facet normal  0.000000e+000  1.503617e-001  9.886311e-001
    outer loop
      vertex  0.000000e+000 -3.677141e+000 -1.089627e+001
      vertex  5.000000e+000  2.713607e-001 -1.149680e+001
      vertex  0.000000e+000  2.713607e-001 -1.149680e+001
    endloop
  endfacet
  facet normal  0.000000e+000 -1.968377e-001  9.804361e-001
    outer loop
      vertex  0.000000e+000  2.713607e-001 -1.149680e+001
      vertex  5.000000e+000  2.713607e-001 -1.149680e+001
      vertex  5.000000e+000  4.187132e+000 -1.071065e+001
    endloop
  endfacet
  facet normal  0.000000e+000 -1.968377e-001  9.804361e-001
    outer loop
      vertex  0.000000e+000  2.713607e-001 -1.149680e+001
      vertex  5.000000e+000  4.187132e+000 -1.071065e+001
      vertex  0.000000e+000  4.187132e+000 -1.071065e+001
    endloop
  endfacet
  facet normal  0.000000e+000 -5.202960e-001  8.539860e-001
    outer loop
      vertex  0.000000e+000  4.187132e+000 -1.071065e+001
      vertex  5.000000e+000  4.187132e+000 -1.071065e+001
      vertex  5.000000e+000  7.597874e+000 -8.632631e+000
    endloop
  endfacet
  facet normal  0.000000e+000 -5.202960e-001  8.539860e-001
    outer loop
      vertex  0.000000e+000  4.187132e+000 -1.071065e+001
      vertex  5.000000e+000  7.597874e+000 -8.632631e+000
      vertex  0.000000e+000  7.597874e+000 -8.632631e+000
    endloop
  endfacet
  facet normal  0.000000e+000 -7.809988e-001  6.245325e-001
    outer loop
      vertex  0.000000e+000  7.597874e+000 -8.632631e+000
      vertex  5.000000e+000  7.597874e+000 -8.632631e+000
      vertex  5.000000e+000  1.009220e+001 -5.513394e+000
    endloop
  endfacet
  facet normal  0.000000e+000 -7.809988e-001  6.245325e-001
    outer loop
      vertex  0.000000e+000  7.597874e+000 -8.632631e+000
      vertex  5.000000e+000  1.009220e+001 -5.513394e+000
      vertex  0.000000e+000  1.009220e+001 -5.513394e+000
    endloop
  endfacet
  facet normal  0.000000e+000 -7.506636e-001 -6.606847e-001
    outer loop
      vertex  5.000000e+000  7.182125e+000  8.981485e+000
      vertex  0.000000e+000  9.820839e+000  5.983404e+000
      vertex  5.000000e+000  9.820839e+000  5.983404e+000
    endloop
  endfacet
  facet normal  -0.000000e+000 -9.313604e-001 -3.640985e-001
    outer loop
      vertex  5.000000e+000  9.820839e+000  5.983404e+000
      vertex  0.000000e+000  9.820839e+000  5.983404e+000
      vertex  0.000000e+000  1.127501e+001  2.263636e+000
    endloop
  endfacet
  facet normal  0.000000e+000 -9.313604e-001 -3.640985e-001
    outer loop
      vertex  5.000000e+000  9.820839e+000  5.983404e+000
      vertex  0.000000e+000  1.127501e+001  2.263636e+000
      vertex  5.000000e+000  1.127501e+001  2.263636e+000
    endloop
  endfacet
  facet normal  -0.000000e+000 -9.997216e-001 -2.359646e-002
    outer loop
      vertex  5.000000e+000  1.127501e+001  2.263636e+000
      vertex  0.000000e+000  1.127501e+001  2.263636e+000
      vertex  0.000000e+000  1.136926e+001 -1.729160e+000
    endloop
  endfacet
  facet normal  0.000000e+000 -9.997216e-001 -2.359646e-002
    outer loop
      vertex  5.000000e+000  1.127501e+001  2.263636e+000
      vertex  0.000000e+000  1.136926e+001 -1.729160e+000
      vertex  5.000000e+000  1.136926e+001 -1.729160e+000
    endloop
  endfacet
  facet normal  0.000000e+000 -9.475014e-001  3.197514e-001
    outer loop
      vertex  5.000000e+000  1.136926e+001 -1.729160e+000
      vertex  0.000000e+000  1.136926e+001 -1.729160e+000
      vertex  0.000000e+000  1.009220e+001 -5.513394e+000
    endloop
  endfacet
  facet normal  0.000000e+000 -9.475014e-001  3.197514e-001
    outer loop
      vertex  5.000000e+000  1.136926e+001 -1.729160e+000
      vertex  0.000000e+000  1.009220e+001 -5.513394e+000
      vertex  5.000000e+000  1.009220e+001 -5.513394e+000
    endloop
  endfacet
  facet normal  -0.000000e+000 -7.506636e-001 -6.606847e-001
    outer loop
      vertex  0.000000e+000  9.820839e+000  5.983404e+000
      vertex  5.000000e+000  7.182125e+000  8.981485e+000
      vertex  0.000000e+000  7.182125e+000  8.981485e+000
    endloop
  endfacet
  facet normal  0.000000e+000 -4.794255e-001 -8.775826e-001
    outer loop
      vertex  0.000000e+000  7.182125e+000  8.981485e+000
      vertex  5.000000e+000  7.182125e+000  8.981485e+000
      vertex  5.000000e+000  3.677141e+000  1.089627e+001
    endloop
  endfacet
  facet normal  -0.000000e+000 -4.794255e-001 -8.775826e-001
    outer loop
      vertex  0.000000e+000  7.182125e+000  8.981485e+000
      vertex  5.000000e+000  3.677141e+000  1.089627e+001
      vertex  0.000000e+000  3.677141e+000  1.089627e+001
    endloop
  endfacet
  facet normal  0.000000e+000 -1.503617e-001 -9.886311e-001
    outer loop
      vertex  0.000000e+000  3.677141e+000  1.089627e+001
      vertex  5.000000e+000  3.677141e+000  1.089627e+001
      vertex  5.000000e+000 -2.713607e-001  1.149680e+001
    endloop
  endfacet
  facet normal  -0.000000e+000 -1.503617e-001 -9.886311e-001
    outer loop
      vertex  0.000000e+000  3.677141e+000  1.089627e+001
      vertex  5.000000e+000 -2.713607e-001  1.149680e+001
      vertex  0.000000e+000 -2.713607e-001  1.149680e+001
    endloop
  endfacet
  facet normal  0.000000e+000  1.968377e-001 -9.804361e-001
    outer loop
      vertex  0.000000e+000 -2.713607e-001  1.149680e+001
      vertex  5.000000e+000 -2.713607e-001  1.149680e+001
      vertex  5.000000e+000 -4.187132e+000  1.071065e+001
    endloop
  endfacet
  facet normal  0.000000e+000  1.968377e-001 -9.804361e-001
    outer loop
      vertex  0.000000e+000 -2.713607e-001  1.149680e+001
      vertex  5.000000e+000 -4.187132e+000  1.071065e+001
      vertex  0.000000e+000 -4.187132e+000  1.071065e+001
    endloop
  endfacet
  facet normal  0.000000e+000  5.202960e-001 -8.539860e-001
    outer loop
      vertex  0.000000e+000 -4.187132e+000  1.071065e+001
      vertex  5.000000e+000 -4.187132e+000  1.071065e+001
      vertex  5.000000e+000 -7.597874e+000  8.632631e+000
    endloop
  endfacet
  facet normal  0.000000e+000  5.202960e-001 -8.539860e-001
    outer loop
      vertex  0.000000e+000 -4.187132e+000  1.071065e+001
      vertex  5.000000e+000 -7.597874e+000  8.632631e+000
      vertex  0.000000e+000 -7.597874e+000  8.632631e+000
    endloop
  endfacet
  facet normal  0.000000e+000  7.809988e-001 -6.245325e-001
    outer loop
      vertex  0.000000e+000 -7.597874e+000  8.632631e+000
      vertex  5.000000e+000 -7.597874e+000  8.632631e+000
      vertex  5.000000e+000 -1.009220e+001  5.513394e+000
    endloop
  endfacet
  facet normal  0.000000e+000  7.809988e-001 -6.245325e-001
    outer loop
      vertex  0.000000e+000 -7.597874e+000  8.632631e+000
      vertex  5.000000e+000 -1.009220e+001  5.513394e+000
      vertex  0.000000e+000 -1.009220e+001  5.513394e+000
    endloop
  endfacet
  facet normal  0.000000e+000  9.927089e-001 -1.205366e-001
    outer loop
      vertex  0.000000e+000  2.500000e+001  0.000000e+000
      vertex  5.000000e+000  2.500000e+001  0.000000e+000
      vertex  0.000000e+000  2.427355e+001 -5.982892e+000
    endloop
  endfacet
  facet normal  0.000000e+000  9.927089e-001 -1.205366e-001
    outer loop
      vertex  0.000000e+000  2.427355e+001 -5.982892e+000
      vertex  5.000000e+000  2.500000e+001  0.000000e+000
      vertex  5.000000e+000  2.427355e+001 -5.982892e+000
    endloop
  endfacet
  facet normal  0.000000e+000  9.350161e-001 -3.546050e-001
    outer loop
      vertex  0.000000e+000  2.427355e+001 -5.982892e+000
      vertex  5.000000e+000  2.427355e+001 -5.982892e+000
      vertex  0.000000e+000  2.213640e+001 -1.161808e+001
    endloop
  endfacet
  facet normal  0.000000e+000  9.350161e-001 -3.546050e-001
    outer loop
      vertex  0.000000e+000  2.213640e+001 -1.161808e+001
      vertex  5.000000e+000  2.427355e+001 -5.982892e+000
      vertex  5.000000e+000  2.213640e+001 -1.161808e+001
    endloop
  endfacet
  facet normal  0.000000e+000  8.229838e-001 -5.680647e-001
    outer loop
      vertex  0.000000e+000  2.213640e+001 -1.161808e+001
      vertex  5.000000e+000  2.213640e+001 -1.161808e+001
      vertex  0.000000e+000  1.871277e+001 -1.657807e+001
    endloop
  endfacet
  facet normal  0.000000e+000  8.229838e-001 -5.680647e-001
    outer loop
      vertex  0.000000e+000  1.871277e+001 -1.657807e+001
      vertex  5.000000e+000  2.213640e+001 -1.161808e+001
      vertex  5.000000e+000  1.871277e+001 -1.657807e+001
    endloop
  endfacet
  facet normal  0.000000e+000  6.631227e-001 -7.485107e-001
    outer loop
      vertex  0.000000e+000  1.871277e+001 -1.657807e+001
      vertex  5.000000e+000  1.871277e+001 -1.657807e+001
      vertex  0.000000e+000  1.420162e+001 -2.057460e+001
    endloop
  endfacet
  facet normal  0.000000e+000  6.631227e-001 -7.485107e-001
    outer loop
      vertex  0.000000e+000  1.420162e+001 -2.057460e+001
      vertex  5.000000e+000  1.871277e+001 -1.657807e+001
      vertex  5.000000e+000  1.420162e+001 -2.057460e+001
    endloop
  endfacet
  facet normal  0.000000e+000  4.647233e-001 -8.854560e-001
    outer loop
      vertex  0.000000e+000  1.420162e+001 -2.057460e+001
      vertex  5.000000e+000  1.420162e+001 -2.057460e+001
      vertex  0.000000e+000  8.865122e+000 -2.337541e+001
    endloop
  endfacet
  facet normal  0.000000e+000  4.647233e-001 -8.854560e-001
    outer loop
      vertex  0.000000e+000  8.865122e+000 -2.337541e+001
      vertex  5.000000e+000  1.420162e+001 -2.057460e+001
      vertex  5.000000e+000  8.865122e+000 -2.337541e+001
    endloop
  endfacet
  facet normal  0.000000e+000  2.393157e-001 -9.709418e-001
    outer loop
      vertex  0.000000e+000  8.865122e+000 -2.337541e+001
      vertex  5.000000e+000  8.865122e+000 -2.337541e+001
      vertex  0.000000e+000  3.013417e+000 -2.481772e+001
    endloop
  endfacet
  facet normal  0.000000e+000  2.393157e-001 -9.709418e-001
    outer loop
      vertex  0.000000e+000  3.013417e+000 -2.481772e+001
      vertex  5.000000e+000  8.865122e+000 -2.337541e+001
      vertex  5.000000e+000  3.013417e+000 -2.481772e+001
    endloop
  endfacet
  facet normal  -0.000000e+000  0.000000e+000 -1.000000e+000
    outer loop
      vertex  0.000000e+000  3.013417e+000 -2.481772e+001
      vertex  5.000000e+000  3.013417e+000 -2.481772e+001
      vertex  0.000000e+000 -3.013417e+000 -2.481772e+001
    endloop
  endfacet
  facet normal  0.000000e+000  0.000000e+000 -1.000000e+000
    outer loop
      vertex  0.000000e+000 -3.013417e+000 -2.481772e+001
      vertex  5.000000e+000  3.013417e+000 -2.481772e+001
      vertex  5.000000e+000 -3.013417e+000 -2.481772e+001
    endloop
  endfacet
  facet normal  -0.000000e+000 -2.393157e-001 -9.709418e-001
    outer loop
      vertex  0.000000e+000 -3.013417e+000 -2.481772e+001
      vertex  5.000000e+000 -3.013417e+000 -2.481772e+001
      vertex  0.000000e+000 -8.865122e+000 -2.337541e+001
    endloop
  endfacet
  facet normal  0.000000e+000 -2.393157e-001 -9.709418e-001
    outer loop
      vertex  0.000000e+000 -8.865122e+000 -2.337541e+001
      vertex  5.000000e+000 -3.013417e+000 -2.481772e+001
      vertex  5.000000e+000 -8.865122e+000 -2.337541e+001
    endloop
  endfacet
  facet normal  -0.000000e+000 -4.647233e-001 -8.854560e-001
    outer loop
      vertex  0.000000e+000 -8.865122e+000 -2.337541e+001
      vertex  5.000000e+000 -8.865122e+000 -2.337541e+001
      vertex  0.000000e+000 -1.420162e+001 -2.057460e+001
    endloop
  endfacet
  facet normal  0.000000e+000 -4.647233e-001 -8.854560e-001
    outer loop
      vertex  0.000000e+000 -1.420162e+001 -2.057460e+001
      vertex  5.000000e+000 -8.865122e+000 -2.337541e+001
      vertex  5.000000e+000 -1.420162e+001 -2.057460e+001
    endloop
  endfacet
  facet normal  -0.000000e+000 -6.631227e-001 -7.485107e-001
    outer loop
      vertex  0.000000e+000 -1.420162e+001 -2.057460e+001
      vertex  5.000000e+000 -1.420162e+001 -2.057460e+001
      vertex  0.000000e+000 -1.871277e+001 -1.657807e+001
    endloop
  endfacet
  facet normal  0.000000e+000 -6.631227e-001 -7.485107e-001
    outer loop
      vertex  0.000000e+000 -1.871277e+001 -1.657807e+001
      vertex  5.000000e+000 -1.420162e+001 -2.057460e+001
      vertex  5.000000e+000 -1.871277e+001 -1.657807e+001
    endloop
  endfacet
  facet normal  -0.000000e+000 -8.229838e-001 -5.680647e-001
    outer loop
      vertex  0.000000e+000 -1.871277e+001 -1.657807e+001
      vertex  5.000000e+000 -1.871277e+001 -1.657807e+001
      vertex  0.000000e+000 -2.213640e+001 -1.161808e+001
    endloop
  endfacet
  facet normal  0.000000e+000 -8.229838e-001 -5.680647e-001
    outer loop
      vertex  0.000000e+000 -2.213640e+001 -1.161808e+001
      vertex  5.000000e+000 -1.871277e+001 -1.657807e+001
      vertex  5.000000e+000 -2.213640e+001 -1.161808e+001
    endloop
  endfacet
  facet normal  -0.000000e+000 -9.350161e-001 -3.546050e-001
    outer loop
      vertex  0.000000e+000 -2.213640e+001 -1.161808e+001
      vertex  5.000000e+000 -2.213640e+001 -1.161808e+001
      vertex  0.000000e+000 -2.427355e+001 -5.982892e+000
    endloop
  endfacet
  facet normal  0.000000e+000 -9.350161e-001 -3.546050e-001
    outer loop
      vertex  0.000000e+000 -2.427355e+001 -5.982892e+000
      vertex  5.000000e+000 -2.213640e+001 -1.161808e+001
      vertex  5.000000e+000 -2.427355e+001 -5.982892e+000
    endloop
  endfacet
  facet normal  -0.000000e+000 -9.927089e-001 -1.205366e-001
    outer loop
      vertex  0.000000e+000 -2.427355e+001 -5.982892e+000
      vertex  5.000000e+000 -2.427355e+001 -5.982892e+000
      vertex  0.000000e+000 -2.500000e+001  3.061617e-015
    endloop
  endfacet
  facet normal  0.000000e+000 -9.927089e-001 -1.205366e-001
    outer loop
      vertex  0.000000e+000 -2.500000e+001  3.061617e-015
      vertex  5.000000e+000 -2.427355e+001 -5.982892e+000
      vertex  5.000000e+000 -2.500000e+001  3.061617e-015
    endloop
  endfacet
  facet normal  0.000000e+000 -9.927089e-001  1.205366e-001
    outer loop
      vertex  0.000000e+000 -2.500000e+001  3.061617e-015
      vertex  5.000000e+000 -2.500000e+001  3.061617e-015
      vertex  0.000000e+000 -2.427355e+001  5.982892e+000
    endloop
  endfacet
  facet normal  0.000000e+000 -9.927089e-001  1.205366e-001
    outer loop
      vertex  0.000000e+000 -2.427355e+001  5.982892e+000
      vertex  5.000000e+000 -2.500000e+001  3.061617e-015
      vertex  5.000000e+000 -2.427355e+001  5.982892e+000
    endloop
  endfacet
  facet normal  0.000000e+000 -9.350161e-001  3.546050e-001
    outer loop
      vertex  0.000000e+000 -2.427355e+001  5.982892e+000
      vertex  5.000000e+000 -2.427355e+001  5.982892e+000
      vertex  0.000000e+000 -2.213640e+001  1.161808e+001
    endloop
  endfacet
  facet normal  0.000000e+000 -9.350161e-001  3.546050e-001
    outer loop
      vertex  0.000000e+000 -2.213640e+001  1.161808e+001
      vertex  5.000000e+000 -2.427355e+001  5.982892e+000
      vertex  5.000000e+000 -2.213640e+001  1.161808e+001
    endloop
  endfacet
  facet normal  0.000000e+000 -8.229838e-001  5.680647e-001
    outer loop
      vertex  0.000000e+000 -2.213640e+001  1.161808e+001
      vertex  5.000000e+000 -2.213640e+001  1.161808e+001
      vertex  0.000000e+000 -1.871277e+001  1.657807e+001
    endloop
  endfacet
  facet normal  0.000000e+000 -8.229838e-001  5.680647e-001
    outer loop
      vertex  0.000000e+000 -1.871277e+001  1.657807e+001
      vertex  5.000000e+000 -2.213640e+001  1.161808e+001
      vertex  5.000000e+000 -1.871277e+001  1.657807e+001
    endloop
  endfacet
  facet normal  0.000000e+000 -6.631227e-001  7.485107e-001
    outer loop
      vertex  0.000000e+000 -1.871277e+001  1.657807e+001
      vertex  5.000000e+000 -1.871277e+001  1.657807e+001
      vertex  0.000000e+000 -1.420162e+001  2.057460e+001
    endloop
  endfacet
  facet normal  0.000000e+000 -6.631227e-001  7.485107e-001
    outer loop
      vertex  0.000000e+000 -1.420162e+001  2.057460e+001
      vertex  5.000000e+000 -1.871277e+001  1.657807e+001
      vertex  5.000000e+000 -1.420162e+001  2.057460e+001
    endloop
  endfacet
  facet normal  0.000000e+000 -4.647233e-001  8.854560e-001
    outer loop
      vertex  0.000000e+000 -1.420162e+001  2.057460e+001
      vertex  5.000000e+000 -1.420162e+001  2.057460e+001
      vertex  0.000000e+000 -8.865122e+000  2.337541e+001
    endloop
  endfacet
  facet normal  0.000000e+000 -4.647233e-001  8.854560e-001
    outer loop
      vertex  0.000000e+000 -8.865122e+000  2.337541e+001
      vertex  5.000000e+000 -1.420162e+001  2.057460e+001
      vertex  5.000000e+000 -8.865122e+000  2.337541e+001
    endloop
  endfacet
  facet normal  0.000000e+000 -2.393157e-001  9.709418e-001
    outer loop
      vertex  0.000000e+000 -8.865122e+000  2.337541e+001
      vertex  5.000000e+000 -8.865122e+000  2.337541e+001
      vertex  0.000000e+000 -3.013417e+000  2.481772e+001
    endloop
  endfacet
  facet normal  0.000000e+000 -2.393157e-001  9.709418e-001
    outer loop
      vertex  0.000000e+000 -3.013417e+000  2.481772e+001
      vertex  5.000000e+000 -8.865122e+000  2.337541e+001
      vertex  5.000000e+000 -3.013417e+000  2.481772e+001
    endloop
  endfacet
  facet normal  0.000000e+000  0.000000e+000  1.000000e+000
    outer loop
      vertex  0.000000e+000 -3.013417e+000  2.481772e+001
      vertex  5.000000e+000 -3.013417e+000  2.481772e+001
      vertex  0.000000e+000  3.013417e+000  2.481772e+001
    endloop
  endfacet
  facet normal  -0.000000e+000  0.000000e+000  1.000000e+000
    outer loop
      vertex  0.000000e+000  3.013417e+000  2.481772e+001
      vertex  5.000000e+000 -3.013417e+000  2.481772e+001
      vertex  5.000000e+000  3.013417e+000  2.481772e+001
    endloop
  endfacet
  facet normal  0.000000e+000  2.393157e-001  9.709418e-001
    outer loop
      vertex  0.000000e+000  3.013417e+000  2.481772e+001
      vertex  5.000000e+000  3.013417e+000  2.481772e+001
      vertex  0.000000e+000  8.865122e+000  2.337541e+001
    endloop
  endfacet
  facet normal  -0.000000e+000  2.393157e-001  9.709418e-001
    outer loop
      vertex  0.000000e+000  8.865122e+000  2.337541e+001
      vertex  5.000000e+000  3.013417e+000  2.481772e+001
      vertex  5.000000e+000  8.865122e+000  2.337541e+001
    endloop
  endfacet
  facet normal  0.000000e+000  4.647233e-001  8.854560e-001
    outer loop
      vertex  0.000000e+000  8.865122e+000  2.337541e+001
      vertex  5.000000e+000  8.865122e+000  2.337541e+001
      vertex  0.000000e+000  1.420162e+001  2.057460e+001
    endloop
  endfacet
  facet normal  -0.000000e+000  4.647233e-001  8.854560e-001
    outer loop
      vertex  0.000000e+000  1.420162e+001  2.057460e+001
      vertex  5.000000e+000  8.865122e+000  2.337541e+001
      vertex  5.000000e+000  1.420162e+001  2.057460e+001
    endloop
  endfacet
  facet normal  0.000000e+000  6.631227e-001  7.485107e-001
    outer loop
      vertex  0.000000e+000  1.420162e+001  2.057460e+001
      vertex  5.000000e+000  1.420162e+001  2.057460e+001
      vertex  0.000000e+000  1.871277e+001  1.657807e+001
    endloop
  endfacet
  facet normal  -0.000000e+000  6.631227e-001  7.485107e-001
    outer loop
      vertex  0.000000e+000  1.871277e+001  1.657807e+001
      vertex  5.000000e+000  1.420162e+001  2.057460e+001
      vertex  5.000000e+000  1.871277e+001  1.657807e+001
    endloop
  endfacet
  facet normal  0.000000e+000  8.229838e-001  5.680647e-001
    outer loop
      vertex  0.000000e+000  1.871277e+001  1.657807e+001
      vertex  5.000000e+000  1.871277e+001  1.657807e+001
      vertex  0.000000e+000  2.213640e+001  1.161808e+001
    endloop
  endfacet
  facet normal  -0.000000e+000  8.229838e-001  5.680647e-001
    outer loop
      vertex  0.000000e+000  2.213640e+001  1.161808e+001
      vertex  5.000000e+000  1.871277e+001  1.657807e+001
      vertex  5.000000e+000  2.213640e+001  1.161808e+001
    endloop
  endfacet
  facet normal  0.000000e+000  9.350161e-001  3.546050e-001
    outer loop
      vertex  0.000000e+000  2.213640e+001  1.161808e+001
      vertex  5.000000e+000  2.213640e+001  1.161808e+001
      vertex  0.000000e+000  2.427355e+001  5.982892e+000
    endloop
  endfacet
  facet normal  -0.000000e+000  9.350161e-001  3.546050e-001
    outer loop
      vertex  0.000000e+000  2.427355e+001  5.982892e+000
      vertex  5.000000e+000  2.213640e+001  1.161808e+001
      vertex  5.000000e+000  2.427355e+001  5.982892e+000
    endloop
  endfacet
  facet normal  0.000000e+000  9.927089e-001  1.205366e-001
    outer loop
      vertex  0.000000e+000  2.427355e+001  5.982892e+000
      vertex  5.000000e+000  2.427355e+001  5.982892e+000
      vertex  0.000000e+000  2.500000e+001  0.000000e+000
    endloop
  endfacet
  facet normal  -0.000000e+000  9.927089e-001  1.205366e-001
    outer loop
      vertex  0.000000e+000  2.500000e+001  0.000000e+000
      vertex  5.000000e+000  2.427355e+001  5.982892e+000
      vertex  5.000000e+000  2.500000e+001  0.000000e+000
    endloop
  endfacet
endsolid CATIA STL
