solid CATIA STL
  facet normal  0.000000e+000  0.000000e+000  9.999999e-001
    outer loop
      vertex -4.000000e+000  4.000000e+000  1.300000e+001
      vertex  4.000000e+000  4.000000e+000  1.300000e+001
      vertex  3.116266e+000  5.704287e+000  1.300000e+001
    endloop
  endfacet
  facet normal  0.000000e+000  0.000000e+000  1.000000e+000
    outer loop
      vertex  4.000000e+000  4.000000e+000  1.300000e+001
      vertex  5.282656e+000  3.787287e+000  1.300000e+001
      vertex  3.116266e+000  5.704287e+000  1.300000e+001
    endloop
  endfacet
  facet normal  0.000000e+000  0.000000e+000  1.000000e+000
    outer loop
      vertex -5.282656e+000 -3.787287e+000  1.300000e+001
      vertex -3.116266e+000 -5.704287e+000  1.300000e+001
      vertex -4.000000e+000 -4.000000e+000  1.300000e+001
    endloop
  endfacet
  facet normal  0.000000e+000  0.000000e+000  9.999999e-001
    outer loop
      vertex -4.000000e+000  4.000000e+000  1.300000e+001
      vertex  3.116266e+000  5.704287e+000  1.300000e+001
      vertex  3.326614e-001  6.491482e+000  1.300000e+001
    endloop
  endfacet
  facet normal  0.000000e+000  0.000000e+000  1.000000e+000
    outer loop
      vertex -4.000000e+000  4.000000e+000  1.300000e+001
      vertex  3.326614e-001  6.491482e+000  1.300000e+001
      vertex -2.516831e+000  5.992959e+000  1.300000e+001
    endloop
  endfacet
  facet normal  0.000000e+000  0.000000e+000  1.000000e+000
    outer loop
      vertex -4.000000e+000  4.000000e+000  1.300000e+001
      vertex -2.516831e+000  5.992959e+000  1.300000e+001
      vertex -4.867834e+000  4.307458e+000  1.300000e+001
    endloop
  endfacet
  facet normal  0.000000e+000  0.000000e+000  1.000000e+000
    outer loop
      vertex -4.000000e+000  4.000000e+000  1.300000e+001
      vertex -4.867834e+000  4.307458e+000  1.300000e+001
      vertex -6.254703e+000  1.768811e+000  1.300000e+001
    endloop
  endfacet
  facet normal  -0.000000e+000  0.000000e+000  1.000000e+000
    outer loop
      vertex -4.000000e+000  4.000000e+000  1.300000e+001
      vertex -6.254703e+000  1.768811e+000  1.300000e+001
      vertex -6.402751e+000 -1.120170e+000  1.300000e+001
    endloop
  endfacet
  facet normal  -0.000000e+000  0.000000e+000  1.000000e+000
    outer loop
      vertex -4.000000e+000  4.000000e+000  1.300000e+001
      vertex -6.402751e+000 -1.120170e+000  1.300000e+001
      vertex -5.282656e+000 -3.787287e+000  1.300000e+001
    endloop
  endfacet
  facet normal  -0.000000e+000  0.000000e+000  1.000000e+000
    outer loop
      vertex -4.000000e+000  4.000000e+000  1.300000e+001
      vertex -5.282656e+000 -3.787287e+000  1.300000e+001
      vertex -4.000000e+000 -4.000000e+000  1.300000e+001
    endloop
  endfacet
  facet normal  0.000000e+000  0.000000e+000  1.000000e+000
    outer loop
      vertex  4.000000e+000 -4.000000e+000  1.300000e+001
      vertex  6.254703e+000 -1.768811e+000  1.300000e+001
      vertex  4.000000e+000  4.000000e+000  1.300000e+001
    endloop
  endfacet
  facet normal  0.000000e+000  0.000000e+000  9.999999e-001
    outer loop
      vertex  4.000000e+000  4.000000e+000  1.300000e+001
      vertex  6.254703e+000 -1.768811e+000  1.300000e+001
      vertex  6.402751e+000  1.120170e+000  1.300000e+001
    endloop
  endfacet
  facet normal  0.000000e+000  0.000000e+000  1.000000e+000
    outer loop
      vertex  4.000000e+000  4.000000e+000  1.300000e+001
      vertex  6.402751e+000  1.120170e+000  1.300000e+001
      vertex  5.282656e+000  3.787287e+000  1.300000e+001
    endloop
  endfacet
  facet normal  -0.000000e+000  0.000000e+000  1.000000e+000
    outer loop
      vertex  6.254703e+000 -1.768811e+000  1.300000e+001
      vertex  4.000000e+000 -4.000000e+000  1.300000e+001
      vertex  4.867834e+000 -4.307458e+000  1.300000e+001
    endloop
  endfacet
  facet normal  0.000000e+000  0.000000e+000  1.000000e+000
    outer loop
      vertex  4.867834e+000 -4.307458e+000  1.300000e+001
      vertex  4.000000e+000 -4.000000e+000  1.300000e+001
      vertex -4.000000e+000 -4.000000e+000  1.300000e+001
    endloop
  endfacet
  facet normal  0.000000e+000  0.000000e+000  9.999999e-001
    outer loop
      vertex  4.867834e+000 -4.307458e+000  1.300000e+001
      vertex -4.000000e+000 -4.000000e+000  1.300000e+001
      vertex  2.516831e+000 -5.992959e+000  1.300000e+001
    endloop
  endfacet
  facet normal  0.000000e+000  0.000000e+000  1.000000e+000
    outer loop
      vertex  2.516831e+000 -5.992959e+000  1.300000e+001
      vertex -4.000000e+000 -4.000000e+000  1.300000e+001
      vertex -3.116266e+000 -5.704287e+000  1.300000e+001
    endloop
  endfacet
  facet normal  0.000000e+000  0.000000e+000  1.000000e+000
    outer loop
      vertex  2.516831e+000 -5.992959e+000  1.300000e+001
      vertex -3.116266e+000 -5.704287e+000  1.300000e+001
      vertex -3.326614e-001 -6.491482e+000  1.300000e+001
    endloop
  endfacet
  facet normal  0.000000e+000  0.000000e+000 -1.000000e+000
    outer loop
      vertex -4.000000e+000  2.698696e-015  3.000000e+000
      vertex -4.250000e+000  2.775082e-015  3.000000e+000
      vertex -4.000000e+000  1.436141e+000  3.000000e+000
    endloop
  endfacet
  facet normal  -0.000000e+000  -0.000000e+000 -1.000000e+000
    outer loop
      vertex -4.250000e+000  2.775082e-015  3.000000e+000
      vertex -4.000000e+000  2.698696e-015  3.000000e+000
      vertex -4.000000e+000 -1.436141e+000  3.000000e+000
    endloop
  endfacet
  facet normal  0.000000e+000  0.000000e+000 -1.000000e+000
    outer loop
      vertex  0.000000e+000 -4.000000e+000  3.000000e+000
      vertex  2.994046e-015 -4.250000e+000  3.000000e+000
      vertex -1.436141e+000 -4.000000e+000  3.000000e+000
    endloop
  endfacet
  facet normal  0.000000e+000  0.000000e+000 -1.000000e+000
    outer loop
      vertex  2.994046e-015 -4.250000e+000  3.000000e+000
      vertex  0.000000e+000 -4.000000e+000  3.000000e+000
      vertex  1.436141e+000 -4.000000e+000  3.000000e+000
    endloop
  endfacet
  facet normal  0.000000e+000  0.000000e+000 -1.000000e+000
    outer loop
      vertex  4.250000e+000  1.213657e-015  3.000000e+000
      vertex  4.000000e+000  2.698696e-015  3.000000e+000
      vertex  4.000000e+000  1.436141e+000  3.000000e+000
    endloop
  endfacet
  facet normal  -0.000000e+000  0.000000e+000 -1.000000e+000
    outer loop
      vertex  4.000000e+000  2.698696e-015  3.000000e+000
      vertex  4.250000e+000  1.213657e-015  3.000000e+000
      vertex  4.000000e+000 -1.436141e+000  3.000000e+000
    endloop
  endfacet
  facet normal  0.000000e+000  0.000000e+000 -1.000000e+000
    outer loop
      vertex  2.602375e-016  4.250000e+000  3.000000e+000
      vertex  4.440892e-016  4.000000e+000  3.000000e+000
      vertex -1.436141e+000  4.000000e+000  3.000000e+000
    endloop
  endfacet
  facet normal  0.000000e+000  0.000000e+000 -1.000000e+000
    outer loop
      vertex  4.440892e-016  4.000000e+000  3.000000e+000
      vertex  2.602375e-016  4.250000e+000  3.000000e+000
      vertex  1.436141e+000  4.000000e+000  3.000000e+000
    endloop
  endfacet
  facet normal  0.000000e+000  0.000000e+000  1.000000e+000
    outer loop
      vertex  4.000000e+000 -4.000000e+000  3.000000e+000
      vertex  3.005204e+000 -3.005204e+000  3.000000e+000
      vertex  1.436141e+000 -4.000000e+000  3.000000e+000
    endloop
  endfacet
  facet normal  0.000000e+000  0.000000e+000  1.000000e+000
    outer loop
      vertex  4.000000e+000 -4.000000e+000  3.000000e+000
      vertex  4.000000e+000 -1.436141e+000  3.000000e+000
      vertex  3.005204e+000 -3.005204e+000  3.000000e+000
    endloop
  endfacet
  facet normal  -0.000000e+000  0.000000e+000  1.000000e+000
    outer loop
      vertex  4.000000e+000  4.000000e+000  3.000000e+000
      vertex  1.436141e+000  4.000000e+000  3.000000e+000
      vertex  2.763031e+000  3.229266e+000  3.000000e+000
    endloop
  endfacet
  facet normal  -0.000000e+000  0.000000e+000  1.000000e+000
    outer loop
      vertex  4.000000e+000  4.000000e+000  3.000000e+000
      vertex  2.763031e+000  3.229266e+000  3.000000e+000
      vertex  3.729726e+000  2.037559e+000  3.000000e+000
    endloop
  endfacet
  facet normal  -0.000000e+000  0.000000e+000  1.000000e+000
    outer loop
      vertex  4.000000e+000  4.000000e+000  3.000000e+000
      vertex  3.729726e+000  2.037559e+000  3.000000e+000
      vertex  4.000000e+000  1.436141e+000  3.000000e+000
    endloop
  endfacet
  facet normal  0.000000e+000  -0.000000e+000  1.000000e+000
    outer loop
      vertex -4.000000e+000  4.000000e+000  3.000000e+000
      vertex -3.005204e+000  3.005204e+000  3.000000e+000
      vertex -1.436141e+000  4.000000e+000  3.000000e+000
    endloop
  endfacet
  facet normal  0.000000e+000  0.000000e+000  1.000000e+000
    outer loop
      vertex -4.000000e+000  4.000000e+000  3.000000e+000
      vertex -4.000000e+000  1.436141e+000  3.000000e+000
      vertex -3.005204e+000  3.005204e+000  3.000000e+000
    endloop
  endfacet
  facet normal  0.000000e+000  0.000000e+000  1.000000e+000
    outer loop
      vertex -4.000000e+000 -4.000000e+000  3.000000e+000
      vertex -1.436141e+000 -4.000000e+000  3.000000e+000
      vertex -2.763031e+000 -3.229266e+000  3.000000e+000
    endloop
  endfacet
  facet normal  0.000000e+000  0.000000e+000  1.000000e+000
    outer loop
      vertex -4.000000e+000 -4.000000e+000  3.000000e+000
      vertex -2.763031e+000 -3.229266e+000  3.000000e+000
      vertex -3.729726e+000 -2.037559e+000  3.000000e+000
    endloop
  endfacet
  facet normal  0.000000e+000  0.000000e+000  1.000000e+000
    outer loop
      vertex -4.000000e+000 -4.000000e+000  3.000000e+000
      vertex -3.729726e+000 -2.037559e+000  3.000000e+000
      vertex -4.000000e+000 -1.436141e+000  3.000000e+000
    endloop
  endfacet
  facet normal  0.000000e+000 -1.000000e+000  0.000000e+000
    outer loop
      vertex -4.000000e+000  4.000000e+000  1.300000e+001
      vertex -4.000000e+000  4.000000e+000  3.000000e+000
      vertex -1.436141e+000  4.000000e+000  3.000000e+000
    endloop
  endfacet
  facet normal  0.000000e+000 -1.000000e+000  0.000000e+000
    outer loop
      vertex -4.000000e+000  4.000000e+000  1.300000e+001
      vertex -1.436141e+000  4.000000e+000  3.000000e+000
      vertex  4.440892e-016  4.000000e+000  3.000000e+000
    endloop
  endfacet
  facet normal  0.000000e+000 -1.000000e+000  0.000000e+000
    outer loop
      vertex -4.000000e+000  4.000000e+000  1.300000e+001
      vertex  4.440892e-016  4.000000e+000  3.000000e+000
      vertex  1.436141e+000  4.000000e+000  3.000000e+000
    endloop
  endfacet
  facet normal  0.000000e+000 -1.000000e+000  0.000000e+000
    outer loop
      vertex -4.000000e+000  4.000000e+000  1.300000e+001
      vertex  1.436141e+000  4.000000e+000  3.000000e+000
      vertex  4.000000e+000  4.000000e+000  3.000000e+000
    endloop
  endfacet
  facet normal  0.000000e+000 -1.000000e+000  0.000000e+000
    outer loop
      vertex -4.000000e+000  4.000000e+000  1.300000e+001
      vertex  4.000000e+000  4.000000e+000  3.000000e+000
      vertex  4.000000e+000  4.000000e+000  1.300000e+001
    endloop
  endfacet
  facet normal -1.000000e+000  -0.000000e+000  -0.000000e+000
    outer loop
      vertex  4.000000e+000 -4.000000e+000  1.300000e+001
      vertex  4.000000e+000  4.000000e+000  1.300000e+001
      vertex  4.000000e+000  4.000000e+000  3.000000e+000
    endloop
  endfacet
  facet normal -1.000000e+000  0.000000e+000  0.000000e+000
    outer loop
      vertex  4.000000e+000 -4.000000e+000  1.300000e+001
      vertex  4.000000e+000  4.000000e+000  3.000000e+000
      vertex  4.000000e+000  1.436141e+000  3.000000e+000
    endloop
  endfacet
  facet normal -1.000000e+000  0.000000e+000  0.000000e+000
    outer loop
      vertex  4.000000e+000 -4.000000e+000  1.300000e+001
      vertex  4.000000e+000  1.436141e+000  3.000000e+000
      vertex  4.000000e+000  2.698696e-015  3.000000e+000
    endloop
  endfacet
  facet normal -1.000000e+000  0.000000e+000  0.000000e+000
    outer loop
      vertex  4.000000e+000 -4.000000e+000  1.300000e+001
      vertex  4.000000e+000  2.698696e-015  3.000000e+000
      vertex  4.000000e+000 -1.436141e+000  3.000000e+000
    endloop
  endfacet
  facet normal -1.000000e+000  0.000000e+000  0.000000e+000
    outer loop
      vertex  4.000000e+000 -4.000000e+000  1.300000e+001
      vertex  4.000000e+000 -1.436141e+000  3.000000e+000
      vertex  4.000000e+000 -4.000000e+000  3.000000e+000
    endloop
  endfacet
  facet normal  0.000000e+000  1.000000e+000  -0.000000e+000
    outer loop
      vertex  4.000000e+000 -4.000000e+000  1.300000e+001
      vertex  4.000000e+000 -4.000000e+000  3.000000e+000
      vertex  1.436141e+000 -4.000000e+000  3.000000e+000
    endloop
  endfacet
  facet normal  0.000000e+000  1.000000e+000  -0.000000e+000
    outer loop
      vertex  4.000000e+000 -4.000000e+000  1.300000e+001
      vertex  1.436141e+000 -4.000000e+000  3.000000e+000
      vertex  0.000000e+000 -4.000000e+000  3.000000e+000
    endloop
  endfacet
  facet normal  0.000000e+000  1.000000e+000  -0.000000e+000
    outer loop
      vertex  4.000000e+000 -4.000000e+000  1.300000e+001
      vertex  0.000000e+000 -4.000000e+000  3.000000e+000
      vertex -1.436141e+000 -4.000000e+000  3.000000e+000
    endloop
  endfacet
  facet normal  0.000000e+000  1.000000e+000  -0.000000e+000
    outer loop
      vertex  4.000000e+000 -4.000000e+000  1.300000e+001
      vertex -1.436141e+000 -4.000000e+000  3.000000e+000
      vertex -4.000000e+000 -4.000000e+000  3.000000e+000
    endloop
  endfacet
  facet normal  0.000000e+000  1.000000e+000  0.000000e+000
    outer loop
      vertex  4.000000e+000 -4.000000e+000  1.300000e+001
      vertex -4.000000e+000 -4.000000e+000  3.000000e+000
      vertex -4.000000e+000 -4.000000e+000  1.300000e+001
    endloop
  endfacet
  facet normal  1.000000e+000  -0.000000e+000  0.000000e+000
    outer loop
      vertex -4.000000e+000  4.000000e+000  1.300000e+001
      vertex -4.000000e+000 -4.000000e+000  1.300000e+001
      vertex -4.000000e+000 -4.000000e+000  3.000000e+000
    endloop
  endfacet
  facet normal  1.000000e+000  0.000000e+000  0.000000e+000
    outer loop
      vertex -4.000000e+000  4.000000e+000  1.300000e+001
      vertex -4.000000e+000 -4.000000e+000  3.000000e+000
      vertex -4.000000e+000 -1.436141e+000  3.000000e+000
    endloop
  endfacet
  facet normal  1.000000e+000  0.000000e+000  0.000000e+000
    outer loop
      vertex -4.000000e+000  4.000000e+000  1.300000e+001
      vertex -4.000000e+000 -1.436141e+000  3.000000e+000
      vertex -4.000000e+000  2.698696e-015  3.000000e+000
    endloop
  endfacet
  facet normal  1.000000e+000  0.000000e+000  0.000000e+000
    outer loop
      vertex -4.000000e+000  4.000000e+000  1.300000e+001
      vertex -4.000000e+000  2.698696e-015  3.000000e+000
      vertex -4.000000e+000  1.436141e+000  3.000000e+000
    endloop
  endfacet
  facet normal  1.000000e+000  0.000000e+000  0.000000e+000
    outer loop
      vertex -4.000000e+000  4.000000e+000  1.300000e+001
      vertex -4.000000e+000  1.436141e+000  3.000000e+000
      vertex -4.000000e+000  4.000000e+000  3.000000e+000
    endloop
  endfacet
  facet normal  6.894348e-001 -7.227674e-001  4.782247e-002
    outer loop
      vertex -2.037559e+000  3.729726e+000 -2.803022e-015
      vertex -3.005204e+000  3.005204e+000  3.000000e+000
      vertex -3.629440e+000  2.211258e+000 -1.661839e-015
    endloop
  endfacet
  facet normal  5.351965e-001 -8.441497e-001 -3.124163e-002
    outer loop
      vertex -3.005204e+000  3.005204e+000  3.000000e+000
      vertex -2.037559e+000  3.729726e+000 -2.803022e-015
      vertex -1.436141e+000  4.000000e+000  3.000000e+000
    endloop
  endfacet
  facet normal  9.851659e-001  1.714954e-001  6.121486e-003
    outer loop
      vertex -4.250000e+000  2.775082e-015  3.000000e+000
      vertex -4.000000e+000 -1.436141e+000  3.000000e+000
      vertex -4.248816e+000  1.002855e-001 -7.536811e-017
    endloop
  endfacet
  facet normal  9.040142e-001  4.062594e-001  1.330847e-001
    outer loop
      vertex -4.248816e+000  1.002855e-001 -7.536811e-017
      vertex -4.000000e+000 -1.436141e+000  3.000000e+000
      vertex -3.729726e+000 -2.037559e+000  3.000000e+000
    endloop
  endfacet
  facet normal  9.717641e-001  2.359544e-001  0.000000e+000
    outer loop
      vertex -4.248816e+000  1.002855e-001 -7.536811e-017
      vertex -3.729726e+000 -2.037559e+000  3.000000e+000
      vertex -3.729726e+000 -2.037559e+000  1.448031e-015
    endloop
  endfacet
  facet normal  8.440734e-001 -5.351481e-001 -3.400769e-002
    outer loop
      vertex -3.005204e+000  3.005204e+000  3.000000e+000
      vertex -4.000000e+000  1.436141e+000  3.000000e+000
      vertex -3.629440e+000  2.211258e+000 -1.661839e-015
    endloop
  endfacet
  facet normal  9.822481e-001 -1.709875e-001  7.714874e-002
    outer loop
      vertex -3.629440e+000  2.211258e+000 -1.661839e-015
      vertex -4.000000e+000  1.436141e+000  3.000000e+000
      vertex -4.250000e+000  2.775082e-015  3.000000e+000
    endloop
  endfacet
  facet normal  9.595104e-001 -2.815280e-001 -9.032527e-003
    outer loop
      vertex -3.629440e+000  2.211258e+000 -1.661839e-015
      vertex -4.250000e+000  2.775082e-015  3.000000e+000
      vertex -4.248816e+000  1.002855e-001 -7.536811e-017
    endloop
  endfacet
  facet normal -5.021402e-001 -8.644815e-001 -2.295857e-002
    outer loop
      vertex  2.763031e+000  3.229266e+000  3.000000e+000
      vertex  1.436141e+000  4.000000e+000  3.000000e+000
      vertex  2.211258e+000  3.629440e+000 -2.727654e-015
    endloop
  endfacet
  facet normal -1.709875e-001 -9.822481e-001  7.714874e-002
    outer loop
      vertex  2.211258e+000  3.629440e+000 -2.727654e-015
      vertex  1.436141e+000  4.000000e+000  3.000000e+000
      vertex  2.602375e-016  4.250000e+000  3.000000e+000
    endloop
  endfacet
  facet normal -2.815280e-001 -9.595104e-001 -9.032527e-003
    outer loop
      vertex  2.211258e+000  3.629440e+000 -2.727654e-015
      vertex  2.602375e-016  4.250000e+000  3.000000e+000
      vertex  1.002855e-001  4.248816e+000 -3.193137e-015
    endloop
  endfacet
  facet normal  1.714954e-001 -9.851659e-001  6.121483e-003
    outer loop
      vertex  1.002855e-001  4.248816e+000 -3.193137e-015
      vertex  2.602375e-016  4.250000e+000  3.000000e+000
      vertex -1.436141e+000  4.000000e+000  3.000000e+000
    endloop
  endfacet
  facet normal  2.357635e-001 -9.709781e-001  4.021263e-002
    outer loop
      vertex  1.002855e-001  4.248816e+000 -3.193137e-015
      vertex -1.436141e+000  4.000000e+000  3.000000e+000
      vertex -2.037559e+000  3.729726e+000 -2.803022e-015
    endloop
  endfacet
  facet normal -7.752745e-001 -6.288906e-001  5.870318e-002
    outer loop
      vertex  2.763031e+000  3.229266e+000  3.000000e+000
      vertex  2.211258e+000  3.629440e+000 -2.727654e-015
      vertex  3.729726e+000  2.037559e+000  3.000000e+000
    endloop
  endfacet
  facet normal -7.235953e-001 -6.902246e-001  -0.000000e+000
    outer loop
      vertex  3.729726e+000  2.037559e+000  3.000000e+000
      vertex  2.211258e+000  3.629440e+000 -2.727654e-015
      vertex  3.729726e+000  2.037559e+000 -1.614564e-015
    endloop
  endfacet
  facet normal -6.894348e-001  7.227674e-001  4.782247e-002
    outer loop
      vertex  2.037559e+000 -3.729726e+000  2.803022e-015
      vertex  3.005204e+000 -3.005204e+000  3.000000e+000
      vertex  3.629440e+000 -2.211258e+000  1.661839e-015
    endloop
  endfacet
  facet normal -5.351965e-001  8.441497e-001 -3.124163e-002
    outer loop
      vertex  3.005204e+000 -3.005204e+000  3.000000e+000
      vertex  2.037559e+000 -3.729726e+000  2.803022e-015
      vertex  1.436141e+000 -4.000000e+000  3.000000e+000
    endloop
  endfacet
  facet normal -9.851659e-001 -1.714954e-001  6.121486e-003
    outer loop
      vertex  4.250000e+000  1.213657e-015  3.000000e+000
      vertex  4.000000e+000  1.436141e+000  3.000000e+000
      vertex  4.248816e+000 -1.002855e-001  7.536811e-017
    endloop
  endfacet
  facet normal -9.040142e-001 -4.062594e-001  1.330847e-001
    outer loop
      vertex  4.248816e+000 -1.002855e-001  7.536811e-017
      vertex  4.000000e+000  1.436141e+000  3.000000e+000
      vertex  3.729726e+000  2.037559e+000  3.000000e+000
    endloop
  endfacet
  facet normal -9.717641e-001 -2.359544e-001  -0.000000e+000
    outer loop
      vertex  4.248816e+000 -1.002855e-001  7.536811e-017
      vertex  3.729726e+000  2.037559e+000  3.000000e+000
      vertex  3.729726e+000  2.037559e+000 -1.614564e-015
    endloop
  endfacet
  facet normal -8.440734e-001  5.351481e-001 -3.400769e-002
    outer loop
      vertex  3.005204e+000 -3.005204e+000  3.000000e+000
      vertex  4.000000e+000 -1.436141e+000  3.000000e+000
      vertex  3.629440e+000 -2.211258e+000  1.661839e-015
    endloop
  endfacet
  facet normal -9.822481e-001  1.709875e-001  7.714874e-002
    outer loop
      vertex  3.629440e+000 -2.211258e+000  1.661839e-015
      vertex  4.000000e+000 -1.436141e+000  3.000000e+000
      vertex  4.250000e+000  1.213657e-015  3.000000e+000
    endloop
  endfacet
  facet normal -9.595104e-001  2.815280e-001 -9.032527e-003
    outer loop
      vertex  3.629440e+000 -2.211258e+000  1.661839e-015
      vertex  4.250000e+000  1.213657e-015  3.000000e+000
      vertex  4.248816e+000 -1.002855e-001  7.536811e-017
    endloop
  endfacet
  facet normal  5.021402e-001  8.644815e-001 -2.295857e-002
    outer loop
      vertex -2.763031e+000 -3.229266e+000  3.000000e+000
      vertex -1.436141e+000 -4.000000e+000  3.000000e+000
      vertex -2.211258e+000 -3.629440e+000  2.727654e-015
    endloop
  endfacet
  facet normal  1.709875e-001  9.822481e-001  7.714874e-002
    outer loop
      vertex -2.211258e+000 -3.629440e+000  2.727654e-015
      vertex -1.436141e+000 -4.000000e+000  3.000000e+000
      vertex  2.994046e-015 -4.250000e+000  3.000000e+000
    endloop
  endfacet
  facet normal  2.815280e-001  9.595104e-001 -9.032527e-003
    outer loop
      vertex -2.211258e+000 -3.629440e+000  2.727654e-015
      vertex  2.994046e-015 -4.250000e+000  3.000000e+000
      vertex -1.002855e-001 -4.248816e+000  3.193137e-015
    endloop
  endfacet
  facet normal -1.714954e-001  9.851659e-001  6.121483e-003
    outer loop
      vertex -1.002855e-001 -4.248816e+000  3.193137e-015
      vertex  2.994046e-015 -4.250000e+000  3.000000e+000
      vertex  1.436141e+000 -4.000000e+000  3.000000e+000
    endloop
  endfacet
  facet normal -2.357635e-001  9.709781e-001  4.021263e-002
    outer loop
      vertex -1.002855e-001 -4.248816e+000  3.193137e-015
      vertex  1.436141e+000 -4.000000e+000  3.000000e+000
      vertex  2.037559e+000 -3.729726e+000  2.803022e-015
    endloop
  endfacet
  facet normal  7.752745e-001  6.288906e-001  5.870318e-002
    outer loop
      vertex -2.763031e+000 -3.229266e+000  3.000000e+000
      vertex -2.211258e+000 -3.629440e+000  2.727654e-015
      vertex -3.729726e+000 -2.037559e+000  3.000000e+000
    endloop
  endfacet
  facet normal  7.235953e-001  6.902246e-001  0.000000e+000
    outer loop
      vertex -3.729726e+000 -2.037559e+000  3.000000e+000
      vertex -2.211258e+000 -3.629440e+000  2.727654e-015
      vertex -3.729726e+000 -2.037559e+000  1.448031e-015
    endloop
  endfacet
  facet normal  1.324013e-015  8.921408e-016 -9.999999e-001
    outer loop
      vertex  6.273124e+000 -7.787677e+000  1.206997e-014
      vertex  1.096978e+000 -7.400718e+000  5.561903e-015
      vertex  3.519244e-001 -6.800563e+000  5.110865e-015
    endloop
  endfacet
  facet normal  2.212152e-015  1.393494e-015 -9.999999e-001
    outer loop
      vertex  9.096978e+000  5.992819e-001 -8.955921e-017
      vertex  8.351924e+000  1.199437e+000 -9.014197e-016
      vertex  9.595496e+000  2.815395e+000  4.101379e-015
    endloop
  endfacet
  facet normal -2.976967e-015 -2.307996e-015 -1.000000e+000
    outer loop
      vertex -7.787677e+000 -6.273124e+000  1.093172e-014
      vertex -9.595496e+000 -2.815395e+000  8.333119e-015
      vertex -8.351924e+000 -1.199437e+000  9.014197e-016
    endloop
  endfacet
  facet normal  1.304301e-016 -1.962421e-015 -1.000000e+000
    outer loop
      vertex -7.787677e+000 -6.273124e+000  1.093172e-014
      vertex -8.351924e+000 -1.199437e+000  9.014197e-016
      vertex -7.400718e+000 -1.096978e+000  8.244182e-016
    endloop
  endfacet
  facet normal -3.242263e-016 -1.928432e-015 -1.000000e+000
    outer loop
      vertex -7.787677e+000 -6.273124e+000  1.093172e-014
      vertex -7.400718e+000 -1.096978e+000  8.244182e-016
      vertex -3.729726e+000 -2.037559e+000  1.448031e-015
    endloop
  endfacet
  facet normal -7.506580e-016 -1.519882e-015 -1.000000e+000
    outer loop
      vertex -7.787677e+000 -6.273124e+000  1.093172e-014
      vertex -3.729726e+000 -2.037559e+000  1.448031e-015
      vertex -2.211258e+000 -3.629440e+000  2.727654e-015
    endloop
  endfacet
  facet normal -4.262277e-016 -2.204215e-015 -1.000000e+000
    outer loop
      vertex -7.787677e+000 -6.273124e+000  1.093172e-014
      vertex -2.211258e+000 -3.629440e+000  2.727654e-015
      vertex -1.002855e-001 -4.248816e+000  3.193137e-015
    endloop
  endfacet
  facet normal -8.508832e-016 -5.915678e-016 -1.000000e+000
    outer loop
      vertex -7.787677e+000 -6.273124e+000  1.093172e-014
      vertex -1.002855e-001 -4.248816e+000  3.193137e-015
      vertex -5.992819e-001 -6.903022e+000  5.187867e-015
    endloop
  endfacet
  facet normal -8.078766e-016 -1.007752e-016 -1.000000e+000
    outer loop
      vertex -7.787677e+000 -6.273124e+000  1.093172e-014
      vertex -5.992819e-001 -6.903022e+000  5.187867e-015
      vertex -1.199437e+000 -7.648076e+000  5.747801e-015
    endloop
  endfacet
  facet normal -9.653907e-016 -8.555223e-016 -1.000000e+000
    outer loop
      vertex -7.787677e+000 -6.273124e+000  1.093172e-014
      vertex -1.199437e+000 -7.648076e+000  5.747801e-015
      vertex -1.096978e+000 -8.599282e+000  6.462667e-015
    endloop
  endfacet
  facet normal -1.590725e-015 -2.654164e-015 -1.000000e+000
    outer loop
      vertex -7.787677e+000 -6.273124e+000  1.093172e-014
      vertex -1.096978e+000 -8.599282e+000  6.462667e-015
      vertex -4.794255e+000 -8.775826e+000  1.281259e-014
    endloop
  endfacet
  facet normal  4.775617e-017 -6.536748e-016 -1.000000e+000
    outer loop
      vertex  3.729726e+000  2.037559e+000 -1.614564e-015
      vertex  2.211258e+000  3.629440e+000 -2.727654e-015
      vertex  7.400718e+000  1.096978e+000 -8.244182e-016
    endloop
  endfacet
  facet normal  1.880180e-017 -7.666809e-016 -1.000000e+000
    outer loop
      vertex  3.729726e+000  2.037559e+000 -1.614564e-015
      vertex  7.400718e+000  1.096978e+000 -8.244182e-016
      vertex  6.800563e+000  3.519244e-001 -2.644837e-016
    endloop
  endfacet
  facet normal  6.617606e-018 -7.888777e-016 -1.000000e+000
    outer loop
      vertex  3.729726e+000  2.037559e+000 -1.614564e-015
      vertex  6.800563e+000  3.519244e-001 -2.644837e-016
      vertex  4.248816e+000 -1.002855e-001  7.536811e-017
    endloop
  endfacet
  facet normal -1.459208e-015 -5.408476e-015 -1.000000e+000
    outer loop
      vertex -4.794255e+000 -8.775826e+000  1.281259e-014
      vertex -1.096978e+000 -8.599282e+000  6.462667e-015
      vertex -1.070951e+000 -9.942488e+000  1.368938e-014
    endloop
  endfacet
  facet normal -3.787595e-015 -5.453593e-015 -1.000000e+000
    outer loop
      vertex -1.070951e+000 -9.942488e+000  1.368938e-014
      vertex -1.096978e+000 -8.599282e+000  6.462667e-015
      vertex -3.519244e-001 -9.199437e+000  6.913704e-015
    endloop
  endfacet
  facet normal  8.177119e-016 -9.910005e-015 -1.000000e+000
    outer loop
      vertex -1.070951e+000 -9.942488e+000  1.368938e-014
      vertex -3.519244e-001 -9.199437e+000  6.913704e-015
      vertex  2.815395e+000 -9.595496e+000  1.342861e-014
    endloop
  endfacet
  facet normal  9.083910e-016 -9.184835e-015 -1.000000e+000
    outer loop
      vertex  2.815395e+000 -9.595496e+000  1.342861e-014
      vertex -3.519244e-001 -9.199437e+000  6.913704e-015
      vertex  5.992819e-001 -9.096978e+000  6.836703e-015
    endloop
  endfacet
  facet normal  1.961522e-015 -4.503244e-015 -9.999999e-001
    outer loop
      vertex  2.815395e+000 -9.595496e+000  1.342861e-014
      vertex  5.992819e-001 -9.096978e+000  6.836703e-015
      vertex  6.273124e+000 -7.787677e+000  1.206997e-014
    endloop
  endfacet
  facet normal  1.345965e-015 -1.835736e-015 -9.999999e-001
    outer loop
      vertex  6.273124e+000 -7.787677e+000  1.206997e-014
      vertex  5.992819e-001 -9.096978e+000  6.836703e-015
      vertex  1.199437e+000 -8.351924e+000  6.276768e-015
    endloop
  endfacet
  facet normal  1.210886e-015 -6.211058e-016 -1.000000e+000
    outer loop
      vertex  6.273124e+000 -7.787677e+000  1.206997e-014
      vertex  1.199437e+000 -8.351924e+000  6.276768e-015
      vertex  1.096978e+000 -7.400718e+000  5.561903e-015
    endloop
  endfacet
  facet normal  1.459208e-015  3.905405e-015 -1.000000e+000
    outer loop
      vertex  4.794255e+000  8.775826e+000 -3.780963e-016
      vertex  1.096978e+000  8.599282e+000 -6.462667e-015
      vertex  1.070951e+000  9.942488e+000 -1.254884e-015
    endloop
  endfacet
  facet normal  3.787595e-015  3.950521e-015 -1.000000e+000
    outer loop
      vertex  1.070951e+000  9.942488e+000 -1.254884e-015
      vertex  1.096978e+000  8.599282e+000 -6.462667e-015
      vertex  3.519244e-001  9.199437e+000 -6.913704e-015
    endloop
  endfacet
  facet normal -8.177117e-016  8.406934e-015 -1.000000e+000
    outer loop
      vertex  1.070951e+000  9.942488e+000 -1.254884e-015
      vertex  3.519244e-001  9.199437e+000 -6.913704e-015
      vertex -2.815395e+000  9.595496e+000 -9.941080e-016
    endloop
  endfacet
  facet normal -9.083910e-016  7.681763e-015 -1.000000e+000
    outer loop
      vertex -2.815395e+000  9.595496e+000 -9.941080e-016
      vertex  3.519244e-001  9.199437e+000 -6.913704e-015
      vertex -5.992819e-001  9.096978e+000 -6.836703e-015
    endloop
  endfacet
  facet normal -2.375100e-015  1.161652e-015 -1.000000e+000
    outer loop
      vertex -2.815395e+000  9.595496e+000 -9.941080e-016
      vertex -5.992819e-001  9.096978e+000 -6.836703e-015
      vertex -1.199437e+000  8.351924e+000 -6.276768e-015
    endloop
  endfacet
  facet normal  2.976967e-015  8.049249e-016 -1.000000e+000
    outer loop
      vertex  9.595496e+000  2.815395e+000  4.101379e-015
      vertex  8.351924e+000  1.199437e+000 -9.014197e-016
      vertex  7.787677e+000  6.273124e+000  1.502773e-015
    endloop
  endfacet
  facet normal -1.304301e-016  4.593500e-016 -1.000000e+000
    outer loop
      vertex  7.787677e+000  6.273124e+000  1.502773e-015
      vertex  8.351924e+000  1.199437e+000 -9.014197e-016
      vertex  7.400718e+000  1.096978e+000 -8.244182e-016
    endloop
  endfacet
  facet normal  9.638389e-016  3.775446e-016 -1.000000e+000
    outer loop
      vertex  7.787677e+000  6.273124e+000  1.502773e-015
      vertex  7.400718e+000  1.096978e+000 -8.244182e-016
      vertex  5.992819e-001  6.903022e+000 -5.187867e-015
    endloop
  endfacet
  facet normal  0.000000e+000 -7.515356e-016 -1.000000e+000
    outer loop
      vertex  5.992819e-001  6.903022e+000 -5.187867e-015
      vertex  7.400718e+000  1.096978e+000 -8.244182e-016
      vertex  2.211258e+000  3.629440e+000 -2.727654e-015
    endloop
  endfacet
  facet normal -2.583195e-022 -7.515358e-016 -1.000000e+000
    outer loop
      vertex  5.992819e-001  6.903022e+000 -5.187867e-015
      vertex  2.211258e+000  3.629440e+000 -2.727654e-015
      vertex -3.519244e-001  6.800563e+000 -5.110865e-015
    endloop
  endfacet
  facet normal  8.293547e-023 -7.515355e-016 -1.000000e+000
    outer loop
      vertex -3.519244e-001  6.800563e+000 -5.110865e-015
      vertex  2.211258e+000  3.629440e+000 -2.727654e-015
      vertex  1.002855e-001  4.248816e+000 -3.193137e-015
    endloop
  endfacet
  facet normal -5.582404e-023 -7.515356e-016 -1.000000e+000
    outer loop
      vertex -3.519244e-001  6.800563e+000 -5.110865e-015
      vertex  1.002855e-001  4.248816e+000 -3.193137e-015
      vertex -2.037559e+000  3.729726e+000 -2.803022e-015
    endloop
  endfacet
  facet normal  7.323274e-016 -1.519270e-015 -1.000000e+000
    outer loop
      vertex  3.629440e+000 -2.211258e+000  1.661839e-015
      vertex  6.273124e+000 -7.787677e+000  1.206997e-014
      vertex  2.037559e+000 -3.729726e+000  2.803022e-015
    endloop
  endfacet
  facet normal  9.619694e-016 -1.279577e-015 -1.000000e+000
    outer loop
      vertex  2.037559e+000 -3.729726e+000  2.803022e-015
      vertex  6.273124e+000 -7.787677e+000  1.206997e-014
      vertex  3.519244e-001 -6.800563e+000  5.110865e-015
    endloop
  endfacet
  facet normal -7.443206e-023 -7.515355e-016 -1.000000e+000
    outer loop
      vertex  2.037559e+000 -3.729726e+000  2.803022e-015
      vertex  3.519244e-001 -6.800563e+000  5.110865e-015
      vertex -1.002855e-001 -4.248816e+000  3.193137e-015
    endloop
  endfacet
  facet normal -1.712167e-022 -7.515355e-016 -1.000000e+000
    outer loop
      vertex -1.002855e-001 -4.248816e+000  3.193137e-015
      vertex  3.519244e-001 -6.800563e+000  5.110865e-015
      vertex -5.992819e-001 -6.903022e+000  5.187867e-015
    endloop
  endfacet
  facet normal  4.656940e-015 -2.210744e-015 -1.000000e+000
    outer loop
      vertex  9.942488e+000 -1.070951e+000  7.022107e-015
      vertex  8.775826e+000 -4.794255e+000  9.820303e-015
      vertex  8.599282e+000 -1.096978e+000  8.244182e-016
    endloop
  endfacet
  facet normal  1.902629e-015 -2.342261e-015 -1.000000e+000
    outer loop
      vertex  8.599282e+000 -1.096978e+000  8.244182e-016
      vertex  8.775826e+000 -4.794255e+000  9.820303e-015
      vertex  6.273124e+000 -7.787677e+000  1.206997e-014
    endloop
  endfacet
  facet normal  1.039873e-016 -1.716926e-015 -9.999999e-001
    outer loop
      vertex  8.599282e+000 -1.096978e+000  8.244182e-016
      vertex  6.273124e+000 -7.787677e+000  1.206997e-014
      vertex  7.648076e+000 -1.199437e+000  9.014197e-016
    endloop
  endfacet
  facet normal  2.507819e-016 -1.747562e-015 -1.000000e+000
    outer loop
      vertex  7.648076e+000 -1.199437e+000  9.014197e-016
      vertex  6.273124e+000 -7.787677e+000  1.206997e-014
      vertex  3.629440e+000 -2.211258e+000  1.661839e-015
    endloop
  endfacet
  facet normal -1.153273e-016 -2.934916e-016 -1.000000e+000
    outer loop
      vertex  7.648076e+000 -1.199437e+000  9.014197e-016
      vertex  3.629440e+000 -2.211258e+000  1.661839e-015
      vertex  6.903022e+000 -5.992819e-001  8.112042e-016
    endloop
  endfacet
  facet normal  1.288369e-016 -7.893374e-016 -1.000000e+000
    outer loop
      vertex  6.903022e+000 -5.992819e-001  8.112042e-016
      vertex  3.629440e+000 -2.211258e+000  1.661839e-015
      vertex  4.248816e+000 -1.002855e-001  7.536811e-017
    endloop
  endfacet
  facet normal  6.596437e-017 -1.123762e-015 -1.000000e+000
    outer loop
      vertex  6.903022e+000 -5.992819e-001  8.112042e-016
      vertex  4.248816e+000 -1.002855e-001  7.536811e-017
      vertex  6.800563e+000  3.519244e-001 -2.644837e-016
    endloop
  endfacet
  facet normal -9.619694e-016 -2.234945e-016 -1.000000e+000
    outer loop
      vertex -3.519244e-001  6.800563e+000 -5.110865e-015
      vertex -2.037559e+000  3.729726e+000 -2.803022e-015
      vertex -6.273124e+000  7.787677e+000  3.645322e-016
    endloop
  endfacet
  facet normal -7.323277e-016  1.619832e-017 -1.000000e+000
    outer loop
      vertex -6.273124e+000  7.787677e+000  3.645322e-016
      vertex -2.037559e+000  3.729726e+000 -2.803022e-015
      vertex -3.629440e+000  2.211258e+000 -1.661839e-015
    endloop
  endfacet
  facet normal -8.509850e-016 -4.005501e-017 -1.000000e+000
    outer loop
      vertex -6.273124e+000  7.787677e+000  3.645322e-016
      vertex -3.629440e+000  2.211258e+000 -1.661839e-015
      vertex -8.775826e+000  4.794255e+000  2.614195e-015
    endloop
  endfacet
  facet normal -4.035802e-016  8.513583e-016 -1.000000e+000
    outer loop
      vertex -8.775826e+000  4.794255e+000  2.614195e-015
      vertex -3.629440e+000  2.211258e+000 -1.661839e-015
      vertex -7.648076e+000  1.199437e+000 -9.014197e-016
    endloop
  endfacet
  facet normal -1.802034e-016  9.214349e-016 -1.000000e+000
    outer loop
      vertex -8.775826e+000  4.794255e+000  2.614195e-015
      vertex -7.648076e+000  1.199437e+000 -9.014197e-016
      vertex -8.599282e+000  1.096978e+000 -8.244182e-016
    endloop
  endfacet
  facet normal -4.656940e-015  7.076728e-016 -1.000000e+000
    outer loop
      vertex -8.775826e+000  4.794255e+000  2.614195e-015
      vertex -8.599282e+000  1.096978e+000 -8.244182e-016
      vertex -9.942488e+000  1.070951e+000  5.412391e-015
    endloop
  endfacet
  facet normal -4.702057e-015  3.036060e-015 -1.000000e+000
    outer loop
      vertex -9.942488e+000  1.070951e+000  5.412391e-015
      vertex -8.599282e+000  1.096978e+000 -8.244182e-016
      vertex -9.199437e+000  3.519244e-001 -2.644837e-016
    endloop
  endfacet
  facet normal -9.158470e-015 -1.569247e-015 -1.000000e+000
    outer loop
      vertex -9.942488e+000  1.070951e+000  5.412391e-015
      vertex -9.199437e+000  3.519244e-001 -2.644837e-016
      vertex -9.595496e+000 -2.815395e+000  8.333119e-015
    endloop
  endfacet
  facet normal -8.433300e-015 -1.659926e-015 -1.000000e+000
    outer loop
      vertex -9.595496e+000 -2.815395e+000  8.333119e-015
      vertex -9.199437e+000  3.519244e-001 -2.644837e-016
      vertex -9.096978e+000 -5.992819e-001  4.503817e-016
    endloop
  endfacet
  facet normal -1.913187e-015 -3.126635e-015 -1.000000e+000
    outer loop
      vertex -9.595496e+000 -2.815395e+000  8.333119e-015
      vertex -9.096978e+000 -5.992819e-001  4.503817e-016
      vertex -8.351924e+000 -1.199437e+000  9.014197e-016
    endloop
  endfacet
  facet normal -1.354558e-017 -7.158756e-016 -1.000000e+000
    outer loop
      vertex -3.729726e+000 -2.037559e+000  1.448031e-015
      vertex -7.400718e+000 -1.096978e+000  8.244182e-016
      vertex -4.248816e+000  1.002855e-001 -7.536811e-017
    endloop
  endfacet
  facet normal  0.000000e+000 -7.515356e-016 -1.000000e+000
    outer loop
      vertex -4.248816e+000  1.002855e-001 -7.536811e-017
      vertex -7.400718e+000 -1.096978e+000  8.244182e-016
      vertex -6.800563e+000 -3.519244e-001  2.644837e-016
    endloop
  endfacet
  facet normal -2.073387e-023 -7.515355e-016 -1.000000e+000
    outer loop
      vertex -4.248816e+000  1.002855e-001 -7.536811e-017
      vertex -6.800563e+000 -3.519244e-001  2.644837e-016
      vertex -3.629440e+000  2.211258e+000 -1.661839e-015
    endloop
  endfacet
  facet normal  0.000000e+000 -7.515355e-016 -1.000000e+000
    outer loop
      vertex -3.629440e+000  2.211258e+000 -1.661839e-015
      vertex -6.800563e+000 -3.519244e-001  2.644837e-016
      vertex -6.903022e+000  5.992819e-001 -4.503817e-016
    endloop
  endfacet
  facet normal  3.344608e-023 -7.515356e-016 -1.000000e+000
    outer loop
      vertex -3.629440e+000  2.211258e+000 -1.661839e-015
      vertex -6.903022e+000  5.992819e-001 -4.503817e-016
      vertex -7.648076e+000  1.199437e+000 -9.014197e-016
    endloop
  endfacet
  facet normal -1.556460e-015  2.225432e-015 -1.000000e+000
    outer loop
      vertex -2.815395e+000  9.595496e+000 -9.941080e-016
      vertex -1.199437e+000  8.351924e+000 -6.276768e-015
      vertex -6.273124e+000  7.787677e+000  3.645322e-016
    endloop
  endfacet
  facet normal -1.210885e-015 -8.819664e-016 -1.000000e+000
    outer loop
      vertex -6.273124e+000  7.787677e+000  3.645322e-016
      vertex -1.199437e+000  8.351924e+000 -6.276768e-015
      vertex -1.096978e+000  7.400718e+000 -5.561903e-015
    endloop
  endfacet
  facet normal -1.324013e-015 -2.395211e-015 -9.999999e-001
    outer loop
      vertex -6.273124e+000  7.787677e+000  3.645322e-016
      vertex -1.096978e+000  7.400718e+000 -5.561903e-015
      vertex -3.519244e-001  6.800563e+000 -5.110865e-015
    endloop
  endfacet
  facet normal  9.661630e-016  4.040689e-016 -1.000000e+000
    outer loop
      vertex  7.787677e+000  6.273124e+000  1.502773e-015
      vertex  5.992819e-001  6.903022e+000 -5.187867e-015
      vertex  4.794255e+000  8.775826e+000 -3.780963e-016
    endloop
  endfacet
  facet normal  2.314348e-015 -2.615787e-015 -1.000000e+000
    outer loop
      vertex  4.794255e+000  8.775826e+000 -3.780963e-016
      vertex  5.992819e-001  6.903022e+000 -5.187867e-015
      vertex  1.199437e+000  7.648076e+000 -5.747801e-015
    endloop
  endfacet
  facet normal  1.672971e-015 -5.713324e-016 -1.000000e+000
    outer loop
      vertex  4.794255e+000  8.775826e+000 -3.780963e-016
      vertex  1.199437e+000  7.648076e+000 -5.747801e-015
      vertex  1.096978e+000  8.599282e+000 -6.462667e-015
    endloop
  endfacet
  facet normal  6.803591e-015  3.606431e-016 -1.000000e+000
    outer loop
      vertex  9.096978e+000  5.992819e-001 -8.955921e-017
      vertex  9.595496e+000  2.815395e+000  4.101379e-015
      vertex  9.199437e+000 -3.519244e-001  2.644837e-016
    endloop
  endfacet
  facet normal  9.158469e-015  6.617630e-017 -1.000000e+000
    outer loop
      vertex  9.199437e+000 -3.519244e-001  2.644837e-016
      vertex  9.595496e+000  2.815395e+000  4.101379e-015
      vertex  9.942488e+000 -1.070951e+000  7.022107e-015
    endloop
  endfacet
  facet normal  4.702057e-015 -4.539131e-015 -1.000000e+000
    outer loop
      vertex  9.199437e+000 -3.519244e-001  2.644837e-016
      vertex  9.942488e+000 -1.070951e+000  7.022107e-015
      vertex  8.599282e+000 -1.096978e+000  8.244182e-016
    endloop
  endfacet
  facet normal  0.000000e+000  0.000000e+000  1.000000e+000
    outer loop
      vertex -4.867834e+000  4.307458e+000  2.500000e+000
      vertex -2.516831e+000  5.992959e+000  2.500000e+000
      vertex -6.273124e+000  7.787677e+000  2.500000e+000
    endloop
  endfacet
  facet normal  -0.000000e+000  0.000000e+000  1.000000e+000
    outer loop
      vertex -6.254703e+000  1.768811e+000  2.500000e+000
      vertex -7.648076e+000  1.199437e+000  2.500000e+000
      vertex -6.903022e+000  5.992819e-001  2.500000e+000
    endloop
  endfacet
  facet normal  -0.000000e+000  0.000000e+000  9.999999e-001
    outer loop
      vertex  9.595496e+000  2.815395e+000  2.500000e+000
      vertex  8.351924e+000  1.199437e+000  2.500000e+000
      vertex  9.096978e+000  5.992819e-001  2.500000e+000
    endloop
  endfacet
  facet normal  0.000000e+000  0.000000e+000  1.000000e+000
    outer loop
      vertex  4.794255e+000  8.775826e+000  2.500000e+000
      vertex  1.070951e+000  9.942488e+000  2.500000e+000
      vertex  3.519244e-001  9.199437e+000  2.500000e+000
    endloop
  endfacet
  facet normal  0.000000e+000  0.000000e+000  1.000000e+000
    outer loop
      vertex  4.794255e+000  8.775826e+000  2.500000e+000
      vertex  3.519244e-001  9.199437e+000  2.500000e+000
      vertex  1.096978e+000  8.599282e+000  2.500000e+000
    endloop
  endfacet
  facet normal  -0.000000e+000  0.000000e+000  1.000000e+000
    outer loop
      vertex  4.794255e+000  8.775826e+000  2.500000e+000
      vertex  1.096978e+000  8.599282e+000  2.500000e+000
      vertex  1.199437e+000  7.648076e+000  2.500000e+000
    endloop
  endfacet
  facet normal  -0.000000e+000  0.000000e+000  1.000000e+000
    outer loop
      vertex  4.794255e+000  8.775826e+000  2.500000e+000
      vertex  1.199437e+000  7.648076e+000  2.500000e+000
      vertex  5.992819e-001  6.903022e+000  2.500000e+000
    endloop
  endfacet
  facet normal  -0.000000e+000  0.000000e+000  1.000000e+000
    outer loop
      vertex  4.794255e+000  8.775826e+000  2.500000e+000
      vertex  5.992819e-001  6.903022e+000  2.500000e+000
      vertex  3.326614e-001  6.491482e+000  2.500000e+000
    endloop
  endfacet
  facet normal  -0.000000e+000  0.000000e+000  1.000000e+000
    outer loop
      vertex  4.794255e+000  8.775826e+000  2.500000e+000
      vertex  3.326614e-001  6.491482e+000  2.500000e+000
      vertex  7.787677e+000  6.273124e+000  2.500000e+000
    endloop
  endfacet
  facet normal  0.000000e+000  0.000000e+000  1.000000e+000
    outer loop
      vertex  7.787677e+000  6.273124e+000  2.500000e+000
      vertex  3.326614e-001  6.491482e+000  2.500000e+000
      vertex  3.116266e+000  5.704287e+000  2.500000e+000
    endloop
  endfacet
  facet normal  -0.000000e+000  0.000000e+000  1.000000e+000
    outer loop
      vertex  7.787677e+000  6.273124e+000  2.500000e+000
      vertex  3.116266e+000  5.704287e+000  2.500000e+000
      vertex  5.282656e+000  3.787287e+000  2.500000e+000
    endloop
  endfacet
  facet normal  -0.000000e+000  0.000000e+000  9.999999e-001
    outer loop
      vertex  7.787677e+000  6.273124e+000  2.500000e+000
      vertex  5.282656e+000  3.787287e+000  2.500000e+000
      vertex  7.400718e+000  1.096978e+000  2.500000e+000
    endloop
  endfacet
  facet normal  0.000000e+000  0.000000e+000  1.000000e+000
    outer loop
      vertex  7.787677e+000  6.273124e+000  2.500000e+000
      vertex  7.400718e+000  1.096978e+000  2.500000e+000
      vertex  8.351924e+000  1.199437e+000  2.500000e+000
    endloop
  endfacet
  facet normal  0.000000e+000  -0.000000e+000  1.000000e+000
    outer loop
      vertex  7.787677e+000  6.273124e+000  2.500000e+000
      vertex  8.351924e+000  1.199437e+000  2.500000e+000
      vertex  9.595496e+000  2.815395e+000  2.500000e+000
    endloop
  endfacet
  facet normal  0.000000e+000  -0.000000e+000  1.000000e+000
    outer loop
      vertex -7.787677e+000 -6.273124e+000  2.500000e+000
      vertex -4.794255e+000 -8.775826e+000  2.500000e+000
      vertex -1.096978e+000 -8.599282e+000  2.500000e+000
    endloop
  endfacet
  facet normal  0.000000e+000  0.000000e+000  1.000000e+000
    outer loop
      vertex -7.787677e+000 -6.273124e+000  2.500000e+000
      vertex -1.096978e+000 -8.599282e+000  2.500000e+000
      vertex -1.199437e+000 -7.648076e+000  2.500000e+000
    endloop
  endfacet
  facet normal  0.000000e+000  -0.000000e+000  1.000000e+000
    outer loop
      vertex -7.787677e+000 -6.273124e+000  2.500000e+000
      vertex -1.199437e+000 -7.648076e+000  2.500000e+000
      vertex -5.992819e-001 -6.903022e+000  2.500000e+000
    endloop
  endfacet
  facet normal  0.000000e+000  -0.000000e+000  1.000000e+000
    outer loop
      vertex -7.787677e+000 -6.273124e+000  2.500000e+000
      vertex -5.992819e-001 -6.903022e+000  2.500000e+000
      vertex -3.326614e-001 -6.491482e+000  2.500000e+000
    endloop
  endfacet
  facet normal  0.000000e+000  0.000000e+000  1.000000e+000
    outer loop
      vertex -7.787677e+000 -6.273124e+000  2.500000e+000
      vertex -3.326614e-001 -6.491482e+000  2.500000e+000
      vertex -3.116266e+000 -5.704287e+000  2.500000e+000
    endloop
  endfacet
  facet normal  0.000000e+000  0.000000e+000  1.000000e+000
    outer loop
      vertex -7.787677e+000 -6.273124e+000  2.500000e+000
      vertex -3.116266e+000 -5.704287e+000  2.500000e+000
      vertex -5.282656e+000 -3.787287e+000  2.500000e+000
    endloop
  endfacet
  facet normal  0.000000e+000  -0.000000e+000  1.000000e+000
    outer loop
      vertex  1.096978e+000 -7.400718e+000  2.500000e+000
      vertex  1.199437e+000 -8.351924e+000  2.500000e+000
      vertex  6.273124e+000 -7.787677e+000  2.500000e+000
    endloop
  endfacet
  facet normal  0.000000e+000  0.000000e+000  9.999999e-001
    outer loop
      vertex  6.273124e+000 -7.787677e+000  2.500000e+000
      vertex  1.199437e+000 -8.351924e+000  2.500000e+000
      vertex  5.992819e-001 -9.096978e+000  2.500000e+000
    endloop
  endfacet
  facet normal  -0.000000e+000  0.000000e+000  9.999999e-001
    outer loop
      vertex  6.273124e+000 -7.787677e+000  2.500000e+000
      vertex  5.992819e-001 -9.096978e+000  2.500000e+000
      vertex  2.815395e+000 -9.595496e+000  2.500000e+000
    endloop
  endfacet
  facet normal  0.000000e+000  0.000000e+000  1.000000e+000
    outer loop
      vertex  2.815395e+000 -9.595496e+000  2.500000e+000
      vertex  5.992819e-001 -9.096978e+000  2.500000e+000
      vertex -3.519244e-001 -9.199437e+000  2.500000e+000
    endloop
  endfacet
  facet normal  0.000000e+000  0.000000e+000  1.000000e+000
    outer loop
      vertex  2.815395e+000 -9.595496e+000  2.500000e+000
      vertex -3.519244e-001 -9.199437e+000  2.500000e+000
      vertex -1.070951e+000 -9.942488e+000  2.500000e+000
    endloop
  endfacet
  facet normal  0.000000e+000  -0.000000e+000  1.000000e+000
    outer loop
      vertex -1.070951e+000 -9.942488e+000  2.500000e+000
      vertex -3.519244e-001 -9.199437e+000  2.500000e+000
      vertex -1.096978e+000 -8.599282e+000  2.500000e+000
    endloop
  endfacet
  facet normal  0.000000e+000  0.000000e+000  1.000000e+000
    outer loop
      vertex -1.070951e+000 -9.942488e+000  2.500000e+000
      vertex -1.096978e+000 -8.599282e+000  2.500000e+000
      vertex -4.794255e+000 -8.775826e+000  2.500000e+000
    endloop
  endfacet
  facet normal  0.000000e+000  0.000000e+000  1.000000e+000
    outer loop
      vertex -1.199437e+000  8.351924e+000  2.500000e+000
      vertex -5.992819e-001  9.096978e+000  2.500000e+000
      vertex -2.815395e+000  9.595496e+000  2.500000e+000
    endloop
  endfacet
  facet normal  0.000000e+000  0.000000e+000  1.000000e+000
    outer loop
      vertex -2.815395e+000  9.595496e+000  2.500000e+000
      vertex -5.992819e-001  9.096978e+000  2.500000e+000
      vertex  3.519244e-001  9.199437e+000  2.500000e+000
    endloop
  endfacet
  facet normal  0.000000e+000  -0.000000e+000  1.000000e+000
    outer loop
      vertex -2.815395e+000  9.595496e+000  2.500000e+000
      vertex  3.519244e-001  9.199437e+000  2.500000e+000
      vertex  1.070951e+000  9.942488e+000  2.500000e+000
    endloop
  endfacet
  facet normal  0.000000e+000  -0.000000e+000  1.000000e+000
    outer loop
      vertex -6.273124e+000  7.787677e+000  2.500000e+000
      vertex -2.516831e+000  5.992959e+000  2.500000e+000
      vertex -3.519244e-001  6.800563e+000  2.500000e+000
    endloop
  endfacet
  facet normal  0.000000e+000  0.000000e+000  1.000000e+000
    outer loop
      vertex -3.519244e-001  6.800563e+000  2.500000e+000
      vertex -2.516831e+000  5.992959e+000  2.500000e+000
      vertex  3.326614e-001  6.491482e+000  2.500000e+000
    endloop
  endfacet
  facet normal  0.000000e+000  -0.000000e+000  9.999999e-001
    outer loop
      vertex -3.519244e-001  6.800563e+000  2.500000e+000
      vertex  3.326614e-001  6.491482e+000  2.500000e+000
      vertex  5.992819e-001  6.903022e+000  2.500000e+000
    endloop
  endfacet
  facet normal  0.000000e+000  0.000000e+000  9.999999e-001
    outer loop
      vertex  1.096978e+000 -7.400718e+000  2.500000e+000
      vertex  2.516831e+000 -5.992959e+000  2.500000e+000
      vertex  3.519244e-001 -6.800563e+000  2.500000e+000
    endloop
  endfacet
  facet normal  0.000000e+000  -0.000000e+000  1.000000e+000
    outer loop
      vertex  3.519244e-001 -6.800563e+000  2.500000e+000
      vertex  2.516831e+000 -5.992959e+000  2.500000e+000
      vertex -3.326614e-001 -6.491482e+000  2.500000e+000
    endloop
  endfacet
  facet normal  0.000000e+000  0.000000e+000  9.999999e-001
    outer loop
      vertex  3.519244e-001 -6.800563e+000  2.500000e+000
      vertex -3.326614e-001 -6.491482e+000  2.500000e+000
      vertex -5.992819e-001 -6.903022e+000  2.500000e+000
    endloop
  endfacet
  facet normal  0.000000e+000  0.000000e+000  9.999999e-001
    outer loop
      vertex  6.903022e+000 -5.992819e-001  2.500000e+000
      vertex  6.254703e+000 -1.768811e+000  2.500000e+000
      vertex  7.648076e+000 -1.199437e+000  2.500000e+000
    endloop
  endfacet
  facet normal  0.000000e+000  0.000000e+000  1.000000e+000
    outer loop
      vertex  7.648076e+000 -1.199437e+000  2.500000e+000
      vertex  6.254703e+000 -1.768811e+000  2.500000e+000
      vertex  6.273124e+000 -7.787677e+000  2.500000e+000
    endloop
  endfacet
  facet normal  0.000000e+000  0.000000e+000  9.999999e-001
    outer loop
      vertex  7.648076e+000 -1.199437e+000  2.500000e+000
      vertex  6.273124e+000 -7.787677e+000  2.500000e+000
      vertex  8.599282e+000 -1.096978e+000  2.500000e+000
    endloop
  endfacet
  facet normal  0.000000e+000  0.000000e+000  1.000000e+000
    outer loop
      vertex  8.599282e+000 -1.096978e+000  2.500000e+000
      vertex  6.273124e+000 -7.787677e+000  2.500000e+000
      vertex  8.775826e+000 -4.794255e+000  2.500000e+000
    endloop
  endfacet
  facet normal  0.000000e+000  -0.000000e+000  1.000000e+000
    outer loop
      vertex  8.599282e+000 -1.096978e+000  2.500000e+000
      vertex  8.775826e+000 -4.794255e+000  2.500000e+000
      vertex  9.942488e+000 -1.070951e+000  2.500000e+000
    endloop
  endfacet
  facet normal  -0.000000e+000  0.000000e+000  1.000000e+000
    outer loop
      vertex  6.254703e+000 -1.768811e+000  2.500000e+000
      vertex  4.867834e+000 -4.307458e+000  2.500000e+000
      vertex  6.273124e+000 -7.787677e+000  2.500000e+000
    endloop
  endfacet
  facet normal  0.000000e+000  0.000000e+000  1.000000e+000
    outer loop
      vertex  6.273124e+000 -7.787677e+000  2.500000e+000
      vertex  4.867834e+000 -4.307458e+000  2.500000e+000
      vertex  2.516831e+000 -5.992959e+000  2.500000e+000
    endloop
  endfacet
  facet normal  0.000000e+000  0.000000e+000  1.000000e+000
    outer loop
      vertex  6.273124e+000 -7.787677e+000  2.500000e+000
      vertex  2.516831e+000 -5.992959e+000  2.500000e+000
      vertex  1.096978e+000 -7.400718e+000  2.500000e+000
    endloop
  endfacet
  facet normal  0.000000e+000  -0.000000e+000  1.000000e+000
    outer loop
      vertex -6.273124e+000  7.787677e+000  2.500000e+000
      vertex -6.254703e+000  1.768811e+000  2.500000e+000
      vertex -4.867834e+000  4.307458e+000  2.500000e+000
    endloop
  endfacet
  facet normal  0.000000e+000  0.000000e+000  1.000000e+000
    outer loop
      vertex -6.254703e+000  1.768811e+000  2.500000e+000
      vertex -6.273124e+000  7.787677e+000  2.500000e+000
      vertex -7.648076e+000  1.199437e+000  2.500000e+000
    endloop
  endfacet
  facet normal  0.000000e+000  -0.000000e+000  9.999999e-001
    outer loop
      vertex -7.648076e+000  1.199437e+000  2.500000e+000
      vertex -6.273124e+000  7.787677e+000  2.500000e+000
      vertex -8.775826e+000  4.794255e+000  2.500000e+000
    endloop
  endfacet
  facet normal  0.000000e+000  0.000000e+000  1.000000e+000
    outer loop
      vertex -7.648076e+000  1.199437e+000  2.500000e+000
      vertex -8.775826e+000  4.794255e+000  2.500000e+000
      vertex -8.599282e+000  1.096978e+000  2.500000e+000
    endloop
  endfacet
  facet normal  0.000000e+000  0.000000e+000  1.000000e+000
    outer loop
      vertex -8.599282e+000  1.096978e+000  2.500000e+000
      vertex -8.775826e+000  4.794255e+000  2.500000e+000
      vertex -9.942488e+000  1.070951e+000  2.500000e+000
    endloop
  endfacet
  facet normal  -0.000000e+000  0.000000e+000  1.000000e+000
    outer loop
      vertex -8.599282e+000  1.096978e+000  2.500000e+000
      vertex -9.942488e+000  1.070951e+000  2.500000e+000
      vertex -9.199437e+000  3.519244e-001  2.500000e+000
    endloop
  endfacet
  facet normal  0.000000e+000  0.000000e+000  1.000000e+000
    outer loop
      vertex -9.096978e+000 -5.992819e-001  2.500000e+000
      vertex -9.595496e+000 -2.815395e+000  2.500000e+000
      vertex -8.351924e+000 -1.199437e+000  2.500000e+000
    endloop
  endfacet
  facet normal  0.000000e+000  0.000000e+000  1.000000e+000
    outer loop
      vertex -8.351924e+000 -1.199437e+000  2.500000e+000
      vertex -9.595496e+000 -2.815395e+000  2.500000e+000
      vertex -7.787677e+000 -6.273124e+000  2.500000e+000
    endloop
  endfacet
  facet normal  0.000000e+000  -0.000000e+000  1.000000e+000
    outer loop
      vertex -8.351924e+000 -1.199437e+000  2.500000e+000
      vertex -7.787677e+000 -6.273124e+000  2.500000e+000
      vertex -7.400718e+000 -1.096978e+000  2.500000e+000
    endloop
  endfacet
  facet normal  0.000000e+000  0.000000e+000  9.999999e-001
    outer loop
      vertex -7.400718e+000 -1.096978e+000  2.500000e+000
      vertex -7.787677e+000 -6.273124e+000  2.500000e+000
      vertex -5.282656e+000 -3.787287e+000  2.500000e+000
    endloop
  endfacet
  facet normal  0.000000e+000  0.000000e+000  9.999999e-001
    outer loop
      vertex -7.400718e+000 -1.096978e+000  2.500000e+000
      vertex -5.282656e+000 -3.787287e+000  2.500000e+000
      vertex -6.402751e+000 -1.120170e+000  2.500000e+000
    endloop
  endfacet
  facet normal  0.000000e+000  0.000000e+000  9.999999e-001
    outer loop
      vertex -9.199437e+000  3.519244e-001  2.500000e+000
      vertex -9.942488e+000  1.070951e+000  2.500000e+000
      vertex -9.096978e+000 -5.992819e-001  2.500000e+000
    endloop
  endfacet
  facet normal  0.000000e+000  0.000000e+000  1.000000e+000
    outer loop
      vertex -9.096978e+000 -5.992819e-001  2.500000e+000
      vertex -9.942488e+000  1.070951e+000  2.500000e+000
      vertex -9.595496e+000 -2.815395e+000  2.500000e+000
    endloop
  endfacet
  facet normal  0.000000e+000  0.000000e+000  1.000000e+000
    outer loop
      vertex -7.400718e+000 -1.096978e+000  2.500000e+000
      vertex -6.402751e+000 -1.120170e+000  2.500000e+000
      vertex -6.800563e+000 -3.519244e-001  2.500000e+000
    endloop
  endfacet
  facet normal  -0.000000e+000  0.000000e+000  1.000000e+000
    outer loop
      vertex -6.800563e+000 -3.519244e-001  2.500000e+000
      vertex -6.402751e+000 -1.120170e+000  2.500000e+000
      vertex -6.254703e+000  1.768811e+000  2.500000e+000
    endloop
  endfacet
  facet normal  0.000000e+000  0.000000e+000  1.000000e+000
    outer loop
      vertex -6.800563e+000 -3.519244e-001  2.500000e+000
      vertex -6.254703e+000  1.768811e+000  2.500000e+000
      vertex -6.903022e+000  5.992819e-001  2.500000e+000
    endloop
  endfacet
  facet normal  0.000000e+000  0.000000e+000  9.999999e-001
    outer loop
      vertex -3.519244e-001  6.800563e+000  2.500000e+000
      vertex -1.096978e+000  7.400718e+000  2.500000e+000
      vertex -6.273124e+000  7.787677e+000  2.500000e+000
    endloop
  endfacet
  facet normal  -0.000000e+000  0.000000e+000  1.000000e+000
    outer loop
      vertex -6.273124e+000  7.787677e+000  2.500000e+000
      vertex -1.096978e+000  7.400718e+000  2.500000e+000
      vertex -1.199437e+000  8.351924e+000  2.500000e+000
    endloop
  endfacet
  facet normal  0.000000e+000  0.000000e+000  1.000000e+000
    outer loop
      vertex -6.273124e+000  7.787677e+000  2.500000e+000
      vertex -1.199437e+000  8.351924e+000  2.500000e+000
      vertex -2.815395e+000  9.595496e+000  2.500000e+000
    endloop
  endfacet
  facet normal  -0.000000e+000  -0.000000e+000  9.999999e-001
    outer loop
      vertex  5.282656e+000  3.787287e+000  2.500000e+000
      vertex  6.402751e+000  1.120170e+000  2.500000e+000
      vertex  7.400718e+000  1.096978e+000  2.500000e+000
    endloop
  endfacet
  facet normal  0.000000e+000  0.000000e+000  1.000000e+000
    outer loop
      vertex  7.400718e+000  1.096978e+000  2.500000e+000
      vertex  6.402751e+000  1.120170e+000  2.500000e+000
      vertex  6.800563e+000  3.519244e-001  2.500000e+000
    endloop
  endfacet
  facet normal  0.000000e+000  0.000000e+000  1.000000e+000
    outer loop
      vertex  6.402751e+000  1.120170e+000  2.500000e+000
      vertex  6.254703e+000 -1.768811e+000  2.500000e+000
      vertex  6.800563e+000  3.519244e-001  2.500000e+000
    endloop
  endfacet
  facet normal  0.000000e+000  0.000000e+000  1.000000e+000
    outer loop
      vertex  6.800563e+000  3.519244e-001  2.500000e+000
      vertex  6.254703e+000 -1.768811e+000  2.500000e+000
      vertex  6.903022e+000 -5.992819e-001  2.500000e+000
    endloop
  endfacet
  facet normal  0.000000e+000  0.000000e+000  1.000000e+000
    outer loop
      vertex  8.599282e+000 -1.096978e+000  2.500000e+000
      vertex  9.942488e+000 -1.070951e+000  2.500000e+000
      vertex  9.199437e+000 -3.519244e-001  2.500000e+000
    endloop
  endfacet
  facet normal  -0.000000e+000  0.000000e+000  1.000000e+000
    outer loop
      vertex  9.199437e+000 -3.519244e-001  2.500000e+000
      vertex  9.942488e+000 -1.070951e+000  2.500000e+000
      vertex  9.595496e+000  2.815395e+000  2.500000e+000
    endloop
  endfacet
  facet normal  0.000000e+000  0.000000e+000  1.000000e+000
    outer loop
      vertex  9.199437e+000 -3.519244e-001  2.500000e+000
      vertex  9.595496e+000  2.815395e+000  2.500000e+000
      vertex  9.096978e+000  5.992819e-001  2.500000e+000
    endloop
  endfacet
  facet normal  6.273125e-001  7.787676e-001  0.000000e+000
    outer loop
      vertex -1.096978e+000  7.400718e+000 -5.561903e-015
      vertex -3.519244e-001  6.800563e+000  2.500000e+000
      vertex -3.519244e-001  6.800563e+000 -5.110865e-015
    endloop
  endfacet
  facet normal -1.070953e-001  9.942488e-001  0.000000e+000
    outer loop
      vertex -3.519244e-001  6.800563e+000 -5.110865e-015
      vertex -3.519244e-001  6.800563e+000  2.500000e+000
      vertex  5.992819e-001  6.903022e+000  2.500000e+000
    endloop
  endfacet
  facet normal -1.070953e-001  9.942488e-001  0.000000e+000
    outer loop
      vertex -3.519244e-001  6.800563e+000 -5.110865e-015
      vertex  5.992819e-001  6.903022e+000  2.500000e+000
      vertex  5.992819e-001  6.903022e+000 -5.187867e-015
    endloop
  endfacet
  facet normal  6.273125e-001  7.787676e-001  -0.000000e+000
    outer loop
      vertex -3.519244e-001  6.800563e+000  2.500000e+000
      vertex -1.096978e+000  7.400718e+000 -5.561903e-015
      vertex -1.096978e+000  7.400718e+000  2.500000e+000
    endloop
  endfacet
  facet normal  9.942488e-001  1.070952e-001  0.000000e+000
    outer loop
      vertex -1.096978e+000  7.400718e+000  2.500000e+000
      vertex -1.096978e+000  7.400718e+000 -5.561903e-015
      vertex -1.199437e+000  8.351924e+000 -6.276768e-015
    endloop
  endfacet
  facet normal  9.942488e-001  1.070952e-001  -0.000000e+000
    outer loop
      vertex -1.096978e+000  7.400718e+000  2.500000e+000
      vertex -1.199437e+000  8.351924e+000 -6.276768e-015
      vertex -1.199437e+000  8.351924e+000  2.500000e+000
    endloop
  endfacet
  facet normal  7.787679e-001 -6.273121e-001  0.000000e+000
    outer loop
      vertex -1.199437e+000  8.351924e+000  2.500000e+000
      vertex -1.199437e+000  8.351924e+000 -6.276768e-015
      vertex -5.992819e-001  9.096978e+000 -6.836703e-015
    endloop
  endfacet
  facet normal  7.787679e-001 -6.273121e-001  0.000000e+000
    outer loop
      vertex -1.199437e+000  8.351924e+000  2.500000e+000
      vertex -5.992819e-001  9.096978e+000 -6.836703e-015
      vertex -5.992819e-001  9.096978e+000  2.500000e+000
    endloop
  endfacet
  facet normal -6.273122e-001 -7.787678e-001  -0.000000e+000
    outer loop
      vertex  1.096978e+000  8.599282e+000 -6.462667e-015
      vertex  3.519244e-001  9.199437e+000  2.500000e+000
      vertex  3.519244e-001  9.199437e+000 -6.913704e-015
    endloop
  endfacet
  facet normal  1.070953e-001 -9.942488e-001  0.000000e+000
    outer loop
      vertex  3.519244e-001  9.199437e+000 -6.913704e-015
      vertex  3.519244e-001  9.199437e+000  2.500000e+000
      vertex -5.992819e-001  9.096978e+000  2.500000e+000
    endloop
  endfacet
  facet normal  1.070953e-001 -9.942488e-001  0.000000e+000
    outer loop
      vertex  3.519244e-001  9.199437e+000 -6.913704e-015
      vertex -5.992819e-001  9.096978e+000  2.500000e+000
      vertex -5.992819e-001  9.096978e+000 -6.836703e-015
    endloop
  endfacet
  facet normal -6.273122e-001 -7.787678e-001  0.000000e+000
    outer loop
      vertex  3.519244e-001  9.199437e+000  2.500000e+000
      vertex  1.096978e+000  8.599282e+000 -6.462667e-015
      vertex  1.096978e+000  8.599282e+000  2.500000e+000
    endloop
  endfacet
  facet normal -9.942488e-001 -1.070951e-001  -0.000000e+000
    outer loop
      vertex  1.096978e+000  8.599282e+000  2.500000e+000
      vertex  1.096978e+000  8.599282e+000 -6.462667e-015
      vertex  1.199437e+000  7.648076e+000 -5.747801e-015
    endloop
  endfacet
  facet normal -9.942488e-001 -1.070951e-001  0.000000e+000
    outer loop
      vertex  1.096978e+000  8.599282e+000  2.500000e+000
      vertex  1.199437e+000  7.648076e+000 -5.747801e-015
      vertex  1.199437e+000  7.648076e+000  2.500000e+000
    endloop
  endfacet
  facet normal -7.787678e-001  6.273124e-001  0.000000e+000
    outer loop
      vertex  1.199437e+000  7.648076e+000  2.500000e+000
      vertex  1.199437e+000  7.648076e+000 -5.747801e-015
      vertex  5.992819e-001  6.903022e+000 -5.187867e-015
    endloop
  endfacet
  facet normal -7.787678e-001  6.273124e-001  0.000000e+000
    outer loop
      vertex  1.199437e+000  7.648076e+000  2.500000e+000
      vertex  5.992819e-001  6.903022e+000 -5.187867e-015
      vertex  5.992819e-001  6.903022e+000  2.500000e+000
    endloop
  endfacet
  facet normal -7.787676e-001  6.273125e-001  0.000000e+000
    outer loop
      vertex -7.400718e+000 -1.096978e+000  8.244182e-016
      vertex -6.800563e+000 -3.519244e-001  2.500000e+000
      vertex -6.800563e+000 -3.519244e-001  2.644837e-016
    endloop
  endfacet
  facet normal -9.942488e-001 -1.070953e-001  0.000000e+000
    outer loop
      vertex -6.800563e+000 -3.519244e-001  2.644837e-016
      vertex -6.800563e+000 -3.519244e-001  2.500000e+000
      vertex -6.903022e+000  5.992819e-001  2.500000e+000
    endloop
  endfacet
  facet normal -9.942488e-001 -1.070953e-001  -0.000000e+000
    outer loop
      vertex -6.800563e+000 -3.519244e-001  2.644837e-016
      vertex -6.903022e+000  5.992819e-001  2.500000e+000
      vertex -6.903022e+000  5.992819e-001 -4.503817e-016
    endloop
  endfacet
  facet normal -7.787676e-001  6.273125e-001  0.000000e+000
    outer loop
      vertex -6.800563e+000 -3.519244e-001  2.500000e+000
      vertex -7.400718e+000 -1.096978e+000  8.244182e-016
      vertex -7.400718e+000 -1.096978e+000  2.500000e+000
    endloop
  endfacet
  facet normal -1.070952e-001  9.942488e-001  0.000000e+000
    outer loop
      vertex -7.400718e+000 -1.096978e+000  2.500000e+000
      vertex -7.400718e+000 -1.096978e+000  8.244182e-016
      vertex -8.351924e+000 -1.199437e+000  9.014197e-016
    endloop
  endfacet
  facet normal -1.070952e-001  9.942488e-001  0.000000e+000
    outer loop
      vertex -7.400718e+000 -1.096978e+000  2.500000e+000
      vertex -8.351924e+000 -1.199437e+000  9.014197e-016
      vertex -8.351924e+000 -1.199437e+000  2.500000e+000
    endloop
  endfacet
  facet normal  6.273121e-001  7.787679e-001  0.000000e+000
    outer loop
      vertex -8.351924e+000 -1.199437e+000  2.500000e+000
      vertex -8.351924e+000 -1.199437e+000  9.014197e-016
      vertex -9.096978e+000 -5.992819e-001  4.503817e-016
    endloop
  endfacet
  facet normal  6.273121e-001  7.787679e-001  -0.000000e+000
    outer loop
      vertex -8.351924e+000 -1.199437e+000  2.500000e+000
      vertex -9.096978e+000 -5.992819e-001  4.503817e-016
      vertex -9.096978e+000 -5.992819e-001  2.500000e+000
    endloop
  endfacet
  facet normal  7.787678e-001 -6.273122e-001  0.000000e+000
    outer loop
      vertex -8.599282e+000  1.096978e+000 -8.244182e-016
      vertex -9.199437e+000  3.519244e-001  2.500000e+000
      vertex -9.199437e+000  3.519244e-001 -2.644837e-016
    endloop
  endfacet
  facet normal  9.942488e-001  1.070953e-001  -0.000000e+000
    outer loop
      vertex -9.199437e+000  3.519244e-001 -2.644837e-016
      vertex -9.199437e+000  3.519244e-001  2.500000e+000
      vertex -9.096978e+000 -5.992819e-001  2.500000e+000
    endloop
  endfacet
  facet normal  9.942488e-001  1.070953e-001  0.000000e+000
    outer loop
      vertex -9.199437e+000  3.519244e-001 -2.644837e-016
      vertex -9.096978e+000 -5.992819e-001  2.500000e+000
      vertex -9.096978e+000 -5.992819e-001  4.503817e-016
    endloop
  endfacet
  facet normal  7.787678e-001 -6.273122e-001  0.000000e+000
    outer loop
      vertex -9.199437e+000  3.519244e-001  2.500000e+000
      vertex -8.599282e+000  1.096978e+000 -8.244182e-016
      vertex -8.599282e+000  1.096978e+000  2.500000e+000
    endloop
  endfacet
  facet normal  1.070951e-001 -9.942488e-001  0.000000e+000
    outer loop
      vertex -8.599282e+000  1.096978e+000  2.500000e+000
      vertex -8.599282e+000  1.096978e+000 -8.244182e-016
      vertex -7.648076e+000  1.199437e+000 -9.014197e-016
    endloop
  endfacet
  facet normal  1.070951e-001 -9.942488e-001  0.000000e+000
    outer loop
      vertex -8.599282e+000  1.096978e+000  2.500000e+000
      vertex -7.648076e+000  1.199437e+000 -9.014197e-016
      vertex -7.648076e+000  1.199437e+000  2.500000e+000
    endloop
  endfacet
  facet normal -6.273124e-001 -7.787678e-001  -0.000000e+000
    outer loop
      vertex -7.648076e+000  1.199437e+000  2.500000e+000
      vertex -7.648076e+000  1.199437e+000 -9.014197e-016
      vertex -6.903022e+000  5.992819e-001 -4.503817e-016
    endloop
  endfacet
  facet normal -6.273124e-001 -7.787678e-001  0.000000e+000
    outer loop
      vertex -7.648076e+000  1.199437e+000  2.500000e+000
      vertex -6.903022e+000  5.992819e-001 -4.503817e-016
      vertex -6.903022e+000  5.992819e-001  2.500000e+000
    endloop
  endfacet
  facet normal -6.273125e-001 -7.787676e-001  -0.000000e+000
    outer loop
      vertex  1.096978e+000 -7.400718e+000  5.561903e-015
      vertex  3.519244e-001 -6.800563e+000  2.500000e+000
      vertex  3.519244e-001 -6.800563e+000  5.110865e-015
    endloop
  endfacet
  facet normal  1.070953e-001 -9.942488e-001  0.000000e+000
    outer loop
      vertex  3.519244e-001 -6.800563e+000  5.110865e-015
      vertex  3.519244e-001 -6.800563e+000  2.500000e+000
      vertex -5.992819e-001 -6.903022e+000  2.500000e+000
    endloop
  endfacet
  facet normal  1.070953e-001 -9.942488e-001  0.000000e+000
    outer loop
      vertex  3.519244e-001 -6.800563e+000  5.110865e-015
      vertex -5.992819e-001 -6.903022e+000  2.500000e+000
      vertex -5.992819e-001 -6.903022e+000  5.187867e-015
    endloop
  endfacet
  facet normal -6.273125e-001 -7.787676e-001  0.000000e+000
    outer loop
      vertex  3.519244e-001 -6.800563e+000  2.500000e+000
      vertex  1.096978e+000 -7.400718e+000  5.561903e-015
      vertex  1.096978e+000 -7.400718e+000  2.500000e+000
    endloop
  endfacet
  facet normal -9.942488e-001 -1.070952e-001  -0.000000e+000
    outer loop
      vertex  1.096978e+000 -7.400718e+000  2.500000e+000
      vertex  1.096978e+000 -7.400718e+000  5.561903e-015
      vertex  1.199437e+000 -8.351924e+000  6.276768e-015
    endloop
  endfacet
  facet normal -9.942488e-001 -1.070952e-001  0.000000e+000
    outer loop
      vertex  1.096978e+000 -7.400718e+000  2.500000e+000
      vertex  1.199437e+000 -8.351924e+000  6.276768e-015
      vertex  1.199437e+000 -8.351924e+000  2.500000e+000
    endloop
  endfacet
  facet normal -7.787679e-001  6.273121e-001  0.000000e+000
    outer loop
      vertex  1.199437e+000 -8.351924e+000  2.500000e+000
      vertex  1.199437e+000 -8.351924e+000  6.276768e-015
      vertex  5.992819e-001 -9.096978e+000  6.836703e-015
    endloop
  endfacet
  facet normal -7.787679e-001  6.273121e-001  0.000000e+000
    outer loop
      vertex  1.199437e+000 -8.351924e+000  2.500000e+000
      vertex  5.992819e-001 -9.096978e+000  6.836703e-015
      vertex  5.992819e-001 -9.096978e+000  2.500000e+000
    endloop
  endfacet
  facet normal  6.273122e-001  7.787678e-001  0.000000e+000
    outer loop
      vertex -1.096978e+000 -8.599282e+000  6.462667e-015
      vertex -3.519244e-001 -9.199437e+000  2.500000e+000
      vertex -3.519244e-001 -9.199437e+000  6.913704e-015
    endloop
  endfacet
  facet normal -1.070953e-001  9.942488e-001  0.000000e+000
    outer loop
      vertex -3.519244e-001 -9.199437e+000  6.913704e-015
      vertex -3.519244e-001 -9.199437e+000  2.500000e+000
      vertex  5.992819e-001 -9.096978e+000  2.500000e+000
    endloop
  endfacet
  facet normal -1.070953e-001  9.942488e-001  0.000000e+000
    outer loop
      vertex -3.519244e-001 -9.199437e+000  6.913704e-015
      vertex  5.992819e-001 -9.096978e+000  2.500000e+000
      vertex  5.992819e-001 -9.096978e+000  6.836703e-015
    endloop
  endfacet
  facet normal  6.273122e-001  7.787678e-001  -0.000000e+000
    outer loop
      vertex -3.519244e-001 -9.199437e+000  2.500000e+000
      vertex -1.096978e+000 -8.599282e+000  6.462667e-015
      vertex -1.096978e+000 -8.599282e+000  2.500000e+000
    endloop
  endfacet
  facet normal  9.942488e-001  1.070951e-001  0.000000e+000
    outer loop
      vertex -1.096978e+000 -8.599282e+000  2.500000e+000
      vertex -1.096978e+000 -8.599282e+000  6.462667e-015
      vertex -1.199437e+000 -7.648076e+000  5.747801e-015
    endloop
  endfacet
  facet normal  9.942488e-001  1.070951e-001  -0.000000e+000
    outer loop
      vertex -1.096978e+000 -8.599282e+000  2.500000e+000
      vertex -1.199437e+000 -7.648076e+000  5.747801e-015
      vertex -1.199437e+000 -7.648076e+000  2.500000e+000
    endloop
  endfacet
  facet normal  7.787678e-001 -6.273124e-001  0.000000e+000
    outer loop
      vertex -1.199437e+000 -7.648076e+000  2.500000e+000
      vertex -1.199437e+000 -7.648076e+000  5.747801e-015
      vertex -5.992819e-001 -6.903022e+000  5.187867e-015
    endloop
  endfacet
  facet normal  7.787678e-001 -6.273124e-001  0.000000e+000
    outer loop
      vertex -1.199437e+000 -7.648076e+000  2.500000e+000
      vertex -5.992819e-001 -6.903022e+000  5.187867e-015
      vertex -5.992819e-001 -6.903022e+000  2.500000e+000
    endloop
  endfacet
  facet normal  7.787676e-001 -6.273125e-001  0.000000e+000
    outer loop
      vertex  7.400718e+000  1.096978e+000 -8.244182e-016
      vertex  6.800563e+000  3.519244e-001  2.500000e+000
      vertex  6.800563e+000  3.519244e-001 -2.644837e-016
    endloop
  endfacet
  facet normal  9.942488e-001  1.070953e-001  -0.000000e+000
    outer loop
      vertex  6.800563e+000  3.519244e-001 -2.644837e-016
      vertex  6.800563e+000  3.519244e-001  2.500000e+000
      vertex  6.903022e+000 -5.992819e-001  2.500000e+000
    endloop
  endfacet
  facet normal  9.942488e-001  1.070953e-001  0.000000e+000
    outer loop
      vertex  6.800563e+000  3.519244e-001 -2.644837e-016
      vertex  6.903022e+000 -5.992819e-001  2.500000e+000
      vertex  6.903022e+000 -5.992819e-001  8.112042e-016
    endloop
  endfacet
  facet normal  7.787676e-001 -6.273125e-001  0.000000e+000
    outer loop
      vertex  6.800563e+000  3.519244e-001  2.500000e+000
      vertex  7.400718e+000  1.096978e+000 -8.244182e-016
      vertex  7.400718e+000  1.096978e+000  2.500000e+000
    endloop
  endfacet
  facet normal  1.070952e-001 -9.942488e-001  0.000000e+000
    outer loop
      vertex  7.400718e+000  1.096978e+000  2.500000e+000
      vertex  7.400718e+000  1.096978e+000 -8.244182e-016
      vertex  8.351924e+000  1.199437e+000 -9.014197e-016
    endloop
  endfacet
  facet normal  1.070952e-001 -9.942488e-001  0.000000e+000
    outer loop
      vertex  7.400718e+000  1.096978e+000  2.500000e+000
      vertex  8.351924e+000  1.199437e+000 -9.014197e-016
      vertex  8.351924e+000  1.199437e+000  2.500000e+000
    endloop
  endfacet
  facet normal -6.273121e-001 -7.787679e-001  -0.000000e+000
    outer loop
      vertex  8.351924e+000  1.199437e+000  2.500000e+000
      vertex  8.351924e+000  1.199437e+000 -9.014197e-016
      vertex  9.096978e+000  5.992819e-001 -8.955921e-017
    endloop
  endfacet
  facet normal -6.273121e-001 -7.787679e-001  0.000000e+000
    outer loop
      vertex  8.351924e+000  1.199437e+000  2.500000e+000
      vertex  9.096978e+000  5.992819e-001 -8.955921e-017
      vertex  9.096978e+000  5.992819e-001  2.500000e+000
    endloop
  endfacet
  facet normal -7.787678e-001  6.273122e-001  0.000000e+000
    outer loop
      vertex  8.599282e+000 -1.096978e+000  8.244182e-016
      vertex  9.199437e+000 -3.519244e-001  2.500000e+000
      vertex  9.199437e+000 -3.519244e-001  2.644837e-016
    endloop
  endfacet
  facet normal -9.942488e-001 -1.070953e-001  0.000000e+000
    outer loop
      vertex  9.199437e+000 -3.519244e-001  2.644837e-016
      vertex  9.199437e+000 -3.519244e-001  2.500000e+000
      vertex  9.096978e+000  5.992819e-001  2.500000e+000
    endloop
  endfacet
  facet normal -9.942488e-001 -1.070953e-001  -0.000000e+000
    outer loop
      vertex  9.199437e+000 -3.519244e-001  2.644837e-016
      vertex  9.096978e+000  5.992819e-001  2.500000e+000
      vertex  9.096978e+000  5.992819e-001 -8.955921e-017
    endloop
  endfacet
  facet normal -7.787678e-001  6.273122e-001  0.000000e+000
    outer loop
      vertex  9.199437e+000 -3.519244e-001  2.500000e+000
      vertex  8.599282e+000 -1.096978e+000  8.244182e-016
      vertex  8.599282e+000 -1.096978e+000  2.500000e+000
    endloop
  endfacet
  facet normal -1.070951e-001  9.942488e-001  0.000000e+000
    outer loop
      vertex  8.599282e+000 -1.096978e+000  2.500000e+000
      vertex  8.599282e+000 -1.096978e+000  8.244182e-016
      vertex  7.648076e+000 -1.199437e+000  9.014197e-016
    endloop
  endfacet
  facet normal -1.070951e-001  9.942488e-001  0.000000e+000
    outer loop
      vertex  8.599282e+000 -1.096978e+000  2.500000e+000
      vertex  7.648076e+000 -1.199437e+000  9.014197e-016
      vertex  7.648076e+000 -1.199437e+000  2.500000e+000
    endloop
  endfacet
  facet normal  6.273124e-001  7.787678e-001  0.000000e+000
    outer loop
      vertex  7.648076e+000 -1.199437e+000  2.500000e+000
      vertex  7.648076e+000 -1.199437e+000  9.014197e-016
      vertex  6.903022e+000 -5.992819e-001  8.112042e-016
    endloop
  endfacet
  facet normal  6.273124e-001  7.787678e-001  -0.000000e+000
    outer loop
      vertex  7.648076e+000 -1.199437e+000  2.500000e+000
      vertex  6.903022e+000 -5.992819e-001  8.112042e-016
      vertex  6.903022e+000 -5.992819e-001  2.500000e+000
    endloop
  endfacet
  facet normal  2.721249e-001  9.622620e-001  -0.000000e+000
    outer loop
      vertex  3.116266e+000  5.704287e+000  1.300000e+001
      vertex  3.116266e+000  5.704287e+000  2.500000e+000
      vertex  3.326614e-001  6.491482e+000  1.300000e+001
    endloop
  endfacet
  facet normal  2.721249e-001  9.622620e-001  0.000000e+000
    outer loop
      vertex  3.326614e-001  6.491482e+000  1.300000e+001
      vertex  3.116266e+000  5.704287e+000  2.500000e+000
      vertex  3.326614e-001  6.491482e+000  2.500000e+000
    endloop
  endfacet
  facet normal -1.723337e-001  9.850386e-001  0.000000e+000
    outer loop
      vertex  3.326614e-001  6.491482e+000  1.300000e+001
      vertex  3.326614e-001  6.491482e+000  2.500000e+000
      vertex -2.516831e+000  5.992959e+000  1.300000e+001
    endloop
  endfacet
  facet normal -1.723337e-001  9.850386e-001  0.000000e+000
    outer loop
      vertex -2.516831e+000  5.992959e+000  1.300000e+001
      vertex  3.326614e-001  6.491482e+000  2.500000e+000
      vertex -2.516831e+000  5.992959e+000  2.500000e+000
    endloop
  endfacet
  facet normal -5.826596e-001  8.127162e-001  0.000000e+000
    outer loop
      vertex -2.516831e+000  5.992959e+000  1.300000e+001
      vertex -2.516831e+000  5.992959e+000  2.500000e+000
      vertex -4.867834e+000  4.307458e+000  1.300000e+001
    endloop
  endfacet
  facet normal -5.826596e-001  8.127162e-001  0.000000e+000
    outer loop
      vertex -4.867834e+000  4.307458e+000  1.300000e+001
      vertex -2.516831e+000  5.992959e+000  2.500000e+000
      vertex -4.867834e+000  4.307458e+000  2.500000e+000
    endloop
  endfacet
  facet normal -8.775826e-001  4.794254e-001  0.000000e+000
    outer loop
      vertex -4.867834e+000  4.307458e+000  1.300000e+001
      vertex -4.867834e+000  4.307458e+000  2.500000e+000
      vertex -6.254703e+000  1.768811e+000  1.300000e+001
    endloop
  endfacet
  facet normal -8.775826e-001  4.794254e-001  0.000000e+000
    outer loop
      vertex -6.254703e+000  1.768811e+000  1.300000e+001
      vertex -4.867834e+000  4.307458e+000  2.500000e+000
      vertex -6.254703e+000  1.768811e+000  2.500000e+000
    endloop
  endfacet
  facet normal -9.986896e-001  5.117873e-002  0.000000e+000
    outer loop
      vertex -6.254703e+000  1.768811e+000  1.300000e+001
      vertex -6.254703e+000  1.768811e+000  2.500000e+000
      vertex -6.402751e+000 -1.120170e+000  1.300000e+001
    endloop
  endfacet
  facet normal -9.986896e-001  5.117873e-002  0.000000e+000
    outer loop
      vertex -6.402751e+000 -1.120170e+000  1.300000e+001
      vertex -6.254703e+000  1.768811e+000  2.500000e+000
      vertex -6.402751e+000 -1.120170e+000  2.500000e+000
    endloop
  endfacet
  facet normal -9.219938e-001 -3.872048e-001  0.000000e+000
    outer loop
      vertex -6.402751e+000 -1.120170e+000  1.300000e+001
      vertex -6.402751e+000 -1.120170e+000  2.500000e+000
      vertex -5.282656e+000 -3.787287e+000  1.300000e+001
    endloop
  endfacet
  facet normal -9.219938e-001 -3.872048e-001  -0.000000e+000
    outer loop
      vertex -5.282656e+000 -3.787287e+000  1.300000e+001
      vertex -6.402751e+000 -1.120170e+000  2.500000e+000
      vertex -5.282656e+000 -3.787287e+000  2.500000e+000
    endloop
  endfacet
  facet normal -6.626859e-001 -7.488976e-001  0.000000e+000
    outer loop
      vertex -5.282656e+000 -3.787287e+000  1.300000e+001
      vertex -5.282656e+000 -3.787287e+000  2.500000e+000
      vertex -3.116266e+000 -5.704287e+000  1.300000e+001
    endloop
  endfacet
  facet normal -6.626859e-001 -7.488976e-001  -0.000000e+000
    outer loop
      vertex -3.116266e+000 -5.704287e+000  1.300000e+001
      vertex -5.282656e+000 -3.787287e+000  2.500000e+000
      vertex -3.116266e+000 -5.704287e+000  2.500000e+000
    endloop
  endfacet
  facet normal  2.990057e-001  9.542513e-001  -0.000000e+000
    outer loop
      vertex  4.794255e+000  8.775826e+000  2.500000e+000
      vertex  4.794255e+000  8.775826e+000 -3.780963e-016
      vertex  1.070951e+000  9.942488e+000  2.500000e+000
    endloop
  endfacet
  facet normal  2.990057e-001  9.542513e-001  0.000000e+000
    outer loop
      vertex  1.070951e+000  9.942488e+000  2.500000e+000
      vertex  4.794255e+000  8.775826e+000 -3.780963e-016
      vertex  1.070951e+000  9.942488e+000 -1.254884e-015
    endloop
  endfacet
  facet normal -8.893099e-002  9.960378e-001  0.000000e+000
    outer loop
      vertex  1.070951e+000  9.942488e+000  2.500000e+000
      vertex  1.070951e+000  9.942488e+000 -1.254884e-015
      vertex -2.815395e+000  9.595496e+000  2.500000e+000
    endloop
  endfacet
  facet normal -8.893099e-002  9.960378e-001  0.000000e+000
    outer loop
      vertex -2.815395e+000  9.595496e+000  2.500000e+000
      vertex  1.070951e+000  9.942488e+000 -1.254884e-015
      vertex -2.815395e+000  9.595496e+000 -9.941080e-016
    endloop
  endfacet
  facet normal -4.633286e-001  8.861864e-001  0.000000e+000
    outer loop
      vertex -2.815395e+000  9.595496e+000  2.500000e+000
      vertex -2.815395e+000  9.595496e+000 -9.941080e-016
      vertex -6.273124e+000  7.787677e+000  2.500000e+000
    endloop
  endfacet
  facet normal -4.633286e-001  8.861864e-001  0.000000e+000
    outer loop
      vertex -6.273124e+000  7.787677e+000  2.500000e+000
      vertex -2.815395e+000  9.595496e+000 -9.941080e-016
      vertex -6.273124e+000  7.787677e+000  3.645322e-016
    endloop
  endfacet
  facet normal -7.671888e-001  6.414213e-001  0.000000e+000
    outer loop
      vertex -6.273124e+000  7.787677e+000  2.500000e+000
      vertex -6.273124e+000  7.787677e+000  3.645322e-016
      vertex -8.775826e+000  4.794255e+000  2.500000e+000
    endloop
  endfacet
  facet normal -7.671888e-001  6.414213e-001  0.000000e+000
    outer loop
      vertex -8.775826e+000  4.794255e+000  2.500000e+000
      vertex -6.273124e+000  7.787677e+000  3.645322e-016
      vertex -8.775826e+000  4.794255e+000  2.614195e-015
    endloop
  endfacet
  facet normal -9.542513e-001  2.990057e-001  0.000000e+000
    outer loop
      vertex -8.775826e+000  4.794255e+000  2.500000e+000
      vertex -8.775826e+000  4.794255e+000  2.614195e-015
      vertex -9.942488e+000  1.070951e+000  2.500000e+000
    endloop
  endfacet
  facet normal -9.542513e-001  2.990057e-001  0.000000e+000
    outer loop
      vertex -9.942488e+000  1.070951e+000  2.500000e+000
      vertex -8.775826e+000  4.794255e+000  2.614195e-015
      vertex -9.942488e+000  1.070951e+000  5.412391e-015
    endloop
  endfacet
  facet normal -9.960378e-001 -8.893099e-002  0.000000e+000
    outer loop
      vertex -9.942488e+000  1.070951e+000  2.500000e+000
      vertex -9.942488e+000  1.070951e+000  5.412391e-015
      vertex -9.595496e+000 -2.815395e+000  2.500000e+000
    endloop
  endfacet
  facet normal -9.960378e-001 -8.893099e-002  -0.000000e+000
    outer loop
      vertex -9.595496e+000 -2.815395e+000  2.500000e+000
      vertex -9.942488e+000  1.070951e+000  5.412391e-015
      vertex -9.595496e+000 -2.815395e+000  8.333119e-015
    endloop
  endfacet
  facet normal -8.861864e-001 -4.633286e-001  0.000000e+000
    outer loop
      vertex -9.595496e+000 -2.815395e+000  2.500000e+000
      vertex -9.595496e+000 -2.815395e+000  8.333119e-015
      vertex -7.787677e+000 -6.273124e+000  2.500000e+000
    endloop
  endfacet
  facet normal -8.861864e-001 -4.633286e-001  -0.000000e+000
    outer loop
      vertex -7.787677e+000 -6.273124e+000  2.500000e+000
      vertex -9.595496e+000 -2.815395e+000  8.333119e-015
      vertex -7.787677e+000 -6.273124e+000  1.093172e-014
    endloop
  endfacet
  facet normal -6.414213e-001 -7.671888e-001  0.000000e+000
    outer loop
      vertex -7.787677e+000 -6.273124e+000  2.500000e+000
      vertex -7.787677e+000 -6.273124e+000  1.093172e-014
      vertex -4.794255e+000 -8.775826e+000  2.500000e+000
    endloop
  endfacet
  facet normal -6.414213e-001 -7.671888e-001  -0.000000e+000
    outer loop
      vertex -4.794255e+000 -8.775826e+000  2.500000e+000
      vertex -7.787677e+000 -6.273124e+000  1.093172e-014
      vertex -4.794255e+000 -8.775826e+000  1.281259e-014
    endloop
  endfacet
  facet normal -2.721249e-001 -9.622620e-001  0.000000e+000
    outer loop
      vertex -3.116266e+000 -5.704287e+000  1.300000e+001
      vertex -3.116266e+000 -5.704287e+000  2.500000e+000
      vertex -3.326614e-001 -6.491482e+000  1.300000e+001
    endloop
  endfacet
  facet normal -2.721249e-001 -9.622620e-001  -0.000000e+000
    outer loop
      vertex -3.326614e-001 -6.491482e+000  1.300000e+001
      vertex -3.116266e+000 -5.704287e+000  2.500000e+000
      vertex -3.326614e-001 -6.491482e+000  2.500000e+000
    endloop
  endfacet
  facet normal  1.723337e-001 -9.850386e-001  0.000000e+000
    outer loop
      vertex -3.326614e-001 -6.491482e+000  1.300000e+001
      vertex -3.326614e-001 -6.491482e+000  2.500000e+000
      vertex  2.516831e+000 -5.992959e+000  1.300000e+001
    endloop
  endfacet
  facet normal  1.723337e-001 -9.850386e-001  0.000000e+000
    outer loop
      vertex  2.516831e+000 -5.992959e+000  1.300000e+001
      vertex -3.326614e-001 -6.491482e+000  2.500000e+000
      vertex  2.516831e+000 -5.992959e+000  2.500000e+000
    endloop
  endfacet
  facet normal  5.826596e-001 -8.127162e-001  0.000000e+000
    outer loop
      vertex  2.516831e+000 -5.992959e+000  1.300000e+001
      vertex  2.516831e+000 -5.992959e+000  2.500000e+000
      vertex  4.867834e+000 -4.307458e+000  1.300000e+001
    endloop
  endfacet
  facet normal  5.826596e-001 -8.127162e-001  0.000000e+000
    outer loop
      vertex  4.867834e+000 -4.307458e+000  1.300000e+001
      vertex  2.516831e+000 -5.992959e+000  2.500000e+000
      vertex  4.867834e+000 -4.307458e+000  2.500000e+000
    endloop
  endfacet
  facet normal  8.775826e-001 -4.794254e-001  0.000000e+000
    outer loop
      vertex  4.867834e+000 -4.307458e+000  1.300000e+001
      vertex  4.867834e+000 -4.307458e+000  2.500000e+000
      vertex  6.254703e+000 -1.768811e+000  1.300000e+001
    endloop
  endfacet
  facet normal  8.775826e-001 -4.794254e-001  0.000000e+000
    outer loop
      vertex  6.254703e+000 -1.768811e+000  1.300000e+001
      vertex  4.867834e+000 -4.307458e+000  2.500000e+000
      vertex  6.254703e+000 -1.768811e+000  2.500000e+000
    endloop
  endfacet
  facet normal  9.986896e-001 -5.117873e-002  0.000000e+000
    outer loop
      vertex  6.254703e+000 -1.768811e+000  1.300000e+001
      vertex  6.254703e+000 -1.768811e+000  2.500000e+000
      vertex  6.402751e+000  1.120170e+000  1.300000e+001
    endloop
  endfacet
  facet normal  9.986896e-001 -5.117873e-002  0.000000e+000
    outer loop
      vertex  6.402751e+000  1.120170e+000  1.300000e+001
      vertex  6.254703e+000 -1.768811e+000  2.500000e+000
      vertex  6.402751e+000  1.120170e+000  2.500000e+000
    endloop
  endfacet
  facet normal  9.219938e-001  3.872048e-001  -0.000000e+000
    outer loop
      vertex  6.402751e+000  1.120170e+000  1.300000e+001
      vertex  6.402751e+000  1.120170e+000  2.500000e+000
      vertex  5.282656e+000  3.787287e+000  1.300000e+001
    endloop
  endfacet
  facet normal  9.219938e-001  3.872048e-001  0.000000e+000
    outer loop
      vertex  5.282656e+000  3.787287e+000  1.300000e+001
      vertex  6.402751e+000  1.120170e+000  2.500000e+000
      vertex  5.282656e+000  3.787287e+000  2.500000e+000
    endloop
  endfacet
  facet normal  6.626859e-001  7.488976e-001  -0.000000e+000
    outer loop
      vertex  5.282656e+000  3.787287e+000  1.300000e+001
      vertex  5.282656e+000  3.787287e+000  2.500000e+000
      vertex  3.116266e+000  5.704287e+000  1.300000e+001
    endloop
  endfacet
  facet normal  6.626859e-001  7.488976e-001  0.000000e+000
    outer loop
      vertex  3.116266e+000  5.704287e+000  1.300000e+001
      vertex  5.282656e+000  3.787287e+000  2.500000e+000
      vertex  3.116266e+000  5.704287e+000  2.500000e+000
    endloop
  endfacet
  facet normal -2.990057e-001 -9.542513e-001  0.000000e+000
    outer loop
      vertex -4.794255e+000 -8.775826e+000  2.500000e+000
      vertex -4.794255e+000 -8.775826e+000  1.281259e-014
      vertex -1.070951e+000 -9.942488e+000  2.500000e+000
    endloop
  endfacet
  facet normal -2.990057e-001 -9.542513e-001  -0.000000e+000
    outer loop
      vertex -1.070951e+000 -9.942488e+000  2.500000e+000
      vertex -4.794255e+000 -8.775826e+000  1.281259e-014
      vertex -1.070951e+000 -9.942488e+000  1.368938e-014
    endloop
  endfacet
  facet normal  8.893099e-002 -9.960378e-001  0.000000e+000
    outer loop
      vertex -1.070951e+000 -9.942488e+000  2.500000e+000
      vertex -1.070951e+000 -9.942488e+000  1.368938e-014
      vertex  2.815395e+000 -9.595496e+000  2.500000e+000
    endloop
  endfacet
  facet normal  8.893099e-002 -9.960378e-001  0.000000e+000
    outer loop
      vertex  2.815395e+000 -9.595496e+000  2.500000e+000
      vertex -1.070951e+000 -9.942488e+000  1.368938e-014
      vertex  2.815395e+000 -9.595496e+000  1.342861e-014
    endloop
  endfacet
  facet normal  4.633286e-001 -8.861864e-001  0.000000e+000
    outer loop
      vertex  2.815395e+000 -9.595496e+000  2.500000e+000
      vertex  2.815395e+000 -9.595496e+000  1.342861e-014
      vertex  6.273124e+000 -7.787677e+000  2.500000e+000
    endloop
  endfacet
  facet normal  4.633286e-001 -8.861864e-001  0.000000e+000
    outer loop
      vertex  6.273124e+000 -7.787677e+000  2.500000e+000
      vertex  2.815395e+000 -9.595496e+000  1.342861e-014
      vertex  6.273124e+000 -7.787677e+000  1.206997e-014
    endloop
  endfacet
  facet normal  7.671888e-001 -6.414213e-001  0.000000e+000
    outer loop
      vertex  6.273124e+000 -7.787677e+000  2.500000e+000
      vertex  6.273124e+000 -7.787677e+000  1.206997e-014
      vertex  8.775826e+000 -4.794255e+000  2.500000e+000
    endloop
  endfacet
  facet normal  7.671888e-001 -6.414213e-001  0.000000e+000
    outer loop
      vertex  8.775826e+000 -4.794255e+000  2.500000e+000
      vertex  6.273124e+000 -7.787677e+000  1.206997e-014
      vertex  8.775826e+000 -4.794255e+000  9.820303e-015
    endloop
  endfacet
  facet normal  9.542513e-001 -2.990057e-001  0.000000e+000
    outer loop
      vertex  8.775826e+000 -4.794255e+000  2.500000e+000
      vertex  8.775826e+000 -4.794255e+000  9.820303e-015
      vertex  9.942488e+000 -1.070951e+000  2.500000e+000
    endloop
  endfacet
  facet normal  9.542513e-001 -2.990057e-001  0.000000e+000
    outer loop
      vertex  9.942488e+000 -1.070951e+000  2.500000e+000
      vertex  8.775826e+000 -4.794255e+000  9.820303e-015
      vertex  9.942488e+000 -1.070951e+000  7.022107e-015
    endloop
  endfacet
  facet normal  9.960378e-001  8.893099e-002  -0.000000e+000
    outer loop
      vertex  9.942488e+000 -1.070951e+000  2.500000e+000
      vertex  9.942488e+000 -1.070951e+000  7.022107e-015
      vertex  9.595496e+000  2.815395e+000  2.500000e+000
    endloop
  endfacet
  facet normal  9.960378e-001  8.893099e-002  0.000000e+000
    outer loop
      vertex  9.595496e+000  2.815395e+000  2.500000e+000
      vertex  9.942488e+000 -1.070951e+000  7.022107e-015
      vertex  9.595496e+000  2.815395e+000  4.101379e-015
    endloop
  endfacet
  facet normal  8.861864e-001  4.633286e-001  -0.000000e+000
    outer loop
      vertex  9.595496e+000  2.815395e+000  2.500000e+000
      vertex  9.595496e+000  2.815395e+000  4.101379e-015
      vertex  7.787677e+000  6.273124e+000  2.500000e+000
    endloop
  endfacet
  facet normal  8.861864e-001  4.633286e-001  0.000000e+000
    outer loop
      vertex  7.787677e+000  6.273124e+000  2.500000e+000
      vertex  9.595496e+000  2.815395e+000  4.101379e-015
      vertex  7.787677e+000  6.273124e+000  1.502773e-015
    endloop
  endfacet
  facet normal  6.414213e-001  7.671888e-001  -0.000000e+000
    outer loop
      vertex  7.787677e+000  6.273124e+000  2.500000e+000
      vertex  7.787677e+000  6.273124e+000  1.502773e-015
      vertex  4.794255e+000  8.775826e+000  2.500000e+000
    endloop
  endfacet
  facet normal  6.414213e-001  7.671888e-001  0.000000e+000
    outer loop
      vertex  4.794255e+000  8.775826e+000  2.500000e+000
      vertex  7.787677e+000  6.273124e+000  1.502773e-015
      vertex  4.794255e+000  8.775826e+000 -3.780963e-016
    endloop
  endfacet
endsolid CATIA STL
