solid CATIA STL
  facet normal  0.000000e+000  -0.000000e+000  1.000000e+000
    outer loop
      vertex  2.387500e+002  0.000000e+000  4.000000e+000
      vertex  2.512500e+002  0.000000e+000  4.000000e+000
      vertex  2.512500e+002  2.000000e+001  4.000000e+000
    endloop
  endfacet
  facet normal  0.000000e+000  0.000000e+000  1.000000e+000
    outer loop
      vertex  2.387500e+002  0.000000e+000  4.000000e+000
      vertex  2.512500e+002  2.000000e+001  4.000000e+000
      vertex  2.497500e+002  2.000000e+001  4.000000e+000
    endloop
  endfacet
  facet normal  0.000000e+000  0.000000e+000  1.000000e+000
    outer loop
      vertex  2.387500e+002  0.000000e+000  4.000000e+000
      vertex  2.497500e+002  2.000000e+001  4.000000e+000
      vertex  2.491685e+002  2.227727e+001  4.000000e+000
    endloop
  endfacet
  facet normal  0.000000e+000  0.000000e+000  1.000000e+000
    outer loop
      vertex  2.387500e+002  0.000000e+000  4.000000e+000
      vertex  2.491685e+002  2.227727e+001  4.000000e+000
      vertex  2.474522e+002  2.406805e+001  4.000000e+000
    endloop
  endfacet
  facet normal  0.000000e+000  0.000000e+000  1.000000e+000
    outer loop
      vertex  2.387500e+002  0.000000e+000  4.000000e+000
      vertex  2.474522e+002  2.406805e+001  4.000000e+000
      vertex  2.450673e+002  2.474952e+001  4.000000e+000
    endloop
  endfacet
  facet normal  0.000000e+000  0.000000e+000  9.999999e-001
    outer loop
      vertex  2.387500e+002  0.000000e+000  4.000000e+000
      vertex  2.450673e+002  2.474952e+001  4.000000e+000
      vertex  2.426639e+002  2.413586e+001  4.000000e+000
    endloop
  endfacet
  facet normal  0.000000e+000  0.000000e+000  1.000000e+000
    outer loop
      vertex  2.387500e+002  0.000000e+000  4.000000e+000
      vertex  2.426639e+002  2.413586e+001  4.000000e+000
      vertex  2.408976e+002  2.239439e+001  4.000000e+000
    endloop
  endfacet
  facet normal  0.000000e+000  0.000000e+000  1.000000e+000
    outer loop
      vertex  2.387500e+002  0.000000e+000  4.000000e+000
      vertex  2.408976e+002  2.239439e+001  4.000000e+000
      vertex  2.402500e+002  2.000000e+001  4.000000e+000
    endloop
  endfacet
  facet normal  0.000000e+000  0.000000e+000  1.000000e+000
    outer loop
      vertex  2.387500e+002  0.000000e+000  4.000000e+000
      vertex  2.402500e+002  2.000000e+001  4.000000e+000
      vertex  2.387500e+002  1.000000e+001  4.000000e+000
    endloop
  endfacet
  facet normal  -0.000000e+000  0.000000e+000  1.000000e+000
    outer loop
      vertex  2.387500e+002  2.000000e+001  4.000000e+000
      vertex  1.300000e+002  2.000000e+001  4.000000e+000
      vertex  1.800000e+002  1.900000e+001  4.000000e+000
    endloop
  endfacet
  facet normal  -0.000000e+000  0.000000e+000  1.000000e+000
    outer loop
      vertex  2.387500e+002  2.000000e+001  4.000000e+000
      vertex  1.800000e+002  1.900000e+001  4.000000e+000
      vertex  1.800000e+002  1.000000e+001  4.000000e+000
    endloop
  endfacet
  facet normal  0.000000e+000  0.000000e+000  1.000000e+000
    outer loop
      vertex  2.387500e+002  2.000000e+001  4.000000e+000
      vertex  1.800000e+002  1.000000e+001  4.000000e+000
      vertex  2.387500e+002  1.000000e+001  4.000000e+000
    endloop
  endfacet
  facet normal  0.000000e+000  0.000000e+000  1.000000e+000
    outer loop
      vertex  2.387500e+002  2.000000e+001  4.000000e+000
      vertex  2.387500e+002  1.000000e+001  4.000000e+000
      vertex  2.402500e+002  2.000000e+001  4.000000e+000
    endloop
  endfacet
  facet normal  0.000000e+000  0.000000e+000  1.000000e+000
    outer loop
      vertex  1.300000e+002  1.000000e+001  4.000000e+000
      vertex  1.600000e+002  1.000000e+001  4.000000e+000
      vertex  1.300000e+002  2.000000e+001  4.000000e+000
    endloop
  endfacet
  facet normal  0.000000e+000  0.000000e+000  1.000000e+000
    outer loop
      vertex  1.300000e+002  2.000000e+001  4.000000e+000
      vertex  1.600000e+002  1.000000e+001  4.000000e+000
      vertex  1.600000e+002  1.900000e+001  4.000000e+000
    endloop
  endfacet
  facet normal  0.000000e+000  -0.000000e+000  1.000000e+000
    outer loop
      vertex  1.300000e+002  2.000000e+001  4.000000e+000
      vertex  1.600000e+002  1.900000e+001  4.000000e+000
      vertex  1.800000e+002  1.900000e+001  4.000000e+000
    endloop
  endfacet
  facet normal  1.000000e+000  0.000000e+000  -0.000000e+000
    outer loop
      vertex  1.600000e+002  9.000000e+000  1.800000e+001
      vertex  1.600000e+002  1.900000e+001  1.400000e+001
      vertex  1.600000e+002  1.900000e+001  1.800000e+001
    endloop
  endfacet
  facet normal  1.000000e+000  0.000000e+000  0.000000e+000
    outer loop
      vertex  1.600000e+002  1.900000e+001  1.400000e+001
      vertex  1.600000e+002  9.000000e+000  1.800000e+001
      vertex  1.600000e+002  1.000000e+001  1.400000e+001
    endloop
  endfacet
  facet normal  1.000000e+000  0.000000e+000  0.000000e+000
    outer loop
      vertex  1.600000e+002  1.000000e+001  1.400000e+001
      vertex  1.600000e+002  9.000000e+000  1.800000e+001
      vertex  1.600000e+002  9.000000e+000  0.000000e+000
    endloop
  endfacet
  facet normal  1.000000e+000  0.000000e+000  0.000000e+000
    outer loop
      vertex  1.600000e+002  1.000000e+001  1.400000e+001
      vertex  1.600000e+002  9.000000e+000  0.000000e+000
      vertex  1.600000e+002  1.000000e+001  4.000000e+000
    endloop
  endfacet
  facet normal  1.000000e+000  0.000000e+000  0.000000e+000
    outer loop
      vertex  1.600000e+002  1.000000e+001  4.000000e+000
      vertex  1.600000e+002  9.000000e+000  0.000000e+000
      vertex  1.600000e+002  1.900000e+001  0.000000e+000
    endloop
  endfacet
  facet normal  1.000000e+000  0.000000e+000  -0.000000e+000
    outer loop
      vertex  1.600000e+002  1.000000e+001  4.000000e+000
      vertex  1.600000e+002  1.900000e+001  0.000000e+000
      vertex  1.600000e+002  1.900000e+001  4.000000e+000
    endloop
  endfacet
  facet normal -1.000000e+000  -0.000000e+000  0.000000e+000
    outer loop
      vertex  1.300000e+002  6.000000e+000  1.800000e+001
      vertex  1.300000e+002  1.000000e+001  4.000000e+000
      vertex  1.300000e+002  6.000000e+000  0.000000e+000
    endloop
  endfacet
  facet normal -1.000000e+000  0.000000e+000  0.000000e+000
    outer loop
      vertex  1.300000e+002  6.000000e+000  0.000000e+000
      vertex  1.300000e+002  1.000000e+001  4.000000e+000
      vertex  1.300000e+002  2.000000e+001  4.000000e+000
    endloop
  endfacet
  facet normal -1.000000e+000  0.000000e+000  -0.000000e+000
    outer loop
      vertex  1.300000e+002  6.000000e+000  0.000000e+000
      vertex  1.300000e+002  2.000000e+001  4.000000e+000
      vertex  1.300000e+002  2.400000e+001 -4.440892e-016
    endloop
  endfacet
  facet normal -1.000000e+000  0.000000e+000  0.000000e+000
    outer loop
      vertex  1.300000e+002  1.000000e+001  4.000000e+000
      vertex  1.300000e+002  6.000000e+000  1.800000e+001
      vertex  1.300000e+002  1.000000e+001  1.400000e+001
    endloop
  endfacet
  facet normal -1.000000e+000  0.000000e+000  0.000000e+000
    outer loop
      vertex  1.300000e+002  1.000000e+001  1.400000e+001
      vertex  1.300000e+002  6.000000e+000  1.800000e+001
      vertex  1.300000e+002  2.400000e+001  1.800000e+001
    endloop
  endfacet
  facet normal -1.000000e+000  0.000000e+000  0.000000e+000
    outer loop
      vertex  1.300000e+002  1.000000e+001  1.400000e+001
      vertex  1.300000e+002  2.400000e+001  1.800000e+001
      vertex  1.300000e+002  2.000000e+001  1.400000e+001
    endloop
  endfacet
  facet normal -1.000000e+000  0.000000e+000  0.000000e+000
    outer loop
      vertex  1.300000e+002  2.000000e+001  1.400000e+001
      vertex  1.300000e+002  2.400000e+001  1.800000e+001
      vertex  1.300000e+002  2.400000e+001 -4.440892e-016
    endloop
  endfacet
  facet normal -1.000000e+000  0.000000e+000  0.000000e+000
    outer loop
      vertex  1.300000e+002  2.000000e+001  1.400000e+001
      vertex  1.300000e+002  2.400000e+001 -4.440892e-016
      vertex  1.300000e+002  2.000000e+001  4.000000e+000
    endloop
  endfacet
  facet normal -1.000000e+000  0.000000e+000  0.000000e+000
    outer loop
      vertex  2.300000e+002  2.400000e+001  1.800000e+001
      vertex  2.300000e+002  3.000000e+001  0.000000e+000
      vertex  2.300000e+002  2.400000e+001  0.000000e+000
    endloop
  endfacet
  facet normal -1.000000e+000  0.000000e+000  0.000000e+000
    outer loop
      vertex  2.300000e+002  3.000000e+001  0.000000e+000
      vertex  2.300000e+002  2.400000e+001  1.800000e+001
      vertex  2.300000e+002  3.000000e+001  4.500000e+001
    endloop
  endfacet
  facet normal -9.999999e-001  0.000000e+000  0.000000e+000
    outer loop
      vertex  2.300000e+002  3.000000e+001  4.500000e+001
      vertex  2.300000e+002  2.400000e+001  1.800000e+001
      vertex  2.300000e+002  6.000000e+000  1.800000e+001
    endloop
  endfacet
  facet normal -1.000000e+000  0.000000e+000  0.000000e+000
    outer loop
      vertex  2.300000e+002  3.000000e+001  4.500000e+001
      vertex  2.300000e+002  6.000000e+000  1.800000e+001
      vertex  2.300000e+002  0.000000e+000  4.500000e+001
    endloop
  endfacet
  facet normal -1.000000e+000  0.000000e+000  0.000000e+000
    outer loop
      vertex  2.300000e+002  0.000000e+000  4.500000e+001
      vertex  2.300000e+002  6.000000e+000  1.800000e+001
      vertex  2.300000e+002  6.000000e+000  0.000000e+000
    endloop
  endfacet
  facet normal -1.000000e+000  0.000000e+000  0.000000e+000
    outer loop
      vertex  2.300000e+002  0.000000e+000  4.500000e+001
      vertex  2.300000e+002  6.000000e+000  0.000000e+000
      vertex  2.300000e+002  0.000000e+000  0.000000e+000
    endloop
  endfacet
  facet normal  0.000000e+000  1.000000e+000  0.000000e+000
    outer loop
      vertex  2.300000e+002  3.000000e+001  0.000000e+000
      vertex  2.300000e+002  3.000000e+001  4.500000e+001
      vertex  2.600000e+002  3.000000e+001  0.000000e+000
    endloop
  endfacet
  facet normal  0.000000e+000  1.000000e+000  -0.000000e+000
    outer loop
      vertex  2.600000e+002  3.000000e+001  0.000000e+000
      vertex  2.300000e+002  3.000000e+001  4.500000e+001
      vertex  2.600000e+002  3.000000e+001  4.500000e+001
    endloop
  endfacet
  facet normal  1.000000e+000  0.000000e+000  0.000000e+000
    outer loop
      vertex  2.600000e+002  3.000000e+001  0.000000e+000
      vertex  2.600000e+002  3.000000e+001  4.500000e+001
      vertex  2.600000e+002  0.000000e+000  0.000000e+000
    endloop
  endfacet
  facet normal  1.000000e+000  0.000000e+000  0.000000e+000
    outer loop
      vertex  2.600000e+002  0.000000e+000  0.000000e+000
      vertex  2.600000e+002  3.000000e+001  4.500000e+001
      vertex  2.600000e+002  0.000000e+000  4.500000e+001
    endloop
  endfacet
  facet normal  0.000000e+000 -1.000000e+000  0.000000e+000
    outer loop
      vertex  2.497500e+002  0.000000e+000  4.400000e+001
      vertex  2.512500e+002  0.000000e+000  4.400000e+001
      vertex  2.497500e+002  0.000000e+000  4.500000e+001
    endloop
  endfacet
  facet normal  0.000000e+000 -9.999999e-001  0.000000e+000
    outer loop
      vertex  2.300000e+002  0.000000e+000  4.500000e+001
      vertex  2.300000e+002  0.000000e+000  0.000000e+000
      vertex  2.387500e+002  0.000000e+000  4.000000e+000
    endloop
  endfacet
  facet normal  0.000000e+000 -1.000000e+000  0.000000e+000
    outer loop
      vertex  2.300000e+002  0.000000e+000  4.500000e+001
      vertex  2.387500e+002  0.000000e+000  4.000000e+000
      vertex  2.387500e+002  0.000000e+000  4.200000e+001
    endloop
  endfacet
  facet normal  0.000000e+000 -1.000000e+000  0.000000e+000
    outer loop
      vertex  2.300000e+002  0.000000e+000  4.500000e+001
      vertex  2.387500e+002  0.000000e+000  4.200000e+001
      vertex  2.387500e+002  0.000000e+000  4.300000e+001
    endloop
  endfacet
  facet normal  0.000000e+000 -1.000000e+000  0.000000e+000
    outer loop
      vertex  2.300000e+002  0.000000e+000  4.500000e+001
      vertex  2.387500e+002  0.000000e+000  4.300000e+001
      vertex  2.387500e+002  0.000000e+000  4.400000e+001
    endloop
  endfacet
  facet normal  0.000000e+000 -1.000000e+000  0.000000e+000
    outer loop
      vertex  2.300000e+002  0.000000e+000  4.500000e+001
      vertex  2.387500e+002  0.000000e+000  4.400000e+001
      vertex  2.402500e+002  0.000000e+000  4.400000e+001
    endloop
  endfacet
  facet normal  0.000000e+000 -9.999999e-001  0.000000e+000
    outer loop
      vertex  2.300000e+002  0.000000e+000  4.500000e+001
      vertex  2.402500e+002  0.000000e+000  4.400000e+001
      vertex  2.402500e+002  0.000000e+000  4.500000e+001
    endloop
  endfacet
  facet normal  0.000000e+000 -9.999999e-001  0.000000e+000
    outer loop
      vertex  2.600000e+002  0.000000e+000  4.500000e+001
      vertex  2.497500e+002  0.000000e+000  4.500000e+001
      vertex  2.512500e+002  0.000000e+000  4.400000e+001
    endloop
  endfacet
  facet normal  0.000000e+000 -1.000000e+000  0.000000e+000
    outer loop
      vertex  2.600000e+002  0.000000e+000  4.500000e+001
      vertex  2.512500e+002  0.000000e+000  4.400000e+001
      vertex  2.512500e+002  0.000000e+000  4.300000e+001
    endloop
  endfacet
  facet normal  0.000000e+000 -1.000000e+000  0.000000e+000
    outer loop
      vertex  2.600000e+002  0.000000e+000  4.500000e+001
      vertex  2.512500e+002  0.000000e+000  4.300000e+001
      vertex  2.512500e+002  0.000000e+000  4.200000e+001
    endloop
  endfacet
  facet normal  0.000000e+000 -1.000000e+000  0.000000e+000
    outer loop
      vertex  2.600000e+002  0.000000e+000  4.500000e+001
      vertex  2.512500e+002  0.000000e+000  4.200000e+001
      vertex  2.512500e+002  0.000000e+000  4.000000e+000
    endloop
  endfacet
  facet normal  0.000000e+000 -9.999999e-001  0.000000e+000
    outer loop
      vertex  2.600000e+002  0.000000e+000  4.500000e+001
      vertex  2.512500e+002  0.000000e+000  4.000000e+000
      vertex  2.600000e+002  0.000000e+000  0.000000e+000
    endloop
  endfacet
  facet normal  0.000000e+000 -1.000000e+000  1.421085e-014
    outer loop
      vertex  2.402500e+002  0.000000e+000  4.300000e+001
      vertex  2.387500e+002  0.000000e+000  4.300000e+001
      vertex  2.402500e+002 -1.421085e-014  4.200000e+001
    endloop
  endfacet
  facet normal -9.473903e-015 -1.000000e+000  0.000000e+000
    outer loop
      vertex  2.402500e+002 -1.421085e-014  4.200000e+001
      vertex  2.387500e+002  0.000000e+000  4.300000e+001
      vertex  2.387500e+002  0.000000e+000  4.200000e+001
    endloop
  endfacet
  facet normal  0.000000e+000 -1.000000e+000  -0.000000e+000
    outer loop
      vertex  2.600000e+002  0.000000e+000  0.000000e+000
      vertex  2.512500e+002  0.000000e+000  4.000000e+000
      vertex  2.300000e+002  0.000000e+000  0.000000e+000
    endloop
  endfacet
  facet normal  0.000000e+000 -1.000000e+000  0.000000e+000
    outer loop
      vertex  2.300000e+002  0.000000e+000  0.000000e+000
      vertex  2.512500e+002  0.000000e+000  4.000000e+000
      vertex  2.387500e+002  0.000000e+000  4.000000e+000
    endloop
  endfacet
  facet normal  0.000000e+000 -1.000000e+000  -0.000000e+000
    outer loop
      vertex  2.512500e+002  0.000000e+000  4.200000e+001
      vertex  2.512500e+002  0.000000e+000  4.300000e+001
      vertex  2.497500e+002  0.000000e+000  4.200000e+001
    endloop
  endfacet
  facet normal -1.421085e-014 -1.000000e+000  2.131628e-014
    outer loop
      vertex  2.497500e+002  0.000000e+000  4.200000e+001
      vertex  2.512500e+002  0.000000e+000  4.300000e+001
      vertex  2.497500e+002  2.131628e-014  4.300000e+001
    endloop
  endfacet
  facet normal  0.000000e+000 -1.000000e+000  -0.000000e+000
    outer loop
      vertex  2.300000e+002  6.000000e+000  0.000000e+000
      vertex  2.300000e+002  6.000000e+000  1.800000e+001
      vertex  1.300000e+002  6.000000e+000  0.000000e+000
    endloop
  endfacet
  facet normal  0.000000e+000 -1.000000e+000  0.000000e+000
    outer loop
      vertex  1.300000e+002  6.000000e+000  0.000000e+000
      vertex  2.300000e+002  6.000000e+000  1.800000e+001
      vertex  1.300000e+002  6.000000e+000  1.800000e+001
    endloop
  endfacet
  facet normal  0.000000e+000  1.000000e+000  0.000000e+000
    outer loop
      vertex  1.600000e+002  9.000000e+000  0.000000e+000
      vertex  1.600000e+002  9.000000e+000  1.800000e+001
      vertex  1.800000e+002  9.000000e+000  0.000000e+000
    endloop
  endfacet
  facet normal  0.000000e+000  1.000000e+000  -0.000000e+000
    outer loop
      vertex  1.800000e+002  9.000000e+000  0.000000e+000
      vertex  1.600000e+002  9.000000e+000  1.800000e+001
      vertex  1.800000e+002  9.000000e+000  1.800000e+001
    endloop
  endfacet
  facet normal  0.000000e+000  0.000000e+000 -1.000000e+000
    outer loop
      vertex  2.387500e+002  2.000000e+001  1.400000e+001
      vertex  2.387500e+002  1.000000e+001  1.400000e+001
      vertex  1.800000e+002  1.000000e+001  1.400000e+001
    endloop
  endfacet
  facet normal  0.000000e+000  0.000000e+000 -1.000000e+000
    outer loop
      vertex  2.387500e+002  2.000000e+001  1.400000e+001
      vertex  1.800000e+002  1.000000e+001  1.400000e+001
      vertex  1.800000e+002  1.900000e+001  1.400000e+001
    endloop
  endfacet
  facet normal  0.000000e+000  0.000000e+000 -1.000000e+000
    outer loop
      vertex  2.387500e+002  2.000000e+001  1.400000e+001
      vertex  1.800000e+002  1.900000e+001  1.400000e+001
      vertex  1.600000e+002  1.900000e+001  1.400000e+001
    endloop
  endfacet
  facet normal  0.000000e+000  0.000000e+000 -1.000000e+000
    outer loop
      vertex  2.387500e+002  2.000000e+001  1.400000e+001
      vertex  1.600000e+002  1.900000e+001  1.400000e+001
      vertex  1.300000e+002  2.000000e+001  1.400000e+001
    endloop
  endfacet
  facet normal  0.000000e+000  0.000000e+000 -1.000000e+000
    outer loop
      vertex  1.600000e+002  1.000000e+001  1.400000e+001
      vertex  1.300000e+002  1.000000e+001  1.400000e+001
      vertex  1.600000e+002  1.900000e+001  1.400000e+001
    endloop
  endfacet
  facet normal  -0.000000e+000  0.000000e+000 -1.000000e+000
    outer loop
      vertex  1.600000e+002  1.900000e+001  1.400000e+001
      vertex  1.300000e+002  1.000000e+001  1.400000e+001
      vertex  1.300000e+002  2.000000e+001  1.400000e+001
    endloop
  endfacet
  facet normal  0.000000e+000 -1.000000e+000  -0.000000e+000
    outer loop
      vertex  1.800000e+002  1.900000e+001  1.400000e+001
      vertex  1.800000e+002  1.900000e+001  1.800000e+001
      vertex  1.600000e+002  1.900000e+001  1.400000e+001
    endloop
  endfacet
  facet normal  0.000000e+000 -1.000000e+000  0.000000e+000
    outer loop
      vertex  1.600000e+002  1.900000e+001  1.400000e+001
      vertex  1.800000e+002  1.900000e+001  1.800000e+001
      vertex  1.600000e+002  1.900000e+001  1.800000e+001
    endloop
  endfacet
  facet normal  0.000000e+000  0.000000e+000 -1.000000e+000
    outer loop
      vertex  2.387500e+002  0.000000e+000  4.200000e+001
      vertex  2.387500e+002  2.000000e+001  4.200000e+001
      vertex  2.402500e+002 -1.421085e-014  4.200000e+001
    endloop
  endfacet
  facet normal  0.000000e+000  0.000000e+000 -1.000000e+000
    outer loop
      vertex  2.402500e+002 -1.421085e-014  4.200000e+001
      vertex  2.387500e+002  2.000000e+001  4.200000e+001
      vertex  2.402500e+002  2.000000e+001  4.200000e+001
    endloop
  endfacet
  facet normal  0.000000e+000 -1.000000e+000  0.000000e+000
    outer loop
      vertex  1.300000e+002  2.000000e+001  1.400000e+001
      vertex  1.300000e+002  2.000000e+001  4.000000e+000
      vertex  2.387500e+002  2.000000e+001  4.000000e+000
    endloop
  endfacet
  facet normal  -0.000000e+000 -1.000000e+000  -0.000000e+000
    outer loop
      vertex  2.402500e+002  2.000000e+001  4.000000e+000
      vertex  2.402500e+002  2.000000e+001  4.200000e+001
      vertex  2.387500e+002  2.000000e+001  4.200000e+001
    endloop
  endfacet
  facet normal  0.000000e+000 -1.000000e+000  0.000000e+000
    outer loop
      vertex  2.402500e+002  2.000000e+001  4.000000e+000
      vertex  2.387500e+002  2.000000e+001  4.200000e+001
      vertex  2.387500e+002  2.000000e+001  1.400000e+001
    endloop
  endfacet
  facet normal  -0.000000e+000 -1.000000e+000  -0.000000e+000
    outer loop
      vertex  2.402500e+002  2.000000e+001  4.000000e+000
      vertex  2.387500e+002  2.000000e+001  1.400000e+001
      vertex  1.300000e+002  2.000000e+001  1.400000e+001
    endloop
  endfacet
  facet normal  0.000000e+000 -1.000000e+000  0.000000e+000
    outer loop
      vertex  2.402500e+002  2.000000e+001  4.000000e+000
      vertex  1.300000e+002  2.000000e+001  1.400000e+001
      vertex  2.387500e+002  2.000000e+001  4.000000e+000
    endloop
  endfacet
  facet normal -1.000000e+000  0.000000e+000  0.000000e+000
    outer loop
      vertex  2.512500e+002  2.000000e+001  4.200000e+001
      vertex  2.512500e+002  2.000000e+001  4.000000e+000
      vertex  2.512500e+002  0.000000e+000  4.200000e+001
    endloop
  endfacet
  facet normal -1.000000e+000  0.000000e+000  0.000000e+000
    outer loop
      vertex  2.512500e+002  0.000000e+000  4.200000e+001
      vertex  2.512500e+002  2.000000e+001  4.000000e+000
      vertex  2.512500e+002  0.000000e+000  4.000000e+000
    endloop
  endfacet
  facet normal  0.000000e+000 -1.000000e+000  -0.000000e+000
    outer loop
      vertex  2.512500e+002  2.000000e+001  4.000000e+000
      vertex  2.512500e+002  2.000000e+001  4.200000e+001
      vertex  2.497500e+002  2.000000e+001  4.000000e+000
    endloop
  endfacet
  facet normal  0.000000e+000 -1.000000e+000  0.000000e+000
    outer loop
      vertex  2.497500e+002  2.000000e+001  4.000000e+000
      vertex  2.512500e+002  2.000000e+001  4.200000e+001
      vertex  2.497500e+002  2.000000e+001  4.200000e+001
    endloop
  endfacet
  facet normal -9.689125e-001 -2.474036e-001  -0.000000e+000
    outer loop
      vertex  2.497500e+002  2.000000e+001  4.000000e+000
      vertex  2.497500e+002  2.000000e+001  4.200000e+001
      vertex  2.491685e+002  2.227727e+001  4.000000e+000
    endloop
  endfacet
  facet normal -9.689126e-001 -2.474032e-001  0.000000e+000
    outer loop
      vertex  2.491685e+002  2.227727e+001  4.000000e+000
      vertex  2.497500e+002  2.000000e+001  4.200000e+001
      vertex  2.497500e+002  2.000000e+001  4.300000e+001
    endloop
  endfacet
  facet normal -9.689125e-001 -2.474036e-001  0.000000e+000
    outer loop
      vertex  2.491685e+002  2.227727e+001  4.000000e+000
      vertex  2.497500e+002  2.000000e+001  4.300000e+001
      vertex  2.491685e+002  2.227727e+001  4.300000e+001
    endloop
  endfacet
  facet normal  9.653129e-001 -2.610957e-001  0.000000e+000
    outer loop
      vertex  2.402500e+002  2.000000e+001  4.200000e+001
      vertex  2.408976e+002  2.239439e+001  4.300000e+001
      vertex  2.402500e+002  2.000000e+001  4.300000e+001
    endloop
  endfacet
  facet normal  7.020812e-001 -7.120969e-001  0.000000e+000
    outer loop
      vertex  2.426639e+002  2.413586e+001  4.000000e+000
      vertex  2.408976e+002  2.239439e+001  4.300000e+001
      vertex  2.408976e+002  2.239439e+001  4.000000e+000
    endloop
  endfacet
  facet normal  9.653130e-001 -2.610957e-001  0.000000e+000
    outer loop
      vertex  2.408976e+002  2.239439e+001  4.000000e+000
      vertex  2.408976e+002  2.239439e+001  4.300000e+001
      vertex  2.402500e+002  2.000000e+001  4.200000e+001
    endloop
  endfacet
  facet normal  9.653130e-001 -2.610957e-001  0.000000e+000
    outer loop
      vertex  2.408976e+002  2.239439e+001  4.000000e+000
      vertex  2.402500e+002  2.000000e+001  4.200000e+001
      vertex  2.402500e+002  2.000000e+001  4.000000e+000
    endloop
  endfacet
  facet normal  7.020812e-001 -7.120969e-001  0.000000e+000
    outer loop
      vertex  2.408976e+002  2.239439e+001  4.300000e+001
      vertex  2.426639e+002  2.413586e+001  4.000000e+000
      vertex  2.426639e+002  2.413586e+001  4.300000e+001
    endloop
  endfacet
  facet normal  2.474032e-001 -9.689127e-001  0.000000e+000
    outer loop
      vertex  2.426639e+002  2.413586e+001  4.300000e+001
      vertex  2.426639e+002  2.413586e+001  4.000000e+000
      vertex  2.450673e+002  2.474952e+001  4.000000e+000
    endloop
  endfacet
  facet normal  2.474032e-001 -9.689127e-001  0.000000e+000
    outer loop
      vertex  2.426639e+002  2.413586e+001  4.300000e+001
      vertex  2.450673e+002  2.474952e+001  4.000000e+000
      vertex  2.450673e+002  2.474952e+001  4.300000e+001
    endloop
  endfacet
  facet normal -2.747391e-001 -9.615189e-001  -0.000000e+000
    outer loop
      vertex  2.450673e+002  2.474952e+001  4.300000e+001
      vertex  2.450673e+002  2.474952e+001  4.000000e+000
      vertex  2.474522e+002  2.406805e+001  4.000000e+000
    endloop
  endfacet
  facet normal -2.747391e-001 -9.615189e-001  0.000000e+000
    outer loop
      vertex  2.450673e+002  2.474952e+001  4.300000e+001
      vertex  2.474522e+002  2.406805e+001  4.000000e+000
      vertex  2.474522e+002  2.406805e+001  4.300000e+001
    endloop
  endfacet
  facet normal -7.219655e-001 -6.919291e-001  -0.000000e+000
    outer loop
      vertex  2.474522e+002  2.406805e+001  4.300000e+001
      vertex  2.474522e+002  2.406805e+001  4.000000e+000
      vertex  2.491685e+002  2.227727e+001  4.000000e+000
    endloop
  endfacet
  facet normal -7.219655e-001 -6.919291e-001  0.000000e+000
    outer loop
      vertex  2.474522e+002  2.406805e+001  4.300000e+001
      vertex  2.491685e+002  2.227727e+001  4.000000e+000
      vertex  2.491685e+002  2.227727e+001  4.300000e+001
    endloop
  endfacet
  facet normal  -0.000000e+000  0.000000e+000  1.000000e+000
    outer loop
      vertex  2.600000e+002  3.000000e+001  4.500000e+001
      vertex  2.300000e+002  3.000000e+001  4.500000e+001
      vertex  2.450673e+002  2.474952e+001  4.500000e+001
    endloop
  endfacet
  facet normal  -0.000000e+000  0.000000e+000  1.000000e+000
    outer loop
      vertex  2.600000e+002  3.000000e+001  4.500000e+001
      vertex  2.450673e+002  2.474952e+001  4.500000e+001
      vertex  2.474522e+002  2.406805e+001  4.500000e+001
    endloop
  endfacet
  facet normal  -0.000000e+000  0.000000e+000  1.000000e+000
    outer loop
      vertex  2.600000e+002  3.000000e+001  4.500000e+001
      vertex  2.474522e+002  2.406805e+001  4.500000e+001
      vertex  2.491685e+002  2.227727e+001  4.500000e+001
    endloop
  endfacet
  facet normal  -0.000000e+000  0.000000e+000  1.000000e+000
    outer loop
      vertex  2.600000e+002  3.000000e+001  4.500000e+001
      vertex  2.491685e+002  2.227727e+001  4.500000e+001
      vertex  2.497500e+002  2.000000e+001  4.500000e+001
    endloop
  endfacet
  facet normal  -0.000000e+000  0.000000e+000  1.000000e+000
    outer loop
      vertex  2.600000e+002  3.000000e+001  4.500000e+001
      vertex  2.497500e+002  2.000000e+001  4.500000e+001
      vertex  2.497500e+002  0.000000e+000  4.500000e+001
    endloop
  endfacet
  facet normal  0.000000e+000  0.000000e+000  1.000000e+000
    outer loop
      vertex  2.600000e+002  3.000000e+001  4.500000e+001
      vertex  2.497500e+002  0.000000e+000  4.500000e+001
      vertex  2.600000e+002  0.000000e+000  4.500000e+001
    endloop
  endfacet
  facet normal  0.000000e+000  0.000000e+000  1.000000e+000
    outer loop
      vertex  2.300000e+002  3.000000e+001  4.500000e+001
      vertex  2.300000e+002  0.000000e+000  4.500000e+001
      vertex  2.402500e+002  0.000000e+000  4.500000e+001
    endloop
  endfacet
  facet normal  0.000000e+000  -0.000000e+000  1.000000e+000
    outer loop
      vertex  2.300000e+002  3.000000e+001  4.500000e+001
      vertex  2.402500e+002  0.000000e+000  4.500000e+001
      vertex  2.402500e+002  2.000000e+001  4.500000e+001
    endloop
  endfacet
  facet normal  0.000000e+000  -0.000000e+000  9.999999e-001
    outer loop
      vertex  2.300000e+002  3.000000e+001  4.500000e+001
      vertex  2.402500e+002  2.000000e+001  4.500000e+001
      vertex  2.408976e+002  2.239439e+001  4.500000e+001
    endloop
  endfacet
  facet normal  0.000000e+000  -0.000000e+000  1.000000e+000
    outer loop
      vertex  2.300000e+002  3.000000e+001  4.500000e+001
      vertex  2.408976e+002  2.239439e+001  4.500000e+001
      vertex  2.426639e+002  2.413586e+001  4.500000e+001
    endloop
  endfacet
  facet normal  0.000000e+000  -0.000000e+000  1.000000e+000
    outer loop
      vertex  2.300000e+002  3.000000e+001  4.500000e+001
      vertex  2.426639e+002  2.413586e+001  4.500000e+001
      vertex  2.450673e+002  2.474952e+001  4.500000e+001
    endloop
  endfacet
  facet normal  1.000000e+000  0.000000e+000  0.000000e+000
    outer loop
      vertex  2.402500e+002  0.000000e+000  4.400000e+001
      vertex  2.402500e+002  2.000000e+001  4.400000e+001
      vertex  2.402500e+002  0.000000e+000  4.500000e+001
    endloop
  endfacet
  facet normal  1.000000e+000  -0.000000e+000  0.000000e+000
    outer loop
      vertex  2.402500e+002  0.000000e+000  4.500000e+001
      vertex  2.402500e+002  2.000000e+001  4.400000e+001
      vertex  2.402500e+002  2.000000e+001  4.500000e+001
    endloop
  endfacet
  facet normal  0.000000e+000  0.000000e+000 -1.000000e+000
    outer loop
      vertex  2.512500e+002  0.000000e+000  4.400000e+001
      vertex  2.497500e+002  0.000000e+000  4.400000e+001
      vertex  2.512500e+002  2.000000e+001  4.400000e+001
    endloop
  endfacet
  facet normal  -0.000000e+000  0.000000e+000 -1.000000e+000
    outer loop
      vertex  2.512500e+002  2.000000e+001  4.400000e+001
      vertex  2.497500e+002  0.000000e+000  4.400000e+001
      vertex  2.497500e+002  2.000000e+001  4.400000e+001
    endloop
  endfacet
  facet normal  0.000000e+000  0.000000e+000 -1.000000e+000
    outer loop
      vertex  2.512500e+002  2.000000e+001  4.400000e+001
      vertex  2.497500e+002  2.000000e+001  4.400000e+001
      vertex  2.504849e+002  2.299641e+001  4.400000e+001
    endloop
  endfacet
  facet normal  0.000000e+000  0.000000e+000 -9.999999e-001
    outer loop
      vertex  2.504849e+002  2.299641e+001  4.400000e+001
      vertex  2.497500e+002  2.000000e+001  4.400000e+001
      vertex  2.491685e+002  2.227727e+001  4.400000e+001
    endloop
  endfacet
  facet normal  0.000000e+000  0.000000e+000 -1.000000e+000
    outer loop
      vertex  2.504849e+002  2.299641e+001  4.400000e+001
      vertex  2.491685e+002  2.227727e+001  4.400000e+001
      vertex  2.486848e+002  2.504822e+001  4.400000e+001
    endloop
  endfacet
  facet normal  0.000000e+000  -0.000000e+000 -1.000000e+000
    outer loop
      vertex  2.486848e+002  2.504822e+001  4.400000e+001
      vertex  2.491685e+002  2.227727e+001  4.400000e+001
      vertex  2.474522e+002  2.406805e+001  4.400000e+001
    endloop
  endfacet
  facet normal  0.000000e+000  0.000000e+000 -1.000000e+000
    outer loop
      vertex  2.486848e+002  2.504822e+001  4.400000e+001
      vertex  2.474522e+002  2.406805e+001  4.400000e+001
      vertex  2.450673e+002  2.474952e+001  4.400000e+001
    endloop
  endfacet
  facet normal  0.000000e+000  0.000000e+000 -1.000000e+000
    outer loop
      vertex  2.434537e+002  2.605570e+001  4.400000e+001
      vertex  2.461820e+002  2.613721e+001  4.400000e+001
      vertex  2.410204e+002  2.481923e+001  4.400000e+001
    endloop
  endfacet
  facet normal  0.000000e+000  0.000000e+000 -9.999999e-001
    outer loop
      vertex  2.410204e+002  2.481923e+001  4.400000e+001
      vertex  2.461820e+002  2.613721e+001  4.400000e+001
      vertex  2.486848e+002  2.504822e+001  4.400000e+001
    endloop
  endfacet
  facet normal  0.000000e+000  0.000000e+000 -1.000000e+000
    outer loop
      vertex  2.410204e+002  2.481923e+001  4.400000e+001
      vertex  2.486848e+002  2.504822e+001  4.400000e+001
      vertex  2.450673e+002  2.474952e+001  4.400000e+001
    endloop
  endfacet
  facet normal  0.000000e+000  0.000000e+000 -1.000000e+000
    outer loop
      vertex  2.402500e+002  0.000000e+000  4.400000e+001
      vertex  2.387500e+002  0.000000e+000  4.400000e+001
      vertex  2.402500e+002  2.000000e+001  4.400000e+001
    endloop
  endfacet
  facet normal  -0.000000e+000  0.000000e+000 -1.000000e+000
    outer loop
      vertex  2.402500e+002  2.000000e+001  4.400000e+001
      vertex  2.387500e+002  0.000000e+000  4.400000e+001
      vertex  2.387500e+002  2.000000e+001  4.400000e+001
    endloop
  endfacet
  facet normal  0.000000e+000  0.000000e+000 -1.000000e+000
    outer loop
      vertex  2.402500e+002  2.000000e+001  4.400000e+001
      vertex  2.387500e+002  2.000000e+001  4.400000e+001
      vertex  2.408976e+002  2.239439e+001  4.400000e+001
    endloop
  endfacet
  facet normal  -0.000000e+000  0.000000e+000 -1.000000e+000
    outer loop
      vertex  2.408976e+002  2.239439e+001  4.400000e+001
      vertex  2.387500e+002  2.000000e+001  4.400000e+001
      vertex  2.393460e+002  2.266362e+001  4.400000e+001
    endloop
  endfacet
  facet normal  0.000000e+000  0.000000e+000 -9.999999e-001
    outer loop
      vertex  2.408976e+002  2.239439e+001  4.400000e+001
      vertex  2.393460e+002  2.266362e+001  4.400000e+001
      vertex  2.426639e+002  2.413586e+001  4.400000e+001
    endloop
  endfacet
  facet normal  -0.000000e+000  0.000000e+000 -1.000000e+000
    outer loop
      vertex  2.426639e+002  2.413586e+001  4.400000e+001
      vertex  2.393460e+002  2.266362e+001  4.400000e+001
      vertex  2.410204e+002  2.481923e+001  4.400000e+001
    endloop
  endfacet
  facet normal  0.000000e+000  0.000000e+000 -1.000000e+000
    outer loop
      vertex  2.426639e+002  2.413586e+001  4.400000e+001
      vertex  2.410204e+002  2.481923e+001  4.400000e+001
      vertex  2.450673e+002  2.474952e+001  4.400000e+001
    endloop
  endfacet
  facet normal  1.000000e+000  0.000000e+000  0.000000e+000
    outer loop
      vertex  2.387500e+002  2.000000e+001  4.300000e+001
      vertex  2.387500e+002  2.000000e+001  4.400000e+001
      vertex  2.387500e+002  0.000000e+000  4.300000e+001
    endloop
  endfacet
  facet normal  1.000000e+000  0.000000e+000  0.000000e+000
    outer loop
      vertex  2.387500e+002  0.000000e+000  4.300000e+001
      vertex  2.387500e+002  2.000000e+001  4.400000e+001
      vertex  2.387500e+002  0.000000e+000  4.400000e+001
    endloop
  endfacet
  facet normal -1.000000e+000  -0.000000e+000  0.000000e+000
    outer loop
      vertex  2.497500e+002  2.131628e-014  4.300000e+001
      vertex  2.497500e+002  2.000000e+001  4.300000e+001
      vertex  2.497500e+002  0.000000e+000  4.200000e+001
    endloop
  endfacet
  facet normal -1.000000e+000  0.000000e+000  0.000000e+000
    outer loop
      vertex  2.497500e+002  0.000000e+000  4.200000e+001
      vertex  2.497500e+002  2.000000e+001  4.300000e+001
      vertex  2.497500e+002  2.000000e+001  4.200000e+001
    endloop
  endfacet
  facet normal -1.000000e+000  0.000000e+000  0.000000e+000
    outer loop
      vertex  2.512500e+002  2.000000e+001  4.400000e+001
      vertex  2.512500e+002  2.000000e+001  4.300000e+001
      vertex  2.512500e+002  0.000000e+000  4.400000e+001
    endloop
  endfacet
  facet normal -1.000000e+000  0.000000e+000  0.000000e+000
    outer loop
      vertex  2.512500e+002  0.000000e+000  4.400000e+001
      vertex  2.512500e+002  2.000000e+001  4.300000e+001
      vertex  2.512500e+002  0.000000e+000  4.300000e+001
    endloop
  endfacet
  facet normal -1.000000e+000  -0.000000e+000  0.000000e+000
    outer loop
      vertex  2.497500e+002  0.000000e+000  4.500000e+001
      vertex  2.497500e+002  2.000000e+001  4.500000e+001
      vertex  2.497500e+002  0.000000e+000  4.400000e+001
    endloop
  endfacet
  facet normal -1.000000e+000  0.000000e+000  0.000000e+000
    outer loop
      vertex  2.497500e+002  0.000000e+000  4.400000e+001
      vertex  2.497500e+002  2.000000e+001  4.500000e+001
      vertex  2.497500e+002  2.000000e+001  4.400000e+001
    endloop
  endfacet
  facet normal  4.530064e-001 -8.915073e-001  0.000000e+000
    outer loop
      vertex  2.434537e+002  2.605570e+001  4.300000e+001
      vertex  2.410204e+002  2.481923e+001  4.400000e+001
      vertex  2.410204e+002  2.481923e+001  4.300000e+001
    endloop
  endfacet
  facet normal  7.897467e-001 -6.134331e-001  0.000000e+000
    outer loop
      vertex  2.410204e+002  2.481923e+001  4.300000e+001
      vertex  2.410204e+002  2.481923e+001  4.400000e+001
      vertex  2.393460e+002  2.266362e+001  4.400000e+001
    endloop
  endfacet
  facet normal  7.897467e-001 -6.134331e-001  0.000000e+000
    outer loop
      vertex  2.410204e+002  2.481923e+001  4.300000e+001
      vertex  2.393460e+002  2.266362e+001  4.400000e+001
      vertex  2.393460e+002  2.266362e+001  4.300000e+001
    endloop
  endfacet
  facet normal  9.758685e-001 -2.183590e-001  0.000000e+000
    outer loop
      vertex  2.393460e+002  2.266362e+001  4.300000e+001
      vertex  2.393460e+002  2.266362e+001  4.400000e+001
      vertex  2.387500e+002  2.000000e+001  4.400000e+001
    endloop
  endfacet
  facet normal  9.758685e-001 -2.183590e-001  0.000000e+000
    outer loop
      vertex  2.393460e+002  2.266362e+001  4.300000e+001
      vertex  2.387500e+002  2.000000e+001  4.400000e+001
      vertex  2.387500e+002  2.000000e+001  4.300000e+001
    endloop
  endfacet
  facet normal  4.530064e-001 -8.915073e-001  0.000000e+000
    outer loop
      vertex  2.410204e+002  2.481923e+001  4.400000e+001
      vertex  2.434537e+002  2.605570e+001  4.300000e+001
      vertex  2.434537e+002  2.605570e+001  4.400000e+001
    endloop
  endfacet
  facet normal  2.986293e-002 -9.995540e-001  0.000000e+000
    outer loop
      vertex  2.434537e+002  2.605570e+001  4.400000e+001
      vertex  2.434537e+002  2.605570e+001  4.300000e+001
      vertex  2.461820e+002  2.613721e+001  4.300000e+001
    endloop
  endfacet
  facet normal  2.986293e-002 -9.995540e-001  0.000000e+000
    outer loop
      vertex  2.434537e+002  2.605570e+001  4.400000e+001
      vertex  2.461820e+002  2.613721e+001  4.300000e+001
      vertex  2.461820e+002  2.613721e+001  4.400000e+001
    endloop
  endfacet
  facet normal -3.989745e-001 -9.169620e-001  -0.000000e+000
    outer loop
      vertex  2.461820e+002  2.613721e+001  4.400000e+001
      vertex  2.461820e+002  2.613721e+001  4.300000e+001
      vertex  2.486848e+002  2.504822e+001  4.300000e+001
    endloop
  endfacet
  facet normal -3.989745e-001 -9.169620e-001  0.000000e+000
    outer loop
      vertex  2.461820e+002  2.613721e+001  4.400000e+001
      vertex  2.486848e+002  2.504822e+001  4.300000e+001
      vertex  2.486848e+002  2.504822e+001  4.400000e+001
    endloop
  endfacet
  facet normal -7.517165e-001 -6.594864e-001  -0.000000e+000
    outer loop
      vertex  2.486848e+002  2.504822e+001  4.400000e+001
      vertex  2.486848e+002  2.504822e+001  4.300000e+001
      vertex  2.504849e+002  2.299641e+001  4.300000e+001
    endloop
  endfacet
  facet normal -7.517165e-001 -6.594864e-001  0.000000e+000
    outer loop
      vertex  2.486848e+002  2.504822e+001  4.400000e+001
      vertex  2.504849e+002  2.299641e+001  4.300000e+001
      vertex  2.504849e+002  2.299641e+001  4.400000e+001
    endloop
  endfacet
  facet normal -9.689127e-001 -2.474031e-001  0.000000e+000
    outer loop
      vertex  2.512500e+002  2.000000e+001  4.400000e+001
      vertex  2.504849e+002  2.299641e+001  4.400000e+001
      vertex  2.512500e+002  2.000000e+001  4.300000e+001
    endloop
  endfacet
  facet normal -9.689127e-001 -2.474031e-001  0.000000e+000
    outer loop
      vertex  2.512500e+002  2.000000e+001  4.300000e+001
      vertex  2.504849e+002  2.299641e+001  4.400000e+001
      vertex  2.504849e+002  2.299641e+001  4.300000e+001
    endloop
  endfacet
  facet normal  7.020813e-001 -7.120969e-001  0.000000e+000
    outer loop
      vertex  2.426639e+002  2.413586e+001  4.400000e+001
      vertex  2.408976e+002  2.239439e+001  4.500000e+001
      vertex  2.408976e+002  2.239439e+001  4.400000e+001
    endloop
  endfacet
  facet normal  9.653129e-001 -2.610957e-001  0.000000e+000
    outer loop
      vertex  2.408976e+002  2.239439e+001  4.400000e+001
      vertex  2.408976e+002  2.239439e+001  4.500000e+001
      vertex  2.402500e+002  2.000000e+001  4.500000e+001
    endloop
  endfacet
  facet normal  9.653129e-001 -2.610957e-001  0.000000e+000
    outer loop
      vertex  2.408976e+002  2.239439e+001  4.400000e+001
      vertex  2.402500e+002  2.000000e+001  4.500000e+001
      vertex  2.402500e+002  2.000000e+001  4.400000e+001
    endloop
  endfacet
  facet normal  7.020813e-001 -7.120969e-001  0.000000e+000
    outer loop
      vertex  2.408976e+002  2.239439e+001  4.500000e+001
      vertex  2.426639e+002  2.413586e+001  4.400000e+001
      vertex  2.426639e+002  2.413586e+001  4.500000e+001
    endloop
  endfacet
  facet normal  2.474032e-001 -9.689126e-001  0.000000e+000
    outer loop
      vertex  2.426639e+002  2.413586e+001  4.500000e+001
      vertex  2.426639e+002  2.413586e+001  4.400000e+001
      vertex  2.450673e+002  2.474952e+001  4.400000e+001
    endloop
  endfacet
  facet normal  2.474032e-001 -9.689126e-001  0.000000e+000
    outer loop
      vertex  2.426639e+002  2.413586e+001  4.500000e+001
      vertex  2.450673e+002  2.474952e+001  4.400000e+001
      vertex  2.450673e+002  2.474952e+001  4.500000e+001
    endloop
  endfacet
  facet normal -2.747391e-001 -9.615188e-001  -0.000000e+000
    outer loop
      vertex  2.450673e+002  2.474952e+001  4.500000e+001
      vertex  2.450673e+002  2.474952e+001  4.400000e+001
      vertex  2.474522e+002  2.406805e+001  4.400000e+001
    endloop
  endfacet
  facet normal -2.747391e-001 -9.615188e-001  0.000000e+000
    outer loop
      vertex  2.450673e+002  2.474952e+001  4.500000e+001
      vertex  2.474522e+002  2.406805e+001  4.400000e+001
      vertex  2.474522e+002  2.406805e+001  4.500000e+001
    endloop
  endfacet
  facet normal -7.219654e-001 -6.919290e-001  -0.000000e+000
    outer loop
      vertex  2.474522e+002  2.406805e+001  4.500000e+001
      vertex  2.474522e+002  2.406805e+001  4.400000e+001
      vertex  2.491685e+002  2.227727e+001  4.400000e+001
    endloop
  endfacet
  facet normal -7.219654e-001 -6.919290e-001  0.000000e+000
    outer loop
      vertex  2.474522e+002  2.406805e+001  4.500000e+001
      vertex  2.491685e+002  2.227727e+001  4.400000e+001
      vertex  2.491685e+002  2.227727e+001  4.500000e+001
    endloop
  endfacet
  facet normal -9.689124e-001 -2.474036e-001  0.000000e+000
    outer loop
      vertex  2.497500e+002  2.000000e+001  4.500000e+001
      vertex  2.491685e+002  2.227727e+001  4.500000e+001
      vertex  2.497500e+002  2.000000e+001  4.400000e+001
    endloop
  endfacet
  facet normal -9.689124e-001 -2.474036e-001  0.000000e+000
    outer loop
      vertex  2.497500e+002  2.000000e+001  4.400000e+001
      vertex  2.491685e+002  2.227727e+001  4.500000e+001
      vertex  2.491685e+002  2.227727e+001  4.400000e+001
    endloop
  endfacet
  facet normal  0.000000e+000  0.000000e+000 -1.000000e+000
    outer loop
      vertex  2.497500e+002  0.000000e+000  4.200000e+001
      vertex  2.497500e+002  2.000000e+001  4.200000e+001
      vertex  2.512500e+002  0.000000e+000  4.200000e+001
    endloop
  endfacet
  facet normal  0.000000e+000  0.000000e+000 -1.000000e+000
    outer loop
      vertex  2.512500e+002  0.000000e+000  4.200000e+001
      vertex  2.497500e+002  2.000000e+001  4.200000e+001
      vertex  2.512500e+002  2.000000e+001  4.200000e+001
    endloop
  endfacet
  facet normal  1.000000e+000  0.000000e+000  0.000000e+000
    outer loop
      vertex  2.402500e+002 -1.421085e-014  4.200000e+001
      vertex  2.402500e+002  2.000000e+001  4.200000e+001
      vertex  2.402500e+002  0.000000e+000  4.300000e+001
    endloop
  endfacet
  facet normal  1.000000e+000  -0.000000e+000  0.000000e+000
    outer loop
      vertex  2.402500e+002  0.000000e+000  4.300000e+001
      vertex  2.402500e+002  2.000000e+001  4.200000e+001
      vertex  2.402500e+002  2.000000e+001  4.300000e+001
    endloop
  endfacet
  facet normal  0.000000e+000  -0.000000e+000  1.000000e+000
    outer loop
      vertex  2.450673e+002  2.474952e+001  4.300000e+001
      vertex  2.474522e+002  2.406805e+001  4.300000e+001
      vertex  2.486848e+002  2.504822e+001  4.300000e+001
    endloop
  endfacet
  facet normal  0.000000e+000  0.000000e+000  1.000000e+000
    outer loop
      vertex  2.486848e+002  2.504822e+001  4.300000e+001
      vertex  2.474522e+002  2.406805e+001  4.300000e+001
      vertex  2.491685e+002  2.227727e+001  4.300000e+001
    endloop
  endfacet
  facet normal  0.000000e+000  -0.000000e+000  1.000000e+000
    outer loop
      vertex  2.486848e+002  2.504822e+001  4.300000e+001
      vertex  2.491685e+002  2.227727e+001  4.300000e+001
      vertex  2.504849e+002  2.299641e+001  4.300000e+001
    endloop
  endfacet
  facet normal  0.000000e+000  0.000000e+000  9.999999e-001
    outer loop
      vertex  2.504849e+002  2.299641e+001  4.300000e+001
      vertex  2.491685e+002  2.227727e+001  4.300000e+001
      vertex  2.497500e+002  2.000000e+001  4.300000e+001
    endloop
  endfacet
  facet normal  0.000000e+000  0.000000e+000  1.000000e+000
    outer loop
      vertex  2.504849e+002  2.299641e+001  4.300000e+001
      vertex  2.497500e+002  2.000000e+001  4.300000e+001
      vertex  2.512500e+002  2.000000e+001  4.300000e+001
    endloop
  endfacet
  facet normal  0.000000e+000  0.000000e+000  1.000000e+000
    outer loop
      vertex  2.512500e+002  2.000000e+001  4.300000e+001
      vertex  2.497500e+002  2.000000e+001  4.300000e+001
      vertex  2.497500e+002  2.131628e-014  4.300000e+001
    endloop
  endfacet
  facet normal  -0.000000e+000  0.000000e+000  1.000000e+000
    outer loop
      vertex  2.512500e+002  2.000000e+001  4.300000e+001
      vertex  2.497500e+002  2.131628e-014  4.300000e+001
      vertex  2.512500e+002  0.000000e+000  4.300000e+001
    endloop
  endfacet
  facet normal  0.000000e+000  0.000000e+000  1.000000e+000
    outer loop
      vertex  2.450673e+002  2.474952e+001  4.300000e+001
      vertex  2.410204e+002  2.481923e+001  4.300000e+001
      vertex  2.426639e+002  2.413586e+001  4.300000e+001
    endloop
  endfacet
  facet normal  0.000000e+000  0.000000e+000  1.000000e+000
    outer loop
      vertex  2.426639e+002  2.413586e+001  4.300000e+001
      vertex  2.410204e+002  2.481923e+001  4.300000e+001
      vertex  2.393460e+002  2.266362e+001  4.300000e+001
    endloop
  endfacet
  facet normal  -0.000000e+000  0.000000e+000  9.999999e-001
    outer loop
      vertex  2.426639e+002  2.413586e+001  4.300000e+001
      vertex  2.393460e+002  2.266362e+001  4.300000e+001
      vertex  2.408976e+002  2.239439e+001  4.300000e+001
    endloop
  endfacet
  facet normal  0.000000e+000  0.000000e+000  1.000000e+000
    outer loop
      vertex  2.408976e+002  2.239439e+001  4.300000e+001
      vertex  2.393460e+002  2.266362e+001  4.300000e+001
      vertex  2.387500e+002  2.000000e+001  4.300000e+001
    endloop
  endfacet
  facet normal  0.000000e+000  0.000000e+000  1.000000e+000
    outer loop
      vertex  2.408976e+002  2.239439e+001  4.300000e+001
      vertex  2.387500e+002  2.000000e+001  4.300000e+001
      vertex  2.402500e+002  2.000000e+001  4.300000e+001
    endloop
  endfacet
  facet normal  0.000000e+000  0.000000e+000  1.000000e+000
    outer loop
      vertex  2.402500e+002  2.000000e+001  4.300000e+001
      vertex  2.387500e+002  2.000000e+001  4.300000e+001
      vertex  2.387500e+002  0.000000e+000  4.300000e+001
    endloop
  endfacet
  facet normal  0.000000e+000  0.000000e+000  1.000000e+000
    outer loop
      vertex  2.402500e+002  2.000000e+001  4.300000e+001
      vertex  2.387500e+002  0.000000e+000  4.300000e+001
      vertex  2.402500e+002  0.000000e+000  4.300000e+001
    endloop
  endfacet
  facet normal  -0.000000e+000  0.000000e+000  1.000000e+000
    outer loop
      vertex  2.461820e+002  2.613721e+001  4.300000e+001
      vertex  2.434537e+002  2.605570e+001  4.300000e+001
      vertex  2.486848e+002  2.504822e+001  4.300000e+001
    endloop
  endfacet
  facet normal  0.000000e+000  0.000000e+000  1.000000e+000
    outer loop
      vertex  2.486848e+002  2.504822e+001  4.300000e+001
      vertex  2.434537e+002  2.605570e+001  4.300000e+001
      vertex  2.410204e+002  2.481923e+001  4.300000e+001
    endloop
  endfacet
  facet normal  -0.000000e+000  0.000000e+000  1.000000e+000
    outer loop
      vertex  2.486848e+002  2.504822e+001  4.300000e+001
      vertex  2.410204e+002  2.481923e+001  4.300000e+001
      vertex  2.450673e+002  2.474952e+001  4.300000e+001
    endloop
  endfacet
  facet normal  0.000000e+000  1.000000e+000  0.000000e+000
    outer loop
      vertex  1.600000e+002  1.000000e+001  4.000000e+000
      vertex  1.300000e+002  1.000000e+001  4.000000e+000
      vertex  1.600000e+002  1.000000e+001  1.400000e+001
    endloop
  endfacet
  facet normal  0.000000e+000  1.000000e+000  0.000000e+000
    outer loop
      vertex  1.600000e+002  1.000000e+001  1.400000e+001
      vertex  1.300000e+002  1.000000e+001  4.000000e+000
      vertex  1.300000e+002  1.000000e+001  1.400000e+001
    endloop
  endfacet
  facet normal  1.000000e+000  -0.000000e+000  0.000000e+000
    outer loop
      vertex  2.387500e+002  2.000000e+001  4.200000e+001
      vertex  2.387500e+002  0.000000e+000  4.200000e+001
      vertex  2.387500e+002  2.000000e+001  1.400000e+001
    endloop
  endfacet
  facet normal  1.000000e+000  0.000000e+000  0.000000e+000
    outer loop
      vertex  2.387500e+002  2.000000e+001  1.400000e+001
      vertex  2.387500e+002  0.000000e+000  4.200000e+001
      vertex  2.387500e+002  1.000000e+001  1.400000e+001
    endloop
  endfacet
  facet normal  1.000000e+000  0.000000e+000  0.000000e+000
    outer loop
      vertex  2.387500e+002  0.000000e+000  4.200000e+001
      vertex  2.387500e+002  0.000000e+000  4.000000e+000
      vertex  2.387500e+002  1.000000e+001  1.400000e+001
    endloop
  endfacet
  facet normal  1.000000e+000  0.000000e+000  0.000000e+000
    outer loop
      vertex  2.387500e+002  1.000000e+001  1.400000e+001
      vertex  2.387500e+002  0.000000e+000  4.000000e+000
      vertex  2.387500e+002  1.000000e+001  4.000000e+000
    endloop
  endfacet
  facet normal  -0.000000e+000  0.000000e+000  1.000000e+000
    outer loop
      vertex  2.300000e+002  2.400000e+001  1.800000e+001
      vertex  1.800000e+002  1.900000e+001  1.800000e+001
      vertex  2.300000e+002  6.000000e+000  1.800000e+001
    endloop
  endfacet
  facet normal  0.000000e+000  0.000000e+000  1.000000e+000
    outer loop
      vertex  2.300000e+002  6.000000e+000  1.800000e+001
      vertex  1.800000e+002  1.900000e+001  1.800000e+001
      vertex  1.800000e+002  9.000000e+000  1.800000e+001
    endloop
  endfacet
  facet normal  0.000000e+000  0.000000e+000  1.000000e+000
    outer loop
      vertex  2.300000e+002  6.000000e+000  1.800000e+001
      vertex  1.800000e+002  9.000000e+000  1.800000e+001
      vertex  1.300000e+002  6.000000e+000  1.800000e+001
    endloop
  endfacet
  facet normal  0.000000e+000  0.000000e+000  1.000000e+000
    outer loop
      vertex  1.300000e+002  6.000000e+000  1.800000e+001
      vertex  1.800000e+002  9.000000e+000  1.800000e+001
      vertex  1.600000e+002  9.000000e+000  1.800000e+001
    endloop
  endfacet
  facet normal  0.000000e+000  0.000000e+000  1.000000e+000
    outer loop
      vertex  1.300000e+002  6.000000e+000  1.800000e+001
      vertex  1.600000e+002  9.000000e+000  1.800000e+001
      vertex  1.300000e+002  2.400000e+001  1.800000e+001
    endloop
  endfacet
  facet normal  0.000000e+000  0.000000e+000  1.000000e+000
    outer loop
      vertex  1.300000e+002  2.400000e+001  1.800000e+001
      vertex  1.600000e+002  9.000000e+000  1.800000e+001
      vertex  1.600000e+002  1.900000e+001  1.800000e+001
    endloop
  endfacet
  facet normal  0.000000e+000  -0.000000e+000  1.000000e+000
    outer loop
      vertex  1.300000e+002  2.400000e+001  1.800000e+001
      vertex  1.600000e+002  1.900000e+001  1.800000e+001
      vertex  2.300000e+002  2.400000e+001  1.800000e+001
    endloop
  endfacet
  facet normal  0.000000e+000  0.000000e+000  1.000000e+000
    outer loop
      vertex  2.300000e+002  2.400000e+001  1.800000e+001
      vertex  1.600000e+002  1.900000e+001  1.800000e+001
      vertex  1.800000e+002  1.900000e+001  1.800000e+001
    endloop
  endfacet
  facet normal  0.000000e+000  1.000000e+000  0.000000e+000
    outer loop
      vertex  2.387500e+002  1.000000e+001  4.000000e+000
      vertex  1.800000e+002  1.000000e+001  4.000000e+000
      vertex  2.387500e+002  1.000000e+001  1.400000e+001
    endloop
  endfacet
  facet normal  0.000000e+000  1.000000e+000  0.000000e+000
    outer loop
      vertex  2.387500e+002  1.000000e+001  1.400000e+001
      vertex  1.800000e+002  1.000000e+001  4.000000e+000
      vertex  1.800000e+002  1.000000e+001  1.400000e+001
    endloop
  endfacet
  facet normal  0.000000e+000  1.000000e+000  -0.000000e+000
    outer loop
      vertex  2.300000e+002  2.400000e+001  1.800000e+001
      vertex  2.300000e+002  2.400000e+001  0.000000e+000
      vertex  1.300000e+002  2.400000e+001  1.800000e+001
    endloop
  endfacet
  facet normal  0.000000e+000  1.000000e+000  0.000000e+000
    outer loop
      vertex  1.300000e+002  2.400000e+001  1.800000e+001
      vertex  2.300000e+002  2.400000e+001  0.000000e+000
      vertex  1.300000e+002  2.400000e+001 -4.440892e-016
    endloop
  endfacet
  facet normal -1.000000e+000  0.000000e+000  -0.000000e+000
    outer loop
      vertex  1.800000e+002  9.000000e+000  0.000000e+000
      vertex  1.800000e+002  1.900000e+001  4.000000e+000
      vertex  1.800000e+002  1.900000e+001  0.000000e+000
    endloop
  endfacet
  facet normal -1.000000e+000  0.000000e+000  0.000000e+000
    outer loop
      vertex  1.800000e+002  1.900000e+001  4.000000e+000
      vertex  1.800000e+002  9.000000e+000  0.000000e+000
      vertex  1.800000e+002  1.000000e+001  4.000000e+000
    endloop
  endfacet
  facet normal -1.000000e+000  -0.000000e+000  0.000000e+000
    outer loop
      vertex  1.800000e+002  1.000000e+001  4.000000e+000
      vertex  1.800000e+002  9.000000e+000  0.000000e+000
      vertex  1.800000e+002  9.000000e+000  1.800000e+001
    endloop
  endfacet
  facet normal -1.000000e+000  0.000000e+000  0.000000e+000
    outer loop
      vertex  1.800000e+002  1.000000e+001  4.000000e+000
      vertex  1.800000e+002  9.000000e+000  1.800000e+001
      vertex  1.800000e+002  1.000000e+001  1.400000e+001
    endloop
  endfacet
  facet normal -1.000000e+000  0.000000e+000  0.000000e+000
    outer loop
      vertex  1.800000e+002  1.000000e+001  1.400000e+001
      vertex  1.800000e+002  9.000000e+000  1.800000e+001
      vertex  1.800000e+002  1.900000e+001  1.800000e+001
    endloop
  endfacet
  facet normal -1.000000e+000  0.000000e+000  -0.000000e+000
    outer loop
      vertex  1.800000e+002  1.000000e+001  1.400000e+001
      vertex  1.800000e+002  1.900000e+001  1.800000e+001
      vertex  1.800000e+002  1.900000e+001  1.400000e+001
    endloop
  endfacet
  facet normal  0.000000e+000  0.000000e+000 -1.000000e+000
    outer loop
      vertex  2.300000e+002  2.400000e+001  0.000000e+000
      vertex  2.300000e+002  3.000000e+001  0.000000e+000
      vertex  2.600000e+002  3.000000e+001  0.000000e+000
    endloop
  endfacet
  facet normal  0.000000e+000  0.000000e+000 -1.000000e+000
    outer loop
      vertex  2.300000e+002  2.400000e+001  0.000000e+000
      vertex  2.600000e+002  3.000000e+001  0.000000e+000
      vertex  2.300000e+002  6.000000e+000  0.000000e+000
    endloop
  endfacet
  facet normal  0.000000e+000  0.000000e+000 -1.000000e+000
    outer loop
      vertex  2.300000e+002  2.400000e+001  0.000000e+000
      vertex  2.300000e+002  6.000000e+000  0.000000e+000
      vertex  1.800000e+002  1.900000e+001  0.000000e+000
    endloop
  endfacet
  facet normal  0.000000e+000  0.000000e+000 -1.000000e+000
    outer loop
      vertex  2.300000e+002  2.400000e+001  0.000000e+000
      vertex  1.800000e+002  1.900000e+001  0.000000e+000
      vertex  1.600000e+002  1.900000e+001  0.000000e+000
    endloop
  endfacet
  facet normal  4.440892e-018 -6.217249e-017 -1.000000e+000
    outer loop
      vertex  2.300000e+002  2.400000e+001  0.000000e+000
      vertex  1.600000e+002  1.900000e+001  0.000000e+000
      vertex  1.300000e+002  2.400000e+001 -4.440892e-016
    endloop
  endfacet
  facet normal  1.069104e-017 -2.467162e-017 -1.000000e+000
    outer loop
      vertex  1.300000e+002  2.400000e+001 -4.440892e-016
      vertex  1.600000e+002  1.900000e+001  0.000000e+000
      vertex  1.300000e+002  6.000000e+000  0.000000e+000
    endloop
  endfacet
  facet normal  0.000000e+000  0.000000e+000 -1.000000e+000
    outer loop
      vertex  1.300000e+002  6.000000e+000  0.000000e+000
      vertex  1.600000e+002  1.900000e+001  0.000000e+000
      vertex  1.600000e+002  9.000000e+000  0.000000e+000
    endloop
  endfacet
  facet normal  0.000000e+000  -0.000000e+000 -1.000000e+000
    outer loop
      vertex  1.300000e+002  6.000000e+000  0.000000e+000
      vertex  1.600000e+002  9.000000e+000  0.000000e+000
      vertex  2.300000e+002  6.000000e+000  0.000000e+000
    endloop
  endfacet
  facet normal  0.000000e+000  0.000000e+000 -1.000000e+000
    outer loop
      vertex  2.300000e+002  6.000000e+000  0.000000e+000
      vertex  1.600000e+002  9.000000e+000  0.000000e+000
      vertex  1.800000e+002  9.000000e+000  0.000000e+000
    endloop
  endfacet
  facet normal  0.000000e+000  0.000000e+000 -1.000000e+000
    outer loop
      vertex  2.300000e+002  6.000000e+000  0.000000e+000
      vertex  1.800000e+002  9.000000e+000  0.000000e+000
      vertex  1.800000e+002  1.900000e+001  0.000000e+000
    endloop
  endfacet
  facet normal  0.000000e+000  0.000000e+000 -1.000000e+000
    outer loop
      vertex  2.600000e+002  0.000000e+000  0.000000e+000
      vertex  2.300000e+002  0.000000e+000  0.000000e+000
      vertex  2.600000e+002  3.000000e+001  0.000000e+000
    endloop
  endfacet
  facet normal  0.000000e+000  0.000000e+000 -1.000000e+000
    outer loop
      vertex  2.600000e+002  3.000000e+001  0.000000e+000
      vertex  2.300000e+002  0.000000e+000  0.000000e+000
      vertex  2.300000e+002  6.000000e+000  0.000000e+000
    endloop
  endfacet
  facet normal  0.000000e+000 -1.000000e+000  -0.000000e+000
    outer loop
      vertex  1.800000e+002  1.900000e+001  0.000000e+000
      vertex  1.800000e+002  1.900000e+001  4.000000e+000
      vertex  1.600000e+002  1.900000e+001  0.000000e+000
    endloop
  endfacet
  facet normal  0.000000e+000 -1.000000e+000  0.000000e+000
    outer loop
      vertex  1.600000e+002  1.900000e+001  0.000000e+000
      vertex  1.800000e+002  1.900000e+001  4.000000e+000
      vertex  1.600000e+002  1.900000e+001  4.000000e+000
    endloop
  endfacet
endsolid CATIA STL
