solid CATIA STL
  facet normal  0.000000e+000  0.000000e+000  1.000000e+000
    outer loop
      vertex  2.125000e+001  0.000000e+000  4.000000e+000
      vertex  2.125000e+001  1.000000e+001  4.000000e+000
      vertex  1.975000e+001  2.000000e+001  4.000000e+000
    endloop
  endfacet
  facet normal  0.000000e+000  0.000000e+000  1.000000e+000
    outer loop
      vertex  2.125000e+001  0.000000e+000  4.000000e+000
      vertex  1.975000e+001  2.000000e+001  4.000000e+000
      vertex  1.910237e+001  2.239439e+001  4.000000e+000
    endloop
  endfacet
  facet normal  0.000000e+000  0.000000e+000  1.000000e+000
    outer loop
      vertex  2.125000e+001  0.000000e+000  4.000000e+000
      vertex  1.910237e+001  2.239439e+001  4.000000e+000
      vertex  1.733606e+001  2.413586e+001  4.000000e+000
    endloop
  endfacet
  facet normal  0.000000e+000  0.000000e+000  9.999999e-001
    outer loop
      vertex  2.125000e+001  0.000000e+000  4.000000e+000
      vertex  1.733606e+001  2.413586e+001  4.000000e+000
      vertex  1.493275e+001  2.474952e+001  4.000000e+000
    endloop
  endfacet
  facet normal  0.000000e+000  0.000000e+000  1.000000e+000
    outer loop
      vertex  2.125000e+001  0.000000e+000  4.000000e+000
      vertex  1.493275e+001  2.474952e+001  4.000000e+000
      vertex  1.254777e+001  2.406805e+001  4.000000e+000
    endloop
  endfacet
  facet normal  0.000000e+000  0.000000e+000  1.000000e+000
    outer loop
      vertex  2.125000e+001  0.000000e+000  4.000000e+000
      vertex  1.254777e+001  2.406805e+001  4.000000e+000
      vertex  1.083148e+001  2.227727e+001  4.000000e+000
    endloop
  endfacet
  facet normal  0.000000e+000  0.000000e+000  1.000000e+000
    outer loop
      vertex  2.125000e+001  0.000000e+000  4.000000e+000
      vertex  1.083148e+001  2.227727e+001  4.000000e+000
      vertex  1.025000e+001  2.000000e+001  4.000000e+000
    endloop
  endfacet
  facet normal  0.000000e+000  0.000000e+000  1.000000e+000
    outer loop
      vertex  2.125000e+001  0.000000e+000  4.000000e+000
      vertex  1.025000e+001  2.000000e+001  4.000000e+000
      vertex  8.750000e+000  2.000000e+001  4.000000e+000
    endloop
  endfacet
  facet normal  0.000000e+000  0.000000e+000  1.000000e+000
    outer loop
      vertex  2.125000e+001  0.000000e+000  4.000000e+000
      vertex  8.750000e+000  2.000000e+001  4.000000e+000
      vertex  8.750000e+000  0.000000e+000  4.000000e+000
    endloop
  endfacet
  facet normal  -0.000000e+000  0.000000e+000  1.000000e+000
    outer loop
      vertex  2.125000e+001  2.000000e+001  4.000000e+000
      vertex  1.975000e+001  2.000000e+001  4.000000e+000
      vertex  2.125000e+001  1.000000e+001  4.000000e+000
    endloop
  endfacet
  facet normal  0.000000e+000  0.000000e+000  1.000000e+000
    outer loop
      vertex  2.125000e+001  2.000000e+001  4.000000e+000
      vertex  2.125000e+001  1.000000e+001  4.000000e+000
      vertex  8.000000e+001  1.000000e+001  4.000000e+000
    endloop
  endfacet
  facet normal  0.000000e+000  -0.000000e+000  1.000000e+000
    outer loop
      vertex  2.125000e+001  2.000000e+001  4.000000e+000
      vertex  8.000000e+001  1.000000e+001  4.000000e+000
      vertex  8.000000e+001  1.900000e+001  4.000000e+000
    endloop
  endfacet
  facet normal  0.000000e+000  -0.000000e+000  1.000000e+000
    outer loop
      vertex  2.125000e+001  2.000000e+001  4.000000e+000
      vertex  8.000000e+001  1.900000e+001  4.000000e+000
      vertex  1.300000e+002  2.000000e+001  4.000000e+000
    endloop
  endfacet
  facet normal  0.000000e+000  -0.000000e+000  1.000000e+000
    outer loop
      vertex  8.000000e+001  1.900000e+001  4.000000e+000
      vertex  1.000000e+002  1.900000e+001  4.000000e+000
      vertex  1.300000e+002  2.000000e+001  4.000000e+000
    endloop
  endfacet
  facet normal  0.000000e+000  0.000000e+000  1.000000e+000
    outer loop
      vertex  1.300000e+002  2.000000e+001  4.000000e+000
      vertex  1.000000e+002  1.900000e+001  4.000000e+000
      vertex  1.000000e+002  1.000000e+001  4.000000e+000
    endloop
  endfacet
  facet normal  0.000000e+000  0.000000e+000  1.000000e+000
    outer loop
      vertex  1.300000e+002  2.000000e+001  4.000000e+000
      vertex  1.000000e+002  1.000000e+001  4.000000e+000
      vertex  1.300000e+002  1.000000e+001  4.000000e+000
    endloop
  endfacet
  facet normal -1.000000e+000  0.000000e+000  0.000000e+000
    outer loop
      vertex  1.000000e+002  1.900000e+001  1.800000e+001
      vertex  1.000000e+002  1.900000e+001  1.400000e+001
      vertex  1.000000e+002  9.000000e+000  1.800000e+001
    endloop
  endfacet
  facet normal -1.000000e+000  0.000000e+000  0.000000e+000
    outer loop
      vertex  1.000000e+002  9.000000e+000  1.800000e+001
      vertex  1.000000e+002  1.900000e+001  1.400000e+001
      vertex  1.000000e+002  1.000000e+001  1.400000e+001
    endloop
  endfacet
  facet normal -1.000000e+000  -0.000000e+000  0.000000e+000
    outer loop
      vertex  1.000000e+002  9.000000e+000  1.800000e+001
      vertex  1.000000e+002  1.000000e+001  1.400000e+001
      vertex  1.000000e+002  9.000000e+000  0.000000e+000
    endloop
  endfacet
  facet normal -1.000000e+000  0.000000e+000  0.000000e+000
    outer loop
      vertex  1.000000e+002  9.000000e+000  0.000000e+000
      vertex  1.000000e+002  1.000000e+001  1.400000e+001
      vertex  1.000000e+002  1.000000e+001  4.000000e+000
    endloop
  endfacet
  facet normal -1.000000e+000  0.000000e+000  -0.000000e+000
    outer loop
      vertex  1.000000e+002  9.000000e+000  0.000000e+000
      vertex  1.000000e+002  1.000000e+001  4.000000e+000
      vertex  1.000000e+002  1.900000e+001  0.000000e+000
    endloop
  endfacet
  facet normal -1.000000e+000  0.000000e+000  0.000000e+000
    outer loop
      vertex  1.000000e+002  1.900000e+001  0.000000e+000
      vertex  1.000000e+002  1.000000e+001  4.000000e+000
      vertex  1.000000e+002  1.900000e+001  4.000000e+000
    endloop
  endfacet
  facet normal  1.000000e+000  0.000000e+000  0.000000e+000
    outer loop
      vertex  1.300000e+002  2.400000e+001 -4.440892e-016
      vertex  1.300000e+002  2.000000e+001  4.000000e+000
      vertex  1.300000e+002  6.000000e+000  0.000000e+000
    endloop
  endfacet
  facet normal  1.000000e+000  0.000000e+000  0.000000e+000
    outer loop
      vertex  1.300000e+002  6.000000e+000  0.000000e+000
      vertex  1.300000e+002  2.000000e+001  4.000000e+000
      vertex  1.300000e+002  1.000000e+001  4.000000e+000
    endloop
  endfacet
  facet normal  1.000000e+000  0.000000e+000  0.000000e+000
    outer loop
      vertex  1.300000e+002  6.000000e+000  0.000000e+000
      vertex  1.300000e+002  1.000000e+001  4.000000e+000
      vertex  1.300000e+002  6.000000e+000  1.800000e+001
    endloop
  endfacet
  facet normal  1.000000e+000  0.000000e+000  0.000000e+000
    outer loop
      vertex  1.300000e+002  6.000000e+000  1.800000e+001
      vertex  1.300000e+002  1.000000e+001  4.000000e+000
      vertex  1.300000e+002  1.000000e+001  1.400000e+001
    endloop
  endfacet
  facet normal  1.000000e+000  0.000000e+000  -0.000000e+000
    outer loop
      vertex  1.300000e+002  6.000000e+000  1.800000e+001
      vertex  1.300000e+002  1.000000e+001  1.400000e+001
      vertex  1.300000e+002  2.400000e+001  1.800000e+001
    endloop
  endfacet
  facet normal  1.000000e+000  0.000000e+000  0.000000e+000
    outer loop
      vertex  1.300000e+002  2.400000e+001  1.800000e+001
      vertex  1.300000e+002  1.000000e+001  1.400000e+001
      vertex  1.300000e+002  2.000000e+001  1.400000e+001
    endloop
  endfacet
  facet normal  1.000000e+000  -0.000000e+000  0.000000e+000
    outer loop
      vertex  1.300000e+002  2.400000e+001  1.800000e+001
      vertex  1.300000e+002  2.000000e+001  1.400000e+001
      vertex  1.300000e+002  2.400000e+001 -4.440892e-016
    endloop
  endfacet
  facet normal  1.000000e+000  0.000000e+000  0.000000e+000
    outer loop
      vertex  1.300000e+002  2.400000e+001 -4.440892e-016
      vertex  1.300000e+002  2.000000e+001  1.400000e+001
      vertex  1.300000e+002  2.000000e+001  4.000000e+000
    endloop
  endfacet
  facet normal  1.000000e+000  0.000000e+000  0.000000e+000
    outer loop
      vertex  3.000000e+001  2.400000e+001  0.000000e+000
      vertex  3.000000e+001  3.000000e+001  0.000000e+000
      vertex  3.000000e+001  2.400000e+001  1.800000e+001
    endloop
  endfacet
  facet normal  1.000000e+000  -0.000000e+000  0.000000e+000
    outer loop
      vertex  3.000000e+001  2.400000e+001  1.800000e+001
      vertex  3.000000e+001  3.000000e+001  0.000000e+000
      vertex  3.000000e+001  3.000000e+001  4.500000e+001
    endloop
  endfacet
  facet normal  9.999999e-001  0.000000e+000  0.000000e+000
    outer loop
      vertex  3.000000e+001  2.400000e+001  1.800000e+001
      vertex  3.000000e+001  3.000000e+001  4.500000e+001
      vertex  3.000000e+001  6.000000e+000  1.800000e+001
    endloop
  endfacet
  facet normal  1.000000e+000  0.000000e+000  -0.000000e+000
    outer loop
      vertex  3.000000e+001  6.000000e+000  1.800000e+001
      vertex  3.000000e+001  3.000000e+001  4.500000e+001
      vertex  3.000000e+001  0.000000e+000  4.500000e+001
    endloop
  endfacet
  facet normal  1.000000e+000  0.000000e+000  0.000000e+000
    outer loop
      vertex  3.000000e+001  6.000000e+000  1.800000e+001
      vertex  3.000000e+001  0.000000e+000  4.500000e+001
      vertex  3.000000e+001  6.000000e+000  0.000000e+000
    endloop
  endfacet
  facet normal  1.000000e+000  0.000000e+000  0.000000e+000
    outer loop
      vertex  3.000000e+001  6.000000e+000  0.000000e+000
      vertex  3.000000e+001  0.000000e+000  4.500000e+001
      vertex  3.000000e+001  0.000000e+000  0.000000e+000
    endloop
  endfacet
  facet normal  0.000000e+000  1.000000e+000  0.000000e+000
    outer loop
      vertex  3.000000e+001  3.000000e+001  0.000000e+000
      vertex  4.263256e-014  3.000000e+001  0.000000e+000
      vertex  3.000000e+001  3.000000e+001  4.500000e+001
    endloop
  endfacet
  facet normal  0.000000e+000  1.000000e+000  0.000000e+000
    outer loop
      vertex  3.000000e+001  3.000000e+001  4.500000e+001
      vertex  4.263256e-014  3.000000e+001  0.000000e+000
      vertex  4.263256e-014  3.000000e+001  4.500000e+001
    endloop
  endfacet
  facet normal -1.000000e+000  1.421085e-015  0.000000e+000
    outer loop
      vertex  4.263256e-014  3.000000e+001  0.000000e+000
      vertex  0.000000e+000  0.000000e+000  0.000000e+000
      vertex  4.263256e-014  3.000000e+001  4.500000e+001
    endloop
  endfacet
  facet normal -1.000000e+000  1.421085e-015  0.000000e+000
    outer loop
      vertex  4.263256e-014  3.000000e+001  4.500000e+001
      vertex  0.000000e+000  0.000000e+000  0.000000e+000
      vertex  0.000000e+000  0.000000e+000  4.500000e+001
    endloop
  endfacet
  facet normal  0.000000e+000 -1.000000e+000  0.000000e+000
    outer loop
      vertex  1.025000e+001  0.000000e+000  4.500000e+001
      vertex  8.750000e+000  0.000000e+000  4.400000e+001
      vertex  1.025000e+001  0.000000e+000  4.400000e+001
    endloop
  endfacet
  facet normal  0.000000e+000 -9.999999e-001  0.000000e+000
    outer loop
      vertex  3.000000e+001  0.000000e+000  4.500000e+001
      vertex  1.975000e+001  0.000000e+000  4.500000e+001
      vertex  1.975000e+001  0.000000e+000  4.400000e+001
    endloop
  endfacet
  facet normal  0.000000e+000 -1.000000e+000  0.000000e+000
    outer loop
      vertex  3.000000e+001  0.000000e+000  4.500000e+001
      vertex  1.975000e+001  0.000000e+000  4.400000e+001
      vertex  2.125000e+001  0.000000e+000  4.400000e+001
    endloop
  endfacet
  facet normal  0.000000e+000 -1.000000e+000  0.000000e+000
    outer loop
      vertex  3.000000e+001  0.000000e+000  4.500000e+001
      vertex  2.125000e+001  0.000000e+000  4.400000e+001
      vertex  2.125000e+001  0.000000e+000  4.300000e+001
    endloop
  endfacet
  facet normal  0.000000e+000 -1.000000e+000  0.000000e+000
    outer loop
      vertex  3.000000e+001  0.000000e+000  4.500000e+001
      vertex  2.125000e+001  0.000000e+000  4.300000e+001
      vertex  2.125000e+001  0.000000e+000  4.200000e+001
    endloop
  endfacet
  facet normal  0.000000e+000 -1.000000e+000  0.000000e+000
    outer loop
      vertex  3.000000e+001  0.000000e+000  4.500000e+001
      vertex  2.125000e+001  0.000000e+000  4.200000e+001
      vertex  2.125000e+001  0.000000e+000  4.000000e+000
    endloop
  endfacet
  facet normal  0.000000e+000 -9.999999e-001  0.000000e+000
    outer loop
      vertex  3.000000e+001  0.000000e+000  4.500000e+001
      vertex  2.125000e+001  0.000000e+000  4.000000e+000
      vertex  3.000000e+001  0.000000e+000  0.000000e+000
    endloop
  endfacet
  facet normal  0.000000e+000 -9.999999e-001  0.000000e+000
    outer loop
      vertex  0.000000e+000  0.000000e+000  4.500000e+001
      vertex  0.000000e+000  0.000000e+000  0.000000e+000
      vertex  8.750000e+000  0.000000e+000  4.000000e+000
    endloop
  endfacet
  facet normal  0.000000e+000 -1.000000e+000  0.000000e+000
    outer loop
      vertex  0.000000e+000  0.000000e+000  4.500000e+001
      vertex  8.750000e+000  0.000000e+000  4.000000e+000
      vertex  8.750000e+000  0.000000e+000  4.200000e+001
    endloop
  endfacet
  facet normal  0.000000e+000 -1.000000e+000  0.000000e+000
    outer loop
      vertex  0.000000e+000  0.000000e+000  4.500000e+001
      vertex  8.750000e+000  0.000000e+000  4.200000e+001
      vertex  8.750000e+000  0.000000e+000  4.300000e+001
    endloop
  endfacet
  facet normal  0.000000e+000 -1.000000e+000  0.000000e+000
    outer loop
      vertex  0.000000e+000  0.000000e+000  4.500000e+001
      vertex  8.750000e+000  0.000000e+000  4.300000e+001
      vertex  8.750000e+000  0.000000e+000  4.400000e+001
    endloop
  endfacet
  facet normal  0.000000e+000 -9.999999e-001  0.000000e+000
    outer loop
      vertex  0.000000e+000  0.000000e+000  4.500000e+001
      vertex  8.750000e+000  0.000000e+000  4.400000e+001
      vertex  1.025000e+001  0.000000e+000  4.500000e+001
    endloop
  endfacet
  facet normal  0.000000e+000 -1.000000e+000  1.421085e-014
    outer loop
      vertex  1.975000e+001  0.000000e+000  4.300000e+001
      vertex  1.975000e+001 -1.421085e-014  4.200000e+001
      vertex  2.125000e+001  0.000000e+000  4.300000e+001
    endloop
  endfacet
  facet normal  9.473903e-015 -1.000000e+000  0.000000e+000
    outer loop
      vertex  2.125000e+001  0.000000e+000  4.300000e+001
      vertex  1.975000e+001 -1.421085e-014  4.200000e+001
      vertex  2.125000e+001  0.000000e+000  4.200000e+001
    endloop
  endfacet
  facet normal  0.000000e+000 -1.000000e+000  0.000000e+000
    outer loop
      vertex  0.000000e+000  0.000000e+000  0.000000e+000
      vertex  3.000000e+001  0.000000e+000  0.000000e+000
      vertex  8.750000e+000  0.000000e+000  4.000000e+000
    endloop
  endfacet
  facet normal  0.000000e+000 -1.000000e+000  0.000000e+000
    outer loop
      vertex  8.750000e+000  0.000000e+000  4.000000e+000
      vertex  3.000000e+001  0.000000e+000  0.000000e+000
      vertex  2.125000e+001  0.000000e+000  4.000000e+000
    endloop
  endfacet
  facet normal  0.000000e+000 -1.000000e+000  0.000000e+000
    outer loop
      vertex  8.750000e+000  0.000000e+000  4.200000e+001
      vertex  1.025000e+001  0.000000e+000  4.200000e+001
      vertex  8.750000e+000  0.000000e+000  4.300000e+001
    endloop
  endfacet
  facet normal  1.421085e-014 -1.000000e+000  2.131628e-014
    outer loop
      vertex  8.750000e+000  0.000000e+000  4.300000e+001
      vertex  1.025000e+001  0.000000e+000  4.200000e+001
      vertex  1.025000e+001  2.131628e-014  4.300000e+001
    endloop
  endfacet
  facet normal  0.000000e+000 -1.000000e+000  0.000000e+000
    outer loop
      vertex  3.000000e+001  6.000000e+000  0.000000e+000
      vertex  1.300000e+002  6.000000e+000  0.000000e+000
      vertex  3.000000e+001  6.000000e+000  1.800000e+001
    endloop
  endfacet
  facet normal  0.000000e+000 -1.000000e+000  0.000000e+000
    outer loop
      vertex  3.000000e+001  6.000000e+000  1.800000e+001
      vertex  1.300000e+002  6.000000e+000  0.000000e+000
      vertex  1.300000e+002  6.000000e+000  1.800000e+001
    endloop
  endfacet
  facet normal  0.000000e+000  1.000000e+000  0.000000e+000
    outer loop
      vertex  1.000000e+002  9.000000e+000  0.000000e+000
      vertex  8.000000e+001  9.000000e+000  0.000000e+000
      vertex  1.000000e+002  9.000000e+000  1.800000e+001
    endloop
  endfacet
  facet normal  0.000000e+000  1.000000e+000  0.000000e+000
    outer loop
      vertex  1.000000e+002  9.000000e+000  1.800000e+001
      vertex  8.000000e+001  9.000000e+000  0.000000e+000
      vertex  8.000000e+001  9.000000e+000  1.800000e+001
    endloop
  endfacet
  facet normal  -0.000000e+000  0.000000e+000 -1.000000e+000
    outer loop
      vertex  2.125000e+001  2.000000e+001  1.400000e+001
      vertex  1.300000e+002  2.000000e+001  1.400000e+001
      vertex  1.000000e+002  1.900000e+001  1.400000e+001
    endloop
  endfacet
  facet normal  0.000000e+000  0.000000e+000 -1.000000e+000
    outer loop
      vertex  2.125000e+001  2.000000e+001  1.400000e+001
      vertex  1.000000e+002  1.900000e+001  1.400000e+001
      vertex  8.000000e+001  1.900000e+001  1.400000e+001
    endloop
  endfacet
  facet normal  -0.000000e+000  -0.000000e+000 -1.000000e+000
    outer loop
      vertex  2.125000e+001  2.000000e+001  1.400000e+001
      vertex  8.000000e+001  1.900000e+001  1.400000e+001
      vertex  8.000000e+001  1.000000e+001  1.400000e+001
    endloop
  endfacet
  facet normal  0.000000e+000  0.000000e+000 -1.000000e+000
    outer loop
      vertex  2.125000e+001  2.000000e+001  1.400000e+001
      vertex  8.000000e+001  1.000000e+001  1.400000e+001
      vertex  2.125000e+001  1.000000e+001  1.400000e+001
    endloop
  endfacet
  facet normal  0.000000e+000  0.000000e+000 -1.000000e+000
    outer loop
      vertex  1.000000e+002  1.000000e+001  1.400000e+001
      vertex  1.000000e+002  1.900000e+001  1.400000e+001
      vertex  1.300000e+002  1.000000e+001  1.400000e+001
    endloop
  endfacet
  facet normal  0.000000e+000  0.000000e+000 -1.000000e+000
    outer loop
      vertex  1.300000e+002  1.000000e+001  1.400000e+001
      vertex  1.000000e+002  1.900000e+001  1.400000e+001
      vertex  1.300000e+002  2.000000e+001  1.400000e+001
    endloop
  endfacet
  facet normal  0.000000e+000 -1.000000e+000  0.000000e+000
    outer loop
      vertex  8.000000e+001  1.900000e+001  1.400000e+001
      vertex  1.000000e+002  1.900000e+001  1.400000e+001
      vertex  8.000000e+001  1.900000e+001  1.800000e+001
    endloop
  endfacet
  facet normal  0.000000e+000 -1.000000e+000  0.000000e+000
    outer loop
      vertex  8.000000e+001  1.900000e+001  1.800000e+001
      vertex  1.000000e+002  1.900000e+001  1.400000e+001
      vertex  1.000000e+002  1.900000e+001  1.800000e+001
    endloop
  endfacet
  facet normal  0.000000e+000  0.000000e+000 -1.000000e+000
    outer loop
      vertex  2.125000e+001  0.000000e+000  4.200000e+001
      vertex  1.975000e+001 -1.421085e-014  4.200000e+001
      vertex  2.125000e+001  2.000000e+001  4.200000e+001
    endloop
  endfacet
  facet normal  -0.000000e+000  0.000000e+000 -1.000000e+000
    outer loop
      vertex  2.125000e+001  2.000000e+001  4.200000e+001
      vertex  1.975000e+001 -1.421085e-014  4.200000e+001
      vertex  1.975000e+001  2.000000e+001  4.200000e+001
    endloop
  endfacet
  facet normal  0.000000e+000 -1.000000e+000  0.000000e+000
    outer loop
      vertex  2.125000e+001  2.000000e+001  4.000000e+000
      vertex  1.300000e+002  2.000000e+001  4.000000e+000
      vertex  1.300000e+002  2.000000e+001  1.400000e+001
    endloop
  endfacet
  facet normal  0.000000e+000 -1.000000e+000  0.000000e+000
    outer loop
      vertex  1.975000e+001  2.000000e+001  4.000000e+000
      vertex  2.125000e+001  2.000000e+001  4.000000e+000
      vertex  1.300000e+002  2.000000e+001  1.400000e+001
    endloop
  endfacet
  facet normal  -0.000000e+000 -1.000000e+000  0.000000e+000
    outer loop
      vertex  1.975000e+001  2.000000e+001  4.000000e+000
      vertex  1.300000e+002  2.000000e+001  1.400000e+001
      vertex  2.125000e+001  2.000000e+001  1.400000e+001
    endloop
  endfacet
  facet normal  -0.000000e+000 -1.000000e+000  0.000000e+000
    outer loop
      vertex  1.975000e+001  2.000000e+001  4.000000e+000
      vertex  2.125000e+001  2.000000e+001  1.400000e+001
      vertex  2.125000e+001  2.000000e+001  4.200000e+001
    endloop
  endfacet
  facet normal  -0.000000e+000 -1.000000e+000  0.000000e+000
    outer loop
      vertex  1.975000e+001  2.000000e+001  4.000000e+000
      vertex  2.125000e+001  2.000000e+001  4.200000e+001
      vertex  1.975000e+001  2.000000e+001  4.200000e+001
    endloop
  endfacet
  facet normal  1.000000e+000  -0.000000e+000  0.000000e+000
    outer loop
      vertex  8.750000e+000  2.000000e+001  4.200000e+001
      vertex  8.750000e+000  0.000000e+000  4.200000e+001
      vertex  8.750000e+000  2.000000e+001  4.000000e+000
    endloop
  endfacet
  facet normal  1.000000e+000  0.000000e+000  0.000000e+000
    outer loop
      vertex  8.750000e+000  2.000000e+001  4.000000e+000
      vertex  8.750000e+000  0.000000e+000  4.200000e+001
      vertex  8.750000e+000  0.000000e+000  4.000000e+000
    endloop
  endfacet
  facet normal  0.000000e+000 -1.000000e+000  0.000000e+000
    outer loop
      vertex  8.750000e+000  2.000000e+001  4.000000e+000
      vertex  1.025000e+001  2.000000e+001  4.000000e+000
      vertex  8.750000e+000  2.000000e+001  4.200000e+001
    endloop
  endfacet
  facet normal  0.000000e+000 -1.000000e+000  0.000000e+000
    outer loop
      vertex  8.750000e+000  2.000000e+001  4.200000e+001
      vertex  1.025000e+001  2.000000e+001  4.000000e+000
      vertex  1.025000e+001  2.000000e+001  4.200000e+001
    endloop
  endfacet
  facet normal  9.689124e-001 -2.474040e-001  0.000000e+000
    outer loop
      vertex  1.025000e+001  2.000000e+001  4.300000e+001
      vertex  1.025000e+001  2.000000e+001  4.200000e+001
      vertex  1.083148e+001  2.227727e+001  4.300000e+001
    endloop
  endfacet
  facet normal  9.689125e-001 -2.474040e-001  0.000000e+000
    outer loop
      vertex  1.083148e+001  2.227727e+001  4.300000e+001
      vertex  1.025000e+001  2.000000e+001  4.200000e+001
      vertex  1.025000e+001  2.000000e+001  4.000000e+000
    endloop
  endfacet
  facet normal  9.689124e-001 -2.474040e-001  0.000000e+000
    outer loop
      vertex  1.083148e+001  2.227727e+001  4.300000e+001
      vertex  1.025000e+001  2.000000e+001  4.000000e+000
      vertex  1.083148e+001  2.227727e+001  4.000000e+000
    endloop
  endfacet
  facet normal -9.653123e-001 -2.610978e-001  0.000000e+000
    outer loop
      vertex  1.975000e+001  2.000000e+001  4.200000e+001
      vertex  1.910237e+001  2.239439e+001  4.000000e+000
      vertex  1.975000e+001  2.000000e+001  4.000000e+000
    endloop
  endfacet
  facet normal -7.020832e-001 -7.120950e-001  0.000000e+000
    outer loop
      vertex  1.733606e+001  2.413586e+001  4.300000e+001
      vertex  1.910237e+001  2.239439e+001  4.000000e+000
      vertex  1.910237e+001  2.239439e+001  4.300000e+001
    endloop
  endfacet
  facet normal -9.653123e-001 -2.610978e-001  -0.000000e+000
    outer loop
      vertex  1.910237e+001  2.239439e+001  4.300000e+001
      vertex  1.910237e+001  2.239439e+001  4.000000e+000
      vertex  1.975000e+001  2.000000e+001  4.200000e+001
    endloop
  endfacet
  facet normal -9.653124e-001 -2.610978e-001  0.000000e+000
    outer loop
      vertex  1.910237e+001  2.239439e+001  4.300000e+001
      vertex  1.975000e+001  2.000000e+001  4.200000e+001
      vertex  1.975000e+001  2.000000e+001  4.300000e+001
    endloop
  endfacet
  facet normal -7.020832e-001 -7.120950e-001  -0.000000e+000
    outer loop
      vertex  1.910237e+001  2.239439e+001  4.000000e+000
      vertex  1.733606e+001  2.413586e+001  4.300000e+001
      vertex  1.733606e+001  2.413586e+001  4.000000e+000
    endloop
  endfacet
  facet normal -2.474035e-001 -9.689125e-001  0.000000e+000
    outer loop
      vertex  1.733606e+001  2.413586e+001  4.000000e+000
      vertex  1.733606e+001  2.413586e+001  4.300000e+001
      vertex  1.493275e+001  2.474952e+001  4.300000e+001
    endloop
  endfacet
  facet normal -2.474035e-001 -9.689125e-001  -0.000000e+000
    outer loop
      vertex  1.733606e+001  2.413586e+001  4.000000e+000
      vertex  1.493275e+001  2.474952e+001  4.300000e+001
      vertex  1.493275e+001  2.474952e+001  4.000000e+000
    endloop
  endfacet
  facet normal  2.747391e-001 -9.615189e-001  0.000000e+000
    outer loop
      vertex  1.493275e+001  2.474952e+001  4.000000e+000
      vertex  1.493275e+001  2.474952e+001  4.300000e+001
      vertex  1.254777e+001  2.406805e+001  4.300000e+001
    endloop
  endfacet
  facet normal  2.747391e-001 -9.615189e-001  0.000000e+000
    outer loop
      vertex  1.493275e+001  2.474952e+001  4.000000e+000
      vertex  1.254777e+001  2.406805e+001  4.300000e+001
      vertex  1.254777e+001  2.406805e+001  4.000000e+000
    endloop
  endfacet
  facet normal  7.219644e-001 -6.919304e-001  0.000000e+000
    outer loop
      vertex  1.254777e+001  2.406805e+001  4.000000e+000
      vertex  1.254777e+001  2.406805e+001  4.300000e+001
      vertex  1.083148e+001  2.227727e+001  4.300000e+001
    endloop
  endfacet
  facet normal  7.219644e-001 -6.919304e-001  0.000000e+000
    outer loop
      vertex  1.254777e+001  2.406805e+001  4.000000e+000
      vertex  1.083148e+001  2.227727e+001  4.300000e+001
      vertex  1.083148e+001  2.227727e+001  4.000000e+000
    endloop
  endfacet
  facet normal  0.000000e+000  0.000000e+000  1.000000e+000
    outer loop
      vertex  4.263256e-014  3.000000e+001  4.500000e+001
      vertex  0.000000e+000  0.000000e+000  4.500000e+001
      vertex  1.025000e+001  0.000000e+000  4.500000e+001
    endloop
  endfacet
  facet normal  0.000000e+000  -0.000000e+000  1.000000e+000
    outer loop
      vertex  4.263256e-014  3.000000e+001  4.500000e+001
      vertex  1.025000e+001  0.000000e+000  4.500000e+001
      vertex  1.025000e+001  2.000000e+001  4.500000e+001
    endloop
  endfacet
  facet normal  0.000000e+000  -0.000000e+000  9.999999e-001
    outer loop
      vertex  4.263256e-014  3.000000e+001  4.500000e+001
      vertex  1.025000e+001  2.000000e+001  4.500000e+001
      vertex  1.083148e+001  2.227727e+001  4.500000e+001
    endloop
  endfacet
  facet normal  0.000000e+000  -0.000000e+000  1.000000e+000
    outer loop
      vertex  4.263256e-014  3.000000e+001  4.500000e+001
      vertex  1.083148e+001  2.227727e+001  4.500000e+001
      vertex  1.254777e+001  2.406805e+001  4.500000e+001
    endloop
  endfacet
  facet normal  0.000000e+000  -0.000000e+000  1.000000e+000
    outer loop
      vertex  4.263256e-014  3.000000e+001  4.500000e+001
      vertex  1.254777e+001  2.406805e+001  4.500000e+001
      vertex  1.493275e+001  2.474952e+001  4.500000e+001
    endloop
  endfacet
  facet normal  0.000000e+000  -0.000000e+000  1.000000e+000
    outer loop
      vertex  4.263256e-014  3.000000e+001  4.500000e+001
      vertex  1.493275e+001  2.474952e+001  4.500000e+001
      vertex  3.000000e+001  3.000000e+001  4.500000e+001
    endloop
  endfacet
  facet normal  -0.000000e+000  0.000000e+000  1.000000e+000
    outer loop
      vertex  3.000000e+001  3.000000e+001  4.500000e+001
      vertex  1.493275e+001  2.474952e+001  4.500000e+001
      vertex  1.733606e+001  2.413586e+001  4.500000e+001
    endloop
  endfacet
  facet normal  -0.000000e+000  0.000000e+000  1.000000e+000
    outer loop
      vertex  3.000000e+001  3.000000e+001  4.500000e+001
      vertex  1.733606e+001  2.413586e+001  4.500000e+001
      vertex  1.910237e+001  2.239439e+001  4.500000e+001
    endloop
  endfacet
  facet normal  -0.000000e+000  0.000000e+000  1.000000e+000
    outer loop
      vertex  3.000000e+001  3.000000e+001  4.500000e+001
      vertex  1.910237e+001  2.239439e+001  4.500000e+001
      vertex  1.975000e+001  2.000000e+001  4.500000e+001
    endloop
  endfacet
  facet normal  -0.000000e+000  0.000000e+000  1.000000e+000
    outer loop
      vertex  3.000000e+001  3.000000e+001  4.500000e+001
      vertex  1.975000e+001  2.000000e+001  4.500000e+001
      vertex  1.975000e+001  0.000000e+000  4.500000e+001
    endloop
  endfacet
  facet normal  0.000000e+000  0.000000e+000  1.000000e+000
    outer loop
      vertex  3.000000e+001  3.000000e+001  4.500000e+001
      vertex  1.975000e+001  0.000000e+000  4.500000e+001
      vertex  3.000000e+001  0.000000e+000  4.500000e+001
    endloop
  endfacet
  facet normal -1.000000e+000  0.000000e+000  0.000000e+000
    outer loop
      vertex  1.975000e+001  0.000000e+000  4.400000e+001
      vertex  1.975000e+001  0.000000e+000  4.500000e+001
      vertex  1.975000e+001  2.000000e+001  4.400000e+001
    endloop
  endfacet
  facet normal -1.000000e+000  0.000000e+000  0.000000e+000
    outer loop
      vertex  1.975000e+001  2.000000e+001  4.400000e+001
      vertex  1.975000e+001  0.000000e+000  4.500000e+001
      vertex  1.975000e+001  2.000000e+001  4.500000e+001
    endloop
  endfacet
  facet normal  0.000000e+000  0.000000e+000 -1.000000e+000
    outer loop
      vertex  1.493275e+001  2.474952e+001  4.400000e+001
      vertex  1.254777e+001  2.406805e+001  4.400000e+001
      vertex  1.131516e+001  2.504822e+001  4.400000e+001
    endloop
  endfacet
  facet normal  0.000000e+000  -0.000000e+000 -1.000000e+000
    outer loop
      vertex  1.131516e+001  2.504822e+001  4.400000e+001
      vertex  1.254777e+001  2.406805e+001  4.400000e+001
      vertex  1.083148e+001  2.227727e+001  4.400000e+001
    endloop
  endfacet
  facet normal  0.000000e+000  0.000000e+000 -1.000000e+000
    outer loop
      vertex  1.131516e+001  2.504822e+001  4.400000e+001
      vertex  1.083148e+001  2.227727e+001  4.400000e+001
      vertex  9.515109e+000  2.299641e+001  4.400000e+001
    endloop
  endfacet
  facet normal  0.000000e+000  0.000000e+000 -9.999999e-001
    outer loop
      vertex  9.515109e+000  2.299641e+001  4.400000e+001
      vertex  1.083148e+001  2.227727e+001  4.400000e+001
      vertex  1.025000e+001  2.000000e+001  4.400000e+001
    endloop
  endfacet
  facet normal  0.000000e+000  0.000000e+000 -1.000000e+000
    outer loop
      vertex  9.515109e+000  2.299641e+001  4.400000e+001
      vertex  1.025000e+001  2.000000e+001  4.400000e+001
      vertex  8.750000e+000  2.000000e+001  4.400000e+001
    endloop
  endfacet
  facet normal  0.000000e+000  0.000000e+000 -1.000000e+000
    outer loop
      vertex  8.750000e+000  2.000000e+001  4.400000e+001
      vertex  1.025000e+001  2.000000e+001  4.400000e+001
      vertex  1.025000e+001  0.000000e+000  4.400000e+001
    endloop
  endfacet
  facet normal  0.000000e+000  0.000000e+000 -1.000000e+000
    outer loop
      vertex  8.750000e+000  2.000000e+001  4.400000e+001
      vertex  1.025000e+001  0.000000e+000  4.400000e+001
      vertex  8.750000e+000  0.000000e+000  4.400000e+001
    endloop
  endfacet
  facet normal  0.000000e+000  0.000000e+000 -1.000000e+000
    outer loop
      vertex  1.493275e+001  2.474952e+001  4.400000e+001
      vertex  1.131516e+001  2.504822e+001  4.400000e+001
      vertex  1.897964e+001  2.481923e+001  4.400000e+001
    endloop
  endfacet
  facet normal  0.000000e+000  0.000000e+000 -1.000000e+000
    outer loop
      vertex  1.897964e+001  2.481923e+001  4.400000e+001
      vertex  1.131516e+001  2.504822e+001  4.400000e+001
      vertex  1.381800e+001  2.613721e+001  4.400000e+001
    endloop
  endfacet
  facet normal  0.000000e+000  0.000000e+000 -1.000000e+000
    outer loop
      vertex  1.897964e+001  2.481923e+001  4.400000e+001
      vertex  1.381800e+001  2.613721e+001  4.400000e+001
      vertex  1.654627e+001  2.605570e+001  4.400000e+001
    endloop
  endfacet
  facet normal  0.000000e+000  0.000000e+000 -1.000000e+000
    outer loop
      vertex  1.493275e+001  2.474952e+001  4.400000e+001
      vertex  1.897964e+001  2.481923e+001  4.400000e+001
      vertex  1.733606e+001  2.413586e+001  4.400000e+001
    endloop
  endfacet
  facet normal  0.000000e+000  0.000000e+000 -1.000000e+000
    outer loop
      vertex  1.733606e+001  2.413586e+001  4.400000e+001
      vertex  1.897964e+001  2.481923e+001  4.400000e+001
      vertex  2.065399e+001  2.266362e+001  4.400000e+001
    endloop
  endfacet
  facet normal  -0.000000e+000  0.000000e+000 -1.000000e+000
    outer loop
      vertex  1.733606e+001  2.413586e+001  4.400000e+001
      vertex  2.065399e+001  2.266362e+001  4.400000e+001
      vertex  1.910237e+001  2.239439e+001  4.400000e+001
    endloop
  endfacet
  facet normal  0.000000e+000  0.000000e+000 -1.000000e+000
    outer loop
      vertex  1.910237e+001  2.239439e+001  4.400000e+001
      vertex  2.065399e+001  2.266362e+001  4.400000e+001
      vertex  2.125000e+001  2.000000e+001  4.400000e+001
    endloop
  endfacet
  facet normal  0.000000e+000  0.000000e+000 -1.000000e+000
    outer loop
      vertex  1.910237e+001  2.239439e+001  4.400000e+001
      vertex  2.125000e+001  2.000000e+001  4.400000e+001
      vertex  1.975000e+001  2.000000e+001  4.400000e+001
    endloop
  endfacet
  facet normal  0.000000e+000  0.000000e+000 -1.000000e+000
    outer loop
      vertex  1.975000e+001  2.000000e+001  4.400000e+001
      vertex  2.125000e+001  2.000000e+001  4.400000e+001
      vertex  2.125000e+001  0.000000e+000  4.400000e+001
    endloop
  endfacet
  facet normal  0.000000e+000  0.000000e+000 -1.000000e+000
    outer loop
      vertex  1.975000e+001  2.000000e+001  4.400000e+001
      vertex  2.125000e+001  0.000000e+000  4.400000e+001
      vertex  1.975000e+001  0.000000e+000  4.400000e+001
    endloop
  endfacet
  facet normal -1.000000e+000  0.000000e+000  0.000000e+000
    outer loop
      vertex  2.125000e+001  2.000000e+001  4.300000e+001
      vertex  2.125000e+001  0.000000e+000  4.300000e+001
      vertex  2.125000e+001  2.000000e+001  4.400000e+001
    endloop
  endfacet
  facet normal -1.000000e+000  -0.000000e+000  0.000000e+000
    outer loop
      vertex  2.125000e+001  2.000000e+001  4.400000e+001
      vertex  2.125000e+001  0.000000e+000  4.300000e+001
      vertex  2.125000e+001  0.000000e+000  4.400000e+001
    endloop
  endfacet
  facet normal  1.000000e+000  0.000000e+000  0.000000e+000
    outer loop
      vertex  1.025000e+001  2.131628e-014  4.300000e+001
      vertex  1.025000e+001  0.000000e+000  4.200000e+001
      vertex  1.025000e+001  2.000000e+001  4.300000e+001
    endloop
  endfacet
  facet normal  1.000000e+000  0.000000e+000  0.000000e+000
    outer loop
      vertex  1.025000e+001  2.000000e+001  4.300000e+001
      vertex  1.025000e+001  0.000000e+000  4.200000e+001
      vertex  1.025000e+001  2.000000e+001  4.200000e+001
    endloop
  endfacet
  facet normal  1.000000e+000  -0.000000e+000  0.000000e+000
    outer loop
      vertex  8.750000e+000  2.000000e+001  4.400000e+001
      vertex  8.750000e+000  0.000000e+000  4.400000e+001
      vertex  8.750000e+000  2.000000e+001  4.300000e+001
    endloop
  endfacet
  facet normal  1.000000e+000  0.000000e+000  0.000000e+000
    outer loop
      vertex  8.750000e+000  2.000000e+001  4.300000e+001
      vertex  8.750000e+000  0.000000e+000  4.400000e+001
      vertex  8.750000e+000  0.000000e+000  4.300000e+001
    endloop
  endfacet
  facet normal  1.000000e+000  0.000000e+000  0.000000e+000
    outer loop
      vertex  1.025000e+001  0.000000e+000  4.500000e+001
      vertex  1.025000e+001  0.000000e+000  4.400000e+001
      vertex  1.025000e+001  2.000000e+001  4.500000e+001
    endloop
  endfacet
  facet normal  1.000000e+000  0.000000e+000  0.000000e+000
    outer loop
      vertex  1.025000e+001  2.000000e+001  4.500000e+001
      vertex  1.025000e+001  0.000000e+000  4.400000e+001
      vertex  1.025000e+001  2.000000e+001  4.400000e+001
    endloop
  endfacet
  facet normal -4.530044e-001 -8.915083e-001  0.000000e+000
    outer loop
      vertex  1.654627e+001  2.605570e+001  4.400000e+001
      vertex  1.897964e+001  2.481923e+001  4.300000e+001
      vertex  1.897964e+001  2.481923e+001  4.400000e+001
    endloop
  endfacet
  facet normal -7.897480e-001 -6.134313e-001  -0.000000e+000
    outer loop
      vertex  1.897964e+001  2.481923e+001  4.400000e+001
      vertex  1.897964e+001  2.481923e+001  4.300000e+001
      vertex  2.065399e+001  2.266362e+001  4.300000e+001
    endloop
  endfacet
  facet normal -7.897480e-001 -6.134313e-001  0.000000e+000
    outer loop
      vertex  1.897964e+001  2.481923e+001  4.400000e+001
      vertex  2.065399e+001  2.266362e+001  4.300000e+001
      vertex  2.065399e+001  2.266362e+001  4.400000e+001
    endloop
  endfacet
  facet normal -9.758685e-001 -2.183590e-001  -0.000000e+000
    outer loop
      vertex  2.065399e+001  2.266362e+001  4.400000e+001
      vertex  2.065399e+001  2.266362e+001  4.300000e+001
      vertex  2.125000e+001  2.000000e+001  4.300000e+001
    endloop
  endfacet
  facet normal -9.758685e-001 -2.183590e-001  0.000000e+000
    outer loop
      vertex  2.065399e+001  2.266362e+001  4.400000e+001
      vertex  2.125000e+001  2.000000e+001  4.300000e+001
      vertex  2.125000e+001  2.000000e+001  4.400000e+001
    endloop
  endfacet
  facet normal -4.530044e-001 -8.915083e-001  -0.000000e+000
    outer loop
      vertex  1.897964e+001  2.481923e+001  4.300000e+001
      vertex  1.654627e+001  2.605570e+001  4.400000e+001
      vertex  1.654627e+001  2.605570e+001  4.300000e+001
    endloop
  endfacet
  facet normal -2.986293e-002 -9.995540e-001  0.000000e+000
    outer loop
      vertex  1.654627e+001  2.605570e+001  4.300000e+001
      vertex  1.654627e+001  2.605570e+001  4.400000e+001
      vertex  1.381800e+001  2.613721e+001  4.400000e+001
    endloop
  endfacet
  facet normal -2.986293e-002 -9.995540e-001  -0.000000e+000
    outer loop
      vertex  1.654627e+001  2.605570e+001  4.300000e+001
      vertex  1.381800e+001  2.613721e+001  4.400000e+001
      vertex  1.381800e+001  2.613721e+001  4.300000e+001
    endloop
  endfacet
  facet normal  3.989745e-001 -9.169620e-001  0.000000e+000
    outer loop
      vertex  1.381800e+001  2.613721e+001  4.300000e+001
      vertex  1.381800e+001  2.613721e+001  4.400000e+001
      vertex  1.131516e+001  2.504822e+001  4.400000e+001
    endloop
  endfacet
  facet normal  3.989745e-001 -9.169620e-001  0.000000e+000
    outer loop
      vertex  1.381800e+001  2.613721e+001  4.300000e+001
      vertex  1.131516e+001  2.504822e+001  4.400000e+001
      vertex  1.131516e+001  2.504822e+001  4.300000e+001
    endloop
  endfacet
  facet normal  7.517180e-001 -6.594847e-001  0.000000e+000
    outer loop
      vertex  1.131516e+001  2.504822e+001  4.300000e+001
      vertex  1.131516e+001  2.504822e+001  4.400000e+001
      vertex  9.515109e+000  2.299641e+001  4.400000e+001
    endloop
  endfacet
  facet normal  7.517180e-001 -6.594847e-001  0.000000e+000
    outer loop
      vertex  1.131516e+001  2.504822e+001  4.300000e+001
      vertex  9.515109e+000  2.299641e+001  4.400000e+001
      vertex  9.515109e+000  2.299641e+001  4.300000e+001
    endloop
  endfacet
  facet normal  9.689125e-001 -2.474039e-001  0.000000e+000
    outer loop
      vertex  8.750000e+000  2.000000e+001  4.300000e+001
      vertex  9.515109e+000  2.299641e+001  4.300000e+001
      vertex  8.750000e+000  2.000000e+001  4.400000e+001
    endloop
  endfacet
  facet normal  9.689125e-001 -2.474039e-001  0.000000e+000
    outer loop
      vertex  8.750000e+000  2.000000e+001  4.400000e+001
      vertex  9.515109e+000  2.299641e+001  4.300000e+001
      vertex  9.515109e+000  2.299641e+001  4.400000e+001
    endloop
  endfacet
  facet normal -7.020831e-001 -7.120950e-001  0.000000e+000
    outer loop
      vertex  1.733606e+001  2.413586e+001  4.500000e+001
      vertex  1.910237e+001  2.239439e+001  4.400000e+001
      vertex  1.910237e+001  2.239439e+001  4.500000e+001
    endloop
  endfacet
  facet normal -9.653124e-001 -2.610978e-001  -0.000000e+000
    outer loop
      vertex  1.910237e+001  2.239439e+001  4.500000e+001
      vertex  1.910237e+001  2.239439e+001  4.400000e+001
      vertex  1.975000e+001  2.000000e+001  4.400000e+001
    endloop
  endfacet
  facet normal -9.653124e-001 -2.610978e-001  0.000000e+000
    outer loop
      vertex  1.910237e+001  2.239439e+001  4.500000e+001
      vertex  1.975000e+001  2.000000e+001  4.400000e+001
      vertex  1.975000e+001  2.000000e+001  4.500000e+001
    endloop
  endfacet
  facet normal -7.020831e-001 -7.120950e-001  -0.000000e+000
    outer loop
      vertex  1.910237e+001  2.239439e+001  4.400000e+001
      vertex  1.733606e+001  2.413586e+001  4.500000e+001
      vertex  1.733606e+001  2.413586e+001  4.400000e+001
    endloop
  endfacet
  facet normal -2.474035e-001 -9.689126e-001  0.000000e+000
    outer loop
      vertex  1.733606e+001  2.413586e+001  4.400000e+001
      vertex  1.733606e+001  2.413586e+001  4.500000e+001
      vertex  1.493275e+001  2.474952e+001  4.500000e+001
    endloop
  endfacet
  facet normal -2.474035e-001 -9.689126e-001  -0.000000e+000
    outer loop
      vertex  1.733606e+001  2.413586e+001  4.400000e+001
      vertex  1.493275e+001  2.474952e+001  4.500000e+001
      vertex  1.493275e+001  2.474952e+001  4.400000e+001
    endloop
  endfacet
  facet normal  2.747391e-001 -9.615188e-001  0.000000e+000
    outer loop
      vertex  1.493275e+001  2.474952e+001  4.400000e+001
      vertex  1.493275e+001  2.474952e+001  4.500000e+001
      vertex  1.254777e+001  2.406805e+001  4.500000e+001
    endloop
  endfacet
  facet normal  2.747391e-001 -9.615188e-001  0.000000e+000
    outer loop
      vertex  1.493275e+001  2.474952e+001  4.400000e+001
      vertex  1.254777e+001  2.406805e+001  4.500000e+001
      vertex  1.254777e+001  2.406805e+001  4.400000e+001
    endloop
  endfacet
  facet normal  7.219643e-001 -6.919303e-001  0.000000e+000
    outer loop
      vertex  1.254777e+001  2.406805e+001  4.400000e+001
      vertex  1.254777e+001  2.406805e+001  4.500000e+001
      vertex  1.083148e+001  2.227727e+001  4.500000e+001
    endloop
  endfacet
  facet normal  7.219643e-001 -6.919303e-001  0.000000e+000
    outer loop
      vertex  1.254777e+001  2.406805e+001  4.400000e+001
      vertex  1.083148e+001  2.227727e+001  4.500000e+001
      vertex  1.083148e+001  2.227727e+001  4.400000e+001
    endloop
  endfacet
  facet normal  9.689124e-001 -2.474040e-001  0.000000e+000
    outer loop
      vertex  1.025000e+001  2.000000e+001  4.400000e+001
      vertex  1.083148e+001  2.227727e+001  4.400000e+001
      vertex  1.025000e+001  2.000000e+001  4.500000e+001
    endloop
  endfacet
  facet normal  9.689124e-001 -2.474040e-001  0.000000e+000
    outer loop
      vertex  1.025000e+001  2.000000e+001  4.500000e+001
      vertex  1.083148e+001  2.227727e+001  4.400000e+001
      vertex  1.083148e+001  2.227727e+001  4.500000e+001
    endloop
  endfacet
  facet normal  0.000000e+000  0.000000e+000 -1.000000e+000
    outer loop
      vertex  1.025000e+001  0.000000e+000  4.200000e+001
      vertex  8.750000e+000  0.000000e+000  4.200000e+001
      vertex  1.025000e+001  2.000000e+001  4.200000e+001
    endloop
  endfacet
  facet normal  -0.000000e+000  0.000000e+000 -1.000000e+000
    outer loop
      vertex  1.025000e+001  2.000000e+001  4.200000e+001
      vertex  8.750000e+000  0.000000e+000  4.200000e+001
      vertex  8.750000e+000  2.000000e+001  4.200000e+001
    endloop
  endfacet
  facet normal -1.000000e+000  0.000000e+000  -0.000000e+000
    outer loop
      vertex  1.975000e+001 -1.421085e-014  4.200000e+001
      vertex  1.975000e+001  0.000000e+000  4.300000e+001
      vertex  1.975000e+001  2.000000e+001  4.200000e+001
    endloop
  endfacet
  facet normal -1.000000e+000  0.000000e+000  0.000000e+000
    outer loop
      vertex  1.975000e+001  2.000000e+001  4.200000e+001
      vertex  1.975000e+001  0.000000e+000  4.300000e+001
      vertex  1.975000e+001  2.000000e+001  4.300000e+001
    endloop
  endfacet
  facet normal  0.000000e+000  0.000000e+000  1.000000e+000
    outer loop
      vertex  8.750000e+000  0.000000e+000  4.300000e+001
      vertex  1.025000e+001  2.131628e-014  4.300000e+001
      vertex  8.750000e+000  2.000000e+001  4.300000e+001
    endloop
  endfacet
  facet normal  -0.000000e+000  0.000000e+000  1.000000e+000
    outer loop
      vertex  8.750000e+000  2.000000e+001  4.300000e+001
      vertex  1.025000e+001  2.131628e-014  4.300000e+001
      vertex  1.025000e+001  2.000000e+001  4.300000e+001
    endloop
  endfacet
  facet normal  0.000000e+000  0.000000e+000  1.000000e+000
    outer loop
      vertex  8.750000e+000  2.000000e+001  4.300000e+001
      vertex  1.025000e+001  2.000000e+001  4.300000e+001
      vertex  9.515109e+000  2.299641e+001  4.300000e+001
    endloop
  endfacet
  facet normal  0.000000e+000  0.000000e+000  9.999999e-001
    outer loop
      vertex  9.515109e+000  2.299641e+001  4.300000e+001
      vertex  1.025000e+001  2.000000e+001  4.300000e+001
      vertex  1.083148e+001  2.227727e+001  4.300000e+001
    endloop
  endfacet
  facet normal  0.000000e+000  -0.000000e+000  1.000000e+000
    outer loop
      vertex  9.515109e+000  2.299641e+001  4.300000e+001
      vertex  1.083148e+001  2.227727e+001  4.300000e+001
      vertex  1.131516e+001  2.504822e+001  4.300000e+001
    endloop
  endfacet
  facet normal  0.000000e+000  0.000000e+000  1.000000e+000
    outer loop
      vertex  1.131516e+001  2.504822e+001  4.300000e+001
      vertex  1.083148e+001  2.227727e+001  4.300000e+001
      vertex  1.254777e+001  2.406805e+001  4.300000e+001
    endloop
  endfacet
  facet normal  0.000000e+000  -0.000000e+000  1.000000e+000
    outer loop
      vertex  1.131516e+001  2.504822e+001  4.300000e+001
      vertex  1.254777e+001  2.406805e+001  4.300000e+001
      vertex  1.493275e+001  2.474952e+001  4.300000e+001
    endloop
  endfacet
  facet normal  0.000000e+000  0.000000e+000  1.000000e+000
    outer loop
      vertex  1.975000e+001  0.000000e+000  4.300000e+001
      vertex  2.125000e+001  0.000000e+000  4.300000e+001
      vertex  1.975000e+001  2.000000e+001  4.300000e+001
    endloop
  endfacet
  facet normal  -0.000000e+000  0.000000e+000  1.000000e+000
    outer loop
      vertex  1.975000e+001  2.000000e+001  4.300000e+001
      vertex  2.125000e+001  0.000000e+000  4.300000e+001
      vertex  2.125000e+001  2.000000e+001  4.300000e+001
    endloop
  endfacet
  facet normal  0.000000e+000  0.000000e+000  1.000000e+000
    outer loop
      vertex  1.975000e+001  2.000000e+001  4.300000e+001
      vertex  2.125000e+001  2.000000e+001  4.300000e+001
      vertex  1.910237e+001  2.239439e+001  4.300000e+001
    endloop
  endfacet
  facet normal  -0.000000e+000  0.000000e+000  1.000000e+000
    outer loop
      vertex  1.910237e+001  2.239439e+001  4.300000e+001
      vertex  2.125000e+001  2.000000e+001  4.300000e+001
      vertex  2.065399e+001  2.266362e+001  4.300000e+001
    endloop
  endfacet
  facet normal  0.000000e+000  0.000000e+000  1.000000e+000
    outer loop
      vertex  1.910237e+001  2.239439e+001  4.300000e+001
      vertex  2.065399e+001  2.266362e+001  4.300000e+001
      vertex  1.733606e+001  2.413586e+001  4.300000e+001
    endloop
  endfacet
  facet normal  -0.000000e+000  0.000000e+000  1.000000e+000
    outer loop
      vertex  1.733606e+001  2.413586e+001  4.300000e+001
      vertex  2.065399e+001  2.266362e+001  4.300000e+001
      vertex  1.897964e+001  2.481923e+001  4.300000e+001
    endloop
  endfacet
  facet normal  0.000000e+000  0.000000e+000  1.000000e+000
    outer loop
      vertex  1.733606e+001  2.413586e+001  4.300000e+001
      vertex  1.897964e+001  2.481923e+001  4.300000e+001
      vertex  1.493275e+001  2.474952e+001  4.300000e+001
    endloop
  endfacet
  facet normal  0.000000e+000  0.000000e+000  1.000000e+000
    outer loop
      vertex  1.493275e+001  2.474952e+001  4.300000e+001
      vertex  1.897964e+001  2.481923e+001  4.300000e+001
      vertex  1.131516e+001  2.504822e+001  4.300000e+001
    endloop
  endfacet
  facet normal  -0.000000e+000  0.000000e+000  1.000000e+000
    outer loop
      vertex  1.131516e+001  2.504822e+001  4.300000e+001
      vertex  1.897964e+001  2.481923e+001  4.300000e+001
      vertex  1.654627e+001  2.605570e+001  4.300000e+001
    endloop
  endfacet
  facet normal  0.000000e+000  0.000000e+000  1.000000e+000
    outer loop
      vertex  1.131516e+001  2.504822e+001  4.300000e+001
      vertex  1.654627e+001  2.605570e+001  4.300000e+001
      vertex  1.381800e+001  2.613721e+001  4.300000e+001
    endloop
  endfacet
  facet normal  0.000000e+000  1.000000e+000  0.000000e+000
    outer loop
      vertex  1.000000e+002  1.000000e+001  4.000000e+000
      vertex  1.000000e+002  1.000000e+001  1.400000e+001
      vertex  1.300000e+002  1.000000e+001  4.000000e+000
    endloop
  endfacet
  facet normal  0.000000e+000  1.000000e+000  -0.000000e+000
    outer loop
      vertex  1.300000e+002  1.000000e+001  4.000000e+000
      vertex  1.000000e+002  1.000000e+001  1.400000e+001
      vertex  1.300000e+002  1.000000e+001  1.400000e+001
    endloop
  endfacet
  facet normal -1.000000e+000  0.000000e+000  0.000000e+000
    outer loop
      vertex  2.125000e+001  2.000000e+001  4.200000e+001
      vertex  2.125000e+001  2.000000e+001  1.400000e+001
      vertex  2.125000e+001  0.000000e+000  4.200000e+001
    endloop
  endfacet
  facet normal -1.000000e+000  0.000000e+000  0.000000e+000
    outer loop
      vertex  2.125000e+001  0.000000e+000  4.200000e+001
      vertex  2.125000e+001  2.000000e+001  1.400000e+001
      vertex  2.125000e+001  1.000000e+001  1.400000e+001
    endloop
  endfacet
  facet normal -1.000000e+000  -0.000000e+000  0.000000e+000
    outer loop
      vertex  2.125000e+001  0.000000e+000  4.200000e+001
      vertex  2.125000e+001  1.000000e+001  1.400000e+001
      vertex  2.125000e+001  0.000000e+000  4.000000e+000
    endloop
  endfacet
  facet normal -1.000000e+000  0.000000e+000  0.000000e+000
    outer loop
      vertex  2.125000e+001  0.000000e+000  4.000000e+000
      vertex  2.125000e+001  1.000000e+001  1.400000e+001
      vertex  2.125000e+001  1.000000e+001  4.000000e+000
    endloop
  endfacet
  facet normal  0.000000e+000  0.000000e+000  1.000000e+000
    outer loop
      vertex  1.300000e+002  6.000000e+000  1.800000e+001
      vertex  8.000000e+001  9.000000e+000  1.800000e+001
      vertex  3.000000e+001  6.000000e+000  1.800000e+001
    endloop
  endfacet
  facet normal  0.000000e+000  0.000000e+000  1.000000e+000
    outer loop
      vertex  3.000000e+001  6.000000e+000  1.800000e+001
      vertex  8.000000e+001  9.000000e+000  1.800000e+001
      vertex  8.000000e+001  1.900000e+001  1.800000e+001
    endloop
  endfacet
  facet normal  0.000000e+000  0.000000e+000  1.000000e+000
    outer loop
      vertex  3.000000e+001  6.000000e+000  1.800000e+001
      vertex  8.000000e+001  1.900000e+001  1.800000e+001
      vertex  3.000000e+001  2.400000e+001  1.800000e+001
    endloop
  endfacet
  facet normal  0.000000e+000  0.000000e+000  1.000000e+000
    outer loop
      vertex  8.000000e+001  9.000000e+000  1.800000e+001
      vertex  1.300000e+002  6.000000e+000  1.800000e+001
      vertex  1.000000e+002  9.000000e+000  1.800000e+001
    endloop
  endfacet
  facet normal  -0.000000e+000  0.000000e+000  1.000000e+000
    outer loop
      vertex  1.000000e+002  9.000000e+000  1.800000e+001
      vertex  1.300000e+002  6.000000e+000  1.800000e+001
      vertex  1.300000e+002  2.400000e+001  1.800000e+001
    endloop
  endfacet
  facet normal  0.000000e+000  0.000000e+000  1.000000e+000
    outer loop
      vertex  1.000000e+002  9.000000e+000  1.800000e+001
      vertex  1.300000e+002  2.400000e+001  1.800000e+001
      vertex  1.000000e+002  1.900000e+001  1.800000e+001
    endloop
  endfacet
  facet normal  0.000000e+000  -0.000000e+000  1.000000e+000
    outer loop
      vertex  1.000000e+002  1.900000e+001  1.800000e+001
      vertex  1.300000e+002  2.400000e+001  1.800000e+001
      vertex  3.000000e+001  2.400000e+001  1.800000e+001
    endloop
  endfacet
  facet normal  0.000000e+000  0.000000e+000  1.000000e+000
    outer loop
      vertex  1.000000e+002  1.900000e+001  1.800000e+001
      vertex  3.000000e+001  2.400000e+001  1.800000e+001
      vertex  8.000000e+001  1.900000e+001  1.800000e+001
    endloop
  endfacet
  facet normal  0.000000e+000  1.000000e+000  0.000000e+000
    outer loop
      vertex  2.125000e+001  1.000000e+001  4.000000e+000
      vertex  2.125000e+001  1.000000e+001  1.400000e+001
      vertex  8.000000e+001  1.000000e+001  4.000000e+000
    endloop
  endfacet
  facet normal  0.000000e+000  1.000000e+000  -0.000000e+000
    outer loop
      vertex  8.000000e+001  1.000000e+001  4.000000e+000
      vertex  2.125000e+001  1.000000e+001  1.400000e+001
      vertex  8.000000e+001  1.000000e+001  1.400000e+001
    endloop
  endfacet
  facet normal  0.000000e+000  1.000000e+000  0.000000e+000
    outer loop
      vertex  3.000000e+001  2.400000e+001  1.800000e+001
      vertex  1.300000e+002  2.400000e+001  1.800000e+001
      vertex  3.000000e+001  2.400000e+001  0.000000e+000
    endloop
  endfacet
  facet normal  -0.000000e+000  1.000000e+000  0.000000e+000
    outer loop
      vertex  3.000000e+001  2.400000e+001  0.000000e+000
      vertex  1.300000e+002  2.400000e+001  1.800000e+001
      vertex  1.300000e+002  2.400000e+001 -4.440892e-016
    endloop
  endfacet
  facet normal  1.000000e+000  0.000000e+000  0.000000e+000
    outer loop
      vertex  8.000000e+001  1.900000e+001  0.000000e+000
      vertex  8.000000e+001  1.900000e+001  4.000000e+000
      vertex  8.000000e+001  9.000000e+000  0.000000e+000
    endloop
  endfacet
  facet normal  1.000000e+000  0.000000e+000  0.000000e+000
    outer loop
      vertex  8.000000e+001  9.000000e+000  0.000000e+000
      vertex  8.000000e+001  1.900000e+001  4.000000e+000
      vertex  8.000000e+001  1.000000e+001  4.000000e+000
    endloop
  endfacet
  facet normal  1.000000e+000  0.000000e+000  0.000000e+000
    outer loop
      vertex  8.000000e+001  9.000000e+000  0.000000e+000
      vertex  8.000000e+001  1.000000e+001  4.000000e+000
      vertex  8.000000e+001  9.000000e+000  1.800000e+001
    endloop
  endfacet
  facet normal  1.000000e+000  0.000000e+000  0.000000e+000
    outer loop
      vertex  8.000000e+001  9.000000e+000  1.800000e+001
      vertex  8.000000e+001  1.000000e+001  4.000000e+000
      vertex  8.000000e+001  1.000000e+001  1.400000e+001
    endloop
  endfacet
  facet normal  1.000000e+000  0.000000e+000  -0.000000e+000
    outer loop
      vertex  8.000000e+001  9.000000e+000  1.800000e+001
      vertex  8.000000e+001  1.000000e+001  1.400000e+001
      vertex  8.000000e+001  1.900000e+001  1.800000e+001
    endloop
  endfacet
  facet normal  1.000000e+000  0.000000e+000  0.000000e+000
    outer loop
      vertex  8.000000e+001  1.900000e+001  1.800000e+001
      vertex  8.000000e+001  1.000000e+001  1.400000e+001
      vertex  8.000000e+001  1.900000e+001  1.400000e+001
    endloop
  endfacet
  facet normal -4.440892e-018 -6.217249e-017 -1.000000e+000
    outer loop
      vertex  3.000000e+001  2.400000e+001  0.000000e+000
      vertex  1.300000e+002  2.400000e+001 -4.440892e-016
      vertex  1.000000e+002  1.900000e+001  0.000000e+000
    endloop
  endfacet
  facet normal  0.000000e+000  0.000000e+000 -1.000000e+000
    outer loop
      vertex  3.000000e+001  2.400000e+001  0.000000e+000
      vertex  1.000000e+002  1.900000e+001  0.000000e+000
      vertex  8.000000e+001  1.900000e+001  0.000000e+000
    endloop
  endfacet
  facet normal  -0.000000e+000  0.000000e+000 -1.000000e+000
    outer loop
      vertex  3.000000e+001  2.400000e+001  0.000000e+000
      vertex  8.000000e+001  1.900000e+001  0.000000e+000
      vertex  3.000000e+001  6.000000e+000  0.000000e+000
    endloop
  endfacet
  facet normal  0.000000e+000  0.000000e+000 -1.000000e+000
    outer loop
      vertex  3.000000e+001  2.400000e+001  0.000000e+000
      vertex  3.000000e+001  6.000000e+000  0.000000e+000
      vertex  4.263256e-014  3.000000e+001  0.000000e+000
    endloop
  endfacet
  facet normal  0.000000e+000  0.000000e+000 -1.000000e+000
    outer loop
      vertex  3.000000e+001  2.400000e+001  0.000000e+000
      vertex  4.263256e-014  3.000000e+001  0.000000e+000
      vertex  3.000000e+001  3.000000e+001  0.000000e+000
    endloop
  endfacet
  facet normal  -0.000000e+000  0.000000e+000 -1.000000e+000
    outer loop
      vertex  8.000000e+001  1.900000e+001  0.000000e+000
      vertex  8.000000e+001  9.000000e+000  0.000000e+000
      vertex  3.000000e+001  6.000000e+000  0.000000e+000
    endloop
  endfacet
  facet normal  0.000000e+000  0.000000e+000 -1.000000e+000
    outer loop
      vertex  3.000000e+001  6.000000e+000  0.000000e+000
      vertex  8.000000e+001  9.000000e+000  0.000000e+000
      vertex  1.000000e+002  9.000000e+000  0.000000e+000
    endloop
  endfacet
  facet normal  0.000000e+000  -0.000000e+000 -1.000000e+000
    outer loop
      vertex  3.000000e+001  6.000000e+000  0.000000e+000
      vertex  1.000000e+002  9.000000e+000  0.000000e+000
      vertex  1.300000e+002  6.000000e+000  0.000000e+000
    endloop
  endfacet
  facet normal  0.000000e+000  0.000000e+000 -1.000000e+000
    outer loop
      vertex  1.300000e+002  6.000000e+000  0.000000e+000
      vertex  1.000000e+002  9.000000e+000  0.000000e+000
      vertex  1.000000e+002  1.900000e+001  0.000000e+000
    endloop
  endfacet
  facet normal -1.069104e-017 -2.467162e-017 -1.000000e+000
    outer loop
      vertex  1.300000e+002  6.000000e+000  0.000000e+000
      vertex  1.000000e+002  1.900000e+001  0.000000e+000
      vertex  1.300000e+002  2.400000e+001 -4.440892e-016
    endloop
  endfacet
  facet normal  0.000000e+000  -0.000000e+000 -1.000000e+000
    outer loop
      vertex  0.000000e+000  0.000000e+000  0.000000e+000
      vertex  4.263256e-014  3.000000e+001  0.000000e+000
      vertex  3.000000e+001  0.000000e+000  0.000000e+000
    endloop
  endfacet
  facet normal  0.000000e+000  0.000000e+000 -1.000000e+000
    outer loop
      vertex  3.000000e+001  0.000000e+000  0.000000e+000
      vertex  4.263256e-014  3.000000e+001  0.000000e+000
      vertex  3.000000e+001  6.000000e+000  0.000000e+000
    endloop
  endfacet
  facet normal  0.000000e+000 -1.000000e+000  0.000000e+000
    outer loop
      vertex  8.000000e+001  1.900000e+001  0.000000e+000
      vertex  1.000000e+002  1.900000e+001  0.000000e+000
      vertex  8.000000e+001  1.900000e+001  4.000000e+000
    endloop
  endfacet
  facet normal  0.000000e+000 -1.000000e+000  0.000000e+000
    outer loop
      vertex  8.000000e+001  1.900000e+001  4.000000e+000
      vertex  1.000000e+002  1.900000e+001  0.000000e+000
      vertex  1.000000e+002  1.900000e+001  4.000000e+000
    endloop
  endfacet
endsolid CATIA STL
